/* XPM */
static char *ellipse[] = {
/* width height num_colors chars_per_pixel */
"    36    36      182            2",
/* colors */
"`` c #796538",
"`. c #79653c",
"`# c #7d693c",
"`a c #756948",
"`b c #796944",
"`c c #7d6d4c",
"`d c #756950",
"`e c #7d714c",
"`f c #797159",
"`g c #7d7159",
"`h c #716d65",
"`i c #756d61",
"`j c #757165",
"`k c #71716d",
"`l c #797165",
"`m c #797569",
"`n c #79756d",
"`o c #757571",
"`p c #797571",
"`q c #797575",
"`r c #797975",
"`s c #7d7975",
"`t c #7d7979",
"`u c #7d7d79",
"`v c #856518",
"`w c #85651c",
"`x c #896514",
"`y c #8d6514",
"`z c #896518",
"`A c #916914",
"`B c #956d14",
"`C c #95711c",
"`D c #997114",
"`E c #997518",
"`F c #816524",
"`G c #856520",
"`H c #856524",
"`I c #81652c",
"`J c #896920",
"`K c #896924",
"`L c #896d30",
"`M c #916d24",
"`N c #a17914",
"`O c #a17918",
"`P c #a57d18",
"`Q c #816d44",
"`R c #817148",
"`S c #8d7540",
"`T c #817150",
"`U c #897950",
"`V c #817961",
"`W c #857961",
"`X c #aa8118",
"`Y c #b28518",
"`Z c #b68918",
"`0 c #ba8d18",
"`1 c #be8d18",
"`2 c #be8d1c",
"`3 c #aa852c",
"`4 c #ae892c",
"`5 c #b2913c",
"`6 c #9d8548",
"`7 c #99855d",
"`8 c #81817d",
".` c #898171",
".. c #898579",
".# c #958561",
".a c #958d75",
".b c #958d7d",
".c c #a18540",
".d c #b29544",
".e c #b69d5d",
".f c #baa169",
".g c #c2911c",
".h c #ca991c",
".i c #ce9d1c",
".j c #c29524",
".k c #c69928",
".l c #d2a11c",
".m c #d6a11c",
".n c #daa51c",
".o c #cea12c",
".p c #d6a524",
".q c #d6aa28",
".r c #deaa20",
".s c #d2a538",
".t c #e2ae20",
".u c #eab220",
".v c #eeb620",
".w c #eeb624",
".x c #eeb628",
".y c #eaba2c",
".z c #e6ba3c",
".A c #eaba38",
".B c #c6a144",
".C c #caaa55",
".D c #daba5d",
".E c #daba69",
".F c #dabe6d",
".G c #d2ba75",
".H c #dabe75",
".I c #e6ba44",
".J c #e2be55",
".K c #e2be61",
".L c #898581",
".M c #898585",
".N c #898985",
".O c #8d8985",
".P c #8d8989",
".Q c #8d8d89",
".R c #918d85",
".S c #918d89",
".T c #918d8d",
".U c #95918d",
".V c #959191",
".W c #959591",
".X c #999591",
".Y c #999995",
".Z c #9d9995",
".0 c #9d9d95",
".1 c #9d9d99",
".2 c #a19d99",
".3 c #aaa189",
".4 c #aea589",
".5 c #a1a19d",
".6 c #a5a19d",
".7 c #aaa191",
".8 c #b2a591",
"#` c #a5a5a1",
"#. c #aaa5a1",
"## c #aaaaa5",
"#a c #aeaaa5",
"#b c #aeaeaa",
"#c c #b2aeaa",
"#d c #b6b2a5",
"#e c #b2b2ae",
"#f c #b6b2ae",
"#g c #b6b6ae",
"#h c #bab6aa",
"#i c #b6b6b2",
"#j c #bab6b2",
"#k c #babab2",
"#l c #babab6",
"#m c #bebab6",
"#n c #bebeb6",
"#o c #bebeba",
"#p c #c2b289",
"#q c #ceba81",
"#r c #ceba89",
"#s c #c2b295",
"#t c #cabe99",
"#u c #c6beaa",
"#v c #cabea1",
"#w c #c2beb6",
"#x c #c2beba",
"#y c #d6c285",
"#z c #d6c28d",
"#A c #dac285",
"#B c #dac691",
"#C c #dac699",
"#D c #c6c2b6",
"#E c #c2c2ba",
"#F c #c2c2be",
"#G c #c6c2ba",
"#H c #c6c2be",
"#I c #c6c6be",
"#J c #cac6be",
"#K c #d2c6a1",
"#L c #d2c6a5",
"#M c #d2caae",
"#N c #d6cab2",
"#O c #d6cab6",
"#P c #d2caba",
"#Q c #cac6c2",
"#R c #cacac2",
"#S c #cecac6",
"#T c #cecec6",
"#U c #d2cec2",
"#V c #d2cec6",
"#W c #d2ceca",
"#X c #d2d2ca",
"#Y c None",
/* pixels */
"#Y#Y#Y#Y#Y#Y#Y#Y#Y#Y#Y#Y#Y#Y#Y#Y#Y#Y#Y#Y#Y#Y#Y#Y#Y#Y#Y#Y#Y#Y#Y#Y#Y#Y#Y#Y",
"#Y#Y#Y#Y#Y#Y#Y#Y#Y#Y#Y#Y#Y#Y#Y#Y#X#X#X#X#X#Y#Y#Y#Y#Y#Y#Y#Y#Y#Y#Y#Y#Y#Y#Y",
"#Y#Y#Y#Y#Y#Y#Y#Y#Y#Y#Y#Y#X#W#W#W#T#S#S#S#T#W#W#X#X#Y#Y#Y#Y#Y#Y#Y#Y#Y#Y#Y",
"#Y#Y#Y#Y#Y#Y#Y#Y#Y#Y#X#U#M#K#y.H.D.G#q#t#u#G#Q#S#T#W#X#Y#Y#Y#Y#Y#Y#Y#Y#Y",
"#Y#Y#Y#Y#Y#Y#Y#Y#X#U#A.I.y.x.v.u.t.r.n.p.o.B#p#w#H#R#S#W#X#Y#Y#Y#Y#Y#Y#Y",
"#Y#Y#Y#Y#Y#Y#Y#X#N.K.w.v.v.v.u.t.r.n.m.l.i.h.j.e#d#o#I#S#W#X#Y#Y#Y#Y#Y#Y",
"#Y#Y#Y#Y#Y#Y#X#B.z.v.v.v.v.u.t.r.n.m.l.i.h.g`1`0`5.4#j#F#R#W#X#Y#Y#Y#Y#Y",
"#Y#Y#Y#Y#Y#X#C.y.v.v.v.v.u.t.r.n.m.l.i.h.g`1`0`Z`Y`3.7#i#x#R#W#X#Y#Y#Y#Y",
"#Y#Y#Y#Y#X#O.I.v.v.v.v.u.t.r.n.m.l.i.h.g`1`0`Z`Y`X`P`6.6#f#E#S#W#X#Y#Y#Y",
"#Y#Y#Y#Y#V.K.v.v.v.v.u.t.r.n.m.l.i.h.g`1`0`Z`Y`X`P`N`E.##.#j#H#S#X#Y#Y#Y",
"#Y#Y#Y#X#B.x.v.v.v.u.t.r.n.m.l.i.h.g`1`0`Z`Y`X`P`N`D`B`M.b#a#m#Q#T#X#Y#Y",
"#Y#Y#Y#V.J.v.v.v.u.t.r.n.m.l.i.h.g`1`0`Z`Y`X`P`N`D`B`A`y`U.2#c#x#S#W#Y#Y",
"#Y#Y#X#P.A.v.v.u.t.r.n.m.l.i.h.g`1`0`Z`Y`X`P`N`D`B`A`y`x`L.U#.#l#Q#W#X#Y",
"#Y#Y#X#L.x.v.u.t.r.n.m.l.i.h.g`1`0`Z`Y`X`P`N`D`B`A`y`x`x`J...2#f#F#S#X#Y",
"#Y#Y#W#z.v.u.t.r.n.m.l.i.h.g`1`0`Z`Y`X`P`N`D`B`A`y`x`x`x`x`W.W#a#o#R#W#Y",
"#Y#X#W.F.u.t.r.n.m.l.i.h.g`1`0`Z`Y`X`P`N`D`B`A`y`x`x`x`x`x`R.S#.#l#Q#W#Y",
"#Y#X#T.E.t.r.n.m.l.i.h.g`1`0`Z`Y`X`P`N`D`B`A`y`x`x`x`x`x`x`Q.O.6#j#I#W#X",
"#Y#X#S#r.r.n.m.l.i.h.g`1`0`Z`Y`X`P`N`D`B`A`y`x`x`x`x`x`x`x`g.N.2#i#H#T#X",
"#Y#X#S#v.q.m.l.i.h.g`1`0`Z`Y`X`P`N`D`B`A`y`x`x`x`x`x`x`x`w`m.N.2#i#H#T#X",
"#Y#X#T#D.s.l.i.h.g`1`0`Z`Y`X`P`N`D`B`A`y`x`x`x`x`x`x`x`x`I`p.O.6#j#I#W#X",
"#Y#X#W#J.C.i.h.g`1`0`Z`Y`X`P`N`D`B`A`y`x`x`x`x`x`x`x`x`x`b`t.T#.#l#Q#W#Y",
"#Y#Y#W#Q#s.k.g`1`0`Z`Y`X`P`N`D`B`A`y`x`x`x`x`x`x`x`x`x`F`j`8.X#a#o#S#W#Y",
"#Y#Y#X#S#x.f`2`0`Z`Y`X`P`N`D`B`A`y`x`x`x`x`x`x`x`x`x`v`d`q.N.2#f#H#S#X#Y",
"#Y#Y#X#T#I#h.d`Z`Y`X`P`N`D`B`A`y`x`x`x`x`x`x`x`x`x`x`.`k`8.V###m#Q#W#X#Y",
"#Y#Y#Y#W#R#x.8`4`X`P`N`D`B`A`y`x`x`x`x`x`x`x`x`x`x`I`h`u.Q.5#f#F#S#X#Y#Y",
"#Y#Y#Y#X#T#Q#l.3.c`O`D`B`A`y`x`x`x`x`x`x`x`x`x`z```h`r.N.Z#b#n#Q#W#X#Y#Y",
"#Y#Y#Y#Y#W#S#H#i.6`7`C`A`y`x`x`x`x`x`x`x`x`x`G`a`k`t.N.Y###l#I#S#X#Y#Y#Y",
"#Y#Y#Y#Y#X#W#R#E#f#`.a`S`K`z`x`x`x`x`x`w`H`#`i`o`8.P.Z###j#H#S#W#Y#Y#Y#Y",
"#Y#Y#Y#Y#Y#X#W#R#E#i##.0.R.``V`T`e`c`f`l`n`s`8.N.U.2#a#j#H#S#W#X#Y#Y#Y#Y",
"#Y#Y#Y#Y#Y#Y#X#W#R#H#l#c#`.Z.U.Q.N.M.L.M.O.S.W.1#.#e#m#H#S#W#X#Y#Y#Y#Y#Y",
"#Y#Y#Y#Y#Y#Y#Y#X#W#S#Q#x#j#c###`.5.2.2.2.5#`#a#f#l#E#Q#S#W#X#Y#Y#Y#Y#Y#Y",
"#Y#Y#Y#Y#Y#Y#Y#Y#X#W#T#S#I#E#n#k#j#f#f#g#j#l#o#F#Q#S#W#X#Y#Y#Y#Y#Y#Y#Y#Y",
"#Y#Y#Y#Y#Y#Y#Y#Y#Y#Y#X#W#T#S#R#Q#I#H#H#H#I#Q#R#S#W#W#X#Y#Y#Y#Y#Y#Y#Y#Y#Y",
"#Y#Y#Y#Y#Y#Y#Y#Y#Y#Y#Y#Y#X#X#W#W#W#T#T#T#W#W#W#X#X#Y#Y#Y#Y#Y#Y#Y#Y#Y#Y#Y",
"#Y#Y#Y#Y#Y#Y#Y#Y#Y#Y#Y#Y#Y#Y#Y#Y#Y#X#X#X#Y#Y#Y#Y#Y#Y#Y#Y#Y#Y#Y#Y#Y#Y#Y#Y",
"#Y#Y#Y#Y#Y#Y#Y#Y#Y#Y#Y#Y#Y#Y#Y#Y#Y#Y#Y#Y#Y#Y#Y#Y#Y#Y#Y#Y#Y#Y#Y#Y#Y#Y#Y#Y"
};
