/* XPM */
static char *erase[] = {
/* width height num_colors chars_per_pixel */
"    36    36      128            2",
/* colors */
"`` c #796d50",
"`. c #7d7155",
"`# c #797161",
"`a c #797975",
"`b c #8d650c",
"`c c #8d6510",
"`d c #916914",
"`e c #95711c",
"`f c #856924",
"`g c #997934",
"`h c #857559",
"`i c #857169",
"`j c #817979",
"`k c #917161",
"`l c #aa6948",
"`m c #be6540",
"`n c #ae7965",
"`o c #ca6538",
"`p c #da612c",
"`q c #c26d44",
"`r c #ca7148",
"`s c #c27959",
"`t c #da6d40",
"`u c #da7544",
"`v c #de7d50",
"`w c #e27548",
"`x c #e67d50",
"`y c #be8908",
"`z c #be8910",
"`A c #8d816d",
"`B c #81817d",
"`C c #918569",
"`D c #a59161",
"`E c #aa9979",
"`F c #c28908",
"`G c #c69108",
"`H c #c69110",
"`I c #d29910",
"`J c #c29124",
"`K c #daa114",
"`L c #deaa28",
"`M c #e6ae1c",
"`N c #eab21c",
"`O c #eab620",
"`P c #f2ba24",
"`Q c #f2be30",
"`R c #ce815d",
"`S c #ca8569",
"`T c #da8965",
"`U c #da9175",
"`V c #e28155",
"`W c #e68961",
"`X c #f29d79",
"`Y c #eebe40",
"`Z c #e2be55",
"`0 c #f2a17d",
"`1 c #dec27d",
"`2 c #e6c255",
"`3 c #898585",
"`4 c #918d89",
"`5 c #95918d",
"`6 c #959591",
"`7 c #a1958d",
"`8 c #a59d95",
".` c #a1a19d",
".. c #b6a585",
".# c #b6aa95",
".a c #b6aaa5",
".b c #b2b2ae",
".c c #da9d85",
".d c #c2aa9d",
".e c #cab689",
".f c #c6b6ae",
".g c #c6bab2",
".h c #eea585",
".i c #e6aa91",
".j c #e6b29d",
".k c #f2a585",
".l c #f6b291",
".m c #eabeae",
".n c #d6c285",
".o c #cec6ae",
".p c #d2c6aa",
".q c #d2c6b6",
".r c #e2ce95",
".s c #eec6b6",
".t c #e6d2a5",
".u c #d2cec6",
".v c None",
".w c #d6d6d2",
".x c #e2deda",
".y c #e2e2de",
".z c #e6e6e6",
".A c #f2f2ee",
".B c #f6f6f2",
".C c #b2b2b2",
".D c #bab6b2",
".E c #babab2",
".F c #bebeba",
".G c #d26534",
".H c #de6530",
".I c #da6934",
".J c #de6938",
".K c #e69571",
".L c #ea9571",
".M c #ee9971",
".N c #ee9d79",
".O c #c6c2c2",
".P c #cac6c2",
".Q c #cacac2",
".R c #cecece",
".S c #916504",
".T c #916508",
".U c #916908",
".V c #996d04",
".W c #a1a1a1",
".X c #aaa5a1",
".Y c #aeaaa5",
".Z c #aaaaaa",
".0 c #d6c295",
".1 c #d6c299",
".2 c #deca95",
".3 c #daca9d",
".4 c #c2c2ba",
".5 c #cac2be",
".6 c #cecabe",
".7 c #ea9169",
".8 c #000000",
/* pixels */
".v.v.v.v.v.v.v.v.v.v.v.v.v.v.v.v.v.v.v.v.v.v.v.v.v.v.v.v.v.v.v.v.v.v.v.v",
".v.v.v.v.v.v.v.v.v.v.v.v.v.v.v.v.v.v.v.v.v.v.v.v.v.v.v.v.v.v.v.v.v.v.v.v",
".v.v.v.v.v.v.v.v.v.v.v.v.v.v.v.v.v.v.v.v.v.v.v.u.u.u.u.v.v.v.v.v.v.v.v.v",
".v.v.v.v.v.v.v.v.v.v.v.v.v.v.v.v.v.v.v.v.v.u.u.u.3.u.u.u.u.v.v.v.v.v.v.v",
".v.v.v.v.v.v.v.v.v.v.v.v.v.v.v.v.v.v.v.v.u.u.6`2`P.n.P.u.u.u.v.v.v.v.v.v",
".v.v.v.v.v.v.v.v.v.v.v.v.v.v.v.v.v.v.v.u.u.o`2`Q`P`Z.E.4.u.u.u.v.v.v.v.v",
".v.v.v.v.v.v.v.v.v.v.v.v.v.v.v.v.v.v.u.u.o`Y`Q`P`P`Q.#.E.4.u.u.v.v.v.v.v",
".v.v.v.v.v.v.v.v.v.v.v.v.v.v.v.v.v.u.u.o`Y`Q`P`P`P`K`J.#.E.4.u.u.v.v.v.v",
".v.v.v.v.v.v.v.v.v.v.v.v.v.v.v.v.u.u.p`Y`Q`P`P`P`K`G`F`H...E.P.u.u.u.v.v",
".v.v.v.v.v.v.v.v.v.v.v.v.v.v.v.u.u.1`Q`Q`P`P`O`I`F`F`F`F`z`E.E.4.u.u.u.v",
".v.v.v.v.v.v.v.v.v.v.v.v.v.v.u.u.1`Q`Q`P`P`O`I`F`F`F`F`y.V.U`g`E.g.Q.u.u",
".v.v.v.v.v.v.v.v.v.v.v.v.v.u.u.0`Q`Q`P`P`N`I`F`F`F`F`y.V`b.S`b`b`D.4.u.u",
".v.v.v.v.v.v.v.v.v.v.v.v.u.u`1`Q`P`P`P`O`H`F`F`F`F`y.V`b.S.S`b`b`E.E.4.u",
".v.v.v.v.v.v.v.v.v.v.u.u.u`1`Q`P`P`P`M`H`y`F`F`F`y.V`b.S.S`b`b`A.`.b.4.u",
".v.v.v.v.v.v.v.v.v.u.u.u.o`Q`P`P`P`M`G`y`F`F`F`y.V`b.S.S`b`b`h`4.`.b.4.u",
".v.v.v.v.v.v.v.v.u.u.u.w.y.r`Q`P`M`G`F`F`F`F`y.V`b.S.S`b`b```B`5.X.D.4.u",
".v.v.v.v.v.v.v.u.u.u.w.y.z.A.t`L`G`F`F`F`F`y.V.S.S.S`b`b```j`4.`.b.g.Q.u",
".v.v.v.v.v.v.u.u.u.w.y.A.A.B.A.r`H`F`F`F`y.V.S.S.S.S`b```j`4`8.a.E.P.u.u",
".v.v.v.v.v.u.u.5.q.y.A.A.B.B.A.x.n`H`F`y.V.S.S.S.S`c`#`j`4`8.a.E.P.u.u.v",
".v.v.v.v.u.u.5`U`W.m.A.B.B.A.z.x.w.e`z.V.S.S.S.S`c`#`B`4`8.a.E.P.u.u.v.v",
".v.v.v.u.u.g`U`W.L`X.s.A.A.z.x.w.v.O..`e.S.S.S`c`#`B`4`8.a.E.P.u.u.v.v.v",
".v.v.u.u.g`T`W.L.h.l.h.j.x.x.w.v.O.F.b`7`e.S`c`#`B`4.`.a.E.P.u.u.v.v.v.v",
".v.v.u.u`T`x.M.h.l.l`0.K.c.v.v.O.F.C.Z.``A`f`#`B`4.`.a.F.P.u.u.v.v.v.v.v",
".v.u.u.5`v`x`X.l.l.h`X.7`V`S.4.F.C.Z.``5`a`a`B`5.`.b.F.P.u.u.v.v.v.v.v.v",
".v.u.u.f`v.7`X.l`0`X.7`W`x`v`R.a.Z.``5`a`a`3`6.X.b.g.P.u.u.v.v.v.v.v.v.v",
".v.u.u.f.K`0.l`0.L.7`W`x`x`w`t`r`7`3`a`B`4.`.Y.D.4.P.u.u.v.v.v.v.v.v.v.v",
".v.u.u.g.d.i.h`X`W`V`x`x`w`w`t.I`l`a`B`4.`.b.E.4.u.u.u.v.v.v.v.v.v.v.v.v",
".v.u.u.4.b`8`U`W`W`v`w`w`w`t.I.G`k`B`4.`.b.E.P.u.u.u.v.v.v.v.v.v.v.v.v.v",
".v.u.u.4.E.X`7`S`v`w`t.J.J.I`o`i`B`5.`.b.g.P.u.u.v.v.v.v.v.v.v.v.v.v.v.v",
".v.v.u.u.4.b.``5`s`t.J`p`p`m`i`B`4.`.b.g.P.u.u.v.v.v.v.v.v.v.v.v.v.v.v.v",
".v.v.u.u.P.g.b.``5`n`q`m`l`j`B`5.`.b.g.P.u.u.v.v.v.v.v.v.v.v.v.v.v.v.v.v",
".v.v.v.u.u.P.g.b.X`6`4`3`3`4`6.X.b.g.P.u.u.v.v.v.v.v.v.v.v.v.v.v.v.v.v.v",
".v.v.v.v.u.u.Q.4.D.a.`.``8.`.Y.D.g.P.u.u.v.v.v.v.v.v.v.v.v.v.v.v.v.v.v.v",
".v.v.v.v.v.u.u.u.4.g.D.b.b.D.E.4.u.u.u.v.v.v.v.v.v.v.v.v.v.v.v.v.v.v.v.v",
".v.v.v.v.v.v.u.u.u.Q.P.4.4.4.P.u.u.u.v.v.v.v.v.v.v.v.v.v.v.v.v.v.v.v.v.v",
".v.v.v.v.v.v.v.v.u.u.u.u.u.u.u.u.v.v.v.v.v.v.v.v.v.v.v.v.v.v.v.v.v.v.v.v"
};
