/* XPM */
static char *floodfill[] = {
/* width height num_colors chars_per_pixel */
"    36    36      256            2",
/* colors */
"`` c #5d0810",
"`. c #650808",
"`# c #6d0c08",
"`a c #650c14",
"`b c #65100c",
"`c c #6d100c",
"`d c #71100c",
"`e c #711410",
"`f c #711814",
"`g c #751c1c",
"`h c #791818",
"`i c #651028",
"`j c #691834",
"`k c #6d1c3c",
"`l c #75201c",
"`m c #7d201c",
"`n c #792020",
"`o c #7d202c",
"`p c #7d2828",
"`q c #7d4c48",
"`r c #7d5959",
"`s c #6d615d",
"`t c #75615d",
"`u c #696161",
"`v c #696965",
"`w c #6d6969",
"`x c #716d6d",
"`y c #71716d",
"`z c #757171",
"`A c #757579",
"`B c #797975",
"`C c #7d7979",
"`D c #3c6dee",
"`E c #346df2",
"`F c #3865f6",
"`G c #3c6df2",
"`H c #5040be",
"`I c #5d44be",
"`J c #596daa",
"`K c #6d7995",
"`L c #757989",
"`M c #7d7d81",
"`N c #717d95",
"`O c #6979a5",
"`P c #6179be",
"`Q c #5944c6",
"`R c #5048de",
"`S c #4848f2",
"`T c #4c4cfa",
"`U c #4c50fa",
"`V c #504ce2",
"`W c #5d59ee",
"`X c #5050f6",
"`Y c #5050fa",
"`Z c #5559ff",
"`0 c #4871de",
"`1 c #506dc2",
"`2 c #5071ce",
"`3 c #5575d2",
"`4 c #446df6",
"`5 c #4471ea",
"`6 c #4071f2",
"`7 c #4c75f2",
"`8 c #4879f2",
".` c #557dea",
".. c #5d79f6",
".# c #6d4cc2",
".a c #6d50d2",
".b c #7d55c2",
".c c #6565f6",
".d c #6d69f2",
".e c #617df6",
".f c #7175ff",
".g c #7d818d",
".h c #5981e6",
".i c #5d81f2",
".j c #6581ce",
".k c #6981ca",
".l c #7d95da",
".m c #6989e6",
".n c #6185f6",
".o c #6981f6",
".p c #6981fa",
".q c #6d91f2",
".r c #798dfa",
".s c #7591e2",
".t c #811818",
".u c #81201c",
".v c #89201c",
".w c #852420",
".x c #812c2c",
".y c #892020",
".z c #892824",
".A c #813030",
".B c #912420",
".C c #952824",
".D c #952c28",
".E c #99302c",
".F c #a1302c",
".G c #a13430",
".H c #a53834",
".I c #ae3430",
".J c #99403c",
".K c #ae4038",
".L c #894040",
".M c #8d504c",
".N c #994844",
".O c #915959",
".P c #856561",
".Q c #896d6d",
".R c #817d79",
".S c #9d6965",
".T c #9d7571",
".U c #ae554c",
".V c #be504c",
".W c #a5615d",
".X c #a16d69",
".Y c #aa6961",
".Z c #aa7571",
".0 c #aa7975",
".1 c #b66965",
".2 c #ba6d65",
".3 c #ba6d69",
".4 c #ba7169",
".5 c #c23c38",
".6 c #c24c44",
".7 c #c25048",
".8 c #ca554c",
"#` c #c65950",
"#. c #d64c44",
"## c #d2504c",
"#a c #d66155",
"#b c #d26159",
"#c c #de695d",
"#d c #c26561",
"#e c #ca6d65",
"#f c #da6d61",
"#g c #de6d69",
"#h c #da7165",
"#i c #e25048",
"#j c #e2695d",
"#k c #ea6559",
"#l c #ee695d",
"#m c #e67165",
"#n c #8d59b6",
"#o c #8175ba",
"#p c #a55585",
"#q c #b65d81",
"#r c #81817d",
"#s c #be817d",
"#t c #858581",
"#u c #898585",
"#v c #898985",
"#w c #8d8989",
"#x c #918d89",
"#y c #91918d",
"#z c #959191",
"#A c #999591",
"#B c #999995",
"#C c #9d9d99",
"#D c #a58985",
"#E c #aa8d89",
"#F c #ae918d",
"#G c #a19d99",
"#H c #ba8185",
"#I c #b69995",
"#J c #be9591",
"#K c #a1a19d",
"#L c #aea19d",
"#M c #b2a19d",
"#N c #a5a5a1",
"#O c #aaa5a1",
"#P c #aaaaa5",
"#Q c #aeaeaa",
"#R c #a5aaba",
"#S c #b2a1a1",
"#T c #b2aaa5",
"#U c #b2aeaa",
"#V c #b6b6b2",
"#W c #bab6b2",
"#X c #bebeba",
"#Y c #859dde",
"#Z c #9d8dc6",
"#0 c #9199da",
"#1 c #8181ff",
"#2 c #818dfa",
"#3 c #898dff",
"#4 c #8191fa",
"#5 c #8991fa",
"#6 c #8da5f6",
"#7 c #a1b2d2",
"#8 c #b2b6c6",
"a` c #b2bad2",
"a. c #a1a1ff",
"a# c #aeb6ff",
"aa c #b6baff",
"ab c #babaff",
"ac c #bec2ca",
"ad c #b2c2fa",
"ae c #caaaa5",
"af c #c2beba",
"ag c #ceb6b2",
"ah c #cebab6",
"ai c #cac6c2",
"aj c #cecaca",
"ak c #d2cac6",
"al c #d2ceca",
"am c None",
"an c #d2d2ff",
"ao c #dadeff",
"ap c #faffff",
"aq c #b2403c",
"ar c #b2443c",
"as c #b64038",
"at c #b6443c",
"au c #ba4840",
"av c #ba4844",
"aw c #be4840",
"ax c #be4c44",
"ay c #d25950",
"az c #d25955",
"aA c #d25d55",
"aB c #d65d55",
"aC c #babab2",
"aD c #babab6",
"aE c #bebab6",
"aF c #bebeb6",
"aG c #691010",
"aH c #6d1410",
"aI c #6d1414",
"aJ c #992c28",
"aK c #992c2c",
"aL c #9d2c28",
"aM c #aa3834",
"aN c #ae3830",
"aO c #ae3c34",
"aP c #aa3c38",
"aQ c #ae3838",
"aR c #ae3c38",
"aS c #da6159",
"aT c #da6559",
"aU c #de655d",
"aV c #e26d61",
"aW c #e66d61",
"aX c #e66d65",
"aY c #b2b2ae",
"aZ c #b6b2ae",
"a0 c #b6b6ae",
"a1 c #c2c2be",
"a2 c #c6c2be",
"a3 c #c6c6be",
"a4 c #cacac2",
"a5 c #cecac6",
"a6 c #cecec6",
"a7 c #550408",
"a8 c #000000",
/* pixels */
"amamamamamamamamamamamamamamamamamamamamamamamamamamamamamamamamamamamam",
"amamamamamamamamamamamamamamamamamamamamamamamamamamamamamamamamamamamam",
"amamamamamamamamamamamamamamamamamamamamamamamamamamamamamamamamamamamam",
"amamamamamamamamamamamamamamamamamahalamamamamamamamamamamamamamamamamam",
"amamamamamamamamamamamamamamag#e###..5#Ja5a6alamamamamamamamamamamamamam",
"amamamamamamamamamamamamak#d.8#f#m#l#iaL#Ia3a5a6amamamamamamamamamamamam",
"amamamamamamamamamamamah.Vax#`#b#h#m#k.v`n#Fafaia6amamamamamamamamamamam",
"amamamamamamamamamamagaRaMarax#`#b#haB`haG`l#E#Xaia5amamamamamamamamamam",
"amamamamamamamamamag.G.C.EaMarax#`#baO`h`eaG`g#DaFaia6amamamamamamamamam",
"amamamamamamamamagaJ.t.v.C.EaMaraxaw.z`m`h`eaG`g#EaFaia6amamamamamamamam",
"amamamamamamamalaK`d`e.t.y.C.EaMas.F.z.w`m`h`e`b`p#LaFaia6amamamamamamam",
"amamamamamamam#s`#`.`c`e.t.y.C.FaN.E.D.z.w`m`h`e`b.x#L#Xaia6amamamamamam",
"amamamamamamal.ya7```a`j`k`o.B.IaP.H.E.D.z.w`m`haH`b.x#Mafaialamamamamam",
"amamamamamamae`i`H`V`R`S`S`QaQataqaP.G.E.D.z.w`m`haH`b.x#Mafaialamamamam",
"amamamamamam#H`I.c#3.f`Z`U.#.6auataqaP.G.E.D.z.w`m`faH`b.x#Safaialamamam",
"amamamamamal#Z`Y#1.d`W`X`T#p.7.6auataq.H.G.E.D.z.w`m`faH`b.A#Tafa4alamam",
"amamamamamal#0`U`Y.a.b#n#qaz.8.7.6auataq.H.G.E.D.z.w`h`faHaG.Ta0a1a5alam",
"amamamamama6.l`F#o#gaX#jaUaSay.8.7.6auat.K.H.G.E.D.z.w`h`faI.O#OaCa3a6am",
"amamamamamaj.h`E.k.ZaVaX#jaU#aay.8.7.6auat.K.H.G.E.D.z.u`h`h.Q#C#Uafa5al",
"amamamamamac`5`4`5.g.X#faX#jaU#aay.8.7.6auar.K.H.G.E.D.z.u.A.R#z#PaEaial",
"amamamamal#7`6.r`6`P`C.S#faX#jaT#aay.8.7.6auar.K.H.G.E.D.z`t`C#y#OaEaial",
"amamamamaj.m.naa#4`5`K`B.Y#maX#jaT#aay.8.7.6auar.K.H.G.E`q`x.R#y#PaEaial",
"amamamama``8adanaa.e`0`M.R.1#maX#caT#aay.8.7.6auar.K.H.L`v`z#t#B#Uafa5am",
"amamamam#Y.qapaoab#2`G`N#t#r.2#maX#caT#aay.8.7axauaq.J`u`y.R#y#N#Wa2a6am",
"amamamal.m#6aoanab#5`G`O#u#w#v.2#maW#caT#aay.8.7av.N`s`w`B#v#G#Uafa4alam",
"amamamal.s.ia#aba..p`D`L#v#y#z#x.3#maW#caT#aay.7.M`u`w`B#u#B#PaEaia6amam",
"amamama6#8.``7.o..`D`1`C#v#B#G#G#y.4aXaW#caA.U`r`v`x`B#u#A#O#Wa2a5amamam",
"amamama6a2#R.j`3`2`J`A.R#x#G#P#P#N#A.0.Y.W.P`w`w`z`C#v#B#O#Wa2a5alamamam",
"amamama6a3#W#N#y#t`C.R#v#B#Pa0#WaZ#O#B#w#r`B`B`C#t#x#C#P#Wa1a5alamamamam",
"amamamalai#X#U#G#y#w#w#A#KaZafa2af#W#P#G#z#w#w#y#B#K#UaDa2a5alamamamamam",
"amamamama5a2aE#U#N#K#K#OaZ#Xaia5a4a2aEaY#P#K#K#O#Q#Vafaia5alamamamamamam",
"amamamamala5a2#X#WaZ#VaDafaia5alala5aiafaE#W#WaDafa2a4a6amamamamamamamam",
"amamamamamala5aia3a2a2aia5a6alamamama6a5aiaiaiaia5a5alamamamamamamamamam",
"amamamamamamamala6a5a6alalamamamamamamamalalalalalamamamamamamamamamamam",
"amamamamamamamamamamamamamamamamamamamamamamamamamamamamamamamamamamamam",
"amamamamamamamamamamamamamamamamamamamamamamamamamamamamamamamamamamamam"
};
