/* XPM */
static char *Help3[] = {
/* width height num_colors chars_per_pixel */
"    16    16       16            1",
/* colors */
"` c #000000",
". c #800000",
"# c #008000",
"a c None",
"b c #000080",
"c c #800080",
"d c #008080",
"e c #808080",
"f c #c0c0c0",
"g c #ff0000",
"h c #00ff00",
"i c #ffff00",
"j c #0000ff",
"k c #ff00ff",
"l c #00ffff",
"m c #ffffff",
/* pixels */
"ffffffffffffffff",
"`ffffffffbbbbbef",
"``ffffffbbffebbe",
"```ffffbbefffbbb",
"````fffbbefffbbb",
"`````ffebbffebbe",
"``````ffffffbbef",
"```````ffffbbfff",
"````````ffbbefff",
"`````fffffbbefff",
"``f``fffffffffff",
"`fff``ffffbbbfff",
"ffff``ffffbbbfff",
"fffff``fffffffff",
"fffff``fffffffff",
"ffffffffffffffff"
};
