/* XPM */
static char *lfprop[] = {
/* width height num_colors chars_per_pixel */
"    16    16       16            1",
/* colors */
"` c #000000",
". c #800000",
"# c #008000",
"a c None",
"b c #000080",
"c c #800080",
"d c #008080",
"e c #c0c0c0",
"f c #808080",
"g c #ff0000",
"h c #00ff00",
"i c #ffff00",
"j c #0000ff",
"k c #ff00ff",
"l c #00ffff",
"m c #ffffff",
/* pixels */
"```aaaaaaaaaaaaa",
"a`a`````aaaaaaaa",
"aa``mimi`aaaaaaa",
"a`if`mi`i`aaaaaa",
"a`mimi`imi`aaaaa",
"a`imi`m`imi`aaaa",
"a`mi`m`m`i`i`aaa",
"aa`mi`m`imimi`aa",
"aaf`mi`m`imim`aa",
"aaaf`mi`m`im`faa",
"aaaaf`mimim`faaa",
"aaaaaf`mim`faaaa",
"aaaaaaf`m`faaaaa",
"aaaaaaaf`faaaaaa",
"aaaaaaaafaaaaaaa",
"aaaaaaaaaaaaaaaa"
};
