/* XPM */
static char *move[] = {
/* width height num_colors chars_per_pixel */
"    36    36      256            2",
/* colors */
"`` c None",
"`. c #cecbce",
"`# c #d6cfce",
"`a c #cecfce",
"`b c #bdbace",
"`c c #5a61b5",
"`d c #5259b5",
"`e c #7b7dbd",
"`f c #adaec6",
"`g c #6365b5",
"`h c #6b6dbd",
"`i c #9ca2c6",
"`j c #393cad",
"`k c #3941ad",
"`l c #6b71b5",
"`m c #b5b6bd",
"`n c #cecbc6",
"`o c #cecfc6",
"`p c #adaac6",
"`q c #5255b5",
"`r c #424db5",
"`s c #9496c6",
"`t c #3945ad",
"`u c #8c8aad",
"`v c #b5b2ad",
"`w c #bdbab5",
"`x c #c6c3bd",
"`y c #cec7c6",
"`z c #7b79b5",
"`A c #9c9ead",
"`B c #7b79bd",
"`C c #73759c",
"`D c #ada6a5",
"`E c #bdb6b5",
"`F c #c6bec6",
"`G c #7379bd",
"`H c #7b7d9c",
"`I c #7371bd",
"`J c #6b6da5",
"`K c #adaaad",
"`L c #adaebd",
"`M c #6361b5",
"`N c #636994",
"`O c #949694",
"`P c #b5aead",
"`Q c #5a5db5",
"`R c #5a5dad",
"`S c #4a55ad",
"`T c #525594",
"`U c #8c8a84",
"`V c #c6bebd",
"`W c #4a4dad",
"`X c #52519c",
"`Y c #3941a5",
"`Z c #525184",
"`0 c #4a5194",
"`1 c #848684",
"`2 c #a5a29c",
"`3 c #bdbeb5",
"`4 c #9496ad",
"`5 c #9c9694",
"`6 c #7b797b",
"`7 c #525194",
"`8 c #5a5973",
".` c #636163",
".. c #636563",
".# c #5a5d7b",
".a c #848284",
".b c #bdbac6",
".c c #9c9a94",
".d c #5a5d8c",
".e c #42459c",
".f c #6b6963",
".g c #73716b",
".h c #7b7973",
".i c #7b7984",
".j c #8c8e8c",
".k c #948e8c",
".l c #8c8684",
".m c #5a5d94",
".n c #6b696b",
".o c #7b7573",
".p c #9c9e9c",
".q c #adaaa5",
".r c #adaead",
".s c #a5a6a5",
".t c #7375a5",
".u c #4245a5",
".v c #9c9ac6",
".w c #7371b5",
".x c #3945a5",
".y c #6b6994",
".z c #bdbebd",
".A c #9492bd",
".B c #b5aebd",
".C c #c6c7bd",
".D c #a5a6c6",
".E c #b5b2c6",
".F c #b5b2b5",
".G c #9c9abd",
".H c #4245ad",
".I c #4a4db5",
".J c #5a61ad",
".K c #4a51b5",
".L c #4249b5",
".M c #4a5184",
".N c #424994",
".O c #525973",
".P c #4a4d8c",
".Q c #5a61a5",
".R c #736d6b",
".S c #737173",
".T c #5a598c",
".U c #4a4da5",
".V c #737573",
".W c #84827b",
".X c #63658c",
".Y c #7b7d84",
".Z c #7375bd",
".0 c #6b6d6b",
".1 c #949294",
".2 c #5251a5",
".3 c #737184",
".4 c #6b6db5",
".5 c #525584",
".6 c #6b6dad",
".7 c #6b6984",
".8 c #94928c",
"#` c #8486bd",
"#. c #52559c",
"## c #4a4d94",
"#a c #a5a6bd",
"#b c #6365ad",
"#c c #5a5da5",
"#d c #6b697b",
"#e c #a59e9c",
"#f c #847d7b",
"#g c #7b7d7b",
"#h c #b5b6ad",
"#i c #b5b6b5",
"#j c #000000",
"#k c #000000",
"#l c #000000",
"#m c #000000",
"#n c #000000",
"#o c #000000",
"#p c #000000",
"#q c #000000",
"#r c #000000",
"#s c #000000",
"#t c #000000",
"#u c #000000",
"#v c #000000",
"#w c #000000",
"#x c #000000",
"#y c #000000",
"#z c #000000",
"#A c #000000",
"#B c #000000",
"#C c #000000",
"#D c #000000",
"#E c #000000",
"#F c #000000",
"#G c #000000",
"#H c #000000",
"#I c #000000",
"#J c #000000",
"#K c #000000",
"#L c #000000",
"#M c #000000",
"#N c #000000",
"#O c #000000",
"#P c #000000",
"#Q c #000000",
"#R c #000000",
"#S c #000000",
"#T c #000000",
"#U c #000000",
"#V c #000000",
"#W c #000000",
"#X c #000000",
"#Y c #000000",
"#Z c #000000",
"#0 c #000000",
"#1 c #000000",
"#2 c #000000",
"#3 c #000000",
"#4 c #000000",
"#5 c #000000",
"#6 c #000000",
"#7 c #000000",
"#8 c #000000",
"a` c #000000",
"a. c #000000",
"a# c #000000",
"aa c #000000",
"ab c #000000",
"ac c #000000",
"ad c #000000",
"ae c #000000",
"af c #000000",
"ag c #000000",
"ah c #000000",
"ai c #000000",
"aj c #000000",
"ak c #000000",
"al c #000000",
"am c #000000",
"an c #000000",
"ao c #000000",
"ap c #000000",
"aq c #000000",
"ar c #000000",
"as c #000000",
"at c #000000",
"au c #000000",
"av c #000000",
"aw c #000000",
"ax c #000000",
"ay c #000000",
"az c #000000",
"aA c #000000",
"aB c #000000",
"aC c #000000",
"aD c #000000",
"aE c #000000",
"aF c #000000",
"aG c #000000",
"aH c #000000",
"aI c #000000",
"aJ c #000000",
"aK c #000000",
"aL c #000000",
"aM c #000000",
"aN c #000000",
"aO c #000000",
"aP c #000000",
"aQ c #000000",
"aR c #000000",
"aS c #000000",
"aT c #000000",
"aU c #000000",
"aV c #000000",
"aW c #000000",
"aX c #000000",
"aY c #000000",
"aZ c #000000",
"a0 c #000000",
"a1 c #000000",
"a2 c #000000",
"a3 c #000000",
"a4 c #000000",
"a5 c #000000",
"a6 c #000000",
"a7 c #000000",
"a8 c #000000",
/* pixels */
"````````````````````````````````````````````````````````````````````````",
"````````````````````````````````````````````````````````````````````````",
"````````````````````````````````````````````````````````````````````````",
"````````````````````````````````````````````````````````````````````````",
"````````````````````````````````````````````````````````````````````````",
"```````````````.`.`.`.`.`.`.`.`.```````#`.`.`.`.`.`.`.`.`a``````````````",
"`````````````b`c`d`d`d`d`d`d`d`e`.`````f`g`d`d`d`d`d`d`d`h`.````````````",
"`````````````i`j`j`j`j`j`j`k`l`m`n`o`````p`q`j`j`j`j`j`j`r`m`n`#````````",
"`````````````s`j`j`j`j`j`j`t`u`v`w`x`n`#`y`z`k`j`j`j`j`j`t`A`w`y`#``````",
"`````````````B`j`j`j`j`j`j`j`t`C`D`E`y`F`G`k`j`j`j`j`j`j`k`H`D`w`n``````",
"`````````````I`j`j`j`j`j`j`j`j`k`J`K`L`M`j`j`j`j`j`j`j`j`j`N`O`P`x`#````",
"```````````.`Q`j`j`j`j`j`j`j`j`j`j`R`S`j`j`j`j`j`j`j`j`j`j`T`U`D`V`#````",
"```````````.`q`W`J`X`k`j`j`j`j`j`j`j`j`j`j`j`j`j`j`Y`Z`Z`k`0`1`2`3`o````",
"```````````b`c`4`5`6`7`j`j`j`j`j`j`j`j`j`j`j`j`j`Y`8.`...#`T.a`2`w`n````",
"```````````a.b`v.c`1`6.d`k`j`j`j`j`j`j`j`j`j`j.e`8...f.g.h.i.j`2`w`n````",
"`````````````y`E`2`5.k.l.m`k`j`j`j`j`j`j`j`j`k`8...n.o`1.k`O.p.q`3`n````",
"```````````#`n`V`v.r.s.t`t`j`j`j`j`j`j`j`j`j`j.u.#.o`U.p.q`P`v`w`x`a````",
"``````````.v.b`y`x`m.w`k`j`j`j`j`j`j`j`j`j`j`j`j.x.y.c`v.z.A.B.C`n`#````",
"`````````a`Q`d.D.E`c`j`j`j`j`j`j`j`j`j`j`j`j`j`j`j`k.t.F.G.H.G`n`a``````",
"`````````.`q`j.I.I`j`j`j`j`j`j`j`j`j`j`j`j`j`j`j`j`j`k.J.K`j.A`y`n`#````",
"````````.b.L`j`j`j`j`j`j`j`j`j`j`k.M.N`j`j`j`j`j`j`j`j`j`j`j`l`w`V`n````",
"````````.E`t`j`j`j`j`j`j`j`j`j`Y.O.`.`.P`j`j`j`j`j`j`j`j`j`j.Q.s`v`x`a``",
"````````.v`j`j`j`j`j`j`j`j`j`Y`8.`.f.R.S.T`k`j`j`j`j`j`j`j`j.U.j`D`w`n``",
"````````.A`j`j`j`j`j`j`j`j.e`8...n.V.W`U`1.X.x`j`j`j`j`j`j`j.u.Y.c`E`n``",
"````````.Z`j`j`j`j`j`j`j`j.M...0.h`U.c`2`2.1.2`j`j`j`j`j`j`j`k.3`O`v`y``",
"````````.4`j`j`j`j`j`j`j`j`k.5.V`U`2`v`w.F.6`j`j`j`j`j`j`j`j`j.7.8`P`y``",
"```````a#`.4.Q#.############`T.i.c`v`x`n#a`l#b#c#.#############d.j.q`x`#",
"`````````n`w.p.W.g.n.f.f.f.R.h.j`D`3`n```#`y`E#e.l.V.0.f.f.f.0.h.k.q`x`#",
"`````````n`w`2.k.W`6.h.h`6#f.l`5.r`V`o`````n`w`D.8`1#g`6.h.h#g.l`5`P`x`#",
"`````````a`x`v`2.c`5`5`5`5`5.p`D`E`x`#`````o`x`v.s.c`5`5`5`5`5.p.q`w`y``",
"```````````n`x`w`E#h#h#h#h#i`E`w`x`n```````#`n`x`w`E#i#h#h#h#i`w`V`y`#``",
"`````````````a`n`n`n`n`n`n`n`n`n`a```````````#`o`n`n`n`n`y`n`n`n`o`#````",
"````````````````````````````````````````````````````````````````````````",
"````````````````````````````````````````````````````````````````````````",
"````````````````````````````````````````````````````````````````````````",
"````````````````````````````````````````````````````````````````````````"
};
