/* XPM */
static char *open[] = {
/* width height num_colors chars_per_pixel */
"    36    36      128            2",
/* colors */
"`` c #818175",
"`. c #818179",
"`# c #8d8975",
"`a c #918d79",
"`b c #919171",
"`c c #959579",
"`d c #a5aa48",
"`e c #aaaa48",
"`f c #a5a555",
"`g c #a5a559",
"`h c #aaaa50",
"`i c #aeae59",
"`j c #aeb250",
"`k c #b2b250",
"`l c #b2b259",
"`m c #b6ba5d",
"`n c #baba5d",
"`o c #aaaa61",
"`p c #aaaa69",
"`q c #aeae7d",
"`r c #b2b261",
"`s c #b6ba65",
"`t c #baba61",
"`u c #bebe69",
"`v c #b2b275",
"`w c #b2b279",
"`x c #baba71",
"`y c #bebe7d",
"`z c #bec265",
"`A c #bec271",
"`B c #c2c265",
"`C c #c2c269",
"`D c #c2c271",
"`E c #c6c679",
"`F c #caca71",
"`G c #caca79",
"`H c #ced279",
"`I c #d2d279",
"`J c #e6ea7d",
"`K c #858181",
"`L c #898581",
"`M c #898981",
"`N c #8d8989",
"`O c #918d89",
"`P c #959585",
"`Q c #91918d",
"`R c #99958d",
"`S c #9d998d",
"`T c #959191",
"`U c #999591",
"`V c #999995",
"`W c #9d9d99",
"`X c #a19d99",
"`Y c #aaaa8d",
"`Z c #a1a19d",
"`0 c #aaa59d",
"`1 c #aeaa95",
"`2 c #b2b281",
"`3 c #bab68d",
"`4 c #baba81",
"`5 c #baba89",
"`6 c #b6b699",
"`7 c #bab691",
"`8 c #baba91",
".` c #a5a5a1",
".. c #aaa5a1",
".# c #aaaaa1",
".a c #aeaeaa",
".b c #b2aeaa",
".c c #b6b2a5",
".d c #b2b2ae",
".e c #babaa1",
".f c #bebaaa",
".g c #b6b6b2",
".h c #bab6b2",
".i c #babab2",
".j c #bebeba",
".k c #c2beb2",
".l c #c2beba",
".m c #c6c681",
".n c #caca81",
".o c #caca89",
".p c #d2d281",
".q c #d2d289",
".r c #dade85",
".s c #d6d695",
".t c #d2d299",
".u c #dada99",
".v c #c6c2aa",
".w c #cecea1",
".x c #c2c2b2",
".y c #c2c2ba",
".z c #cac6be",
".A c #d2d6a1",
".B c #dadaaa",
".C c #dedeb2",
".D c #dee281",
".E c #e6e681",
".F c #e2e289",
".G c #e6ea81",
".H c #eaea81",
".I c #eaea89",
".J c #e6e691",
".K c #eaea91",
".L c #eaea99",
".M c #eef28d",
".N c #f2f291",
".O c #f2f299",
".P c #e2e2ba",
".Q c #f6f6a1",
".R c #f6faaa",
".S c #cac6c2",
".T c #cacac2",
".U c #d2ceca",
".V c None",
".W c #e6e6ca",
".X c #eeeeda",
".Y c #eef2de",
".Z c #f2f2de",
".0 c #f2f2e2",
".1 c #f6f6ee",
".2 c #fafaf2",
".3 c #fffffa",
".4 c #898979",
".5 c #8d8979",
".6 c #8d8d79",
".7 c #817d75",
".8 c #000000",
/* pixels */
".V.V.V.V.V.V.V.V.V.V.V.V.V.V.V.V.V.V.V.V.V.V.V.V.V.V.V.V.V.V.V.V.V.V.V.V",
".V.V.V.V.V.V.V.V.V.V.V.V.V.V.V.V.V.V.U.T.T.x`2`o`6.i.j.y.T.U.V.V.V.V.V.V",
".V.V.V.V.V.V.V.V.V.V.V.V.V.V.V.V.U.T.T.x`2`h`e`e`o`0.b.i.y.T.U.V.V.V.V.V",
".V.V.V.V.V.V.V.V.V.U.U.U.V.U.U.T.S.k`2`h`e`e`e`r.t.e`W.#.h.y.T.U.V.V.V.V",
".V.V.V.V.V.V.U.T.T.T.T.T.T.T.S.f`w`h`h`e`e`r.A.1.3.1`S`V.#.i.y.T.T.U.V.V",
".V.V.V.V.V.T.T.e`w.f.i.j.l.e`v`h`h`e`e`r.A.1.3.3.3.3`8`M`W.#.i.y.S.T.U.V",
".V.V.V.U.T.x`v`e`d`o.#`1`p`h`h`e`e`r.A.1.3.3.3.3.3.3.W`b`Y.u.u.d.i.y.T.U",
".V.V.U.z`8`h`e`d`e`e`g`f`h`e`e`l.A.1.3.3.3.3.3.3.3.3.P`D.L.O.K`0.b.i.S.T",
".V.U.v`p`e`d`d`e`e`e`d`e`e`k.o.0.3.3.3.3.3.3.3.3.X.o`H.K.O.O.J`R`Z.d.y.T",
".V`8`h`e`d`e`e`e`e`e`e`k.o.Z.2.3.3.3.3.3.3.3.X.o`I.K.O.O.O.N.J`M`V.#.j.T",
".U`5`e`e`e`e`e`e`e`k.o.Z.2.3.3.3.3.3.3.3.Z.o`I.K.O.O.O.O.N.N.F`.`Q...i.S",
".U.x`h`e`e`e`e`k.o.Y.2.3.3.3.3.3.3.3.0.t.p.L.O.O.O.O.O.N.N.N.F`.`O...i.S",
".U.S`p`e`e`e.o.Y.2.3.3.3.3.3.3.3.0.t.p.L.Q.O.O.O.O.O.N.N.N.N.F.7`N.`.i.S",
".U.T`7`h`e`s.2.3.3.3.3.3.3.3.1.A.p.L.Q.Q.O.O.O.O.O.N.N.N.N.N.F.7`N.`.i.S",
".V.T.k`i`e`l.0.3.3.3.3.3.1.B.q.L.Q.Q.Q.O.O.O.O.O.N.N.N.N.N.M.F```N`Z.i.S",
".V.U.S`w`j`h.P.3.3.3.1.B.q.L.Q.Q.Q.Q.O.O.O.O.O.N.N.N.N.N.M.M.I.6`N`Z.h.S",
".V.U.T.e`k`k.m.3.3.3.s.L.R.Q.Q.Q.Q.Q.O.O.O.O.N.N.N.N.N.M.M.I.I`#`M`Z.h.S",
".V.V.T.y`r`k`t.2.3.3.u.R.Q.Q.Q.Q.Q.O.O.O.O.O.N.N.N.N.M.M.I.I.H`#`M`Z.h.S",
".V.V.U.S`3`l`k.W.3.3.q.Q.Q.Q.Q.Q.O.O.O.O.O.N.N.N.N.M.M.I.I.I.H`#`M`Z.h.S",
".V.V.V.T.f`l`k.t.3.3.n.Q.Q.Q.Q.O.O.O.O.O.N.N.N.N.M.M.I.I.I.H.G`#`M`Z.h.S",
".V.V.V.T.y`v`l`A.2.2`F.Q.Q.Q.O.O.O.O.O.N.N.N.N.M.M.I.I.I.H.H.G`#`M`Z.h.S",
".V.V.V.U.S`8`l`m.X.2`G.Q.Q.O.O.O.O.O.N.N.N.N.N.M.I.I.I.H.H.H.E`#`N`Z.h.S",
".V.V.V.V.T.x`r`m.C.2`D.O.O.O.O.O.O.N.N.N.N.N.M.I.I.I.I.H.H.H`J`a`O...i.S",
".V.V.V.V.U.S`4`t`D.t`C.O.O.O.O.O.N.N.N.N.N.M.M.I.I.I.H.H.G`J`E`M`V.#.j.T",
".V.V.V.V.U.T.e`t`n`t`B.O.O.O.O.N.N.N.N.N.M.M.I.I.I.H.H.E`G`c`L`Q`Z.d.y.T",
".V.V.V.V.V.T.y`x`t`t`C.O.O.O.N.N.N.N.N.M.M.I.I.I.H.G`G`c`.`M`U`Z.d.l.S.U",
".V.V.V.V.V.U.S`8`t`t`C.K.O.N.N.N.N.N.M.M.I.I.H.E`G`c`.`M`T`X.#.d.l.S.T.V",
".V.V.V.V.V.V.T.k`u`t`B.K.O.N.N.N.N.M.M.I.I.E`y.6`.`M`T`X.#.d.i.y.S.T.V.V",
".V.V.V.V.V.V.T.y`4`z`C.I.N.N.N.N.M.I.I.F`y.6`.`N`T`X.#.d.i.y.S.T.U.V.V.V",
".V.V.V.V.V.V.U.T.e`B`C.I.N.N.N.I.I.F`y.6`.`N`U`Z.#.d.i.y.S.T.U.V.V.V.V.V",
".V.V.V.V.V.V.V.T.x`D`C.F.N.K.I.F`q.5`K`N`U`Z.#.d.i.y.S.T.U.V.V.V.V.V.V.V",
".V.V.V.V.V.V.V.U.S.n`C.D.K.F`2.4`K`N`V`Z.#.d.i.y.S.T.U.V.V.V.V.V.V.V.V.V",
".V.V.V.V.V.V.V.U.T.w`F.r`5`P`M`O`V`Z.a.g.j.y.S.T.U.V.V.V.V.V.V.V.V.V.V.V",
".V.V.V.V.V.V.V.V.T.z.v.c`Z`X`X.`.a.h.j.y.T.T.U.V.V.V.V.V.V.V.V.V.V.V.V.V",
".V.V.V.V.V.V.V.V.U.T.y.i.d.d.d.h.l.y.T.T.U.V.V.V.V.V.V.V.V.V.V.V.V.V.V.V",
".V.V.V.V.V.V.V.V.V.U.T.S.y.y.y.S.T.T.U.V.V.V.V.V.V.V.V.V.V.V.V.V.V.V.V.V"
};
