/* XPM */
static char *section2[] = {
/* width height num_colors chars_per_pixel */
"    90    90       64            2",
/* colors */
"`` c #000000",
"`. c #040404",
"`# c #080808",
"`a c #0c0c0c",
"`b c #101010",
"`c c #141414",
"`d c #181818",
"`e c #1c1c1c",
"`f c #202020",
"`g c #242424",
"`h c #282828",
"`i c #2c2c2c",
"`j c #303030",
"`k c #343434",
"`l c #383838",
"`m c #3c3c3c",
"`n c #404040",
"`o c #444444",
"`p c #484848",
"`q c #4c4c4c",
"`r c #505050",
"`s c #555555",
"`t c #595959",
"`u c #5d5d5d",
"`v c #616161",
"`w c #656565",
"`x c #696969",
"`y c #6d6d6d",
"`z c #717171",
"`A c #757575",
"`B c #797979",
"`C c #7d7d7d",
"`D c #818181",
"`E c #858585",
"`F c #898989",
"`G c #8d8d8d",
"`H c #919191",
"`I c #959595",
"`J c #999999",
"`K c #9d9d9d",
"`L c #a1a1a1",
"`M c #a5a5a5",
"`N c #aaaaaa",
"`O c #aeaeae",
"`P c #b2b2b2",
"`Q c #b6b6b6",
"`R c #bababa",
"`S c #bebebe",
"`T c #c2c2c2",
"`U c #c6c6c6",
"`V c #cacaca",
"`W c #cecece",
"`X c #d2d2d2",
"`Y c #d6d6d6",
"`Z c #dadada",
"`0 c #dedede",
"`1 c #e2e2e2",
"`2 c #e6e6e6",
"`3 c #eaeaea",
"`4 c #eeeeee",
"`5 c #f2f2f2",
"`6 c #f6f6f6",
"`7 c #fafafa",
"`8 c #ffffff",
/* pixels */
"`8`8`8`8`8`8`8`8`8`8`8`8`8`8`8`8`8`8`8`8`8`8`8`8`8`8`8`8`8`8`8`8`8`8`8`8`8`8`8`4`2`8`8`8`8`8`8`8`8`8`8`8`8`8`8`8`8`8`8`8`8`8`8`8`8`8`8`8`8`8`8`8`8`8`8`8`8`8`8`8`8`8`8`8`8`8`8`8`8`8",
"`8`8`8`8`8`8`8`8`8`8`8`8`8`8`8`8`8`8`8`8`8`8`8`8`8`8`8`8`8`8`8`8`8`8`8`8`8`8`6`q`o`X`8`8`8`8`8`8`8`8`8`8`8`8`8`8`8`8`8`8`8`8`8`8`8`8`8`8`8`8`8`8`8`8`8`8`8`8`8`8`8`8`8`8`8`8`8`8`8`8",
"`8`8`8`8`8`8`8`8`8`8`8`8`8`8`8`8`8`8`8`8`8`8`8`8`8`8`8`8`8`8`8`8`8`8`8`8`8`8`8`2`l`0`8`8`8`8`8`8`8`8`8`8`8`8`8`8`8`8`8`8`8`8`8`8`8`8`8`8`8`8`8`8`8`8`8`8`8`8`8`8`8`8`8`8`8`8`8`8`8`8",
"`8`8`8`8`8`8`8`8`8`8`8`8`8`8`8`8`8`8`8`8`8`8`8`8`8`8`8`8`8`8`8`8`8`8`8`8`8`8`6`X`J`H`8`8`8`8`8`8`8`8`8`8`8`8`8`8`8`8`8`8`8`8`8`8`8`8`8`8`8`8`8`8`8`8`8`8`8`8`8`8`8`8`8`8`8`8`8`8`8`8",
"`8`8`8`8`8`8`8`8`8`8`8`8`8`8`8`8`8`8`8`8`8`8`w`3`8`8`8`8`8`8`8`8`8`8`8`8`8`8`6`t`p`X`8`8`8`8`8`8`8`8`8`8`8`8`8`8`8`8`8`8`G`S`8`8`8`8`8`8`8`8`8`8`8`8`8`8`8`8`8`8`8`8`8`8`8`8`8`8`8`8",
"`8`8`8`8`8`8`8`8`8`8`8`8`8`8`8`8`8`8`8`8`8`8`n`1`8`8`6`8`8`8`8`8`8`8`8`8`8`8`8`8`8`8`8`8`8`8`8`8`8`8`8`8`8`8`8`8`8`7`8`8`z`O`8`8`8`8`8`8`8`8`8`8`8`8`8`8`8`8`8`8`8`8`8`8`8`8`8`8`8`8",
"`8`8`8`8`8`8`8`8`8`8`8`8`8`8`8`8`8`8`8`8`8`8`n`1`2`C`m`8`8`8`8`8`8`8`8`8`8`8`8`8`8`8`8`8`8`8`8`8`8`8`8`8`8`8`8`8`5`i`H`5`z`O`8`8`8`8`8`8`8`8`8`8`8`8`8`8`8`8`8`8`8`8`8`8`8`8`8`8`8`8",
"`8`8`8`8`8`8`8`8`8`8`8`8`8`8`8`8`8`8`8`8`8`8`n`t`a```b`w`w`w`w`w`w`w`w`w`w`w`w`w`w`w`w`w`w`w`w`w`w`w`w`w`w`w`w`w`v`````d`h`O`8`8`8`8`8`8`8`8`8`8`8`8`8`8`8`8`8`8`8`8`8`8`8`8`8`8`8`8",
"`8`8`8`8`8`8`8`8`8`8`8`8`8`8`8`8`8`8`8`8`8`8`n`M`q```e`R`R`R`R`R`R`R`R`R`R`R`R`R`R`R`R`R`R`R`R`R`R`R`R`R`R`R`R`R`O`.`#`v`r`O`8`8`8`8`8`8`8`8`8`8`8`8`8`8`8`8`8`8`8`8`8`8`8`8`8`8`8`8",
"`8`8`8`8`8`8`8`8`8`8`8`8`8`8`8`8`8`8`8`8`8`8`n`1`8`W`C`8`8`8`8`8`8`8`8`8`8`8`8`8`8`8`8`8`8`8`8`8`8`8`8`8`8`8`8`8`6`B`1`8`z`O`8`8`8`7`5`p`5`7`8`8`8`8`8`8`8`8`8`8`8`8`8`8`8`8`8`8`8`8",
"`8`8`8`8`8`8`8`8`8`8`8`8`8`8`8`8`8`8`8`8`8`8`n`1`8`8`8`8`8`8`8`8`8`8`8`8`8`8`8`8`8`8`8`8`8`8`8`8`8`8`8`8`8`8`8`8`8`8`8`8`z`O`8`8`8`I`b```c`T`8`8`8`8`8`8`8`8`8`8`8`8`8`8`8`8`8`8`8`8",
"`8`8`8`8`8`8`8`8`8`8`8`8`8`8`8`8`8`8`8`8`8`8`n`1`8`8`8`8`8`8`8`8`8`8`8`8`8`8`8`8`8`8`8`8`8`8`8`8`8`8`8`8`8`8`8`8`8`8`8`8`z`O`8`8`8`5`e```j`7`8`8`8`8`8`8`8`8`8`8`8`8`8`8`8`8`8`8`8`8",
"`8`8`8`8`8`8`8`8`8`8`8`8`8`8`8`8`8`8`8`8`8`8`s`3`8`8`8`8`8`8`8`8`8`8`8`8`8`8`8`8`8`8`8`8`8`8`8`8`8`8`8`8`8`8`8`8`8`8`8`8`D`R`8`8`8`8`I```M`8`8`8`8`8`8`8`8`8`8`8`8`8`8`8`8`8`8`8`8`8",
"`8`8`8`8`8`8`8`8`8`8`8`Y`T`T`T`T`T`T`T`Z`8`8`Y`T`T`T`T`T`T`T`T`T`T`T`T`T`T`T`T`T`T`T`T`T`T`T`T`T`T`T`T`T`T`T`T`T`T`T`T`T`S`5`X`T`T`T`R`g`S`T`V`8`8`8`8`8`8`8`8`8`8`8`8`8`8`8`8`8`8`8",
"`8`8`8`8`8`8`8`8`8`8`8`C`s`s`e`r`s`s`s`G`8`8`n`q`s`s`s`s`s`s`s`s`s`s`s`s`s`s`s`s`s`s`s`s`s`s`s`s`s`s`s`s`s`s`s`s`s`s`s`s`g`O`A`s`s`s`r`a`r`s`w`7`8`8`8`8`8`8`8`8`8`8`8`8`8`8`8`8`8`8",
"`8`8`8`8`8`8`8`8`8`8`8`8`8`3`b`N`8`8`8`8`8`8`n`1`8`8`8`8`8`8`8`8`8`8`8`8`8`8`8`8`8`8`8`8`8`8`8`8`8`8`8`8`8`8`8`8`8`8`8`8`z`O`8`8`8`8`7`g`7`8`8`8`2`u`z`8`8`8`8`8`8`8`8`8`8`8`8`8`8`8",
"`8`8`8`8`8`8`8`8`8`8`8`8`8`D```g`7`8`8`8`8`8`n`1`8`8`8`8`8`8`8`8`8`8`8`8`8`8`8`8`8`8`8`8`8`8`8`8`8`8`8`8`8`8`8`8`8`8`8`8`z`O`8`8`8`8`7`g`7`8`8`8`E`A`K`7`8`8`8`8`8`8`8`8`8`8`8`8`8`8",
"`8`8`8`8`8`8`8`8`8`8`8`8`5`d`````J`8`8`8`8`8`n`1`8`8`8`8`8`8`8`8`8`8`8`8`8`8`8`8`8`8`8`8`8`8`8`8`8`8`8`8`8`8`8`8`8`8`8`8`z`O`8`8`8`8`7`g`7`8`8`8`A`C`p`3`8`8`8`8`8`8`8`8`8`8`8`8`8`8",
"`8`8`8`8`8`8`8`8`8`8`8`8`1`I`e`F`O`8`8`8`8`8`n`1`8`8`8`8`8`8`8`8`8`8`8`8`8`8`8`8`8`8`8`8`8`8`8`8`8`8`8`8`8`8`8`8`8`8`8`8`z`O`8`8`8`8`7`g`7`8`8`8`P`t`n`4`8`8`8`8`8`8`8`8`8`8`8`8`8`8",
"`8`8`8`8`8`8`8`8`8`8`8`8`8`8`k`3`8`8`8`8`8`8`n`1`8`8`8`8`8`8`8`8`8`8`8`8`8`8`8`8`8`8`8`8`8`8`8`8`8`8`8`8`8`8`8`8`8`8`8`8`z`O`8`8`8`8`7`g`6`8`8`8`8`W`1`8`8`8`8`8`8`8`8`8`8`8`8`8`8`8",
"`8`8`8`8`8`8`8`8`8`8`8`8`8`8`k`3`8`8`8`8`8`8`r`i`j`j`j`j`j`j`j`j`j`j`j`j`j`j`h`0`8`8`8`8`U`h`j`j`j`j`j`j`j`j`j`j`j`j`j`j`e`Q`t`j`j`j`j`a`j`j`n`6`8`8`8`8`8`8`8`8`8`8`8`8`8`8`8`8`8`8",
"`8`8`8`8`8`8`8`8`8`8`8`8`8`8`k`3`8`8`8`8`8`8`7`6`6`6`6`6`6`6`6`6`6`6`6`6`6`6`q`X`8`8`8`8`Q`y`6`6`6`6`6`6`6`6`6`6`6`6`6`6`6`8`7`6`6`6`1`g`3`6`6`8`8`8`8`8`8`8`8`8`8`8`8`8`8`8`8`8`8`8",
"`8`8`8`8`8`8`8`8`8`8`8`8`8`8`k`3`8`8`8`8`8`8`8`8`8`8`8`8`8`8`8`8`8`8`8`8`8`8`r`X`8`8`8`8`Q`z`8`8`8`8`8`8`8`8`8`8`8`8`8`8`8`8`8`8`8`8`B```G`8`8`8`8`8`8`8`8`8`8`8`8`8`8`8`8`8`8`8`8`8",
"`8`8`8`8`8`8`8`8`8`8`8`8`8`8`k`3`8`8`8`8`8`8`M`6`8`8`8`8`8`8`8`8`8`8`8`8`8`8`r`X`8`8`8`8`Q`z`8`8`8`8`8`8`8`8`8`8`8`8`8`8`8`8`8`8`8`1`a```e`6`8`8`8`8`8`8`8`8`8`8`8`8`8`8`8`8`8`8`8`8",
"`8`8`8`8`8`8`8`8`8`8`8`8`8`8`k`3`8`8`8`8`8`8`n`1`8`8`8`8`8`8`8`8`8`8`8`8`8`8`r`X`8`8`8`8`Q`z`8`8`8`8`8`8`8`8`8`8`8`8`8`8`8`8`8`8`8`L`n`#`n`T`8`8`8`8`8`8`8`8`8`8`8`8`8`8`8`8`8`8`8`8",
"`8`8`8`8`8`8`8`8`8`8`8`8`8`8`k`3`8`8`8`8`8`8`n`1`8`8`8`8`8`8`8`8`8`8`8`8`8`8`r`X`8`8`8`8`Q`z`8`8`8`8`8`8`8`8`8`8`8`8`8`8`8`8`8`8`8`8`7`n`7`8`8`8`8`8`8`8`8`8`8`8`8`8`8`8`8`8`8`8`8`8",
"`8`8`8`8`8`8`8`8`8`8`8`8`8`8`k`3`8`8`8`8`8`8`n`1`8`8`Z`8`8`8`8`8`8`8`2`6`8`8`r`X`8`8`8`8`Q`z`8`8`8`8`8`8`8`8`8`8`8`8`8`8`8`8`8`8`8`8`8`7`8`8`8`8`8`8`8`8`8`8`8`8`8`8`8`8`8`8`8`8`8`8",
"`8`8`8`8`8`8`8`8`8`8`8`8`8`8`k`3`8`8`8`8`8`8`n`0`R`n`h`8`8`8`8`8`8`8`H`d`F`4`r`X`8`8`8`8`Q`z`8`8`8`8`8`8`8`8`8`8`8`8`8`8`8`8`8`8`8`8`8`8`8`8`8`8`8`8`8`8`8`8`8`8`8`8`8`8`8`8`8`8`8`8",
"`8`8`8`8`8`8`8`8`8`8`8`8`8`8`k`3`8`8`8`8`8`8`n`j`````#`k`k`k`k`k`k`k`e`````c`f`X`8`8`8`8`Q`z`8`8`8`8`8`8`8`8`8`8`8`8`8`8`8`8`8`8`8`8`8`8`8`8`8`8`8`8`8`8`8`8`8`8`8`8`8`8`8`8`8`8`8`8",
"`8`8`8`8`8`8`8`8`8`8`8`8`8`8`k`3`8`8`8`8`8`8`n`U`x`.`g`5`5`5`5`5`5`5`G```l`R`r`X`8`8`8`8`Q`z`8`8`8`8`8`8`8`8`8`8`8`8`8`8`8`8`8`8`8`8`8`8`8`8`8`8`8`8`8`8`8`8`8`8`8`8`8`8`8`8`8`8`8`8",
"`8`8`8`8`8`8`8`8`8`8`8`8`8`8`k`3`8`8`8`8`8`8`n`1`8`Z`C`8`8`8`8`8`8`8`Q`O`8`8`r`X`8`8`8`8`Q`z`8`8`8`8`8`8`8`8`8`8`8`8`8`8`8`8`8`8`8`8`8`8`8`8`8`8`8`8`8`8`8`8`8`8`8`8`8`8`8`8`8`8`8`8",
"`8`8`8`8`8`8`8`8`8`8`8`8`8`8`k`3`8`8`8`8`8`8`n`1`8`8`8`0`u`z`8`8`8`8`8`8`8`8`r`X`8`8`8`8`Q`z`8`8`8`8`8`8`8`8`8`8`8`8`8`8`8`8`8`8`8`8`8`8`8`8`8`8`8`8`8`8`8`8`8`8`8`8`8`8`8`8`8`8`8`8",
"`8`8`8`8`8`8`8`8`8`8`8`8`8`8`k`3`8`8`8`8`8`8`V`7`8`8`8`R`z`p`7`8`8`8`8`8`8`8`r`X`8`8`8`8`Q`z`8`8`8`8`8`8`8`8`8`8`8`8`8`8`8`8`8`8`8`8`8`8`8`8`8`8`8`8`8`8`8`8`8`8`8`8`8`8`8`8`8`8`8`8",
"`8`8`8`8`8`8`8`8`8`8`8`8`8`8`k`3`8`8`8`8`8`8`8`8`8`8`8`R`v`p`5`8`8`8`8`8`8`8`r`X`8`8`8`8`Q`z`8`8`8`8`8`8`8`8`8`8`8`8`8`8`8`8`8`8`8`8`8`8`8`8`8`8`8`8`8`8`8`8`8`8`8`8`8`8`8`8`8`8`8`8",
"`8`8`8`8`8`8`8`8`8`8`8`8`8`8`k`3`8`8`8`8`8`8`8`8`8`8`8`M`w`m`3`8`8`8`8`8`8`8`r`X`8`8`8`8`Q`z`8`8`8`8`8`8`8`8`8`8`8`8`8`8`8`8`8`8`8`8`8`8`8`8`8`8`8`8`8`8`8`8`8`8`8`8`8`8`8`8`8`8`8`8",
"`8`8`8`8`8`8`8`8`8`8`8`8`8`8`k`3`8`8`8`8`8`8`8`8`8`8`8`8`V`Z`8`8`8`8`8`8`8`8`r`X`8`8`8`8`Q`z`8`8`8`8`8`8`8`8`8`8`8`8`8`8`8`8`8`8`8`8`8`8`8`8`8`8`8`8`8`8`8`8`8`8`8`8`8`8`8`8`8`8`8`8",
"`8`8`8`8`8`8`8`8`8`8`8`8`8`8`k`3`8`8`8`8`8`8`8`8`8`8`8`8`8`8`8`8`8`8`8`8`8`8`r`X`8`8`8`8`Q`z`8`8`8`8`8`8`8`8`8`8`8`8`8`8`8`8`8`8`8`8`8`8`8`8`8`8`8`8`8`8`8`8`8`8`8`8`8`8`8`8`8`8`8`8",
"`8`8`8`8`8`8`8`8`8`8`8`8`8`8`k`3`8`8`8`8`8`8`8`8`8`8`8`8`8`8`8`8`8`8`8`8`8`8`r`X`8`8`8`8`Q`z`8`8`8`8`8`8`8`8`8`8`8`8`8`8`8`8`8`8`8`8`8`8`8`8`8`8`8`8`8`8`8`8`8`8`8`8`8`8`8`8`8`8`8`8",
"`8`8`8`8`8`8`8`8`8`8`8`8`8`8`k`3`8`8`8`8`8`8`8`8`8`8`8`8`8`8`8`8`8`8`8`8`8`8`r`X`8`8`8`8`Q`z`8`8`8`8`8`8`8`8`8`8`8`8`8`8`8`8`8`8`8`8`8`8`8`8`8`8`8`8`8`8`8`8`8`8`8`8`8`8`8`8`8`8`8`8",
"`8`8`8`8`8`8`8`8`8`8`8`8`8`8`k`3`8`8`8`8`8`8`8`8`8`8`8`8`8`8`8`8`8`8`8`8`8`8`r`X`8`8`8`8`Q`z`8`8`8`8`8`8`8`8`8`8`8`8`8`8`8`8`8`8`8`8`8`8`8`8`8`8`8`8`8`8`8`8`8`8`8`8`8`8`8`8`8`8`8`8",
"`8`8`8`8`8`8`8`8`8`8`8`8`8`8`k`3`8`8`8`8`8`8`8`8`8`8`8`8`8`8`8`8`8`8`8`8`8`8`r`X`8`8`8`8`Q`z`8`8`8`8`8`8`8`8`8`8`8`8`8`8`8`8`8`8`8`8`8`8`8`8`8`8`8`8`8`8`8`8`8`8`8`8`8`8`8`8`8`8`8`8",
"`8`8`8`8`8`8`8`8`8`8`8`8`8`8`k`3`7`G`C`8`8`8`8`8`8`8`8`8`8`8`8`8`8`8`8`8`8`8`r`X`8`8`8`8`Q`z`8`8`8`8`8`8`8`8`8`8`8`8`8`8`8`8`8`8`8`8`8`8`8`8`8`8`8`8`8`8`8`8`8`8`8`8`8`8`8`8`8`8`8`8",
"`8`8`8`8`8`8`8`8`8`8`8`8`8`8`k`3`0`x`A`8`8`8`8`8`8`8`8`8`8`8`8`8`8`8`8`8`8`8`r`X`8`8`8`8`Q`z`8`8`8`8`8`8`8`8`8`8`8`8`8`8`8`8`8`8`8`8`8`8`8`8`8`8`8`8`8`8`8`8`8`8`8`8`8`8`8`8`8`8`8`8",
"`8`8`8`8`8`8`8`8`8`8`8`8`8`8`k`3`8`S`A`8`8`8`8`8`8`8`8`8`8`8`8`8`8`8`8`8`8`8`r`X`8`8`8`8`Q`z`8`8`8`8`8`8`8`8`8`8`8`8`8`8`8`8`8`8`8`8`8`8`8`8`8`8`8`8`8`8`8`8`8`8`8`8`8`8`8`8`8`8`8`8",
"`8`8`8`8`8`8`8`8`8`8`8`8`8`8`k`3`8`T`A`8`8`8`8`8`8`8`8`8`8`8`8`8`8`8`8`8`8`8`r`X`8`8`8`8`Q`z`8`8`8`8`8`8`8`8`8`8`8`8`8`8`8`8`8`8`8`8`8`8`8`8`8`8`8`8`8`8`8`8`8`8`8`8`8`8`8`8`8`8`8`8",
"`8`8`8`8`8`8`8`8`8`8`8`8`8`8`k`3`8`7`6`8`8`8`8`8`8`8`8`8`8`8`8`8`8`8`8`8`8`8`r`X`8`8`8`8`Q`z`8`8`8`8`8`8`8`8`8`8`8`8`8`8`8`8`8`8`8`8`8`8`8`8`8`8`8`8`8`8`8`8`8`8`8`8`8`8`8`8`8`8`8`8",
"`8`8`8`8`8`8`8`8`8`8`8`8`8`8`k`3`8`8`8`8`8`8`8`8`8`8`8`8`8`8`8`8`8`8`8`8`8`8`r`X`8`8`8`8`Q`z`8`8`8`8`8`8`8`8`8`8`8`8`8`8`8`8`8`8`8`8`8`8`8`8`8`8`8`8`8`8`8`8`8`8`8`8`8`8`8`8`8`8`8`8",
"`8`8`8`8`8`8`8`8`8`8`8`8`8`8`k`3`8`8`8`8`8`8`8`8`8`8`8`8`8`8`8`8`8`8`8`8`8`8`r`X`8`8`8`8`Q`z`8`8`8`8`8`8`8`8`8`8`8`8`8`8`8`8`8`8`8`8`8`8`8`8`8`8`8`8`8`8`8`8`8`8`8`8`8`8`8`8`8`8`8`8",
"`8`8`8`8`8`8`8`8`8`8`8`8`8`8`k`3`8`8`8`8`8`8`8`8`8`8`8`8`8`8`8`8`8`8`8`8`8`8`r`X`8`8`8`8`Q`z`8`8`8`8`8`8`8`8`8`8`8`8`8`8`8`8`8`8`8`8`8`8`8`8`8`8`8`8`8`8`8`8`8`8`8`8`8`8`8`8`8`8`8`8",
"`8`8`8`8`8`8`8`8`8`8`8`8`8`8`k`3`8`8`8`8`8`8`8`8`8`8`8`8`8`8`8`8`8`8`8`8`8`8`r`X`8`8`8`8`Q`z`8`8`8`8`8`8`8`8`8`8`8`8`8`8`8`8`8`8`8`8`8`8`8`8`8`8`8`8`8`8`8`8`8`8`8`8`8`8`8`8`8`8`8`8",
"`8`8`8`8`8`8`8`8`8`8`8`8`8`8`k`3`8`8`8`8`8`8`8`8`8`8`8`8`8`8`8`8`8`8`8`8`8`8`r`X`8`8`8`8`Q`z`8`8`8`8`8`8`8`8`8`8`8`8`8`8`8`8`8`8`8`8`8`8`8`8`8`8`8`8`8`8`8`8`8`8`8`8`8`8`8`8`8`8`8`8",
"`8`8`8`8`8`8`8`8`8`8`8`8`8`8`k`3`8`8`8`8`8`8`8`8`8`8`8`8`8`8`8`8`8`8`8`8`8`8`r`X`8`8`8`8`Q`z`8`8`8`8`8`8`8`8`8`8`8`8`8`8`8`8`8`8`8`8`8`8`8`8`8`8`8`8`8`8`8`8`8`8`8`8`8`8`8`8`8`8`8`8",
"`8`8`8`8`8`8`8`8`8`8`8`8`8`8`k`3`8`8`8`8`8`8`8`8`8`8`8`8`8`8`8`8`8`8`8`8`8`8`r`X`8`8`8`8`Q`z`8`8`8`8`8`8`8`8`8`8`8`8`8`8`8`8`8`8`8`8`8`8`8`8`8`8`8`8`8`8`8`8`8`8`8`8`8`8`8`8`8`8`8`8",
"`8`8`8`8`8`8`8`8`8`8`8`8`8`8`k`3`8`8`8`8`8`8`8`8`8`8`8`7`R`0`8`8`8`8`8`8`8`8`r`X`8`8`8`8`Q`z`8`8`8`8`8`8`W`U`5`8`8`8`8`8`8`8`8`8`8`8`8`8`8`8`8`8`8`8`8`8`8`8`8`8`8`8`8`8`8`8`8`8`8`8",
"`8`8`8`8`8`8`8`8`8`8`8`8`8`8`k`3`8`8`8`8`8`8`8`8`8`8`8`J`B`l`6`8`8`8`8`8`8`8`r`X`8`8`8`8`Q`z`8`8`8`8`8`7`j`B`2`8`8`8`8`8`8`8`8`8`8`8`8`8`8`8`8`8`8`8`8`8`8`8`8`8`8`8`8`8`8`8`8`8`8`8",
"`8`8`8`8`8`8`8`8`8`8`8`8`8`8`k`3`8`8`8`8`8`8`8`8`8`8`8`J`C`h`0`8`8`8`8`8`8`8`r`X`8`8`8`8`Q`z`8`8`8`8`8`1`l`o`0`8`8`8`8`8`8`8`8`8`8`8`8`8`8`8`8`8`8`8`8`8`8`8`8`8`8`8`8`8`8`8`8`8`8`8",
"`8`8`8`8`8`8`8`8`8`8`8`8`8`8`k`3`8`8`8`8`8`8`6`8`8`8`8`0`K`m`4`8`8`8`8`8`8`8`r`X`8`8`8`8`Q`z`8`8`8`8`8`3`V`F`M`8`8`8`8`8`8`8`8`8`8`8`8`8`8`8`8`8`8`8`8`8`8`8`8`8`8`8`8`8`8`8`8`8`8`8",
"`8`8`8`8`8`8`8`8`8`8`8`8`8`8`k`3`8`8`8`8`8`8`q`2`8`8`8`0`t`I`8`8`8`8`8`8`8`8`r`X`8`8`8`8`Q`z`8`8`8`8`8`5`w`w`5`8`8`8`8`8`8`8`8`8`8`8`8`8`8`8`8`8`8`8`8`8`8`8`8`8`8`8`8`8`8`8`8`8`8`8",
"`8`8`8`8`8`8`8`8`8`8`8`8`8`8`k`3`8`8`8`8`8`8`n`1`8`8`2`8`8`8`8`8`8`8`4`7`8`8`r`X`8`8`8`8`Q`z`8`8`3`8`8`8`8`8`8`8`8`8`8`8`8`8`8`8`8`8`8`8`8`8`8`8`8`8`8`8`8`8`8`8`8`8`8`8`8`8`8`8`8`8",
"`8`8`8`8`8`8`8`8`8`8`8`8`8`8`k`3`8`8`8`8`8`8`n`1`W`s`i`8`8`8`8`8`8`8`I`i`L`6`r`X`8`8`8`8`Q`z`3`A`d`8`8`8`8`8`8`8`8`8`8`8`8`8`8`8`8`8`8`8`8`8`8`8`8`8`8`8`8`8`8`8`8`8`8`8`8`8`8`8`8`8",
"`8`8`8`8`8`8`8`8`8`8`8`8`8`8`k`3`8`8`8`8`8`8`n`m`````#`n`n`n`n`n`n`n`g`````e`g`k`n`n`n`n`i`h`a`````n`n`u`8`8`8`8`8`8`8`8`8`8`8`8`8`8`8`8`8`8`8`8`8`8`8`8`8`8`8`8`8`8`8`8`8`8`8`8`8`8",
"`8`8`8`8`8`8`8`8`8`8`8`8`8`8`k`3`8`8`8`8`8`8`n`U`z`a`f`0`0`0`0`0`0`0`D```o`Q`r`R`0`0`0`0`K`x`J`g`#`0`0`2`8`8`8`8`8`8`8`8`8`8`8`8`8`8`8`8`8`8`8`8`8`8`8`8`8`8`8`8`8`8`8`8`8`8`8`8`8`8",
"`8`8`8`8`8`8`8`8`8`8`8`8`8`8`k`3`8`8`8`8`8`8`n`1`8`3`K`8`8`8`8`8`8`8`U`V`8`8`r`X`8`8`8`8`Q`z`8`6`K`8`8`8`8`8`8`8`8`8`8`8`8`8`8`8`8`8`8`8`8`8`8`8`8`8`8`8`8`8`8`8`8`8`8`8`8`8`8`8`8`8",
"`8`8`8`8`8`8`8`8`8`8`8`8`8`8`k`3`8`8`8`8`8`8`n`1`8`8`8`8`8`8`8`8`8`8`8`8`8`8`r`X`8`8`8`8`Q`z`8`8`8`8`8`8`8`8`8`8`8`8`8`8`8`8`8`8`8`8`8`A`8`8`8`8`8`8`8`8`8`8`8`8`8`8`8`8`8`8`8`8`8`8",
"`8`8`8`8`8`8`8`8`8`8`8`8`8`8`k`3`8`8`8`8`8`8`n`1`8`8`8`8`8`8`8`8`8`8`8`8`8`8`r`X`8`8`8`8`Q`z`8`8`8`8`8`8`8`8`8`8`8`8`8`8`8`8`8`8`8`R`E`b`E`X`8`8`8`8`8`8`8`8`8`8`8`8`8`8`8`8`8`8`8`8",
"`8`8`8`8`8`8`8`8`8`8`8`8`8`8`k`3`8`8`8`8`8`8`y`4`8`8`8`8`8`8`8`8`8`8`8`8`8`8`r`X`8`8`8`8`Q`z`8`8`8`8`8`8`8`8`8`8`8`8`8`8`8`8`8`8`8`V`````a`2`8`8`8`8`8`8`8`8`8`8`8`8`8`8`8`8`8`8`8`8",
"`8`8`8`8`8`8`8`8`8`8`8`8`8`8`k`3`8`8`8`8`8`8`8`8`8`8`8`8`8`8`8`8`8`8`8`8`8`8`r`X`8`8`8`8`Q`z`8`8`8`8`8`8`8`8`8`8`8`8`8`8`8`8`8`8`8`8`s```y`8`8`8`8`8`8`8`8`8`8`8`8`8`8`8`8`8`8`8`8`8",
"`8`8`8`8`8`8`8`8`8`8`8`8`8`8`k`3`8`8`8`8`8`8`8`8`8`8`8`8`8`8`8`8`8`8`8`8`8`8`r`X`8`8`8`8`Q`z`8`8`8`8`8`8`8`8`8`8`8`8`8`8`8`8`8`8`8`8`Y`a`0`8`8`8`8`8`8`8`8`8`8`8`8`8`8`8`8`8`8`8`8`8",
"`8`8`8`8`8`8`8`8`8`8`8`8`8`8`k`3`8`8`8`8`8`8`B`n`n`n`n`n`n`n`n`n`n`n`n`n`n`n`c`Y`8`8`8`8`R`e`n`n`n`n`n`n`n`n`n`n`n`n`n`n`m`V`w`n`n`n`n`c`n`n`q`6`8`8`8`8`8`8`8`8`8`8`8`8`8`8`8`8`8`8",
"`8`8`8`8`8`8`8`8`8`8`8`8`8`8`k`3`8`8`8`8`8`8`n`S`Y`Y`Y`Y`Y`Y`Y`Y`Y`Y`Y`Y`Y`Y`Z`8`8`8`8`8`7`Y`Y`Y`Y`Y`Y`Y`Y`Y`Y`Y`Y`Y`Y`Y`u`O`1`Y`Y`Y`X`e`X`Y`0`8`4`0`0`7`8`8`8`8`8`8`8`8`8`8`8`8`8`8",
"`8`8`8`8`8`8`8`8`8`8`8`8`7`3`i`Z`4`8`8`8`8`8`n`1`8`8`8`8`8`8`8`8`8`8`8`8`8`8`8`8`8`8`8`8`8`8`8`8`8`8`8`8`8`8`8`8`8`8`8`8`z`O`8`8`8`8`7`g`7`8`8`8`O`w`g`5`8`8`8`8`8`8`8`8`8`8`8`8`8`8",
"`8`8`8`8`8`8`8`8`8`8`8`8`0`#`````y`8`8`8`8`8`n`1`8`8`8`8`8`8`8`8`8`8`8`8`8`8`8`8`8`8`8`8`8`8`8`8`8`8`8`8`8`8`8`8`8`8`8`8`z`O`8`8`8`8`7`g`7`8`8`8`8`K`N`8`8`8`8`8`8`8`8`8`8`8`8`8`8`8",
"`8`8`8`8`8`8`8`8`8`8`8`8`8`v```b`3`8`8`8`8`8`n`1`8`8`8`8`8`8`8`8`8`8`8`8`8`8`8`8`8`8`8`8`8`8`8`8`8`8`8`8`8`8`8`8`8`8`8`8`z`O`8`8`8`8`7`g`7`8`8`8`8`p`7`8`8`8`8`8`8`8`8`8`8`8`8`8`8`8",
"`8`8`8`8`8`8`8`8`8`8`8`8`8`X`.`D`8`8`8`8`8`8`n`1`8`8`8`8`8`8`8`8`8`8`8`8`8`8`8`8`8`8`8`8`8`8`8`8`8`8`8`8`8`8`8`8`8`8`8`8`z`O`8`8`8`8`7`g`7`8`8`8`6`z`8`8`8`8`8`8`8`8`8`8`8`8`8`8`8`8",
"`8`8`8`8`8`8`8`8`8`8`8`Q`L`L`i`H`L`L`L`T`8`8`n`G`L`L`L`L`L`L`L`L`L`L`L`L`L`L`L`L`L`L`L`L`L`L`L`L`L`L`L`L`L`L`L`L`L`L`L`L`o`O`Q`L`L`L`K`c`K`L`N`8`8`8`8`8`8`8`8`8`8`8`8`8`8`8`8`8`8`8",
"`8`8`8`8`8`8`8`8`8`8`8`J`C`C`C`C`C`C`C`M`8`8`M`C`C`C`C`C`C`C`C`C`C`C`C`C`C`C`C`C`C`C`C`C`C`C`C`C`C`C`C`C`C`C`C`C`C`C`C`C`C`0`I`C`C`C`C`g`C`C`E`7`8`8`8`8`8`8`8`8`8`8`8`8`8`8`8`8`8`8",
"`8`8`8`8`8`8`8`8`8`8`8`8`8`8`8`8`8`8`8`8`8`8`G`5`8`8`8`8`8`8`8`8`8`8`8`8`8`8`8`8`8`8`8`8`8`8`8`8`8`8`8`8`8`8`8`8`8`8`8`8`N`X`8`8`8`8`S```V`8`8`8`8`8`8`8`8`8`8`8`8`8`8`8`8`8`8`8`8`8",
"`8`8`8`8`8`8`8`8`8`8`8`8`8`8`8`8`8`8`8`8`8`8`n`1`8`8`8`8`8`8`8`8`8`8`8`8`8`8`8`8`8`8`8`8`8`8`8`8`8`8`8`8`8`8`8`8`8`8`8`8`z`O`8`8`8`8`m```s`8`8`8`8`8`8`8`8`8`8`8`8`8`8`8`8`8`8`8`8`8",
"`8`8`8`8`8`8`8`8`8`8`8`8`8`8`8`8`8`8`8`8`8`8`n`1`8`8`8`8`8`8`8`8`8`8`8`8`8`8`8`8`8`8`8`8`8`8`8`8`8`8`8`8`8`8`8`8`8`8`8`8`z`O`8`8`8`P`````.`Y`8`8`8`8`8`8`8`8`8`8`8`8`8`8`8`8`8`8`8`8",
"`8`8`8`8`8`8`8`8`8`8`8`8`8`8`8`8`8`8`8`8`8`8`n`1`8`6`R`8`8`8`8`8`8`8`8`8`8`8`8`8`8`8`8`8`8`8`8`8`8`8`8`8`8`8`8`8`7`S`7`8`z`O`8`8`8`X`Q`e`P`1`8`8`8`8`8`8`8`8`8`8`8`8`8`8`8`8`8`8`8`8",
"`8`8`8`8`8`8`8`8`8`8`8`8`8`8`8`8`8`8`8`8`8`8`n`Y`I`g`g`7`7`7`7`7`7`7`7`7`7`7`7`7`7`7`7`7`7`7`7`7`7`7`7`7`7`7`7`7`4`#`k`N`y`O`8`8`8`8`8`0`8`8`8`8`8`8`8`8`8`8`8`8`8`8`8`8`8`8`8`8`8`8",
"`8`8`8`8`8`8`8`8`8`8`8`8`8`8`8`8`8`8`8`8`8`8`n`g`````.`i`i`i`i`i`i`i`i`i`i`i`i`i`i`i`i`i`i`i`i`i`i`i`i`i`i`i`i`i`h```````#`O`8`8`8`8`8`8`8`8`8`8`8`8`8`8`8`8`8`8`8`8`8`8`8`8`8`8`8`8",
"`8`8`8`8`8`8`8`8`8`8`8`8`8`8`8`8`8`8`8`8`8`8`n`Z`F`c`h`8`8`8`8`8`8`8`8`8`8`8`8`8`8`8`8`8`8`8`8`8`8`8`8`8`8`8`8`8`5`#`f`L`y`O`8`8`8`8`8`8`8`8`8`8`8`8`8`8`8`8`8`8`8`8`8`8`8`8`8`8`8`8",
"`8`8`8`8`8`8`8`8`8`8`8`8`8`8`8`8`8`8`8`8`8`8`n`1`8`3`I`8`8`8`8`8`8`8`8`8`8`8`8`8`8`8`8`8`8`8`8`8`8`8`8`8`8`8`8`8`6`I`6`8`z`O`8`8`8`8`8`8`8`8`8`8`8`8`8`8`8`8`8`8`8`8`8`8`8`8`8`8`8`8",
"`8`8`8`8`8`8`8`8`8`8`8`8`8`8`8`8`8`8`8`8`8`8`o`1`8`8`8`8`8`8`8`8`8`8`8`8`8`8`8`8`y`3`8`8`8`8`8`8`8`8`8`8`8`8`8`8`8`8`8`8`A`O`8`8`8`8`8`8`8`8`8`8`8`8`8`8`8`8`8`8`8`8`8`8`8`8`8`8`8`8",
"`8`8`8`8`8`8`8`8`8`8`8`8`8`8`8`8`8`8`8`8`8`8`2`8`8`8`8`8`8`8`8`8`8`8`8`8`8`8`8`J`d`1`8`8`8`8`8`8`8`8`8`8`8`8`8`8`8`8`8`8`3`6`8`8`8`8`8`8`8`8`8`8`8`8`8`8`8`8`8`8`8`8`8`8`8`8`8`8`8`8",
"`8`8`8`8`8`8`8`8`8`8`8`8`8`8`8`8`8`8`8`8`8`8`8`8`8`8`8`8`8`8`8`8`8`8`8`8`8`8`1`p`o`V`8`8`8`8`8`8`8`8`8`8`8`8`8`8`8`8`8`8`8`8`8`8`8`8`8`8`8`8`8`8`8`8`8`8`8`8`8`8`8`8`8`8`8`8`8`8`8`8",
"`8`8`8`8`8`8`8`8`8`8`8`8`8`8`8`8`8`8`8`8`8`8`8`8`8`8`8`8`8`8`8`8`8`8`8`8`8`8`1`E`j`O`8`8`8`8`8`8`8`8`8`8`8`8`8`8`8`8`8`8`8`8`8`8`8`8`8`8`8`8`8`8`8`8`8`8`8`8`8`8`8`8`8`8`8`8`8`8`8`8",
"`8`8`8`8`8`8`8`8`8`8`8`8`8`8`8`8`8`8`8`8`8`8`8`8`8`8`8`8`8`8`8`8`8`8`8`8`8`8`8`8`X`6`8`8`8`8`8`8`8`8`8`8`8`8`8`8`8`8`8`8`8`8`8`8`8`8`8`8`8`8`8`8`8`8`8`8`8`8`8`8`8`8`8`8`8`8`8`8`8`8",
"`8`8`8`8`8`8`8`8`8`8`8`8`8`8`8`8`8`8`8`8`8`8`8`8`8`8`8`8`8`8`8`8`8`8`8`8`8`8`8`8`8`8`8`8`8`8`8`8`8`8`8`8`8`8`8`8`8`8`8`8`8`8`8`8`8`8`8`8`8`8`8`8`8`8`8`8`8`8`8`8`8`8`8`8`8`8`8`8`8`8"
};
