/* XPM */
static char *select[] = {
/* width height num_colors chars_per_pixel */
"    36    36      256            2",
/* colors */
"`` c None",
"`. c #d6aead",
"`# c #ce5952",
"`a c #c64d4a",
"`b c #c65552",
"`c c #ceb6b5",
"`d c #cecfce",
"`e c #d6bab5",
"`f c #ce5552",
"`g c #c65152",
"`h c #ceb2ad",
"`i c #cecfc6",
"`j c #c65952",
"`k c #d6cfce",
"`l c #c60000",
"`m c #c60808",
"`n c #bd9a94",
"`o c #c6bebd",
"`p c #c6a29c",
"`q c #c6c3bd",
"`r c #bd5952",
"`s c #cec7c6",
"`t c #bd1818",
"`u c #bd4542",
"`v c #ad9694",
"`w c #b5aead",
"`x c #bdaead",
"`y c #c67d7b",
"`z c #bd7573",
"`A c #bd6d6b",
"`B c #b56963",
"`C c #ad6563",
"`D c #ad6963",
"`E c #ad9e9c",
"`F c #b5b2ad",
"`G c #bdb2ad",
"`H c #bd2829",
"`I c #b53c39",
"`J c #adaaa5",
"`K c #bdb6b5",
"`L c #bd4139",
"`M c #9c9694",
"`N c #a5a29c",
"`O c #b5b6b5",
"`P c #bdbab5",
"`Q c #adaead",
"`R c #9c9e9c",
"`S c #9c9a94",
"`T c #b53831",
"`U c #948e8c",
"`V c #94928c",
"`W c #ada6a5",
"`X c #bd4142",
"`Y c #ad3431",
"`Z c #cecbc6",
"`0 c #bdbeb5",
"`1 c #bd5d5a",
"`2 c #bd1c18",
"`3 c #ad494a",
"`4 c #949294",
"`5 c #c6797b",
"`6 c #ad6163",
"`7 c #a59e9c",
"`8 c #b5b6ad",
".` c #cebebd",
".. c #cea2a5",
".# c #c6aaa5",
".a c #ce9e9c",
".b c #c69694",
".c c #bdbebd",
".d c #c6514a",
".e c #c6494a",
".f c #c64942",
".g c #c6c7bd",
".h c #949694",
".i c #c66163",
".j c #bd2021",
".k c #b5514a",
".l c #cec7bd",
".m c #ada29c",
".n c #bd1410",
".o c #b53839",
".p c #bd5552",
".q c #c6bab5",
".r c #c61c18",
".s c #ce9a94",
".t c #b5aaa5",
".u c #ad4d4a",
".v c #bd8e8c",
".w c #b56563",
".x c #a5595a",
".y c #a55952",
".z c #a56963",
".A c #c67973",
".B c #bd7173",
".C c #b56d6b",
".D c #bda29c",
".E c #c67573",
".F c #ad716b",
".G c #b57173",
".H c #9c928c",
".I c #a5a6a5",
".J c #000000",
".K c #000000",
".L c #000000",
".M c #000000",
".N c #000000",
".O c #000000",
".P c #000000",
".Q c #000000",
".R c #000000",
".S c #000000",
".T c #000000",
".U c #000000",
".V c #000000",
".W c #000000",
".X c #000000",
".Y c #000000",
".Z c #000000",
".0 c #000000",
".1 c #000000",
".2 c #000000",
".3 c #000000",
".4 c #000000",
".5 c #000000",
".6 c #000000",
".7 c #000000",
".8 c #000000",
"#` c #000000",
"#. c #000000",
"## c #000000",
"#a c #000000",
"#b c #000000",
"#c c #000000",
"#d c #000000",
"#e c #000000",
"#f c #000000",
"#g c #000000",
"#h c #000000",
"#i c #000000",
"#j c #000000",
"#k c #000000",
"#l c #000000",
"#m c #000000",
"#n c #000000",
"#o c #000000",
"#p c #000000",
"#q c #000000",
"#r c #000000",
"#s c #000000",
"#t c #000000",
"#u c #000000",
"#v c #000000",
"#w c #000000",
"#x c #000000",
"#y c #000000",
"#z c #000000",
"#A c #000000",
"#B c #000000",
"#C c #000000",
"#D c #000000",
"#E c #000000",
"#F c #000000",
"#G c #000000",
"#H c #000000",
"#I c #000000",
"#J c #000000",
"#K c #000000",
"#L c #000000",
"#M c #000000",
"#N c #000000",
"#O c #000000",
"#P c #000000",
"#Q c #000000",
"#R c #000000",
"#S c #000000",
"#T c #000000",
"#U c #000000",
"#V c #000000",
"#W c #000000",
"#X c #000000",
"#Y c #000000",
"#Z c #000000",
"#0 c #000000",
"#1 c #000000",
"#2 c #000000",
"#3 c #000000",
"#4 c #000000",
"#5 c #000000",
"#6 c #000000",
"#7 c #000000",
"#8 c #000000",
"a` c #000000",
"a. c #000000",
"a# c #000000",
"aa c #000000",
"ab c #000000",
"ac c #000000",
"ad c #000000",
"ae c #000000",
"af c #000000",
"ag c #000000",
"ah c #000000",
"ai c #000000",
"aj c #000000",
"ak c #000000",
"al c #000000",
"am c #000000",
"an c #000000",
"ao c #000000",
"ap c #000000",
"aq c #000000",
"ar c #000000",
"as c #000000",
"at c #000000",
"au c #000000",
"av c #000000",
"aw c #000000",
"ax c #000000",
"ay c #000000",
"az c #000000",
"aA c #000000",
"aB c #000000",
"aC c #000000",
"aD c #000000",
"aE c #000000",
"aF c #000000",
"aG c #000000",
"aH c #000000",
"aI c #000000",
"aJ c #000000",
"aK c #000000",
"aL c #000000",
"aM c #000000",
"aN c #000000",
"aO c #000000",
"aP c #000000",
"aQ c #000000",
"aR c #000000",
"aS c #000000",
"aT c #000000",
"aU c #000000",
"aV c #000000",
"aW c #000000",
"aX c #000000",
"aY c #000000",
"aZ c #000000",
"a0 c #000000",
"a1 c #000000",
"a2 c #000000",
"a3 c #000000",
"a4 c #000000",
"a5 c #000000",
"a6 c #000000",
"a7 c #000000",
"a8 c #000000",
/* pixels */
"````````````````````````````````````````````````````````````````````````",
"````````````````````````````````````````````````````````````````````````",
"````````````````````````````````````````````````````````````````````````",
"````````````````````````````````````````````````````````````````````````",
"```.`#`a`b`c`d`e`f`a`a`a`a`a`g`h`i`e`f`a`a`a`a`a`g`h`i`e`f`a`a`j`h`i`k``",
"```#`l`l`m`n`o`p`m`l`l`l`l`l`m`n`q`p`m`l`l`l`l`l`m`n`q`p`m`l`l`l`r`o`s`d",
"```a`l`t`u`v`w`x`y`z`A`B`C`C`D`E`F`G`y`z`A`B`C`C`D`E`F`G`y`z`H`l`I`J`K`s",
"```a`l`L`M`M`N`O`o`P`Q`N`R`S`R`N`Q`P`o`P`Q`N`R`S`R`N`Q`P`o`P`L`l`T`M`J`o",
"```a`l`I`U`V`N`K`q`o`K`Q`J`W`J`Q`K`o`q`o`K`Q`J`W`J`Q`K`o`q`o`X`l`Y`V`N`P",
"```a`l`I`V`M`J`o`Z`Z`q`o`0`P`0`o`q`Z`Z`Z`q`o`0`P`0`o`q`Z`Z`s`1`2`3`4`N`P",
"```5`u`6`M`7`8`s`k```k`d`i`i`i`d`k```````k`d`i`i`i`d`k`````k.``x`7`R`W`P",
"```Z`0`J`N`J`P`Z`````````````````````````````````````````````i`q`F`Q`F`q",
"```k`q`K`F`K`q`k`````````````````````````````````````````````e...#`P`o`s",
"``.a`y.b.c`q`Z```````````````````````````````````````````````f`m.d`q`q`Z",
"```a`l.e`o`q`Z```````````````````````````````````````````````a`l.f`P.c`s",
"```a`l`u`O`P.g`k`````````````````````````````````````````````a`l`X`J`F`o",
"```a`l`X`W`Q`o`Z`````````````````````````````````````````````a`l`I`R`W`P",
"```a`l`I`S`N`P`Z`````````````````````````````````````````````a`l`I`M`N`K",
"```a`l`I.h`N`K`Z`````````````````````````````````````````````a`l`I.h`7`K",
"```a`l`I.h`7`K`Z````````````````````````````````````````````.i.j.k`M`N`K",
"```5`u`C`S`N`P`Z````````````````````````````````````````````.l`G.m`7`W`P",
"```Z`0`J`N`J`0`Z`````````````````````````````````````````````d`q`F`Q`F`q",
"```k`q`K`F`K`q`k`````````````````````````````````````````````e...#`P`o`s",
"``.a`y.b.c`q`Z```````````````````````````````````````````````f`m.d`q`q`Z",
"```a`l.e`o`q`Z```````````````````````````````````````````````a`l.f`P.c`s",
"```a`l`u`O`P.g`k`````````````````````````````````````````````a`l`X`J`F`o",
"```a`l`X`W`Q`o`Z`````````````````````````````````````````````a`l`I`R`W`P",
"```a`l`I`S`N`K`s`````````````````````````````````````````````a`l`I.h`N`K",
"```a`l.n`T.o.p.q`Z.a`a`a`a`a`a`a`g`h`i.a`a`a`a`a`a`a.i.l`d.a.r`l.o`V`7`K",
"``.s`H`l`l`l`2.t`o`5`l`l`l`l`l`l`m`n`o`5`l`l`l`l`l`l.j`G`q`5`l`l.u`V`7`K",
"```Z.v.w.x.y.z.m`8`p.A.B.C.w`C`C`D`E`F.D.E.B.C.w`C`C.F`W`O`p`z.G.H.h`N`P",
"```k`q`F`N`M`S`N`w`0`o`K`J`7`S`S`R`N`Q`P.c`K`J`7`S`S`R.I`w`P.c`F`N`N`Q`o",
"`````Z`o`F`J`J`w`P`q`q.c`F`J`W`W`J`Q`O`o`q`0`F`J`W`W`J`w`P`q`q`0`8`F`P`s",
"```````Z.g`o`o`o.g`Z`Z`s`q`o`0`P`0`o`q`Z`Z`s`q`o`0`P.c`o.g`Z`Z`s`q.g`Z`k",
"`````````k`d`i`d`k```````k`i`i`i`i`d`k`````k`k`i`i`i`i`d`k```````k`k````",
"````````````````````````````````````````````````````````````````````````"
};
