/* XPM */
static char *tlpan[] = {
/* width height num_colors chars_per_pixel */
"    18    18       16            1",
/* colors */
"` c #000000",
". c #800000",
"# c #008000",
"a c None",
"b c #000080",
"c c #800080",
"d c #008080",
"e c #c0c0c0",
"f c #808080",
"g c #ff0000",
"h c #00ff00",
"i c #ffff00",
"j c #0000ff",
"k c #ff00ff",
"l c #00ffff",
"m c #ffffff",
/* pixels */
"aaaaaaaaa```aaaaaa",
"aaaaaaa``m`m`aaaaa",
"aaaaaa`m`m`m``aaaa",
"aaaaaa`m`m`m`m`aaa",
"aaaaaa`m`m`m`m`aaa",
"aaaaaa`m`m`m`m`aaa",
"aaaa`a`m`m`m`m`aaa",
"aaa`m``m`m`m`m`aaa",
"aaa`m``m`m`m`m`aaa",
"aaa`m``mmmmmmm`aaa",
"aaa`m``mmmmmmm`aaa",
"aaa`mmmmmmmmmm`aaa",
"aaa`mmmmmmmmmm`aaa",
"aaa`mmmmmmmmmm`aaa",
"aaaa`mmmmmmmmm`aaa",
"aaaaa`mmmmmmm`aaaa",
"aaaaaa```````aaaaa",
"aaaaaaaaaaaaaaaaaa"
};
```aaaaa",
"aaaaaaaaaaaaaaaaaa"
};
