/* XPM */
static char *view_zoom[] = {
/* width height num_colors chars_per_pixel */
"    36    36      256            2",
/* colors */
"`` c None",
"`. c #b5b2c6",
"`# c #7371bd",
"`a c #424db5",
"`b c #393cad",
"`c c #6b71bd",
"`d c #5259b5",
"`e c #3945ad",
"`f c #7379bd",
"`g c #4a4db5",
"`h c #4a51b5",
"`i c #adaabd",
"`j c #cecfce",
"`k c #d6cfce",
"`l c #8c8abd",
"`m c #7b79bd",
"`n c #cec7c6",
"`o c #b5b2bd",
"`p c #ada6b5",
"`q c #b5aeb5",
"`r c #9c9aad",
"`s c #5259ad",
"`t c #3941ad",
"`u c #4245ad",
"`v c #7b7dad",
"`w c #7b7db5",
"`x c #cecbc6",
"`y c #8482bd",
"`z c #8c8ebd",
"`A c #c6bebd",
"`B c #b5b6b5",
"`C c #9c9ead",
"`D c #5a61a5",
"`E c #5255a5",
"`F c #4249ad",
"`G c #7b7d9c",
"`H c #6b71ad",
"`I c #bdbebd",
"`J c #9c9ec6",
"`K c #6b71b5",
"`L c #c6c3bd",
"`M c #8486b5",
"`N c #7b79ad",
"`O c #9c9a9c",
"`P c #9c9e9c",
"`Q c #5255ad",
"`R c #4a51a5",
"`S c #847d7b",
"`T c #5a5d9c",
"`U c #8482ad",
"`V c #bdb6b5",
"`W c #cecfc6",
"`X c #b5b2ad",
"`Y c #7b7573",
"`Z c #73757b",
"`0 c #a5a29c",
"`1 c #7375ad",
"`2 c #4a4dad",
"`3 c #4a4da5",
"`4 c #73716b",
"`5 c #525994",
"`6 c #737194",
"`7 c #94928c",
"`8 c #b5b6ad",
".` c #7b7dbd",
".. c #7b7d94",
".# c #5a619c",
".a c #5a5da5",
".b c #52519c",
".c c #4a4d9c",
".d c #3941a5",
".e c #4a5194",
".f c #63617b",
".g c #8c8a8c",
".h c #8c8a84",
".i c #ada6a5",
".j c #6b6994",
".k c #4a51ad",
".l c #7b7994",
".m c #848684",
".n c #6b6d8c",
".o c #4249a5",
".p c #525584",
".q c #5a6194",
".r c #948e8c",
".s c #8c8e8c",
".t c #bdbab5",
".u c #9492a5",
".v c #4245a5",
".w c #6b6984",
".x c #84827b",
".y c #848294",
".z c #5259a5",
".A c #4a519c",
".B c #63657b",
".C c #7b7973",
".D c #9c9694",
".E c #737573",
".F c #7b797b",
".G c #adaaa5",
".H c #a59e9c",
".I c #949294",
".J c #7b7d7b",
".K c #8c8684",
".L c #949694",
".M c #b5aead",
".N c #adaead",
".O c #c6c7bd",
".P c #bdbece",
".Q c #8c92bd",
".R c #6365b5",
".S c #c6c3ce",
".T c #b5b6ce",
".U c #7b82bd",
".V c #5255b5",
".W c #848abd",
".X c #cecbce",
".Y c #a5a6c6",
".Z c #4249b5",
".0 c #7379b5",
".1 c #9c9ac6",
".2 c #7375a5",
".3 c #7b79a5",
".4 c #9496b5",
".5 c #73718c",
".6 c #c6bec6",
".7 c #4a4d94",
".8 c #737173",
"#` c #a5a6a5",
"#. c #9c9ebd",
"## c #5a5d7b",
"#a c #7b757b",
"#b c #a59ea5",
"#c c #bdbabd",
"#d c #c6c7c6",
"#e c #7375bd",
"#f c #6369b5",
"#g c #9492bd",
"#h c #b5b6c6",
"#i c #5a61b5",
"#j c #4245b5",
"#k c #8c8eb5",
"#l c #5a5db5",
"#m c #63659c",
"#n c #8c8ea5",
"#o c #adaaad",
"#p c #4a498c",
"#q c #5a597b",
"#r c #6b6d73",
"#s c #7b798c",
"#t c #42499c",
"#u c #52517b",
"#v c #5a596b",
"#w c #63615a",
"#x c #636563",
"#y c #6b696b",
"#z c #9c9a94",
"#A c #736d73",
"#B c #6b6563",
"#C c #6b6d6b",
"#D c #000000",
"#E c #000000",
"#F c #000000",
"#G c #000000",
"#H c #000000",
"#I c #000000",
"#J c #000000",
"#K c #000000",
"#L c #000000",
"#M c #000000",
"#N c #000000",
"#O c #000000",
"#P c #000000",
"#Q c #000000",
"#R c #000000",
"#S c #000000",
"#T c #000000",
"#U c #000000",
"#V c #000000",
"#W c #000000",
"#X c #000000",
"#Y c #000000",
"#Z c #000000",
"#0 c #000000",
"#1 c #000000",
"#2 c #000000",
"#3 c #000000",
"#4 c #000000",
"#5 c #000000",
"#6 c #000000",
"#7 c #000000",
"#8 c #000000",
"a` c #000000",
"a. c #000000",
"a# c #000000",
"aa c #000000",
"ab c #000000",
"ac c #000000",
"ad c #000000",
"ae c #000000",
"af c #000000",
"ag c #000000",
"ah c #000000",
"ai c #000000",
"aj c #000000",
"ak c #000000",
"al c #000000",
"am c #000000",
"an c #000000",
"ao c #000000",
"ap c #000000",
"aq c #000000",
"ar c #000000",
"as c #000000",
"at c #000000",
"au c #000000",
"av c #000000",
"aw c #000000",
"ax c #000000",
"ay c #000000",
"az c #000000",
"aA c #000000",
"aB c #000000",
"aC c #000000",
"aD c #000000",
"aE c #000000",
"aF c #000000",
"aG c #000000",
"aH c #000000",
"aI c #000000",
"aJ c #000000",
"aK c #000000",
"aL c #000000",
"aM c #000000",
"aN c #000000",
"aO c #000000",
"aP c #000000",
"aQ c #000000",
"aR c #000000",
"aS c #000000",
"aT c #000000",
"aU c #000000",
"aV c #000000",
"aW c #000000",
"aX c #000000",
"aY c #000000",
"aZ c #000000",
"a0 c #000000",
"a1 c #000000",
"a2 c #000000",
"a3 c #000000",
"a4 c #000000",
"a5 c #000000",
"a6 c #000000",
"a7 c #000000",
"a8 c #000000",
/* pixels */
"````````````````````````````````````````````````````````````````````````",
"````````````````````````````````````````````````````````````````````````",
"`````````````.`#`a`b`b`b`b`b`a`c`.``````````````````````````````````````",
"`````````.`d`b`e`f`#`b`b`b`b`e`g`e`h`i`j`k``````````````````````````````",
"```````l`b`b`m`n`n`o`p`q`r`s`t`u`v`t`t`w`n`x````````````````````````````",
"`````y`b`b`z`n`A`B`C`b`b`t`D`E`F`D`G`b`b`H`I`n`k````````````````````````",
"```J`b`b`K`L`M`N`O`P`Q`b`b`b`R`t`e`S`T`b`b`U`V`L`W``````````````````````",
"```h`b`b`o`X`b`b`e`t`Q`b`b`b`b`b`b`Y`Z`b`b`F`0`X`L`j````````````````````",
"```J`b`b`1`0`e`e`2`b`b`b`b`b`3`t`t`4`5`b`b`6`7`0`8`n`k``````````````````",
"````.``b`b...#`2.a`s`b`b`b.b.c.d.e.f`b`b.#.g.h`7.i`A`j``````````````````",
"`````x`w`t`t.j`R`e.k.l.m.n.o`b`t.p`t`t.q.r.g.m.s`0.t`x``````````````````",
"`````j`A.u`2`t`F`F`b`b`b`b`b`t.d`t.v.w.x.s.g.h`7.i`A`j``````````````````",
"`````k`n`B`0.y.z`u`b`b`b`b`b`t.A.B`4.C.x.h.s`7`0`8`n`k``````````````````",
"```````j`L`X`0.D`7.h`S.C.C.C.C.C.E.E.F.m.r.D`0`X`L`j````````````````````",
"`````````W`L`V.G.H.I.h.x`S`S.x`S.J`S.K`7`P.G`V`L`W``````````````````````",
"```````````k`n`A`X.G.H.D`7`7`7`7`7.L`P.i`X`I`n`k````````````````````````",
"```````````````x`n`A`V`X.M.N.N.N.M`X`V`A`n`x````````````````````````````",
"```````````````````j`x`n.O`L`L`L.O`n`x`n`k``````````````````````````````",
"`````````````````````````````````k.P.Q.R.Q.S````````````````````````````",
"`````````````````````````````k.T.U`g`b`b`b.V.W`.`j``````````````````````",
"````````````````````````.X.Y`c.Z`b`b`b`b`b`b`b`F.0`o`W``````````````````",
"````````````````````````.P`J.1.1.U`t`b`b`b`2.2.3`U.4`I`x`k``````````````",
"```````````````````````````````j`w`b`b`b`b`t.5.m`7`0.M`A`n`k````````````",
"`````````````````````````````k.6.V`b`b`b`b`b.7.8`S`7#``V`L`W````````````",
"`````````````````````````````k#.`t`b`b`b`b`b`t###a.g#b`q#c#d.X.X````````",
"```````````j`J.U#e#e#e#e#e#e#e`d`b`b`b`b`b`b`b.d.o`2.k`Q.V`d#f#g.S``````",
"`````````````k#h`z#i#j`b`b`b`b`b`b`b`b`b`b`b`b`b`b`b`b`u#i#k`o`n`n`x`k``",
"`````````````````k#d`i`M#l`u`b`b`b`b`b`b`b`b`b`b`b.o#m#n#`.M`X`B.t`A`n`j",
"`````````````````j`n`I`8#o.u.2`Q`e`b`b`b`b`b.d#p#q#r`S.h`7.D.H.i.M.t`L`x",
"`````````````````k`n`A`8.G`0.D.s#s.q.c.v#t#u#v#w#x#y.E`S.K`7#z.i`X.t`n`j",
"```````````````````j`n`A`V.N`0#z.r.m.F#A#y#B#x#B#C.8.J.h`7.H.G`8`A`n`W``",
"`````````````````````k`x`n`A.t.M.i#z`7.K`S.C`Y.C.x.h.L`0.G`V`A`n`x`k````",
"`````````````````````````k`j`x`L`A`V.M#``P.L.I.D`P.i`X.t`L`n`W`k````````",
"```````````````````````````````k`j`x`L`A.t`X`X`8.t`A`n`x`k``````````````",
"`````````````````````````````````````k`j`x`n`n`n`x`k````````````````````",
"````````````````````````````````````````````````````````````````````````"
};
