/* XPM */
static char *additional_close[] = {
/* width height num_colors chars_per_pixel */
"     5    36       18            1",
/* colors */
"` c #656565",
". c #696969",
"# c #797975",
"a c #797979",
"b c #7d7d7d",
"c c #81817d",
"d c #898989",
"e c #959191",
"f c #a19d9d",
"g c #aeaeaa",
"h c #b2aeaa",
"i c #bab6b2",
"j c #c6c6c2",
"k c #cecec6",
"l c #cececa",
"m c #d2ceca",
"n c #d2d2ca",
"o c None",
/* pixels */
"ooooo",
"ooooo",
"ooooo",
"ooooo",
"ooooo",
"ooooo",
"ooooo",
"ooooo",
"ooooo",
"ooooo",
"ooolo",
"oomfl",
"ooibl",
"omd#l",
"oh.#l",
"kc`#l",
"h``#l",
"h``#l",
"kc`#l",
"og`#l",
"okc#l",
"oogal",
"ookel",
"ooojn",
"ooooo",
"ooooo",
"ooooo",
"ooooo",
"ooooo",
"ooooo",
"ooooo",
"ooooo",
"ooooo",
"ooooo",
"ooooo",
"ooooo"
};
