/* XPM */
static char *bcX[] = {
/* width height num_colors chars_per_pixel */
"    18    18       16            1",
/* colors */
"` c #000000",
". c #800000",
"# c #008000",
"a c None",
"b c #000080",
"c c #800080",
"d c #008080",
"e c #c0c0c0",
"f c #808080",
"g c #ff0000",
"h c #00ff00",
"i c #ffff00",
"j c #0000ff",
"k c #ff00ff",
"l c #00ffff",
"m c #ffffff",
/* pixels */
"aaaaaaaaaaaaaaaaaa",
"aaaaaa`aa`aaaaaaaa",
"aaaaaaa`a`aaaaaaaa",
"aaaaaaaa````aaaaaa",
"aaaaaaaaa`aa``aaaa",
"aaaaaa`aa`aa`a`aaa",
"aaaaaaa`a````aa`aa",
"aaaaaaaa``aa`aaa`a",
"aaaaaaaaa`aa`aaaa`",
"aaaaaa`aa`aa`aaa`a",
"aaaaaaa`a````aa`aa",
"aaaaaaaa``aa`a`aaa",
"aaaaaaaaa`aa``aaaa",
"aaaaaa`aa```aaaaaa",
"aaaaaaa`a`aaaaaaaa",
"aaaaaaaa``aaaaaaaa",
"aaaaaaaaa`aaaaaaaa",
"aaaaaaaaaaaaaaaaaa"
};
