/* XPM */
static char *calc_corba[] = {
/* width height num_colors chars_per_pixel */
"    36    36      256            2",
/* colors */
"`` c #040404",
"`. c #302c2c",
"`# c #343434",
"`a c #1c4c1c",
"`b c #006500",
"`c c #007500",
"`d c #3c4c38",
"`e c #306130",
"`f c #590404",
"`g c #610808",
"`h c #40483c",
"`i c #484848",
"`j c #50504c",
"`k c #597d55",
"`l c #615d5d",
"`m c #61615d",
"`n c #617d5d",
"`o c #71796d",
"`p c #048904",
"`q c #188d18",
"`r c #149514",
"`s c #00aa00",
"`t c #1cae1c",
"`u c #10ba0c",
"`v c #248524",
"`w c #209920",
"`x c #3c9938",
"`y c #20b21c",
"`z c #28b624",
"`A c #24c220",
"`B c #409124",
"`C c #50954c",
"`D c #559550",
"`E c #40a140",
"`F c #50a54c",
"`G c #59ae55",
"`H c #6d9969",
"`I c #71816d",
"`J c #799575",
"`K c #61b25d",
"`L c #69a165",
"`M c #75aa71",
"`N c #993838",
"`O c #ae201c",
"`P c #aa2828",
"`Q c #a13838",
"`R c #be3030",
"`S c #a1403c",
"`T c #895d59",
"`U c #915555",
"`V c #89615d",
"`W c #856561",
"`X c #85716d",
"`Y c #ae4444",
"`Z c #a55555",
"`0 c #b6615d",
"`1 c #a17975",
"`2 c #b66561",
"`3 c #ba7975",
"`4 c #c20404",
"`5 c #c21010",
"`6 c #de1818",
"`7 c #c2201c",
"`8 c #c62828",
".` c #c23c38",
".. c #ea1818",
".# c #fa1414",
".a c #e23c3c",
".b c #da4040",
".c c #d25d5d",
".d c #ca615d",
".e c #c67571",
".f c #d26161",
".g c #e66565",
".h c #e67979",
".i c #918d89",
".j c #91918d",
".k c #89ae81",
".l c #99aa91",
".m c #99ba95",
".n c #aa8581",
".o c #a59995",
".p c #be918d",
".q c #b69d99",
".r c #a5a19d",
".s c #b2b2ae",
".t c #91c28d",
".u c #9dca95",
".v c #a5caa1",
".w c #c2918d",
".x c #ca9995",
".y c #cea19d",
".z c #caaeaa",
".A c #c2bab6",
".B c #d6aeaa",
".C c #d2b2ae",
".D c #d2bab6",
".E c #e68989",
".F c #f69999",
".G c #e2aeae",
".H c #e2bebe",
".I c #c6c6be",
".J c #d2caca",
".K c None",
".L c #dedede",
".M c #eac2c2",
".N c #e2dede",
".O c #f6d2d2",
".P c #e6e6e6",
".Q c #f6e2e2",
".R c #b61814",
".S c #b21818",
".T c #ba1818",
".U c #858181",
".V c #858981",
".W c #898581",
".X c #898985",
".Y c #00b200",
".Z c #08be04",
".0 c #b6b2b2",
".1 c #bab2b2",
".2 c #bababa",
".3 c #babab2",
".4 c #babab6",
".5 c #babeb2",
".6 c #bebab2",
".7 c #bebab6",
".8 c #bebeb6",
"#` c #c6c2c2",
"#. c #cac6c2",
"## c #cacac2",
"#a c #cacaca",
"#b c #696565",
"#c c #696965",
"#d c #696969",
"#e c #757571",
"#f c #797575",
"#g c #797971",
"#h c #7d7979",
"#i c #14b610",
"#j c #10be10",
"#k c #18b218",
"#l c #18be18",
"#m c #959591",
"#n c #999591",
"#o c #999995",
"#p c #9d9d99",
"#q c #914c4c",
"#r c #994440",
"#s c #994844",
"#t c #994848",
"#u c #a5a1a1",
"#v c #aaa5a1",
"#w c #aaaaa5",
"#x c #aeaeaa",
"#y c #005500",
"#z c #005900",
"#A c #085004",
"#B c #0c590c",
"#C c #55b255",
"#D c #55ba50",
"#E c #5db659",
"#F c #59ba55",
"#G c #e20404",
"#H c #e60c0c",
"#I c #ea0404",
"#J c #ee0c0c",
"#K c #c28581",
"#L c #c28985",
"#M c #c28989",
"#N c #ca8d8d",
"#O c #00ba00",
"#P c #00be00",
"#Q c #04be00",
"#R c #04be04",
"#S c #08ba08",
"#T c #08be08",
"#U c #0cba08",
"#V c #0cba0c",
"#W c #616161",
"#X c #656161",
"#Y c #656561",
"#Z c #656565",
"#0 c #be2020",
"#1 c #ba2824",
"#2 c #b22420",
"#3 c #b22424",
"#4 c #b62020",
"#5 c #b62424",
"#6 c #f20404",
"#7 c #f20808",
"#8 c #fa0404",
"a` c #505050",
"a. c #595955",
"a# c #595959",
"aa c #81817d",
"ab c #81897d",
"ac c #8d817d",
"ad c #101010",
"ae c #181414",
"af c #181818",
"ag c #009100",
"ah c #009900",
"ai c #0c950c",
"aj c #817171",
"ak c #817d7d",
"al c #897d79",
"am c #f2f2f2",
"an c #faf6f6",
"ao c #fafafa",
"ap c #30a130",
"aq c #38a138",
"ar c #3caa38",
"as c #00c200",
"at c #08c204",
"au c #08c208",
"av c #449940",
"aw c #4c9548",
"ax c #4c9948",
"ay c #698165",
"az c #6d8169",
"aA c #698965",
"aB c #20ae20",
"aC c #2ca12c",
"aD c #28ae28",
"aE c #30b230",
"aF c #30ba30",
"aG c #3cb23c",
"aH c #758971",
"aI c #7d8179",
"aJ c #7d8979",
"aK c #957975",
"aL c #957d79",
"aM c #997d79",
"aN c #b25550",
"aO c #b25d5d",
"aP c #be5d59",
"aQ c #859581",
"aR c #8d9d85",
"aS c #8d9989",
"aT c #b2a5a1",
"aU c #b2aeaa",
"aV c #baaeaa",
"aW c #b21414",
"aX c #b61010",
"aY c #b61414",
"aZ c #ba1010",
"a0 c #be1010",
"a1 c #be1410",
"a2 c #898989",
"a3 c #8d8d89",
"a4 c #8d8d8d",
"a5 c #be0000",
"a6 c #ba0808",
"a7 c #618959",
"a8 c #000000",
/* pixels */
".K.K.K.K.K.K.K.K.K.K.K.K.K.K.K.K.K.K.K.K.K.K.K.K.K.K.K.K.K.K.K.K.K.K.K.K",
".K.K.K.K.K.K.K.K.K.B.B.B.K.K.K.K.K.K.K.K.K.K.K.K.K.K.K.K.K.K.K.K.K.K.K.K",
".K.K.K.K.K.K.K.J#N`4`4`4#K.I.I.J.J.J.K.K.K.K.K.K.K.K.K.K.K.K.K.K.K.K.K.K",
".K.K.K.J.x.y.J.I.e`4`4`4`2.s.A#L.x.I.J.J.K.K.K.K.K.K.K.K.K.K.K.K.K.K.K.K",
".K.K.J.e`4`5.p.AaP`4`4`4aN.r`0`4`5#M.I.I.J.J.K.K.K.K.K.K.K.K.K.K.K.K.K.K",
".K.K.x`4`4`4`5#1`4`4`4`4`4#4`4`4`4`5.q.A.I.J.K.K.K.K.K.K.K.K.K.K.K.K.K.K",
".K.K.y`5`4`4`4`4`4`4`4`4`4`4`4`4`4.T.o.s.A.I.J.K.K.K.K.K.K.K.K.K.K.K.K.K",
".K.K.J.p`5`4`4`4`4aZaXa6`4`4`4`4.RaK#n.r.1.I.J.K.K.K.K.K.K.K.K.K.K.K.K.K",
".K.K.I.A#0`4`4`4#r`Xaj`X`P`4`4a6`Qaa.i.o.s.A.J.J.K.K.K.K.K.K.K.K.K.K.K.K",
".J.d.``R`4`4`4`N#g#h.U.Xac`P`4`4a6`P`P`Y.r.A.I.J.K.K.K.K.K.K.K.K.K.K.K.K",
".B`4`4`4`4`4`4`V#h.U.i#n#o`1`4`4`4`4`4`4.n.s.A.J.J.K.K.K.K.K.K.K.K.K.K.K",
".B`4`4`4`4`4`4`Vaa.i#p.r#w.n`4`4`4`4`4`4`1#w.4.I.J.K.K.K.K.K.K.K.K.K.K.K",
".D`8.T`5`4`4`4`T.U.j.r.s.1`3`4`4`4`4`4aZaM.r.s.I.J.J.K.K.K.K.K.K.K.K.K.K",
".K.JaT`1`4`4`4.Sal#n#w.1.p`5`4`4.S`T`V`X.i.o.s.A.I.u.v.I.J.J.J.K.K.K.K.K",
".K.K.s.r#5`4`4`4`O`Z`0`0.T`4`4`4`S#h#haH`F`L#w.3.tatau`A.t.I.I.J.K.K.K.K",
".K.K.A`0`5`4`4`4`4`4`4`4`4`4`4`4a6`U`C`u#P`u.l.s#Fasasas#F.1.A.I.J.K.K.K",
".K.K.p`4`4`4`4`4`4`4`4`4`4`4`4`4`4a6`B#Pas#RaG`K#jasas#R`M.r.s.5.I.J.J.K",
".K.K.z`7`4`4#3#saY`4`4`4.S#taX`4`4`Pa7#Rasas#R#R#Pasas#R`HaS`G`z.m.I.I.J",
".K.K.J.p`7#1aL.U#t`4`4`4#s#h`TaW`O`XaI`t#Pasasasasasas#R`u#i#RasaF.s.A.I",
".K.K.J.IaVa```af#h.Iaoao.I#fae```japav#S#Pas#R`u`u#R#R#P#P#Rasas#R.k.s.A",
".K.K.J.I.Aa`af#aaoaoaoaoaoao.Jaf`jahah`s.Y#RaCay`oa7ap#Rasas#P#R`yaR#w.3",
".K.K.K.J.I#b#aaoaoao.P.Paoaoao.I#d`c`c`p`s`x`o#haa.UaJ#k#Ras#R`Caa.i.r.s",
".K.K.K.K.J.Jaoao.L#dadad`l.Laoao.J#z#z`cah`n#h.U.i.j#n`L.Zas.Zayak.i.r.s",
".K.K.K.K.g.Laoam#q`g`f`f`g`N.F.F.E.g#z`cai`oaa.i#p.r#w`M#Ras#Q`t`E`J.o.s",
".K.K.K.a.#aoao.O#6#8#8#6#6#8#6#6#6#6.b`b`p`kaa.j.r.s.1#D#Rasas#P#P#k#o.s",
".K.K.c#6..aoao.H#6#6#6#6#8#8#6#6#8#8#I.c`c`q#g.j#w.s.m#l#Pasasasas`t#o#w",
".K.K.K.h...Pao.Q`6#G#I#I#I#7#H#7#7#J.h#y`b`c`r`E`M`K`u#Tas#R`u#R#R`E#n#w",
".K.K.K.K.G.Maoao.iad``````a2aoao.M.G#y#y#z`bag.Y#S#Rasas#RaD`IayaAab#n#w",
".K.K.K.K.I.ramaoao.2`l#Z.saoaoam#u#y#A`a#B`cah.Y#Pasasas#Raq#h#h.U.i.o.s",
".K.K.K.K.Ka`#hamaoaoaoaoaoaoan#na#`d`d`i`eah.Y#P#R#S#Qasas#S`I.U.i.o#w.3",
".K.K.K.K.Ka#``#f.Naoaoaoao.P#f``a``j`ia.`v.Y#P#R`x`I`t#Pas#P`C.i#p#w.3.I",
".K.K.K.K.K#h`````..1aoam.1`#````a``j`j`m`w#O#P#Ra7#ha7`u`u`C.V.j.r.1.I.J",
".K.K.K.K.K.K.J.s.U#c`l`l`l`l`l`l`l`l`l`oaQ`GaEarab.W.X.V.X.i.j.r.s.A.I.J",
".K.K.K.K.K.K.J.A#o.Uaaaaaaaaaaakak#hak.i.r.s.r#p#n#n#o.o.r.r.r.s.A.I.J.K",
".K.K.K.K.K.K.K.J.A.s.s.s.s.s.s.s.s.s.s.s.A.A.s.s#w#w.s.s.s.s.1.A.I.J.J.K",
".K.K.K.K.K.K.K.K.K.J.J.J.J.J.J.J.J.J.J.J.J.I.I.A.A.A.A.I.I.I.I.I.J.J.K.K"
};
