/* XPM */
static char *elprop[] = {
/* width height num_colors chars_per_pixel */
"    36    36      256            2",
/* colors */
"`` c None",
"`. c #ded3ce",
"`# c #efcbc6",
"`a c #efc7c6",
"`b c #efc3c6",
"`c c #d69e9c",
"`d c #efcbce",
"`e c #ffc3c6",
"`f c #ffc3bd",
"`g c #d6716b",
"`h c #c64d4a",
"`i c #cecbc6",
"`j c #cecfc6",
"`k c #d6cfce",
"`l c #d6d7ce",
"`m c #e7e3ce",
"`n c #efefc6",
"`o c #e7e3c6",
"`p c #decbc6",
"`q c #ffb6b5",
"`r c #ffbabd",
"`s c #ffbab5",
"`t c #f7b6b5",
"`u c #de7973",
"`v c #c60000",
"`w c #bd4542",
"`x c #bdbab5",
"`y c #c6bebd",
"`z c #c6c7bd",
"`A c #e7e7ce",
"`B c #ffffc6",
"`C c #f7f3b5",
"`D c #e7e3ad",
"`E c #efefb5",
"`F c #ffffbd",
"`G c #efebc6",
"`H c #debab5",
"`I c #ff4d4a",
"`J c #ff4542",
"`K c #c61410",
"`L c #b53839",
"`M c #a59e9c",
"`N c #adaaa5",
"`O c #bdb6b5",
"`P c #848263",
"`Q c #080800",
"`R c #212018",
"`S c #8c8a63",
"`T c #000000",
"`U c #292818",
"`V c #efebad",
"`W c #e7e3bd",
"`X c #c6c3bd",
"`Y c #ff4142",
"`Z c #ff3c39",
"`0 c #bd1010",
"`1 c #ad3031",
"`2 c #8c8a84",
"`3 c #949694",
"`4 c #bdbebd",
"`5 c #dedbc6",
"`6 c #fffbc6",
"`7 c #313021",
"`8 c #c6c394",
".` c #d6d39c",
".. c #a5a27b",
".# c #ded7ad",
".a c #9c9a94",
".b c #a5a29c",
".c c #b5b2ad",
".d c #a52829",
".e c #7b7973",
".f c #8c8684",
".g c #cec7c6",
".h c #adaaad",
".i c #949294",
".j c #94928c",
".k c #c6c7a5",
".l c #101008",
".m c #424131",
".n c #737152",
".o c #cecfa5",
".p c #84827b",
".q c #948e8c",
".r c #bd1008",
".s c #bd0408",
".t c #8c4163",
".u c #737173",
".v c #b5b6b5",
".w c #8c8a8c",
".x c #adaead",
".y c #cec7bd",
".z c #f7f3bd",
".A c #c6c79c",
".B c #73716b",
".C c #b51c21",
".D c #8c4984",
".E c #7375ce",
".F c #6b71a5",
".G c #7b797b",
".H c #9c9694",
".I c #8c8e8c",
".J c #d6d3bd",
".K c #737552",
".L c #101408",
".M c #e7e7ad",
".N c #6b6963",
".O c #b5b6ad",
".P c #ef454a",
".Q c #8c61a5",
".R c #737dd6",
".S c #7379d6",
".T c #6b75ce",
".U c #7375ad",
".V c #948e94",
".W c #b5b2b5",
".X c #b5aead",
".Y c #e7e7b5",
".Z c #c6c39c",
".0 c #e79e9c",
".1 c #de8e8c",
".2 c #ce7d7b",
".3 c #b56d6b",
".4 c #ad5d5a",
".5 c #9c5963",
".6 c #7b65a5",
".7 c #7b7dad",
".8 c #a5a2a5",
"#` c #a5a6a5",
"#. c #adaa9c",
"## c #cecfad",
"#a c #cecba5",
"#b c #a59e84",
"#c c #736d6b",
"#d c #6b6973",
"#e c #7375b5",
"#f c #7b82b5",
"#g c #ada6ad",
"#h c #848684",
"#i c #ada6a5",
"#j c #9c9e9c",
"#k c #847d7b",
"#l c #6b6d6b",
"#m c #848284",
"#n c #7b7d84",
"#o c #7379bd",
"#p c #948e9c",
"#q c #7b7dbd",
"#r c #7b8294",
"#s c #9c9aa5",
"#t c #7b82c6",
"#u c #7379ce",
"#v c #7b7d9c",
"#w c #7b7da5",
"#x c #9c969c",
"#y c #a5a2ad",
"#z c #9c9aad",
"#A c #7b7dce",
"#B c #7379ad",
"#C c #7b7db5",
"#D c #bd9eb5",
"#E c #deb2ad",
"#F c #e7bab5",
"#G c #e7bebd",
"#H c #9496ad",
"#I c #7b7dd6",
"#J c #b59ab5",
"#K c #ffbebd",
"#L c #9c8aad",
"#M c #efaaad",
"#N c #f7aead",
"#O c #f7b2b5",
"#P c #de7573",
"#Q c #b5928c",
"#R c #ff494a",
"#S c #c6a29c",
"#T c #d6aead",
"#U c #deb6ad",
"#V c #a52821",
"#W c #deb6b5",
"#X c #bd0c08",
"#Y c #bd0000",
"#Z c #943431",
"#0 c #9c2421",
"#1 c #6b615a",
"#2 c #e79a94",
"#3 c #a55552",
"#4 c #a52c29",
"#5 c #735952",
"#6 c #6b6563",
"#7 c #cecfce",
"#8 c #000000",
"a` c #000000",
"a. c #000000",
"a# c #000000",
"aa c #000000",
"ab c #000000",
"ac c #000000",
"ad c #000000",
"ae c #000000",
"af c #000000",
"ag c #000000",
"ah c #000000",
"ai c #000000",
"aj c #000000",
"ak c #000000",
"al c #000000",
"am c #000000",
"an c #000000",
"ao c #000000",
"ap c #000000",
"aq c #000000",
"ar c #000000",
"as c #000000",
"at c #000000",
"au c #000000",
"av c #000000",
"aw c #000000",
"ax c #000000",
"ay c #000000",
"az c #000000",
"aA c #000000",
"aB c #000000",
"aC c #000000",
"aD c #000000",
"aE c #000000",
"aF c #000000",
"aG c #000000",
"aH c #000000",
"aI c #000000",
"aJ c #000000",
"aK c #000000",
"aL c #000000",
"aM c #000000",
"aN c #000000",
"aO c #000000",
"aP c #000000",
"aQ c #000000",
"aR c #000000",
"aS c #000000",
"aT c #000000",
"aU c #000000",
"aV c #000000",
"aW c #000000",
"aX c #000000",
"aY c #000000",
"aZ c #000000",
"a0 c #000000",
"a1 c #000000",
"a2 c #000000",
"a3 c #000000",
"a4 c #000000",
"a5 c #000000",
"a6 c #000000",
"a7 c #000000",
"a8 c #000000",
/* pixels */
"````````````````````````````````````````````````````````````````````````",
"````````````````````````````````````````````````````````````````````````",
"````````````````````````````````````````````````````````````````````````",
"`````.`#`a`a`a`a`a`b`c``````````````````````````````````````````````````",
"`````d`e`e`e`e`e`f`g`h`i`j`k```````````````l`m`n`n`n`n`n`n`n`n`o````````",
"```p`q`r`r`s`q`t`u`v`w`x`y`z`j```````````l`A`B`C`D`D`D`E`D`D`F`G`i`i`k``",
"```H`I`J`J`J`J`J`K`v`L`M`N`O`z`k`````````A`B`B`P`Q`R`R`S`T`U`V`W`O`x`X`i",
"```H`J`Y`Y`Y`Y`Z`0`v`1`2`3`N`4`i```k`i`5`6`B`B`P`7`8.``B`T..`B.#.a.b.c`X",
"```H`J`Y`Y`Y`Y`Z`0`v.d.e.f`M`x.g.h.i.j.k`B`B`B`P.l.m.n`B`T..`B.o.p.q.b`x",
"```H`J`Y`Y`Y`Y`Z.r.s.t.u.p.a.v`O.w.x.y.z`B`B`B`P.m`B`B`B`T..`B.A.B.p.a`O",
"```H`J`Y`Y`Y`Y`Z.C.D.E.F.G.H.c.b.I`i`i.J.z`B`B`P`T`T`T.K`T.L.M.A.N.G.H.O",
"```H`J`Y`Y`Y`Y.P.Q.R.S.T.U.V.x.W.w.X`y.c.O.Y`B`B`B`B`B`B`B`B`B.Z.N.e.H.O",
"```p.0.1.2.3.4.5.6.R.R.S.T.7.8`x#`.I.c`N.b#.##.o#a.A.A.Z.Z.Z.Z#b.N.G.H.O",
"```````X`N.q.e#c#d#e.R.R.S.T#f#g.x#h#i#i#i#i#j.q#k.B#l.N.N.N.N.N.B.p.a`O",
"```````z.c#j.w#m#k#n#o.R.R.S.T#f#j.f#i#i`N.X.X#``3.f#k.G.e.e.e.G.p.q.b`x",
"```````i`y.X#i`M#j.a#p#q.R.R.S.T#r.I#i#i`N.v`x`x.x.b.a.H.H.H.H.H.a.b.c`X",
"```````k`i`X`4`x`x`O.X#s#t.R.R#u#v#w#x`M#i`O`X.g`X`x`O.v.O.O.O.v`O`x`X`i",
"```````````k`j`i`i`i`X`x#y#t.R.R#u.T.7.i.b.O`X`j`k`i`i`i`i`i`i`i`i`i`k``",
"`````````````````````k.g`x#z#A.R.R.S.T#B.H.X`X`k````````````````````````",
"```````````````````````k.g`x#z#A.R.R.S.T#C.8`x`i````````````````````````",
"`````````````````````````k.g`x#z#A.R.R.S.T#f.h`y`i``````````````````````",
"```````````````````````````k.g`x#z#A.R.R#A#D#E#F#G`b`a`b`c``````````````",
"`````````````````````````````k.g`x#H#A#I#J#K`e`e`e`e#K`g`h`i`j`k````````",
"```````````````````````````````k.g`O#H#L#M#N#N#O#O#O#P`v`w`x`y`z`j``````",
"`````````````````````````````````k.g`O#Q#R`J`J`J`J`J`K`v`L`M`N`O`z`k````",
"```````````````````````````````````k.g#S`J`Y`Y`Y`Y`Z`0`v`1`2`3`N`4`i````",
"`````````````````````````````````````k#T`J`Y`Y`Y`Y`Z`0`v.d.e.f`M`x`i````",
"``````````````````````````````````````#U`J`Y`Y`Y`Y`Z.r`v#V.B.p.a`O`i````",
"``````````````````````````````````````#W`J`Y`Y`Y`Y`Z#X#Y#Z#l#k.a.v.g````",
"```````````````````````````````````````H`J`Y`Y`Y`Y`Z#X#0#1#l#k.a`O`i````",
"```````````````````````````````````````p#2.1.2.3.4#3#4#5#6.B.p#j`x`i````",
"`````````````````````````````````````````k`X`N.q.e#c.N#l.B.G.I#i`4`j````",
"`````````````````````````````````````````k`z.c#j.w#m.p.p#h.q`M.c`z`k````",
"```````````````````````````````````````````i`y.X#i.b`M`M.b#i.O`X`j``````",
"```````````````````````````````````````````k`i`X`4`x`x`x`x`y`z`j````````",
"```````````````````````````````````````````````k`j`i`i`i`i#7`k``````````"
};
