/* XPM */
static char *erase2[] = {
/* width height num_colors chars_per_pixel */
"    36    36      128            2",
/* colors */
"`` c #714c04",
"`. c #71613c",
"`# c #716550",
"`a c #be0c0c",
"`b c #ba2828",
"`c c #815904",
"`d c #91712c",
"`e c #be653c",
"`f c #816d48",
"`g c #817569",
"`h c #ba4040",
"`i c #b26548",
"`j c #b66d69",
"`k c #c20808",
"`l c #c22424",
"`m c #d66534",
"`n c #c64440",
"`o c #c2716d",
"`p c #e27948",
"`q c #b28924",
"`r c #9d8544",
"`s c #898575",
"`t c #ae8d6d",
"`u c #baa569",
"`v c #c29110",
"`w c #c29524",
"`x c #d6a11c",
"`y c #d6a524",
"`z c #d68159",
"`A c #ce8969",
"`B c #c2a550",
"`C c #ceb679",
"`D c #e28159",
"`E c #e6be50",
"`F c #f2a17d",
"`G c #e6c25d",
"`H c #ca9189",
"`I c #c6aa91",
"`J c #dac695",
"`K c #cac2ba",
"`L c #e2ce95",
"`M c #e6caae",
"`N c None",
"`O c #e2e2de",
"`P c #eeeeee",
"`Q c #896108",
"`R c #896510",
"`S c #916d14",
"`T c #9d750c",
"`U c #997118",
"`V c #eaa181",
"`W c #eaae91",
"`X c #e6b29d",
"`Y c #f2a585",
"`Z c #f2ae91",
"`0 c #f2b295",
"`1 c #b6aaa5",
"`2 c #b6b2aa",
"`3 c #858585",
"`4 c #918d89",
"`5 c #91918d",
"`6 c #999995",
"`7 c #d2cac6",
"`8 c #d2d2ca",
".` c #d6d6d6",
".. c #ae8108",
".# c #ba8914",
".a c #be9118",
".b c #b28104",
".c c #b28108",
".d c #ba8508",
".e c #be8904",
".f c #ba8908",
".g c #e68965",
".h c #e69169",
".i c #f29d79",
".j c #aaa185",
".k c #a5a199",
".l c #b6aa89",
".m c #b2a599",
".n c #6d6d69",
".o c #756d69",
".p c #71716d",
".q c #b2b2b2",
".r c #bab6b2",
".s c #babab2",
".t c #bababa",
".u c #a1a1a1",
".v c #aaa5a1",
".w c #aaaaa5",
".x c #aaaaaa",
".y c #c6c2c2",
".z c #cac6c2",
".A c #cacac2",
".B c #cacaca",
".C c #e2ae20",
".D c #e2b230",
".E c #f2be28",
".F c #ae8581",
".G c #a5958d",
".H c #a19d99",
".I c #b2918d",
".J c #757171",
".K c #797571",
".L c #7d7975",
".M c #797979",
".N c #caa5a1",
".O c #c6b2aa",
".P c #c6bab6",
".Q c #debaa5",
".R c #c67148",
".S c #c67d5d",
".T c #da7544",
".U c #de7d50",
".V c #916504",
".W c #916904",
".X c #996d04",
".Y c #996d08",
".Z c #e69571",
".0 c #e29979",
".1 c #ea9571",
".2 c #ee9d79",
".3 c #e6b224",
".4 c #eeb624",
".5 c #eab62c",
".6 c #eaba28",
".7 c #a57504",
".8 c #000000",
/* pixels */
"`N`N`N`N`N`N`N`N`N`N`N`N`N`N`N`N`N`N`N`N`N`N`N`N`N`N`N`N`N`N`N`N`N`N`N`N",
"`N`N`N`N`N`N`N`N`N`N`N`N`N`N`N`N`N`N`N`N`N`N`N`N`N`N`N`N`N`N`N`N`N`N`N`N",
"`N`N`N`N`K`K`K`7`7`8`N`N`N`N`N`N`N`N`N`N`N`N`N`N`N`N`N`N`N`N`N`N`N`N`N`N",
"`N`N`N`K`h`b`H`K`K`7`8`N`N`N`N`N`N`N`N`N`N`N`N`N`N`N`N`N`N`N`N`N`N`N`N`N",
"`N`N`N`K`b`a`o`K`K`K`7`8`N`N`N`N`N`N`N`N`N`N`N`N`N`8`8`7`7`7`7`8`8`N`N`N",
"`N`N`8`K`b`a`j`K`K`K`K`7`N`N`N`N`N`N`N`N`N`N`N`8`K`J`K`K`K`K`K`K`7`8`8`N",
"`N`N`8`K`b`a`j.q.s`K`K`7`N`N`N`N`N`N`N`N`N`7`7`K`E.E.l`s.M`3.v`K`K`K`7`8",
"`N`N`8`K`b`a`j`1.q`K`K`7`8`N`8`7`7`7`7`7`K`K`K`E.E`y`s`3`3`3`3`2`K`K`K`7",
"`N`N`8`K`b`a`j.x`2`K`K`K`8`K.q.q`2`2`2`2`1.m`u`B`B`t`4`5`5`5`5`6`1`K`K`K",
"`N`N`7`K`b`a`j.w`2`K`K`K`K.u.H.H.H.H.H.H`6`6`6`6`6`6`6`6`6`6`6`6.k`2`K`K",
"`N`N`7`K`b`a`j.w`2`K`K`K`K.x.u.u.u.u.u.u.u.u.u.u.u.u.u.u.u.u.u.H`4.u.r`K",
"`N`N`7`K`b`a`j.w`2`K`K`K`K.q.q.q.q.x.w.m.m.m.m.m.m.w.x.q.q.q.x`4`s`6`2`K",
"`N`N`7`K`b`a`j.w`2`K`K`K`K`K.t.t.q`s`q`q`q`q`q`U`S`r`2.s.t.s.q`.`#`4.w`K",
"`N`N`7`K`b`a`j.w`2`K`K`K`K`K.s.q.j`q`q`q`q`q`T.Y.X.W`d.j`2.k`f`````f.k.r",
"`N`N`7`K`b`a`j.w`1`K`K`K`K`K.s`u`w`w`v`v`v...7.7.7.7.X`````````````g`6`2",
"`N`N`7`H`a`a`h.I`1`K`K`K`K`K`C`x`x`x`x`v.....b.b...7`Q```````````#`s`6.x",
"`N`N`7`o`a`a`a.F.x.s`K`K`K`K.5.C`x`x`x`v`v`v`v`v.c.W`Q`Q`c`````..n`s`6`1",
"`N`N`7.N`a`a`b.k.w.r`K`K`8`N`J.6.4`x`v`v`v`v`v`v.W`Q`Q`Q`Q`Q`..n`s`4.k.r",
"`N`N`7`K`b`a`j.u.w.r`K`8`N`O`P`M`x`v`v`v`v`v`v.X.V.V.V`Q`Q`..n`s`4.k`1`K",
"`N`N`7`K`j`a.I.v.x.r.B`N`O`P`P`P`J`v`v`v`v`v.X.V.V.V.V`R`#.n`s`4`6.x`K`K",
"`N`N`8`K`H`h`1.x`1.O`N`N`P`P`P`P`N`J`v`v`v.X.V.V.V.V`R`#`g`s`4.k`1`K`K`K",
"`N`N`8`K`K`I.r`1`A`z.Q`O`P`P`P`N`N`N`I`v.X.V.V.V.V`R`#`g`s`4.k`1`K`K`K`8",
"`N`N`N`7`K`K.O`A`z`A`F`M`P`P`N`N`N`8`K.l`U.V.V.V`R`#`g`s`4.k`1`K`K`K`8`N",
"`N`N`N`7`K`K`z`z.h`F`Z`F`X`N`N`N`8`K`K.q.G`S.V`R`#`g`s`4.k`1`K`K`K`8`N`N",
"`N`N`N`8`7`A`p.h`F`Z`Z`F`F`H`8`8`K`K.q.x.u`g`d`#`g`s`4.k`1`K`K`K`8`N`N`N",
"`N`N`N`8`K`p`p`F`Z`Z`F`F.h`z`A`K`K.q.x.u`5`g.n`g`s`5.k`2`K`K`K`8`N`N`N`N",
"`N`N`N`8`K`z.h`F`Z`F`F.h`D`p`p`z`1.x.u`4.n`g`s`4`6.v`2`K`K`K`8`N`N`N`N`N",
"`N`N`N`8`K`F`F`0`F`F.h`D`p`p`p`m`e.G`3.n`g`s`4`6.w.r`K`K`K`8`N`N`N`N`N`N",
"`N`N`N`8`K.O`W`F`F`D`D`p`p`p`p`m`m`i.n`g`s`4.k.x`K`K`K`7`8`N`N`N`N`N`N`N",
"`N`N`N`8`K`K`1.0.g`D`p`p`p`p`m`m`m`f`g`s`4.k`2`K`K`K`7`8`N`N`N`N`N`N`N`N",
"`N`N`N`8`K`K.s.m`A`p`p`m`m`m`m`e`g`g`s`5.k`2`K`K`K`8`N`N`N`N`N`N`N`N`N`N",
"`N`N`N`N`7`K`K`2.k`A`m`m`m`m`e`g`g`s`4.k`2`K`K`K`8`N`N`N`N`N`N`N`N`N`N`N",
"`N`N`N`N`8`7`K`K`2.k`t`e`e`i`g`s`s`5.k`2`K`K`7`8`N`N`N`N`N`N`N`N`N`N`N`N",
"`N`N`N`N`N`8`K`K`K`2.v`6`4`4`3`4`6.v`2`K`K`K`8`N`N`N`N`N`N`N`N`N`N`N`N`N",
"`N`N`N`N`N`N`8`7`K`K.r`1.u.k.k.k.w.r`K`K`K`8`N`N`N`N`N`N`N`N`N`N`N`N`N`N",
"`N`N`N`N`N`N`N`8`7`K`K`K.r`2`2.r`K`K`K`7`8`N`N`N`N`N`N`N`N`N`N`N`N`N`N`N"
};
