/* XPM */
static char *feedback[] = {
/* width height num_colors chars_per_pixel */
"    36    36      256            2",
/* colors */
"`` c None",
"`. c #e7cfce",
"`# c #efcbc6",
"`a c #efc7c6",
"`b c #d6a29c",
"`c c #ded3ce",
"`d c #f7c3c6",
"`e c #ffc3c6",
"`f c #ffc3bd",
"`g c #d67173",
"`h c #c64d4a",
"`i c #cecbc6",
"`j c #cecfc6",
"`k c #d6cfce",
"`l c #cecbce",
"`m c #cec7ce",
"`n c #e7bebd",
"`o c #ff8684",
"`p c #ff8284",
"`q c #ff7d7b",
"`r c #e76963",
"`s c #c60400",
"`t c #bd4542",
"`u c #bdbab5",
"`v c #9496b5",
"`w c #9492bd",
"`x c #8c8abd",
"`y c #8486bd",
"`z c #7379bd",
"`A c #7371bd",
"`B c #5a61b5",
"`C c #6b6db5",
"`D c #6369b5",
"`E c #7375bd",
"`F c #6b71bd",
"`G c #5a5db5",
"`H c #7b82bd",
"`I c #adaec6",
"`J c #debab5",
"`K c #ff4542",
"`L c #ff4142",
"`M c #de3031",
"`N c #c60000",
"`O c #b53839",
"`P c #a59e9c",
"`Q c #4a4dad",
"`R c #8c8eb5",
"`S c #a5a2bd",
"`T c #b5aec6",
"`U c #bdbac6",
"`V c #cec7c6",
"`W c #cecfce",
"`X c #adaac6",
"`Y c #7b79bd",
"`Z c #5259b5",
"`0 c #ad3029",
"`1 c #848684",
"`2 c #5255a5",
"`3 c #6b6dad",
"`4 c #a59eb5",
"`5 c #b5aebd",
"`6 c #b5b2bd",
"`7 c #c6c3bd",
"`8 c #a5a6bd",
".` c #7371b5",
".. c #7b7dbd",
".# c #c6bec6",
".a c #de2c31",
".b c #9c2c39",
".c c #737573",
".d c #847d84",
".e c #6b69a5",
".f c #5255ad",
".g c #4249ad",
".h c #393cad",
".i c #6b71b5",
".j c #b5b2b5",
".k c #b5aeb5",
".l c #9492b5",
".m c #8486b5",
".n c #bdbeb5",
".o c #c6bebd",
".p c #7b7db5",
".q c #7375b5",
".r c #bd0c18",
".s c #7b558c",
".t c #6b6d73",
".u c #7b797b",
".v c #94928c",
".w c #a5a29c",
".x c #adaaa5",
".y c #adaead",
".z c #b5aead",
".A c #6369ad",
".B c #3941ad",
".C c #424dad",
".D c #6365ad",
".E c #7379ad",
".F c #a5a6b5",
".G c #bdbebd",
".H c #9c9ab5",
".I c #decbc6",
".J c #e79e9c",
".K c #de8e8c",
".L c #ce7d7b",
".M c #b5696b",
".N c #a5496b",
".O c #944d84",
".P c #6b71c6",
".Q c #6b697b",
".R c #7b7973",
".S c #8c8e8c",
".T c #a5a6a5",
".U c #9492ad",
".V c #9c9ea5",
".W c #9c9aa5",
".X c #9c96a5",
".Y c #b5b2ad",
".Z c #7b7dd6",
".0 c #6b75ce",
".1 c #6b698c",
".2 c #7b7573",
".3 c #8482ad",
".4 c #4a51ad",
".5 c #4245ad",
".6 c #5a61ad",
".7 c #adaeb5",
".8 c #4249b5",
"#` c #bdb6b5",
"#. c #b5b6ad",
"## c #c6c7bd",
"#a c #9c9a94",
"#b c #7b82a5",
"#c c #7b82d6",
"#d c #7379d6",
"#e c #6b71a5",
"#f c #8c8a8c",
"#g c #7b7da5",
"#h c #3945ad",
"#i c #7375a5",
"#j c #8c8ebd",
"#k c #9496ad",
"#l c #737dd6",
"#m c #6b75bd",
"#n c #8c8a84",
"#o c #949294",
"#p c #5259ad",
"#q c #a5a2a5",
"#r c #b5b6b5",
"#s c #7b82ce",
"#t c #7379ce",
"#u c #7b7d8c",
"#v c #8c8684",
"#w c #ada6a5",
"#x c #9c9e9c",
"#y c #d6aec6",
"#z c #ceaace",
"#A c #cea6c6",
"#B c #cea6b5",
"#C c #c69e9c",
"#D c #ad7573",
"#E c #decfce",
"#F c #f7babd",
"#G c #c65d5a",
"#H c #ad3831",
"#I c #ff827b",
"#J c #f77d7b",
"#K c #f7797b",
"#L c #de615a",
"#M c #ad3031",
"#N c #a52c29",
"#O c #d62c31",
"#P c #a52829",
"#Q c #948e8c",
"#R c #9c2829",
"#S c #73716b",
"#T c #84827b",
"#U c #b50c10",
"#V c #7b494a",
"#W c #6b696b",
"#X c #7b7d7b",
"#Y c #9c9694",
"#Z c #e79a94",
"#0 c #b5698c",
"#1 c #ad699c",
"#2 c #a54573",
"#3 c #843c63",
"#4 c #636163",
"#5 c #6b6963",
"#6 c #6b6dce",
"#7 c #63659c",
"#8 c #636563",
"a` c #847d7b",
"a. c #6b71ce",
"a# c #6369a5",
"aa c #8c8ac6",
"ab c #c6a2c6",
"ac c #cea2bd",
"ad c #bd9a94",
"ae c #946163",
"af c #ffbebd",
"ag c #bd5d5a",
"ah c #a53031",
"ai c #de6163",
"aj c #de3029",
"ak c #de2c29",
"al c #b50c08",
"am c #7b4d4a",
"an c #6b6d6b",
"ao c #b56d6b",
"ap c #a54542",
"aq c #8c4139",
"ar c #6b6563",
"as c #736d6b",
"at c #000000",
"au c #000000",
"av c #000000",
"aw c #000000",
"ax c #000000",
"ay c #000000",
"az c #000000",
"aA c #000000",
"aB c #000000",
"aC c #000000",
"aD c #000000",
"aE c #000000",
"aF c #000000",
"aG c #000000",
"aH c #000000",
"aI c #000000",
"aJ c #000000",
"aK c #000000",
"aL c #000000",
"aM c #000000",
"aN c #000000",
"aO c #000000",
"aP c #000000",
"aQ c #000000",
"aR c #000000",
"aS c #000000",
"aT c #000000",
"aU c #000000",
"aV c #000000",
"aW c #000000",
"aX c #000000",
"aY c #000000",
"aZ c #000000",
"a0 c #000000",
"a1 c #000000",
"a2 c #000000",
"a3 c #000000",
"a4 c #000000",
"a5 c #000000",
"a6 c #000000",
"a7 c #000000",
"a8 c #000000",
/* pixels */
"````````````````````````````````````````````````````````````````````````",
"`````.`#`#`#`#`a`b``````````````````````````````````````````````````````",
"```c`d`e`e`e`f`g`h`i`j`k```````````````````l`m``````````````````````````",
"```n`o`p`p`q`r`s`t`u`v`w`x`y`z`A`B`C`B`D`B`E`F`G`H`I````````````````````",
"```J`K`L`L`L`M`N`O`P`Q`R`S`T`U`V`W`j`j`j`j`i`i`i`X`Y`Z`E`X`k````````````",
"```J`K`L`L`L`M`N`0`1`2`3`4`5`6`6`6`6`6`7`7`7`7`7`7`7`7`8.``Z...#````````",
"```J`K`L`L`L.a`N.b.c.d.e.f`Q`Q`Q`Q.g.h.i.j.k.l.m`u`u`u.n.o.o.p.q`i`j````",
"```J`K`L`L`L.a.r.s.t.u.v.w.x.y.z.A.B`Q.C.D.E`R.F.n.G.n.n`u`u.H`G.o`7`i`k",
"``.I.J.K.L.M.N.O.P.Q.R.S.w.x.y.T.B.U.V.W.X.x.Y`u.o`7`7`7.o.o.H`B`u`u`7`i",
"```````7.x.S.q.Z.0.1.2.S.w.z.Y.Y.3.4.g.B`Q.5.6.E`v.7`S.q.8`Z`B.l#`#.`u`7",
"``````##.Y#a#b#c#d#e.R#f.T#`.G.G`u#..x#g.g#h#i.4.g`Q`G#j.#`i##.o`u.Y#``7",
"```````i.o.z#k#l#d#m.u#n.w`u`V`i`V`7.Y.T#a#o.4#p#q.y#..n`7`7.o`u#..Y#``7",
"`````````i`7#r#s#l#t#u#v`P`u`i`k`k`i`7.Y#w.w#x#a#x.w#w.z.Y#`#`#r#.#`.n`V",
"```````````k.I#y#z#A#B#C#D.Y`V```````i`7`u.Y.x.w`P`P.w.x.z#.`u`u.G`7`V`j",
"``````````#E`d`e`e`e#F#G#H.x.o`i```````W`i`7.G#`.z.y.y.Y`u.o`7`V`i`j`k``",
"```````````n`o#I#J#K#L`s#M#a.Y`7`j`````````k`i`V`7.o.o`7`V`i`W`k````````",
"```````````J`K`L`L`L.a`N#N#n`P.Y##`k`````````````k`j`j`k````````````````",
"```````````J`K`L`L`L#O`N#P.u#Q.T.n`j````````````````````````````````````",
"```````````J`K`L`L`L#O`N#R#S#T#x`u`i````````````````````````````````````",
"```````````J`K`L`L`L#O#U#V#W#X#Y#r`i````````````````````````````````````",
"``````````.I#Z.K#0#1#2#3#4#5.u#Y#``i````````````````````````````````````",
"`````````````k`7`y#c#6#7#8#Wa`#x`u`i````````````````````````````````````",
"``````````````##`y#ca.a##5#S`1.w.G`W````````````````````````````````````",
"```````````````iaa#ca.`3#S.2.S.x`7`k````````````````````````````````````",
"``````````````.I#y#zabacadae.v.z`V``````````````````````````````````````",
"````````````#E`d`e`e`eafagah.v.y`7`k````````````````````````````````````",
"`````````````n`o`p`q#Jai`s#N#f.T.n`i````````````````````````````````````",
"`````````````J`K`L`L`Laj`N#N#T#a.Y`7`k``````````````````````````````````",
"`````````````J`K`L`L`Lak`N#P.R#f.T.n`j``````````````````````````````````",
"`````````````J`K`L`L`Lak`N#R#S#T#x`u`i``````````````````````````````````",
"`````````````J`K`L`L`Lakalamana`#a#r`i``````````````````````````````````",
"````````````.I#Z.K.Laoapaqarasa`#a#``i``````````````````````````````````",
"```````````````k`7.x.S.2asas.2#v.w`u`i``````````````````````````````````",
"````````````````##.Y#a#n#T#T#n#Y.y`7`k``````````````````````````````````",
"`````````````````i.o.z.T`P`P.w.y.n`i````````````````````````````````````",
"```````````````````i`7.G`u`u.n`7`i`k````````````````````````````````````"
};
