/* XPM */
static char *force[] = {
/* width height num_colors chars_per_pixel */
"    36    36       98            2",
/* colors */
"`` c #ae1c1c",
"`. c #be0000",
"`# c #be0404",
"`a c #ba0c0c",
"`b c #be0808",
"`c c #be1010",
"`d c #ba1818",
"`e c #ba1c18",
"`f c #ba1c1c",
"`g c #be1c1c",
"`h c #b22020",
"`i c #be2c2c",
"`j c #914c4c",
"`k c #955050",
"`l c #817171",
"`m c #857575",
"`n c #817d79",
"`o c #a1504c",
"`p c #a55955",
"`q c #a15d59",
"`r c #b64c48",
"`s c #ba4440",
"`t c #be4844",
"`u c #b65959",
"`v c #aa6561",
"`w c #aa7d79",
"`x c #c20000",
"`y c #c20404",
"`z c #c22020",
"`A c #c22420",
"`B c #c22424",
"`C c #c24040",
"`D c #c27575",
"`E c #c27975",
"`F c #c67975",
"`G c #c67979",
"`H c #c67d79",
"`I c #ca7d7d",
"`J c #ca817d",
"`K c #858581",
"`L c #8d8985",
"`M c #8d8989",
"`N c #8d8d89",
"`O c #918581",
"`P c #918585",
"`Q c #918985",
"`R c #958985",
"`S c #918d89",
"`T c #958989",
"`U c #9d8d8d",
"`V c #95918d",
"`W c #959591",
"`X c #999595",
"`Y c #999995",
"`Z c #9d9995",
"`0 c #a19591",
"`1 c #a59995",
"`2 c #a19d99",
"`3 c #be8581",
"`4 c #b69591",
"`5 c #a1a19d",
"`6 c #a5a19d",
"`7 c #b2a19d",
"`8 c #baa19d",
".` c #aaa5a1",
".. c #aaaaa5",
".# c #aeaaa5",
".a c #aeaeaa",
".b c #b2aeaa",
".c c #b6b2ae",
".d c #b6b6ae",
".e c #bab2ae",
".f c #beb2ae",
".g c #bab6b2",
".h c #babab2",
".i c #bebab6",
".j c #bebeb6",
".k c #bebeba",
".l c #ce918d",
".m c #c2beba",
".n c #cabeb6",
".o c #cabeba",
".p c #d2bab6",
".q c #c2c2ba",
".r c #c6c2be",
".s c #c6c6be",
".t c #cec6be",
".u c #cac6c2",
".v c #cacac2",
".w c #cecac6",
".x c #cecec6",
".y c #cececa",
".z c #d2c6c2",
".A c #d2ceca",
".B c #d6ceca",
".C c #d2d2ca",
".D c #d2d2ce",
".E c None",
/* pixels */
".E.E.E.E.E.E.E.E.E.E.E.E.E.E.E.E.E.E.E.E.E.E.E.E.E.E.E.E.E.E.E.E.E.E.E.E",
".E.E.E.E.E.E.E.E.E.E.E.E.E.E.E.E.B.z.z.t.A.A.C.E.E.E.E.E.E.E.E.E.E.E.E.E",
".E.E.E.E.E.E.E.E.E.E.E.E.E.E.E.E.l`B`A`C.o.u.w.A.E.E.E.E.E.E.E.E.E.E.E.E",
".E.E.E.E.E.E.E.E.E.E.E.E.E.E.E.D`I`x`x`z.f.m.r.w.C.E.E.E.E.E.E.E.E.E.E.E",
".E.E.E.E.E.E.E.E.E.E.E.E.E.E.E.C`H`x`x`g`7.c.i.u.A.E.E.E.E.E.E.E.E.E.E.E",
".E.E.E.E.E.E.E.E.E.E.E.E.E.E.E.A`G`x`x`f`1.`.d.r.w.D.E.E.E.E.E.E.E.E.E.E",
".E.E.E.E.E.E.E.E.E.E.E.E.E.E.E.A`F`x`x`e`U`5.b.m.w.C.E.E.E.E.E.E.E.E.E.E",
".E.E.E.E.E.E.E.E.E.E.E.E.E.E.E.y`E`x`x`d`R`Z.#.k.w.C.E.E.E.E.E.E.E.E.E.E",
".E.E.E.E.E.E.E.E.E.E.E.E.E.E.E.y`E`x`x`d`R`Y.#.i.v.C.E.E.E.E.E.E.E.E.E.E",
".E.E.E.E.E.E.E.E.E.E.E.E.E.E.E.y`E`x`x`d`Q`Y.#.i.v.C.E.E.E.E.E.E.E.E.E.E",
".E.E.E.E.E.E.E.E.E.E.E.E.E.E.E.y`E`x`x`d`Q`Y.#.i.v.C.E.E.E.E.E.E.E.E.E.E",
".E.E.E.E.E.E.E.E.E.E.E.E.E.E.E.y`E`x`x`d`Q`Y.#.i.v.C.E.E.E.E.E.E.E.E.E.E",
".E.E.E.E.E.E.E.E.E.E.E.E.E.E.E.y`E`x`x`d`Q`Y.#.i.v.C.E.E.E.E.E.E.E.E.E.E",
".E.E.E.E.E.E.E.E.E.E.E.E.E.E.E.y`E`x`x`d`Q`Y.#.i.v.C.E.E.E.E.E.E.E.E.E.E",
".E.E.E.E.E.E.E.E.E.E.E.E.E.E.E.y`E`x`x`d`Q`Y.#.i.v.C.E.E.E.E.E.E.E.E.E.E",
".E.E.E.E.E.E.E.E.E.E.E.E.E.E.E.y`E`x`x`d`Q`Y.#.i.v.C.E.E.E.E.E.E.E.E.E.E",
".E.E.E.E.E.E.E.E.E.E.E.E.E.E.E.y`E`x`x`d`Q`Y.#.i.v.C.E.E.E.E.E.E.E.E.E.E",
".E.E.E.E.E.E.E.E.E.E.E.E.E.E.E.y`E`x`x`d`Q`Y.#.i.v.C.E.E.E.E.E.E.E.E.E.E",
".E.E.E.E.E.E.E.E.E.E.E.E.E.E.E.y`E`x`x`d`Q`Y.#.i.v.C.E.E.E.E.E.E.E.E.E.E",
".E.E.E.E.E.E.E.E.E.E.E.E.E.E.E.y`E`x`x`d`Q`Y.#.i.v.C.E.E.E.E.E.E.E.E.E.E",
".E.E.E.E.E.E.E.E.E.E.E.E.E.E.E.y`E`x`x`d`Q`Y.#.i.v.C.E.E.E.E.E.E.E.E.E.E",
".E.E.E.E.E.E.E.E.E.E.E.E.E.E.E.y`E`x`x`d`Q`Y.#.i.v.C.E.E.E.E.E.E.E.E.E.E",
".E.E.E.E.E.E.E.E.E.E.E.E.E.E.D.x`E`x`x`d`P`X...i.u.A.E.E.E.E.E.E.E.E.E.E",
".E.E.E.E.E.E.E.E.E.E.E.E.E.E.C.w`D`x`x`d`O`W.`.h.u.A.E.E.E.E.E.E.E.E.E.E",
".E.E.E.E.E.E.E.E.E.E.E.E.E.p`J`G`t`x`x`a`o`p`w.d.r.x.D.E.E.E.E.E.E.E.E.E",
".E.E.E.E.E.E.E.E.E.E.E.E.E.p`z`x`x`x`x`x`x`.`v.a.k.v.A.E.E.E.E.E.E.E.E.E",
".E.E.E.E.E.E.E.E.E.E.E.E.E.A`F`y`x`x`x`x`x`h`T.`.g.s.y.D.E.E.E.E.E.E.E.E",
".E.E.E.E.E.E.E.E.E.E.E.E.E.A.n`i`x`x`x`x`.`k`N`5.c.r.w.D.E.E.E.E.E.E.E.E",
".E.E.E.E.E.E.E.E.E.E.E.E.E.A.u`3`b`x`x`x```l`L`2.c.r.w.D.E.E.E.E.E.E.E.E",
".E.E.E.E.E.E.E.E.E.E.E.E.E.A.v.i`s`x`x`.`j`n`S`6.g.r.y.E.E.E.E.E.E.E.E.E",
".E.E.E.E.E.E.E.E.E.E.E.E.E.D.w.r`4`c`x`h`m`K`W...i.u.A.E.E.E.E.E.E.E.E.E",
".E.E.E.E.E.E.E.E.E.E.E.E.E.E.A.u.i`u`#`q`M`V`5.c.r.w.D.E.E.E.E.E.E.E.E.E",
".E.E.E.E.E.E.E.E.E.E.E.E.E.E.D.x.r`8`r`0`Z`5.a.i.u.A.E.E.E.E.E.E.E.E.E.E",
".E.E.E.E.E.E.E.E.E.E.E.E.E.E.E.A.w.q.e.a.#.b.h.r.w.D.E.E.E.E.E.E.E.E.E.E",
".E.E.E.E.E.E.E.E.E.E.E.E.E.E.E.E.A.v.r.i.i.j.r.w.A.E.E.E.E.E.E.E.E.E.E.E",
".E.E.E.E.E.E.E.E.E.E.E.E.E.E.E.E.D.A.w.u.u.u.w.A.D.E.E.E.E.E.E.E.E.E.E.E"
};
