/* XPM */
static char *i3dof[] = {
/* width height num_colors chars_per_pixel */
"    18    18       16            1",
/* colors */
"` c #000000",
". c #800000",
"# c #008000",
"a c None",
"b c #000080",
"c c #800080",
"d c #008080",
"e c #c0c0c0",
"f c #808080",
"g c #ff0000",
"h c #00ff00",
"i c #ffff00",
"j c #0000ff",
"k c #ff00ff",
"l c #00ffff",
"m c #ffffff",
/* pixels */
"mmmmmmmmmmmmmmmmmm",
"mmmmmmmmmmmmmmmmmm",
"mmmmmmmmmmmmmmmmmm",
"mmmmmmm`mmmmmmmmmm",
"mmmmmm```mmmmmmmmm",
"mmmmmmm`mmmmmmmmmm",
"mmmmm`````mmmmmmmm",
"mmmm`mm`mm`mmmmmmm",
"mmm`mmm`mmm`mmmmmm",
"mm`mmmm`mmmmmmmmmm",
"mm`mmmm`mmmmmmmmmm",
"mm`mmmmmmmmmmm`mmm",
"mm`mmmmmm```````mm",
"m```mmmmmmmmmm`mmm",
"mm`mmmmmmmmmmmmmmm",
"mmmmmmmmmmmmmmmmmm",
"mmmmmmmmmmmmmmmmmm",
"mmmmmmmmmmmmmmmmmm"
};
