/* XPM */
static char *imgLdRot2[] = {
/* width height num_colors chars_per_pixel */
"    32    32       16            1",
/* colors */
"` c #000000",
". c #800000",
"# c #008000",
"a c None",
"b c #000080",
"c c #800080",
"d c #008080",
"e c #c0c0c0",
"f c #808080",
"g c #ff0000",
"h c #00ff00",
"i c #ffff00",
"j c #0000ff",
"k c #ff00ff",
"l c #00ffff",
"m c #ffffff",
/* pixels */
"mmmmmmmmmmmmmmmmmmmmmmmmmmmmmmmm",
"mmmmmmmmmmmmmmmmmmmmmmmmmmmmmmmm",
"mmmmmmmmmmmmmmmmmmmmmmmmmmmmmmmm",
"mmmmmmmmmmmmmmmmmmmmmmmmmmmmmmmm",
"mmmmmmmmmmmm````````mmmm`mmmmmmm",
"mmmmmmmmmm````````````m``mmmmmmm",
"mmmmmmmm````mmmmmmmm`````mmmmmmm",
"mmmmmmm```mmmmmmmmmmm````mmmmmmm",
"mmmmmm```mmmmmmmmmmm`````mmmmmmm",
"mmmmm```mmmmmmmmmmmmmmmmmmmmmmmm",
"mmmmm``mmmmmmmmmmmmmmmmmmmmmmmmm",
"mmmm``mmmmmmmmmmmmmmmmmmmmmmmmmm",
"mmmm``mmmmmmmmmmmmmmmmmmmmmmmmmm",
"mmm``mmmmmmmmmmmmmmmmmmmmmmmmmmm",
"mmm``mmmmmmmmmmmmmmmmmmmmmmmmmmm",
"mmm``mmmmmmmmmmmmmmmmmmmmmmmmmmm",
"mmm``mmmmmmmmmmmmmmmmmmmmmmmmmmm",
"mmm``mmmmmmmmmmmmmmmmmmmmmmmmmmm",
"mmm``mmmmmmmmmmmmmmmmmmmmmmmmmmm",
"mmm``mmmmmmmmmmmmmmmmmmmmmmmmmmm",
"mmmm``mmmmmmmmmmmmmmmmmmmmmmmmmm",
"mmmm``mmmmmmmmmmmmmmmmmmmmmmmmmm",
"mmmmm``mmmmmmmmmmmmmmmmmmmmmmmmm",
"mmmmm```mmmmmmmmmmmmmmmmmmmmmmmm",
"mmmmmm`mmmmmmmmmmmmmmmmmmmmmmmmm",
"mmmmmmmmmmmmmmmmmmmmmmmmmmmmmmmm",
"mmmmmmmmmmmmmmmmmmmmmmmmmmmmmmmm",
"mmmmmmmmmmmmmmmmmmmmmmmmmmmmmmmm",
"mmmmmmmmmmmmmmmmmmmmmmmmmmmmmmmm",
"mmmmmmmmmmmmmmmmmmmmmmmmmmmmmmmm",
"mmmmmmmmmmmmmmmmmmmmmmmmmmmmmmmm",
"mmmmmmmmmmmmmmmmmmmmmmmmmmmmmmmm"
};
