/* XPM */
static char *lfDof[] = {
/* width height num_colors chars_per_pixel */
"    16    16       16            1",
/* colors */
"` c #000000",
". c #800000",
"# c #008000",
"a c None",
"b c #000080",
"c c #800080",
"d c #008080",
"e c #c0c0c0",
"f c #808080",
"g c #ff0000",
"h c #00ff00",
"i c #ffff00",
"j c #0000ff",
"k c #ff00ff",
"l c #00ffff",
"m c #ffffff",
/* pixels */
"aaaaaaaaaaaaaaaa",
"aaaaaaaaaaaaaaaa",
"aaaaaaa`aaaaaaaa",
"aaaaaa```aaaaaaa",
"aaaaaaa`aaaaaaaa",
"aaaaa`````aaaaaa",
"aaaa`aa`aa`aaaaa",
"aaa`aaa`aaa`aaaa",
"aa`aaaa`aaaaaaaa",
"aa`aaaa`aaaaaaaa",
"aa`aaaaaaaaaaa`a",
"aa`aaaaaa```````",
"a```aaaaaaaaaa`a",
"aa`aaaaaaaaaaaaa",
"aa`aaaaaaaaaaaaa",
"aaaaaaaaaaaaaaaa"
};
