/* XPM */
static char *modify[] = {
/* width height num_colors chars_per_pixel */
"    36    36      256            2",
/* colors */
"`` c None",
"`. c #adaac6",
"`# c #5255b5",
"`a c #393cad",
"`b c #5259b5",
"`c c #9c9ebd",
"`d c #cecbc6",
"`e c #cecfc6",
"`f c #d6cfce",
"`g c #a5a2c6",
"`h c #3941ad",
"`i c #8482b5",
"`j c #bdbebd",
"`k c #cec7c6",
"`l c #9c9ac6",
"`m c #8486a5",
"`n c #bdbab5",
"`o c #bdbece",
"`p c #6369b5",
"`q c #6b71b5",
"`r c #cecfce",
"`s c #9492bd",
"`t c #3945ad",
"`u c #4249ad",
"`v c #6b6d8c",
"`w c #7b7d7b",
"`x c #848684",
"`y c #84869c",
"`z c #adaaa5",
"`A c #c6bebd",
"`B c #c6c3ce",
"`C c #424db5",
"`D c #bdb6b5",
"`E c #c6c3bd",
"`F c #4245ad",
"`G c #73757b",
"`H c #737573",
"`I c #7b797b",
"`J c #8c8a84",
"`K c #9c9694",
"`L c #7375bd",
"`M c #4a51b5",
"`N c #a5a6ad",
"`O c #adaead",
"`P c #7b7dbd",
"`Q c #4249b5",
"`R c #6b6d7b",
"`S c #73716b",
"`T c #7b7973",
"`U c #9c9a94",
"`V c #8c8ead",
"`W c #a59e9c",
"`X c #ada6a5",
"`Y c #b5b2bd",
"`Z c #cecbce",
"`0 c #4a5194",
"`1 c #52598c",
"`2 c #8c8684",
"`3 c #9c9e9c",
"`4 c #b5b2ad",
"`5 c #4a4dad",
"`6 c #8c8e94",
"`7 c #949694",
"`8 c #b5aeb5",
".` c #b5b6c6",
".. c #5a5db5",
".# c #63658c",
".a c #94928c",
".b c #4a51a5",
".c c #948e8c",
".d c #a59ea5",
".e c #4a51ad",
".f c #4a4d9c",
".g c #7b7d94",
".h c #5255a5",
".i c #5255ad",
".j c #6365ad",
".k c #5a61b5",
".l c #525594",
".m c #5a5984",
".n c #8c8e9c",
".o c #9c9ec6",
".p c #94969c",
".q c #a5a29c",
".r c #a5a6c6",
".s c #736d6b",
".t c #adaebd",
".u c #7b798c",
".v c #8c8ab5",
".w c #4245a5",
".x c #848284",
".y c #4a4da5",
".z c #9c969c",
".A c #6b696b",
".B c #6b6d6b",
".C c #84827b",
".D c #8c8e8c",
".E c #b5aead",
".F c #6b71ad",
".G c #636973",
".H c #7b7573",
".I c #5a61a5",
".J c #73758c",
".K c #9492a5",
".L c #636573",
".M c #7b82a5",
".N c #5a5d7b",
".O c #a5a6a5",
".P c #5a5dad",
".Q c #424994",
".R c #6b6563",
".S c #737173",
".T c #a5a6bd",
".U c #525984",
".V c #bdbac6",
".W c #cec7ce",
".X c #848294",
".Y c #5a597b",
".Z c #b5b6ad",
".0 c #6b6963",
".1 c #9c9a9c",
".2 c #63657b",
".3 c #52599c",
".4 c #7375b5",
".5 c #7379ad",
".6 c #5a5d84",
".7 c #7379b5",
".8 c #5a5da5",
"#` c #a5a2a5",
"#. c #7b79bd",
"## c #bdbeb5",
"#a c #949294",
"#b c #9496ad",
"#c c #63699c",
"#d c #8c8ea5",
"#e c #7b7da5",
"#f c #5a5d9c",
"#g c #6b69a5",
"#h c #4a499c",
"#i c #c6c3c6",
"#j c #8c8a94",
"#k c #8c8a8c",
"#l c #5259ad",
"#m c #42499c",
"#n c #9c9aa5",
"#o c #adaaad",
"#p c #5259a5",
"#q c #7b7d84",
"#r c #c6c7bd",
"#s c #000000",
"#t c #000000",
"#u c #000000",
"#v c #000000",
"#w c #000000",
"#x c #000000",
"#y c #000000",
"#z c #000000",
"#A c #000000",
"#B c #000000",
"#C c #000000",
"#D c #000000",
"#E c #000000",
"#F c #000000",
"#G c #000000",
"#H c #000000",
"#I c #000000",
"#J c #000000",
"#K c #000000",
"#L c #000000",
"#M c #000000",
"#N c #000000",
"#O c #000000",
"#P c #000000",
"#Q c #000000",
"#R c #000000",
"#S c #000000",
"#T c #000000",
"#U c #000000",
"#V c #000000",
"#W c #000000",
"#X c #000000",
"#Y c #000000",
"#Z c #000000",
"#0 c #000000",
"#1 c #000000",
"#2 c #000000",
"#3 c #000000",
"#4 c #000000",
"#5 c #000000",
"#6 c #000000",
"#7 c #000000",
"#8 c #000000",
"a` c #000000",
"a. c #000000",
"a# c #000000",
"aa c #000000",
"ab c #000000",
"ac c #000000",
"ad c #000000",
"ae c #000000",
"af c #000000",
"ag c #000000",
"ah c #000000",
"ai c #000000",
"aj c #000000",
"ak c #000000",
"al c #000000",
"am c #000000",
"an c #000000",
"ao c #000000",
"ap c #000000",
"aq c #000000",
"ar c #000000",
"as c #000000",
"at c #000000",
"au c #000000",
"av c #000000",
"aw c #000000",
"ax c #000000",
"ay c #000000",
"az c #000000",
"aA c #000000",
"aB c #000000",
"aC c #000000",
"aD c #000000",
"aE c #000000",
"aF c #000000",
"aG c #000000",
"aH c #000000",
"aI c #000000",
"aJ c #000000",
"aK c #000000",
"aL c #000000",
"aM c #000000",
"aN c #000000",
"aO c #000000",
"aP c #000000",
"aQ c #000000",
"aR c #000000",
"aS c #000000",
"aT c #000000",
"aU c #000000",
"aV c #000000",
"aW c #000000",
"aX c #000000",
"aY c #000000",
"aZ c #000000",
"a0 c #000000",
"a1 c #000000",
"a2 c #000000",
"a3 c #000000",
"a4 c #000000",
"a5 c #000000",
"a6 c #000000",
"a7 c #000000",
"a8 c #000000",
/* pixels */
"````````````````````````````````````````````````````````````````````````",
"````````````````````````````````````````````````````````````````````````",
"```````````````````````.`#`a`b`c`d`e`f``````````````````````````````````",
"`````````````````````g`h`a`a`a`a`i`j`k`f````````````````````````````````",
"`````````````````l`g`h`a`a`a`a`a`a`m`n`k`f```o`p`h`q`d`r````````````````",
"```````````````s`#`t`a`a`a`u`v`w`x`y`z`A`d`B`C`a`b`D`j`E`d``````````````",
"`````````````g`#`u`a`a`a`F`G`H`I`J`K`z`n`d`L`a`M`N`z`O`n`k`f````````````",
"`````````````P`Q`a`a`a`h`R`S`T`J`U`z`D`E`d`Q`a`V`W`U`X`D`Y`f````````````",
"```````````Z`#`a`a`a`h`0`1`H`2`3`4`A`k`d`r`a`a`5`6`7`X`8`M`d`r`f````````",
"``````.``L..`a`a`a`a`0`a`a.#.a`z`A`d`f```r`a`a`a.b.c.d.e`F`E`E`d`f``````",
"`````B`C`a`a`a`a`a.f`h`a`a`h.g`z`A`d`````P`a`a`a`a.h.i`a.j`4`D`E`d``````",
"````.k`a`a`a`a`a.l.m`a`a`a`a`h.n`4`E`f.o`a`a`a`a`a`a`a`t.p.q`z`n`d``````",
"````.r`h`a`a`a.f.s.s`0`a`a`a`a`F.p`D.t`t`a`a`a`a`a`a.f.u.c`K`X`n`d``````",
"`````r.v`a`a`a.w.s`T.x.y`a`a`a`a`u.z.e`a`a`a`a.f.A.B`H.C.D`3.E`E`f``````",
"`````f`E.F`a`h.G`H`2`U.p`F`a`a`a`a`h`a`a`a`a.w.A.s.H`x.a`3`O`j`d````````",
"```````k`D.I.J`w`x`K`z`4.K`h`a`a`a`a`a`a`a`h.L.s`T.D`3`z`D`A`d`f````````",
"```````f`E`4`W`7`U`z`n`E`n.M`a`a`a`a`a`a`a.N.B`T.c.O`D`E`k`r````````````",
"`````````e`E`D.E`4`j`k`e`k`D.P`a`a`a`a`a.Q.R.S`J.q`n`k`f````````````````",
"```````````r`k`E`E`d`f```f.T`h`a`a`a`a`a`a.U`I`7`4`E`f``````````````````",
"```````````````f`f``````.V`Q`a`a`a`a`a`a`a`a`v`U`D`k````````````````````",
"``````````````````````.W`#`a`a`a`a`a`a`a`a`a`h.X.E`E`r``````````````````",
"`````````````````````Z.k`a`a`a`a.w.Y`a`a`a`a`a`t.n.Z`k`f````````````````",
"``````````````.`.k`h`a`a`a`a`a`t.L.0`1`a`a`a`a`a`u.1`D`k`f``````````````",
"````````````.``t`a`a`a`a`a`a`h.2.s`H.C.3`a`a`a`a`a.y.d`n`k``````````````",
"````````````.k`a.4.5`a`a`a`a.6.B.H`J`U`3.b`a`a`a`a`a.h`X`n`d````````````",
"`````````````h.7.E`3.8`a`a.w.0`S`2`W`4`D#``F`a`a`a`a`a.8`z`j`d``````````",
"````````````#.##`z`3#a.b`a`a`S`w`K`4`E`k`j#b`h`a`a`a`a`a#c`z`A`e````````",
"`````````````d`A.E`z`X#d`a`h`T`J.q`j`d`f`d`n#e`a`a`a`a`a.3`U`4`k`f``````",
"`````````````r`E##`n`8`u`a#f`x.a`z`E`f`````k`D#g`a`a`a#h`H.D`z`A`f``````",
"```````````````e`d#i`b`a`u#j#k`U`4`k```````f`k`4#l`a#m.A.H.D`X`A`r``````",
"```````````````````q`h.k#n`K#a.q`n`d`````````f`E#o#p#q`w`x`U`4#r`f``````",
"```````````````````f`k`D`X`U`W.E`E`f```````````e`A.E`3#a`U`O`A`d````````",
"```````````````````f`k`n`O`z.E`A`d```````````````d`A.Z.E`4`A`d``````````",
"`````````````````````d`E####`E`d```````````````````d`k`E`k`d````````````",
"```````````````````````r`d`d`f```````````````````````f`f`f``````````````",
"````````````````````````````````````````````````````````````````````````"
};
