/* XPM */
static char *new[] = {
/* width height num_colors chars_per_pixel */
"    36    36       28            1",
/* colors */
"` c #7d7d7d",
". c #818181",
"# c #858585",
"a c #898989",
"b c #8d8d8d",
"c c #919191",
"d c #959595",
"e c #999999",
"f c #9d9d9d",
"g c #a1a1a1",
"h c #a5a5a5",
"i c #aaaaaa",
"j c #aeaeae",
"k c #b2b2b2",
"l c #b6b6b6",
"m c #bababa",
"n c #bebebe",
"o c #c2c2c2",
"p c #c6c6c6",
"q c #cacaca",
"r c #cecece",
"s c None",
"t c #dedede",
"u c #e2e2e2",
"v c #e6e6e6",
"w c #eaeaea",
"x c #f6f6f6",
"y c #fafafa",
/* pixels */
"ssssssssssssssssssssssssssssssssssss",
"ssssssssssssssssssssssssssssssssssss",
"sssssssrrrqqqqqqqqqqqqqqrrrsssssssss",
"ssssstvvvuuuuuuuuuuuuuupoopqrsssssss",
"sssssvyyyyyyyyyyyyyyyyyvplmoqrssssss",
"ssssrvyyyyyyyyyyyyyyyyyvvpilnqrsssss",
"ssssrvyyyyyyyyyyyyyyyyyvvvpgknprssss",
"ssssruyyyyyyyyyyyyyyyyyvvvvpgknqrsss",
"ssssquyyyyyyyyyyyyyyyyyvvvvvpgloqsss",
"ssssquyyyyyyyyyyyyyyyyyywwwwwdimprss",
"ssssquyyyyyyyyyyyyyyyyyyyyyypafkorss",
"ssssquyyyyyyyyyyyyyyyyyyyyyyp.djnqss",
"ssssquyyyyyyyyyyyyyyyyyyyyyyp`dinqss",
"ssssquyyyyyyyyyyyyyyyyyyyyyyp`dinqss",
"ssssquyyyyyyyyyyyyyyyyyyyyyyp`dinqss",
"ssssquyyyyyyyyyyyyyyyyyyyyyyp`djnqss",
"ssssquyyyyyyyyyyyyyyyyyyyyyyp`djnqss",
"ssssquyyyyyyyyyyyyyyyyyyyyyyp`djnqss",
"ssssquyyyyyyyyyyyyyyyyyyyyyyp`djnqss",
"ssssquyyyyxxyyyyyyyyyyyyyyyyp`djnqss",
"ssssquyyyyyyyyyyyyyyyyyyyyyyp`djnqss",
"ssssquyyyyyyyyyyyyyyyyyyyyyyp`djnqss",
"ssssquyyyyyyyyyyyyyyyyyyyyyyp`djnqss",
"ssssquyyyyyyyyyyyyyyyyyyyyyyp`djnqss",
"ssssquyyyyyyyyyyyyyyyyyyyyyyp`djnqss",
"ssssquyyyyyyyyyyyyyyyyyyyyyyp`djnqss",
"ssssquyyyyyyyyyyyyyyyyyyyyyyp`djnqss",
"ssssquyyyyyyyyyyyyyyyyyyyyyyp`djnqss",
"ssssquyyyyyyyyyyyyyyyyyyyyyyp.djnqss",
"ssssquyyyyyyyyyyyyyyyyyyyyyyp.djnqss",
"ssssquyyyyyyyyyyyyyyyyyyyyyyp#ejoqss",
"ssssrrroljihhhhhhhhhhhhhhhhifbgkorss",
"ssssrpmifca################acfimprss",
"ssssrqoligfffeeeeeeeeeeeefffgiloqrss",
"sssssrqomllkkkkkkkkkkkkkkkkllmoqrsss",
"ssssssrqppooooooooooooooooooppqrssss"
};
