/* XPM */
static char *nodeload[] = {
/* width height num_colors chars_per_pixel */
"    36    36      256            2",
/* colors */
"`` c None",
"`. c #d6bebd",
"`# c #d6bab5",
"`a c #d6cbc6",
"`b c #ce6163",
"`c c #ce4542",
"`d c #ce5d5a",
"`e c #cebebd",
"`f c #cec7c6",
"`g c #cecbc6",
"`h c #d6cfce",
"`i c #ce595a",
"`j c #ce3c39",
"`k c #ce5552",
"`l c #bdb2ad",
"`m c #bdbab5",
"`n c #c6c3bd",
"`o c #b5a6a5",
"`p c #adaaa5",
"`q c #ce5152",
"`r c #a59a94",
"`s c #a59e9c",
"`t c #b5aead",
"`u c #c65152",
"`v c #9c928c",
"`w c #949294",
"`x c #949694",
"`y c #ada6a5",
"`z c #c6bebd",
"`A c #9c8e8c",
"`B c #94928c",
"`C c #d6c7bd",
"`D c #ce5952",
"`E c #9c8a8c",
"`F c #948e8c",
"`G c #d67573",
"`H c #ce4142",
"`I c #c64d4a",
"`J c #b5595a",
"`K c #948684",
"`L c #bdb6b5",
"`M c #d6a29c",
"`N c #a56163",
"`O c #848284",
"`P c #9c9694",
"`Q c #c6c7bd",
"`R c #ce7973",
"`S c #bd4d4a",
"`T c #7b7173",
"`U c #7b7d7b",
"`V c #d6b6b5",
"`W c #9c6963",
"`X c #737573",
"`Y c #7b797b",
"`Z c #ce8e8c",
"`0 c #bd5d5a",
"`1 c #847d7b",
"`2 c #7b7973",
"`3 c #cec7bd",
"`4 c #c67173",
"`5 c #ad8a8c",
"`6 c #8c8a84",
"`7 c #b5b6b5",
"`8 c #ded3ce",
".` c #efcbc6",
".. c #efc7c6",
".# c #e7babd",
".a c #deb6b5",
".b c #deb2b5",
".c c #cea6a5",
".d c #a57573",
".e c #a5a29c",
".f c #efcbce",
".g c #ffc3c6",
".h c #f7babd",
".i c #c65d5a",
".j c #ad3839",
".k c #9c9e9c",
".l c #decbc6",
".m c #ffb6b5",
".n c #ffbabd",
".o c #f7b6b5",
".p c #f7b2b5",
".q c #d66d6b",
".r c #bd0000",
".s c #ad3431",
".t c #cecfce",
".u c #debab5",
".v c #ff4d4a",
".w c #ff4542",
".x c #bd1010",
".y c #c60000",
".z c #ad3029",
".A c #8c8684",
".B c #9c9a94",
".C c #ff4142",
".D c #ff3c39",
".E c #a52829",
".F c #b5b2ad",
".G c #bd0c08",
".H c #9c2421",
".I c #6b6d6b",
".J c #6b6963",
".K c #84827b",
".L c #adaead",
".M c #8c3031",
".N c #6b5d5a",
".O c #736d6b",
".P c #848684",
".Q c #e79e9c",
".R c #d68e8c",
".S c #ce827b",
".T c #bd7173",
".U c #b56563",
".V c #a55552",
".W c #a52c29",
".X c #7b5d5a",
".Y c #73716b",
".Z c #a5a6a5",
".0 c #cecfc6",
".1 c #000000",
".2 c #000000",
".3 c #000000",
".4 c #000000",
".5 c #000000",
".6 c #000000",
".7 c #000000",
".8 c #000000",
"#` c #000000",
"#. c #000000",
"## c #000000",
"#a c #000000",
"#b c #000000",
"#c c #000000",
"#d c #000000",
"#e c #000000",
"#f c #000000",
"#g c #000000",
"#h c #000000",
"#i c #000000",
"#j c #000000",
"#k c #000000",
"#l c #000000",
"#m c #000000",
"#n c #000000",
"#o c #000000",
"#p c #000000",
"#q c #000000",
"#r c #000000",
"#s c #000000",
"#t c #000000",
"#u c #000000",
"#v c #000000",
"#w c #000000",
"#x c #000000",
"#y c #000000",
"#z c #000000",
"#A c #000000",
"#B c #000000",
"#C c #000000",
"#D c #000000",
"#E c #000000",
"#F c #000000",
"#G c #000000",
"#H c #000000",
"#I c #000000",
"#J c #000000",
"#K c #000000",
"#L c #000000",
"#M c #000000",
"#N c #000000",
"#O c #000000",
"#P c #000000",
"#Q c #000000",
"#R c #000000",
"#S c #000000",
"#T c #000000",
"#U c #000000",
"#V c #000000",
"#W c #000000",
"#X c #000000",
"#Y c #000000",
"#Z c #000000",
"#0 c #000000",
"#1 c #000000",
"#2 c #000000",
"#3 c #000000",
"#4 c #000000",
"#5 c #000000",
"#6 c #000000",
"#7 c #000000",
"#8 c #000000",
"a` c #000000",
"a. c #000000",
"a# c #000000",
"aa c #000000",
"ab c #000000",
"ac c #000000",
"ad c #000000",
"ae c #000000",
"af c #000000",
"ag c #000000",
"ah c #000000",
"ai c #000000",
"aj c #000000",
"ak c #000000",
"al c #000000",
"am c #000000",
"an c #000000",
"ao c #000000",
"ap c #000000",
"aq c #000000",
"ar c #000000",
"as c #000000",
"at c #000000",
"au c #000000",
"av c #000000",
"aw c #000000",
"ax c #000000",
"ay c #000000",
"az c #000000",
"aA c #000000",
"aB c #000000",
"aC c #000000",
"aD c #000000",
"aE c #000000",
"aF c #000000",
"aG c #000000",
"aH c #000000",
"aI c #000000",
"aJ c #000000",
"aK c #000000",
"aL c #000000",
"aM c #000000",
"aN c #000000",
"aO c #000000",
"aP c #000000",
"aQ c #000000",
"aR c #000000",
"aS c #000000",
"aT c #000000",
"aU c #000000",
"aV c #000000",
"aW c #000000",
"aX c #000000",
"aY c #000000",
"aZ c #000000",
"a0 c #000000",
"a1 c #000000",
"a2 c #000000",
"a3 c #000000",
"a4 c #000000",
"a5 c #000000",
"a6 c #000000",
"a7 c #000000",
"a8 c #000000",
/* pixels */
"````````````````````````````````````````````````````````````````````````",
"```````````````````````````````````.`#`.````````````````````````````````",
"`````````````````````````````````a`b`c`d`e`f`f`g`h``````````````````````",
"`````````````````````````````````a`i`j`k`l`m`m`n`g``````````````````````",
"`````````````````````````````````a`i`j`k`o`p`p`m`f``````````````````````",
"`````````````````````````````````a`i`j`q`r`s`s`t`n``````````````````````",
"`````````````````````````````````a`i`j`u`v`w`x`y`z``````````````````````",
"`````````````````````````````````a`i`j`u`A`B`w`y`z``````````````````````",
"`````````````````````````````````a`i`j`u`A`B`w`y`z``````````````````````",
"`````````````````````````````````a`i`j`u`A`B`w`y`z``````````````````````",
"`````````````````````````````````a`i`j`u`A`B`w`y`z``````````````````````",
"`````````````````````````````````a`i`j`u`A`B`w`y`z``````````````````````",
"`````````````````````````````````a`i`j`u`A`B`w`y`z``````````````````````",
"`````````````````````````````````a`i`j`u`A`B`w`y`z``````````````````````",
"```````````````````````````````a`C`D`j`u`E`F`w`y`z``````````````````````",
"`````````````````````````````a`G`D`H`j`H`I`J`K`s`L`g````````````````````",
"```````````````````````````````M`c`j`j`j`H`N`O`P`t`Q`h``````````````````",
"`````````````````````````````````R`j`j`j`S`T`U`w`p`n`h``````````````````",
"`````````````````````````````````V`q`j`H`W`X`Y`B`p`z`h``````````````````",
"`````````````````````````````````h`Z`H`0`1`2`1`B`p`z`h``````````````````",
"```````````````````````````````````3`4`5`B`6`F`s`7`f````````````````````",
"`````````````````````````````8.`.....#.a.b.c.d.e`L`f````````````````````",
"````````````````````````````.f.g.g.g.g.g.h.i.j.k`t`n`g`h````````````````",
"``````````````````````````.l.m.n.m.o.o.p.q.r.s`w`y`L`n.t````````````````",
"``````````````````````````.u.v.w.w.w.w.w.x.y.z.A.B`p`m`g````````````````",
"``````````````````````````.u.w.C.C.C.C.D.x.y.E`X`6`s.F`f````````````````",
"``````````````````````````.u.w.C.C.C.C.D.G.y.H.I`O.B`t`f````````````````",
"``````````````````````````.u.w.C.C.C.C.D.G.y.H.J.K.B.L`f````````````````",
"``````````````````````````.u.w.C.C.C.C.D.G.r.M.J.K.B`t`f````````````````",
"``````````````````````````.u.w.C.C.C.C.D.G.H.N.O.P.k.F`g````````````````",
"``````````````````````````.l.Q.R.S.T.U.V.W.X.Y`U`B`y`m`g````````````````",
"```````````````````````````````n.F.e`B.P.K.P.A`B.e.F`n`h````````````````",
"```````````````````````````````f`m.F.Z.k.B.B`s`y.F`z`g``````````````````",
"``````````````````````````````.t`f`z`m.F.F.F`L`m`n`g````````````````````",
"```````````````````````````````````h.0`g`g`g`g.t`h``````````````````````",
"````````````````````````````````````````````````````````````````````````"
};
