/* XPM */
static char *node[] = {
/* width height num_colors chars_per_pixel */
"    36    36      256            2",
/* colors */
"`` c None",
"`. c #ded3ce",
"`# c #efcbc6",
"`a c #efc7c6",
"`b c #efc3c6",
"`c c #d69e9c",
"`d c #efcbce",
"`e c #ffc3c6",
"`f c #ffc3bd",
"`g c #d6716b",
"`h c #c64d4a",
"`i c #cecbc6",
"`j c #d6cfce",
"`k c #decbc6",
"`l c #ffb6b5",
"`m c #ffbabd",
"`n c #ffbab5",
"`o c #f7b6b5",
"`p c #de7973",
"`q c #c60000",
"`r c #bd4542",
"`s c #bdbab5",
"`t c #c6bebd",
"`u c #c6c7bd",
"`v c #cecfc6",
"`w c #debab5",
"`x c #ff4d4a",
"`y c #ff4542",
"`z c #c61410",
"`A c #b53839",
"`B c #a59e9c",
"`C c #8c8eb5",
"`D c #7b82bd",
"`E c #848ac6",
"`F c #8c8ac6",
"`G c #8c8ec6",
"`H c #a5a6ce",
"`I c #ff4142",
"`J c #ff3c39",
"`K c #bd1010",
"`L c #ad3029",
"`M c #8c8684",
"`N c #7b7db5",
"`O c #6b6dce",
"`P c #8c92ce",
"`Q c #a52829",
"`R c #7b7573",
"`S c #7379d6",
"`T c #8c92c6",
"`U c #bdb6b5",
"`V c #c6c3bd",
"`W c #bd0c08",
"`X c #9c2421",
"`Y c #736d6b",
"`Z c #7b798c",
"`0 c #8486a5",
"`1 c #8c92b5",
"`2 c #9492b5",
"`3 c #8c8ead",
"`4 c #8c8aad",
"`5 c #848aad",
"`6 c #8c8ea5",
"`7 c #9c9e9c",
"`8 c #a5a6a5",
".` c #b5b2ad",
".. c #bd0000",
".# c #943031",
".a c #6b696b",
".b c #7b7973",
".c c #948e8c",
".d c #94928c",
".e c #8c8a84",
".f c #848684",
".g c #949694",
".h c #adaaa5",
".i c #6b5d5a",
".j c #7b797b",
".k c #8c8e8c",
".l c #9c9694",
".m c #e79a94",
".n c #de8e8c",
".o c #ce7d7b",
".p c #b5696b",
".q c #a55d5a",
".r c #a55152",
".s c #9c2829",
".t c #6b5552",
".u c #636563",
".v c #847d7b",
".w c #adaead",
".x c #a5a29c",
".y c #cec7c6",
".z c #6b6d6b",
".A c #6b6563",
".B c #8c8a8c",
".C c #cecfce",
".D c #9496bd",
".E c #7375ad",
".F c #737194",
".G c #7b7d7b",
".H c #84827b",
".I c #6b71ce",
".J c #6369ce",
".K c #7371b5",
".L c #9c9a94",
".M c #7379b5",
".N c #b5b6b5",
".O c #7b79b5",
".P c #7375b5",
".Q c #b5b6ad",
".R c #bdbace",
".S c #a5aace",
".T c #8c8a9c",
".U c #bdbeb5",
".V c #ada6a5",
".W c #000000",
".X c #000000",
".Y c #000000",
".Z c #000000",
".0 c #000000",
".1 c #000000",
".2 c #000000",
".3 c #000000",
".4 c #000000",
".5 c #000000",
".6 c #000000",
".7 c #000000",
".8 c #000000",
"#` c #000000",
"#. c #000000",
"## c #000000",
"#a c #000000",
"#b c #000000",
"#c c #000000",
"#d c #000000",
"#e c #000000",
"#f c #000000",
"#g c #000000",
"#h c #000000",
"#i c #000000",
"#j c #000000",
"#k c #000000",
"#l c #000000",
"#m c #000000",
"#n c #000000",
"#o c #000000",
"#p c #000000",
"#q c #000000",
"#r c #000000",
"#s c #000000",
"#t c #000000",
"#u c #000000",
"#v c #000000",
"#w c #000000",
"#x c #000000",
"#y c #000000",
"#z c #000000",
"#A c #000000",
"#B c #000000",
"#C c #000000",
"#D c #000000",
"#E c #000000",
"#F c #000000",
"#G c #000000",
"#H c #000000",
"#I c #000000",
"#J c #000000",
"#K c #000000",
"#L c #000000",
"#M c #000000",
"#N c #000000",
"#O c #000000",
"#P c #000000",
"#Q c #000000",
"#R c #000000",
"#S c #000000",
"#T c #000000",
"#U c #000000",
"#V c #000000",
"#W c #000000",
"#X c #000000",
"#Y c #000000",
"#Z c #000000",
"#0 c #000000",
"#1 c #000000",
"#2 c #000000",
"#3 c #000000",
"#4 c #000000",
"#5 c #000000",
"#6 c #000000",
"#7 c #000000",
"#8 c #000000",
"a` c #000000",
"a. c #000000",
"a# c #000000",
"aa c #000000",
"ab c #000000",
"ac c #000000",
"ad c #000000",
"ae c #000000",
"af c #000000",
"ag c #000000",
"ah c #000000",
"ai c #000000",
"aj c #000000",
"ak c #000000",
"al c #000000",
"am c #000000",
"an c #000000",
"ao c #000000",
"ap c #000000",
"aq c #000000",
"ar c #000000",
"as c #000000",
"at c #000000",
"au c #000000",
"av c #000000",
"aw c #000000",
"ax c #000000",
"ay c #000000",
"az c #000000",
"aA c #000000",
"aB c #000000",
"aC c #000000",
"aD c #000000",
"aE c #000000",
"aF c #000000",
"aG c #000000",
"aH c #000000",
"aI c #000000",
"aJ c #000000",
"aK c #000000",
"aL c #000000",
"aM c #000000",
"aN c #000000",
"aO c #000000",
"aP c #000000",
"aQ c #000000",
"aR c #000000",
"aS c #000000",
"aT c #000000",
"aU c #000000",
"aV c #000000",
"aW c #000000",
"aX c #000000",
"aY c #000000",
"aZ c #000000",
"a0 c #000000",
"a1 c #000000",
"a2 c #000000",
"a3 c #000000",
"a4 c #000000",
"a5 c #000000",
"a6 c #000000",
"a7 c #000000",
"a8 c #000000",
/* pixels */
"````````````````````````````````````````````````````````````````````````",
"````````````````````````````````````````````````````````````````````````",
"````````````````````````````````````````````````````````````````````````",
"````````````````````````````````````````````````````````````````````````",
"````````````````````````````````````````````````````````````````````````",
"`````````````.`#`a`a`a`a`a`b`c``````````````````````````````````````````",
"`````````````d`e`e`e`e`e`f`g`h`i`i`j````````````````````````````````````",
"```````````k`l`m`m`n`l`o`p`q`r`s`t`u`v``````````````````````````````````",
"```````````w`x`y`y`y`y`y`z`q`A`B`C`D`E`F`G`G`G`G`G`G`G`G`G`H````````````",
"```````````w`y`I`I`I`I`J`K`q`L`M`N`O`O`O`O`O`O`O`O`O`O`O`O`P`i`i`j``````",
"```````````w`y`I`I`I`I`J`K`q`Q`R`N`S`S`S`S`S`S`S`S`S`S`S`S`T`U`s`V`i````",
"```````````w`y`I`I`I`I`J`W`q`X`Y`Z`0`1`2`3`3`4`4`5`5`5`5`4`6`7`8.``V`j``",
"```````````w`y`I`I`I`I`J`W...#.a.b.c`B`7.d.e.f.f.f.f.f.f.f.f.e.g.h`t`i``",
"```````````w`y`I`I`I`I`J`W`X.i.a.j.d`B`B.g.k.e`M`M`M`M`M`M.e.k.l.h`t`v``",
"```````````k.m.n.o.p.q.r.s.t.u`Y.v.l.h.w.h.x`B`B`B`B`B`B`B`B.x.h`U.y`j``",
"`````````````j`V.h.k`R.z.A.a`Y.b.B.x`U`t`t`s`s`s`s`s`s`s`s`s`s`t.y.C````",
"`````````````j`u.D`D.E.F.G.G.H.B`7.``V`i`v`i`i`i`i`i`i`i`i`i`i.C`j``````",
"```````````````i`E.I.J.K.g.g.L.x.``V`i``````````````````````````````````",
"```````````````j`G.I.J.M.x.x.h.N`V`i````````````````````````````````````",
"`````````````````P.I.J.O`B`B.h`s`i``````````````````````````````````````",
"`````````````````P.I.J.P.d.d.x`s`i``````````````````````````````````````",
"`````````````````P.I.J.P`M`M.L`U`i``````````````````````````````````````",
"`````````````````P.I.J.K.H.H.l.Q.y``````````````````````````````````````",
"`````````````````P.I.J.K.H.H.l.`.y``````````````````````````````````````",
"`````````````````P.I.J.K.H.H.l.`.y``````````````````````````````````````",
"`````````````````P.I.J.K.H.H.l.`.y``````````````````````````````````````",
"`````````````````P.I.J.K.H.H.l.`.y``````````````````````````````````````",
"`````````````````P.I.J.K.H.H.l.`.y``````````````````````````````````````",
"`````````````````P.I.J.K.H.H.l.`.y``````````````````````````````````````",
"````````````````.R.S.D.T.H.H.l.Q`i``````````````````````````````````````",
"```````````````````i`U`7.e.e`7`U`i``````````````````````````````````````",
"```````````````````i.U.V.l.l.V.U`i``````````````````````````````````````",
"```````````````````j`u`U.w.w`U`u`j``````````````````````````````````````",
"````````````````````.C.y`V`V.y.C````````````````````````````````````````",
"```````````````````````j`j`j`j``````````````````````````````````````````",
"````````````````````````````````````````````````````````````````````````"
};
