/* XPM */
static char *paint_add[] = {
/* width height num_colors chars_per_pixel */
"    36    36      128            2",
/* colors */
"`` c #3c3c3c",
"`. c #444444",
"`# c #59554c",
"`a c #595955",
"`b c #696155",
"`c c #75694c",
"`d c #756955",
"`e c #79715d",
"`f c #696965",
"`g c #000081",
"`h c #8d650c",
"`i c #896510",
"`j c #956910",
"`k c #957530",
"`l c #ae7d24",
"`m c #85795d",
"`n c #917d59",
"`o c #897961",
"`p c #817d79",
"`q c #be8908",
"`r c #be8914",
"`s c #998559",
"`t c #81817d",
"`u c #958161",
"`v c #998d71",
"`w c #a18559",
"`x c #b69159",
"`y c #a58d65",
"`z c #a5956d",
"`A c #a59575",
"`B c #c28d08",
"`C c #ce9518",
"`D c #d29910",
"`E c #c29120",
"`F c #c6913c",
"`G c #d29d24",
"`H c #daa114",
"`I c #e6ae1c",
"`J c #eab620",
"`K c #f6ba24",
"`L c #f2be30",
"`M c #c69548",
"`N c #c2995d",
"`O c #d29d4c",
"`P c #daa148",
"`Q c #cea161",
"`R c #e2ae59",
"`S c #eaba40",
"`T c #e2b659",
"`U c #e2b265",
"`V c #e6ba71",
"`W c #f2c230",
"`X c #eec240",
"`Y c #eac255",
"`Z c #f6c64c",
"`0 c #eac27d",
"`1 c #918d89",
"`2 c #91918d",
"`3 c #a59d85",
"`4 c #a19d99",
"`5 c #a1a19d",
"`6 c #b2aa91",
"`7 c #b2aeaa",
"`8 c #b6b2ae",
".` c #d6ba89",
".. c #c2beba",
".# c #dac289",
".a c #daca9d",
".b c #d6caaa",
".c c #d6cab6",
".d c #eac685",
".e c #eace99",
".f c #f2ce91",
".g c #f6d299",
".h c #eed6ae",
".i c #ead6ba",
".j c #f2dab6",
".k c #fae2b6",
".l c #d2cec2",
".m c None",
".n c #e2d6c2",
".o c #f2dec2",
".p c #fae2c2",
".q c #916504",
".r c #916508",
".s c #916908",
".t c #996d04",
".u c #b6b6b2",
".v c #bab6b2",
".w c #bebeba",
".x c #757171",
".y c #797575",
".z c #797975",
".A c #7d7d79",
".B c #959191",
".C c #999591",
".D c #999995",
".E c #9d9d99",
".F c #d6a155",
".G c #daa550",
".H c #deaa50",
".I c #deaa59",
".J c #858181",
".K c #898585",
".L c #898985",
".M c #8d8d89",
".N c #a5a5a1",
".O c #aaa5a1",
".P c #aaaaa5",
".Q c #aeaeaa",
".R c #f2d6a5",
".S c #f6daae",
".T c #ffdea5",
".U c #fadaae",
".V c #babab2",
".W c #babab6",
".X c #bebab6",
".Y c #bebeb6",
".Z c #717169",
".0 c #797161",
".1 c #797169",
".2 c #c69108",
".3 c #ca9108",
".4 c #ce990c",
".5 c #cac6c2",
".6 c #cacac2",
".7 c #c2c2ba",
".8 c #000000",
/* pixels */
".m.m.m.m.m.m.m.m.m.m.m.m.m.m.m.m.m.m.m.m.m.m.m.m.m.m.m.m.m.m.m.m.m.m.m.m",
".m.m.m.m.m.m.m.m.m.m.m.m.m.m.m.m.m.m.m.m.m.m.m.m.m.m.m.m.m.m.m.m.m.m.m.m",
".m.m.m.m.m.m.m.m.m.m.m.m.m.m.m.m.m.m.m.m.m.m.m.m.l.a.l.l.m.m.m.m.m.m.m.m",
".m.m.m.m.m`g`g`g.m.m.m.m.m.m.m.m.m.m.m.m.m.m.m.l`Y`K.#.7.5.l.m.m.m.m.m.m",
".m.m.m.m.m`g`g`g.m.m.m.m.m.m.m.m.m.m.m.m.m.m.c`Y`L`K`T.V.....l.m.m.m.m.m",
".m.m.m.m.m`g`g`g.m.m.m.m.m.m.m.m.m.m.m.m.m.c`X`L`K`K`L`6`7.W...l.m.m.m.m",
".m.m`g`g`g`g`g`g`g`g`g.m.m.m.m.m.m.m.m.m.c`X`L`K`K`K`H`E`3`7...7.l.m.m.m",
".m.m`g`g`g`g`g`g`g`g`g.m.m.m.m.m.m.m.m.b`X`L`K`K`K`H`B`B`r`A`7...5.l.m.m",
".m.m`g`g`g`g`g`g`g`g`g.m.m.m.m.m.m.m.a`L`L`K`K`K`D`B`B`B`q`r`z`7.....l.m",
".m.m.m.m.m`g`g`g.m.m.m.m.m.m.m.m.m.a`L`L`K`K`J`D`B`B`B`B`q.t`h`k`A`8...6",
".m.m.m.m.m`g`g`g.m.m.m.m.m.m.m.m.a`L`L`K`K`J`D`B`B`B`B`q.t`h.q`h`h`s`8..",
".m.m.m.m.m`g`g`g.m.m.m.m.m.m.m.#`L`K`K`K`J`D`B`B`B`B`q.t`h.q.q`h`h`v`7.W",
".m.m.m.m.m.m.m.m.m.m.m.m.m.m.d`L`K`K`K`I`D`q`B`B`B`q.t`h.q.q`h`h`m`1`4`7",
".m.m.m.m.m.m.m.m.m.m.m.m.m.b`Z`K`K`K`I.3`q`B`B`B`q.t`h.q.q`h`h`c`p`1`4`7",
".m.m.m.m.m.m.m.m.m.m.m.m.m.h.T`L`K`I.3`B`B`B`B`q.t`h.q.q`h`h`c.x`t`2.O`8",
".m.m.m.m.m.m.m.m.m.m.m.m.c.k.k`L`S`P`B`B`B`B`q.t.q.q.q`h`h`c.Z`p`1`4`7..",
".m.m.m.m.m.m.m.m.m.m.m.l.j.p.j.e.g.f`C`B`B`q.t.q.q.q.q`h`c.Z`p`1`4`7...5",
".m.m.m.m.m.m.m.m.m.m.m.i.p.k.S.R.g.f`G`C`q.t.q.q.q.q`i`d.x`p`1`4`7...5.l",
".m.m.m.m.m.m.m.m.m.m.m.p.k.U.R.g.f.d`V`U`O.s.q.q.q`i`d.x`p`1`4`7...5.l.m",
".m.m.m.m.m.m.m.m.m.l.o.k.U.R.g.f.d`0`V`U`O.r.q.q`i`d.x`p`1`4`7...5.l.m.m",
".m.m.m.m.m.m.m.m.m.n.k.U.R.g.f.d`0`V`U`R.F`l`j`i`d.x`p`1`4`7...5.l.m.m.m",
".m.m.m.m.m.m.m.m.l.j.S.R.g.f.d`0`V`U`R`R.H`P`F`d.x`p`1`4`7...5.l.m.m.m.m",
".m.m.m.m.m.m.m.m.i.S.R.g.f.d`0`V`U`R`R.H`P`M`n.x`p`1`4`7...5.l.m.m.m.m.m",
".m.m.m.m.m.m.m.n.S.R.g.f.d`0`V`U`R`R.G`O`s.Z.y`t`1`4`7...5.l.m.m.m.m.m.m",
".m.m.m.m.m.m.l.h.R.g.f.d`0`V`U`R`R.G`w.0.x`p.L`2`4`7...5.l.m.m.m.m.m.m.m",
".m.m.m.m.m.6.b.R.g.f.d`0`V`U`R`R`x`e.Z`p`t`1`4.O`7...5.l.m.m.m.m.m.m.m.m",
".m.m.m.m.m`1`#.`.f.d`0`V`U`R`N`m.Z.y`p`1.D`4`7.V...5.l.m.m.m.m.m.m.m.m.m",
".m.m.m.m`8`.```e.d`0`V`U`Q`u.Z.x`p.L`2`4`7`8...5.l.m.m.m.m.m.m.m.m.m.m.m",
".m.m.m.l`f`.```.`b`w`Q`y.1.x`p.K`1`4.P`7.....6.l.m.m.m.m.m.m.m.m.m.m.m.m",
".m.m.m.O`.```````````b.x.z`t`1`4.O`7.....5.l.m.m.m.m.m.m.m.m.m.m.m.m.m.m",
".m.m.m`4`.```````.`f.y`p.L.C`4`7.V...5.l.m.m.m.m.m.m.m.m.m.m.m.m.m.m.m.m",
".m.m.m.5.K`.`a.z`p`p`t`1`4.P`8...5.l.m.m.m.m.m.m.m.m.m.m.m.m.m.m.m.m.m.m",
".m.m.m.l..`7`4.C`1`1.D`4`7.W...6.l.m.m.m.m.m.m.m.m.m.m.m.m.m.m.m.m.m.m.m",
".m.m.m.l.7..`7.O`4`5`7`8...5.l.m.m.m.m.m.m.m.m.m.m.m.m.m.m.m.m.m.m.m.m.m",
".m.m.m.m.l....`8`8`8.....5.l.m.m.m.m.m.m.m.m.m.m.m.m.m.m.m.m.m.m.m.m.m.m",
".m.m.m.m.m.l.5.....5.5.l.m.m.m.m.m.m.m.m.m.m.m.m.m.m.m.m.m.m.m.m.m.m.m.m"
};
