/* XPM */
static char *paint[] = {
/* width height num_colors chars_per_pixel */
"    36    36      128            2",
/* colors */
"`` c #3c3c3c",
"`. c #444444",
"`# c #59554c",
"`a c #595955",
"`b c #696155",
"`c c #75694c",
"`d c #756955",
"`e c #79715d",
"`f c #696965",
"`g c #8d650c",
"`h c #896510",
"`i c #956910",
"`j c #957530",
"`k c #ae7d24",
"`l c #85795d",
"`m c #917d59",
"`n c #897961",
"`o c #817d79",
"`p c #be8908",
"`q c #be8914",
"`r c #998559",
"`s c #81817d",
"`t c #958161",
"`u c #998d71",
"`v c #a18559",
"`w c #b69159",
"`x c #a58d65",
"`y c #a5956d",
"`z c #a59575",
"`A c #c28d08",
"`B c #ce9518",
"`C c #d29910",
"`D c #c29120",
"`E c #c6913c",
"`F c #d29d24",
"`G c #daa114",
"`H c #e6ae1c",
"`I c #eab620",
"`J c #f2be30",
"`K c #c69548",
"`L c #c2995d",
"`M c #d29d4c",
"`N c #daa148",
"`O c #cea161",
"`P c #e2ae59",
"`Q c #eaba40",
"`R c #e2b659",
"`S c #e2b265",
"`T c #e6ba71",
"`U c #f2c230",
"`V c #eec240",
"`W c #eac255",
"`X c #f6c64c",
"`Y c #eac27d",
"`Z c #918d89",
"`0 c #91918d",
"`1 c #a59d85",
"`2 c #a19d99",
"`3 c #a1a19d",
"`4 c #b2aa91",
"`5 c #b2aeaa",
"`6 c #b6b2ae",
"`7 c #d6ba89",
"`8 c #c2beba",
".` c #dac289",
".. c #daca9d",
".# c #d6caaa",
".a c #d6cab6",
".b c #eac685",
".c c #eace99",
".d c #f2ce91",
".e c #f6d299",
".f c #eed6ae",
".g c #ead6ba",
".h c #f2dab6",
".i c #fae2b6",
".j c #cacac2",
".k c #d2cec2",
".l c None",
".m c #e2d6c2",
".n c #f2dec2",
".o c #fae2c2",
".p c #916504",
".q c #916508",
".r c #916908",
".s c #996d04",
".t c #b6b6b2",
".u c #bab6b2",
".v c #bebeba",
".w c #757171",
".x c #797575",
".y c #797975",
".z c #7d7d79",
".A c #959191",
".B c #999591",
".C c #999995",
".D c #9d9d99",
".E c #d6a155",
".F c #daa550",
".G c #deaa50",
".H c #deaa59",
".I c #858181",
".J c #898585",
".K c #898985",
".L c #8d8d89",
".M c #a5a5a1",
".N c #aaa5a1",
".O c #aaaaa5",
".P c #aeaeaa",
".Q c #f2d6a5",
".R c #f6daae",
".S c #ffdea5",
".T c #fadaae",
".U c #babab2",
".V c #babab6",
".W c #bebab6",
".X c #bebeb6",
".Y c #717169",
".Z c #797161",
".0 c #797169",
".1 c #c69108",
".2 c #ca9108",
".3 c #ce990c",
".4 c #f2ba24",
".5 c #f6be28",
".6 c #fabe24",
".7 c #c2c2ba",
".8 c #000000",
/* pixels */
".l.l.l.l.l.l.l.l.l.l.l.l.l.l.l.l.l.l.l.l.l.l.l.l.l.l.l.l.l.l.l.l.l.l.l.l",
".l.l.l.l.l.l.l.l.l.l.l.l.l.l.l.l.l.l.l.l.l.l.l.l.l.l.l.l.l.l.l.l.l.l.l.l",
".l.l.l.l.l.l.l.l.l.l.l.l.l.l.l.l.l.l.l.l.l.l.l.l.k...k.j.l.l.l.l.l.l.l.l",
".l.l.l.l.l.l.l.l.l.l.l.l.l.l.l.l.l.l.l.l.l.l.l.k`W.5.`.j.j.j.l.l.l.l.l.l",
".l.l.l.l.l.l.l.l.l.l.l.l.l.l.l.l.l.l.l.l.l.l.a`W`J.5`R.U`8`8.j.l.l.l.l.l",
".l.l.l.l.l.l.l.l.l.l.l.l.l.l.l.l.l.l.l.l.l.a`V`J.6.6`J`4`5.V`8.j.l.l.l.l",
".l.l.l.l.l.l.l.l.l.l.l.l.l.l.l.l.l.l.l.l.a`V`J.6.6.4`G`D`1`5`8.j.j.l.l.l",
".l.l.l.l.l.l.l.l.l.l.l.l.l.l.l.l.l.l.l.#`V`J.6.6.4`G`A`A`q`z`5`8.j.j.l.l",
".l.l.l.l.l.l.l.l.l.l.l.l.l.l.l.l.l.l..`J`J.6.6.4`C`A`A`A`p`q`y`5`8`8.j.l",
".l.l.l.l.l.l.l.l.l.l.l.l.l.l.l.l.l..`J`J.6.6`I`C`A`A`A`A`p.s`g`j`z`6`8.j",
".l.l.l.l.l.l.l.l.l.l.l.l.l.l.l.l..`J`J.6.6`I`C`A`A`A`A`p.s`g.p`g`g`r`6`8",
".l.l.l.l.l.l.l.l.l.l.l.l.l.l.l.``J.5.6.6`I`C`A`A`A`A`p.s`g.p.p`g`g`u`5.V",
".l.l.l.l.l.l.l.l.l.l.l.l.l.l.b`J.5.6.6`H`C`p`A`A`A`p.s`g.p.p`g`g`l`Z`2`5",
".l.l.l.l.l.l.l.l.l.l.l.l.l.#`X.5.6.6`H.2`p`A`A`A`p.s`g.p.p`g`g`c`o`Z`2`5",
".l.l.l.l.l.l.l.l.l.l.l.l.l.f.S`J.4`H.2`A`A`A`A`p.s`g.p.p`g`g`c.w`s`0.N`6",
".l.l.l.l.l.l.l.l.l.l.l.l.a.i.i`J`Q`N`A`A`A`A`p.s.p.p.p`g`g`c.Y`o`Z`2`5`8",
".l.l.l.l.l.l.l.l.l.l.l.k.h.o.h.c.e.d`B`A`A`p.s.p.p.p.p`g`c.Y`o`Z`2`5`8.j",
".l.l.l.l.l.l.l.l.l.l.l.g.o.i.R.Q.e.d`F`B`p.s.p.p.p.p`h`d.w`o`Z`2`5`8.j.j",
".l.l.l.l.l.l.l.l.l.l.l.o.i.T.Q.e.d.b`T`S`M.r.p.p.p`h`d.w`o`Z`2`5`8.j.j.l",
".l.l.l.l.l.l.l.l.l.k.n.i.T.Q.e.d.b`Y`T`S`M.q.p.p`h`d.w`o`Z`2`5`8.j.j.l.l",
".l.l.l.l.l.l.l.l.l.m.i.T.Q.e.d.b`Y`T`S`P.E`k`i`h`d.w`o`Z`2`5`8.j.j.l.l.l",
".l.l.l.l.l.l.l.l.k.h.R.Q.e.d.b`Y`T`S`P`P.G`N`E`d.w`o`Z`2`5`8.j.j.l.l.l.l",
".l.l.l.l.l.l.l.l.g.R.Q.e.d.b`Y`T`S`P`P.G`N`K`m.w`o`Z`2`5`8.j.j.l.l.l.l.l",
".l.l.l.l.l.l.l.m.R.Q.e.d.b`Y`T`S`P`P.F`M`r.Y.x`s`Z`2`5`8.j.j.l.l.l.l.l.l",
".l.l.l.l.l.l.k.f.Q.e.d.b`Y`T`S`P`P.F`v.Z.w`o.K`0`2`5`8.j.j.l.l.l.l.l.l.l",
".l.l.l.l.l.j.#.Q.e.d.b`Y`T`S`P`P`w`e.Y`o`s`Z`2.N`5`8.j.j.l.l.l.l.l.l.l.l",
".l.l.l.l.l`Z`#`7.d.b`Y`T`S`P`L`l.Y.x`o`Z.C`2`5.U`8.j.j.l.l.l.l.l.l.l.l.l",
".l.l.l.l`6`.```e.b`Y`T`S`O`t.Y.w`o.K`0`2`5`6`8.j.j.l.l.l.l.l.l.l.l.l.l.l",
".l.l.l.j`f`.```.`b`v`O`x.0.w`o.J`Z`2.O`5`8`8.j.j.l.l.l.l.l.l.l.l.l.l.l.l",
".l.l.l.N`.```````````b.w.y`s`Z`2.N`5`8`8.j.j.l.l.l.l.l.l.l.l.l.l.l.l.l.l",
".l.l.l`2`.```````.`f.x`o.K.B`2`5.U`8.j.j.l.l.l.l.l.l.l.l.l.l.l.l.l.l.l.l",
".l.l.l.j.J`.`a.y`o`o`s`Z`2.O`6`8.j.j.l.l.l.l.l.l.l.l.l.l.l.l.l.l.l.l.l.l",
".l.l.l.j`8`5`2.B`Z`Z.C`2`5.V`8.j.j.l.l.l.l.l.l.l.l.l.l.l.l.l.l.l.l.l.l.l",
".l.l.l.j.j`8`5.N`2`3`5`6`8.j.j.l.l.l.l.l.l.l.l.l.l.l.l.l.l.l.l.l.l.l.l.l",
".l.l.l.l.j`8`8`6`6`6`8`8.j.j.l.l.l.l.l.l.l.l.l.l.l.l.l.l.l.l.l.l.l.l.l.l",
".l.l.l.l.l.j.j`8`8.j.j.j.l.l.l.l.l.l.l.l.l.l.l.l.l.l.l.l.l.l.l.l.l.l.l.l"
};
