/* XPM */
static char *section4[] = {
/* width height num_colors chars_per_pixel */
"    90    90       64            2",
/* colors */
"`` c #000000",
"`. c #040404",
"`# c #080808",
"`a c #0c0c0c",
"`b c #101010",
"`c c #141414",
"`d c #181818",
"`e c #1c1c1c",
"`f c #202020",
"`g c #242424",
"`h c #282828",
"`i c #2c2c2c",
"`j c #303030",
"`k c #343434",
"`l c #383838",
"`m c #3c3c3c",
"`n c #404040",
"`o c #444444",
"`p c #484848",
"`q c #4c4c4c",
"`r c #505050",
"`s c #555555",
"`t c #595959",
"`u c #5d5d5d",
"`v c #616161",
"`w c #656565",
"`x c #696969",
"`y c #6d6d6d",
"`z c #717171",
"`A c #757575",
"`B c #797979",
"`C c #7d7d7d",
"`D c #818181",
"`E c #858585",
"`F c #898989",
"`G c #8d8d8d",
"`H c #919191",
"`I c #959595",
"`J c #999999",
"`K c #9d9d9d",
"`L c #a1a1a1",
"`M c #a5a5a5",
"`N c #aaaaaa",
"`O c #aeaeae",
"`P c #b2b2b2",
"`Q c #b6b6b6",
"`R c #bababa",
"`S c #bebebe",
"`T c #c2c2c2",
"`U c #c6c6c6",
"`V c #cacaca",
"`W c #cecece",
"`X c #d2d2d2",
"`Y c #d6d6d6",
"`Z c #dadada",
"`0 c #dedede",
"`1 c #e2e2e2",
"`2 c #e6e6e6",
"`3 c #eaeaea",
"`4 c #eeeeee",
"`5 c #f2f2f2",
"`6 c #f6f6f6",
"`7 c #fafafa",
"`8 c #ffffff",
/* pixels */
"`8`8`8`8`8`8`8`8`8`8`8`8`8`8`8`8`8`8`8`8`8`8`8`8`8`8`8`8`8`8`8`8`8`8`8`8`8`8`8`8`8`8`7`8`8`8`8`8`8`8`8`8`8`8`8`8`8`8`8`8`8`8`8`8`8`8`8`8`8`8`8`8`8`8`8`8`8`8`8`8`8`8`8`8`8`8`8`8`8`8",
"`8`8`8`8`8`8`8`8`8`8`8`8`8`8`8`8`8`8`8`8`8`8`8`8`8`8`8`8`8`8`8`8`8`8`8`8`8`8`8`8`8`C`j`q`7`8`8`8`8`8`8`8`8`8`8`8`8`8`8`8`8`8`8`8`8`8`8`8`8`8`8`8`8`8`8`8`8`8`8`8`8`8`8`8`8`8`8`8`8`8",
"`8`8`8`8`8`8`8`8`8`8`8`8`8`8`8`8`8`8`8`8`8`8`8`8`8`8`8`8`8`8`8`8`8`8`8`8`8`8`8`8`7`F`6`k`0`8`8`8`8`8`8`8`8`8`8`8`8`8`8`8`8`8`8`8`8`8`8`8`8`8`8`8`8`8`8`8`8`8`8`8`8`8`8`8`8`8`8`8`8`8",
"`8`8`8`8`8`8`8`8`8`8`8`8`8`8`8`8`8`8`8`D`1`8`8`8`8`8`8`8`8`8`8`8`8`8`8`8`8`8`8`8`8`8`H`p`7`8`8`8`8`8`8`8`8`8`8`8`8`8`8`8`8`8`8`8`8`Q`O`8`8`8`8`8`8`8`8`8`8`8`8`8`8`8`8`8`8`8`8`8`8`8",
"`8`8`8`8`8`8`8`8`8`8`8`8`8`8`8`8`8`8`8`h`R`8`8`8`8`8`8`8`8`8`8`8`8`8`8`8`8`8`8`8`8`I`m`2`8`8`8`8`8`8`8`8`8`8`8`8`8`8`8`8`8`8`8`8`8`C`A`8`8`8`8`8`8`8`8`8`8`8`8`8`8`8`8`8`8`8`8`8`8`8",
"`8`8`8`8`8`8`8`8`8`8`8`8`8`8`8`8`8`8`8`h`R`8`8`8`8`8`8`8`8`8`8`8`8`8`8`8`8`8`8`8`6`g`f`h`Z`8`8`8`8`8`8`8`8`8`8`8`8`8`8`8`8`8`8`8`8`C`A`8`8`8`8`8`8`8`8`8`8`8`8`8`8`8`8`8`8`8`8`8`8`8",
"`8`8`8`8`8`8`8`8`8`8`8`8`8`8`8`8`8`8`8`h`R`8`8`8`8`8`8`8`8`8`8`8`8`8`8`8`8`8`8`8`8`8`8`8`8`8`8`8`8`8`8`8`8`8`8`8`8`8`8`8`8`8`8`8`8`C`A`8`8`8`8`8`8`8`8`8`8`8`8`8`8`8`8`8`8`8`8`8`8`8",
"`8`8`8`8`8`8`8`8`8`8`8`8`8`8`8`8`8`8`8`h`R`8`8`T`C`8`8`8`8`8`8`8`8`8`8`8`8`8`8`8`8`8`8`8`8`8`8`8`8`8`8`8`8`8`8`8`8`8`8`8`8`D`R`7`8`C`A`8`8`8`8`8`8`8`8`8`8`8`8`8`8`8`8`8`8`8`8`8`8`8",
"`8`8`8`8`8`8`8`8`8`8`8`8`8`8`8`8`8`8`8`h`R`P`l```m`8`8`8`8`8`8`8`8`8`8`8`8`8`8`8`8`8`8`8`8`8`8`8`8`8`8`8`8`8`8`8`8`8`8`8`8`o```k`M`B`A`8`8`8`8`8`8`8`8`8`8`8`8`8`8`8`8`8`8`8`8`8`8`8",
"`8`8`8`8`8`8`8`8`8`8`8`8`8`8`8`8`8`8`8`h`g`````````#`#`#`#`#`#`#`#`#`#`#`#`#`#`#`#`#`#`#`#`#`#`#`#`#`#`#`#`#`#`#`#`#`#`#`#`````````.`A`8`8`8`8`8`8`K`z`8`8`8`8`8`8`8`8`8`8`8`8`8`8`8",
"`8`8`8`8`8`8`8`8`8`8`8`8`8`8`8`8`8`8`8`h`P`J`g```l`4`4`4`4`4`4`4`4`4`4`4`4`4`4`4`4`4`4`4`4`4`4`4`4`4`4`4`4`4`4`4`4`4`4`4`4`m```e`G`z`A`8`8`8`8`V`G`p`k`G`X`8`8`8`8`8`8`8`8`8`8`8`8`8",
"`8`8`8`8`8`8`8`8`8`8`8`8`8`8`8`8`8`8`8`h`R`8`7`N`y`8`8`8`8`8`8`8`8`8`8`8`8`8`8`8`8`8`8`8`8`8`8`8`8`8`8`8`8`8`8`8`8`8`8`8`8`z`L`7`8`C`A`8`8`8`8`2`a`````b`3`8`8`8`8`8`8`8`8`8`8`8`8`8",
"`8`8`8`8`8`8`8`8`8`8`8`8`8`8`8`8`8`8`8`h`R`8`8`8`8`8`8`8`8`8`8`8`8`8`8`8`8`8`8`8`8`8`8`8`8`8`8`8`8`8`8`8`8`8`8`8`8`8`8`8`8`8`8`8`8`C`A`8`8`8`8`8`D`````C`8`8`8`8`8`8`8`8`8`8`8`8`8`8",
"`8`8`8`8`8`8`8`8`8`8`8`8`8`8`8`8`8`8`8`k`U`8`8`8`8`8`8`8`8`8`8`8`8`8`8`8`8`8`8`8`8`8`8`8`8`8`8`8`8`8`8`8`8`8`8`8`8`8`8`8`8`8`8`8`8`E`B`8`8`8`8`8`5`f`b`4`8`8`8`8`8`8`8`8`8`8`8`8`8`8",
"`8`8`8`8`8`8`8`1`P`P`P`P`P`P`P`P`P`Q`7`S`P`P`P`P`P`P`P`P`P`P`P`P`P`P`P`P`P`P`P`P`P`P`P`P`P`P`P`P`P`P`P`P`P`P`P`P`P`P`P`P`P`P`P`P`P`N`Z`2`P`P`P`P`P`x`q`P`P`P`5`8`8`8`8`8`8`8`8`8`8`8",
"`8`8`8`8`8`8`8`L`m`m`m`h`h`m`m`m`m`n`2`h`i`m`m`m`m`m`m`m`m`m`m`m`m`m`m`m`m`m`m`m`m`m`m`m`m`m`m`m`m`m`m`m`m`m`m`m`m`m`m`m`m`m`m`m`m`e`A`Q`m`m`m`m`m`f`c`m`m`m`Y`8`8`8`8`8`8`8`8`8`8`8",
"`8`8`8`8`8`8`8`8`8`8`8`w`v`8`8`8`8`8`8`h`R`8`8`8`8`8`8`8`8`8`8`8`8`8`8`8`8`8`8`8`8`8`8`8`8`8`8`8`8`8`8`8`8`8`8`8`8`8`8`8`8`8`8`8`8`C`A`8`8`8`8`8`8`E`u`8`8`8`8`8`5`5`5`7`8`8`8`8`8`8",
"`8`8`8`8`8`8`8`8`8`8`1`.`.`1`8`8`8`8`8`h`R`8`8`8`8`8`8`8`8`8`8`8`8`8`8`8`8`8`8`8`8`8`8`8`8`8`8`8`8`8`8`8`8`8`8`8`8`8`8`8`8`8`8`8`8`C`A`8`8`8`8`8`8`E`u`8`8`8`8`7`p`l`a`W`8`8`8`8`8`8",
"`8`8`8`8`8`8`8`8`8`8`z`````z`8`8`8`8`8`h`R`8`8`8`8`8`8`8`8`8`8`8`8`8`8`8`8`8`8`8`8`8`8`8`8`8`8`8`8`8`8`8`8`8`8`8`8`8`8`8`8`8`8`8`8`C`A`8`8`8`8`8`8`E`u`8`8`8`8`8`8`O`y`8`8`8`8`8`8`8",
"`8`8`8`8`8`8`8`8`8`4`b`````b`4`8`8`8`8`h`R`8`8`8`8`8`8`8`8`8`8`8`8`8`8`8`8`8`8`8`8`8`8`8`8`8`8`8`8`8`8`8`8`8`8`8`8`8`8`8`8`8`8`8`8`C`A`8`8`8`8`8`8`E`u`8`8`8`8`8`8`l`2`8`8`8`8`8`8`8",
"`8`8`8`8`8`8`8`8`8`3`R`t`r`R`3`8`8`8`8`h`R`8`8`8`8`8`8`8`8`8`8`8`8`8`8`8`8`8`8`8`8`8`8`8`8`8`8`8`8`8`8`8`8`8`8`8`8`8`8`8`8`8`8`8`8`C`A`8`8`8`8`8`8`E`u`8`8`8`8`8`0`n`8`8`8`8`8`7`8`8",
"`8`8`8`8`8`8`8`8`8`8`8`B`y`8`8`8`8`8`8`h`R`8`8`8`8`8`8`8`8`8`8`8`8`8`8`8`8`8`8`8`8`8`8`8`8`8`8`8`8`8`8`8`8`8`8`8`8`8`8`8`8`8`8`8`8`C`A`8`8`8`8`8`8`E`u`8`8`8`8`8`X`F`8`8`7`8`8`8`8`8",
"`8`8`8`8`8`8`8`8`8`8`8`B`y`8`8`8`8`8`8`h`q`w`w`w`w`w`w`w`w`w`w`w`w`w`w`w`w`w`w`L`8`8`8`8`8`8`P`w`w`w`w`w`w`w`w`w`w`w`w`w`w`w`w`w`w`j`z`V`w`w`w`w`w`k`g`x`w`x`0`8`8`8`8`8`8`8`8`8`8`8",
"`8`8`8`8`8`8`8`8`8`8`8`B`y`8`8`8`8`8`8`N`C`C`C`C`C`C`C`C`C`C`C`C`C`C`C`C`C`C`s`n`8`8`8`8`8`8`s`o`C`C`C`C`C`C`C`C`C`C`C`C`C`C`C`C`C`C`V`Y`C`C`C`C`C`w`r`C`C`D`3`8`8`8`8`8`8`8`8`8`8`8",
"`8`8`8`8`8`8`8`8`8`8`8`B`y`8`8`8`8`8`8`8`8`8`8`8`8`8`8`8`8`8`8`8`8`8`8`8`8`8`N`n`8`8`8`8`8`8`s`G`8`8`8`8`8`8`8`8`8`8`8`8`8`8`8`8`8`8`8`8`8`8`8`8`8`w`o`8`8`8`8`8`8`8`8`8`8`8`8`8`8`8",
"`8`8`8`8`8`8`8`8`8`8`8`B`y`8`8`8`8`8`8`8`8`8`8`8`8`8`8`8`8`8`8`8`8`8`8`8`8`8`N`n`8`8`8`8`8`8`s`G`8`8`8`8`8`8`8`8`8`8`8`8`8`8`8`8`8`8`8`8`8`8`8`8`V`.```T`8`8`8`8`8`8`8`8`8`8`8`8`8`8",
"`8`8`8`8`8`8`8`8`8`8`8`B`y`8`8`8`8`8`8`8`8`8`8`8`8`8`8`8`8`8`8`8`8`8`8`8`8`8`N`p`8`8`8`8`8`8`s`G`8`8`8`8`8`8`8`8`8`8`8`8`8`8`8`8`8`8`8`8`8`8`8`8`n`````n`8`8`8`8`8`8`8`8`8`8`8`8`8`8",
"`8`8`8`8`8`8`8`8`8`8`8`B`y`8`8`8`8`8`8`8`8`8`8`8`8`8`8`8`8`8`8`8`8`8`8`8`8`8`N`s`8`8`8`8`8`8`s`K`8`8`8`8`8`8`8`8`8`8`8`8`8`8`8`8`8`8`8`8`8`8`8`P`#`.`.`a`T`8`8`8`8`8`8`8`8`8`8`8`8`8",
"`8`8`8`8`8`8`8`8`8`8`8`B`y`8`8`8`8`8`8`8`8`8`8`8`8`8`8`8`8`8`8`8`8`8`8`8`8`8`N`s`8`8`8`8`8`8`s`L`8`8`8`8`8`8`8`8`8`8`8`8`8`8`8`8`8`8`8`8`8`8`8`6`5`D`t`5`7`8`8`8`8`8`8`8`8`8`8`8`8`8",
"`8`8`8`8`8`8`8`8`8`8`8`B`y`8`8`8`8`8`8`8`8`8`8`8`8`8`8`8`8`8`8`8`8`8`8`8`8`8`J`s`8`8`8`8`8`8`s`L`8`8`8`8`8`8`8`8`8`8`8`8`8`8`8`8`8`8`8`8`8`8`8`8`8`Y`S`8`8`8`8`8`8`8`8`8`8`8`8`8`8`8",
"`8`8`8`8`8`8`8`8`8`8`8`B`y`8`8`8`8`8`8`8`8`8`8`8`8`8`8`8`8`8`8`8`8`8`8`8`8`8`I`s`8`8`8`8`8`8`r`L`8`8`8`8`8`8`8`8`8`8`8`8`8`8`8`8`8`8`8`8`8`8`8`8`8`8`8`8`8`8`8`8`8`8`8`8`8`8`8`8`8`8",
"`8`8`8`8`8`8`8`8`8`8`8`B`y`8`8`8`8`8`8`8`8`8`8`8`8`8`8`8`8`8`8`8`8`8`8`8`8`8`I`s`8`8`8`8`8`8`r`L`8`8`8`8`8`8`8`8`8`8`8`8`8`8`8`8`8`8`8`8`8`8`8`8`8`8`8`8`8`8`8`8`8`8`8`8`8`8`8`8`8`8",
"`8`8`8`8`8`8`8`8`8`8`8`B`y`8`8`8`8`8`8`8`8`8`8`8`8`8`8`8`8`8`8`8`8`8`8`8`8`8`I`s`8`8`8`8`8`8`r`L`8`8`8`8`8`8`8`8`8`8`8`8`8`8`8`8`8`8`8`8`8`8`8`8`8`8`8`8`8`8`8`8`8`8`8`8`8`8`8`8`8`8",
"`8`8`8`8`8`8`8`8`8`8`8`B`y`8`8`8`8`8`8`8`8`8`8`8`8`8`8`8`8`8`8`8`8`8`8`8`8`8`I`s`8`8`8`8`8`8`r`L`8`8`8`8`8`8`8`8`8`8`8`8`8`8`8`8`8`8`8`8`8`8`8`8`8`8`8`8`8`8`8`8`8`8`8`8`8`8`8`8`8`8",
"`8`8`8`8`8`8`8`8`8`8`8`B`y`8`8`8`8`8`8`8`8`8`8`8`8`8`8`8`8`8`8`8`8`8`8`8`8`8`I`s`8`8`8`8`8`8`r`L`8`8`8`8`8`8`8`8`8`8`8`8`8`8`8`8`8`8`8`8`8`8`8`8`8`8`8`8`8`8`8`8`8`8`8`8`8`8`8`8`8`8",
"`8`8`8`8`8`8`8`8`8`8`8`B`y`8`8`8`8`8`8`8`8`8`8`8`8`8`8`8`8`8`8`8`8`8`8`8`8`8`I`s`8`8`8`8`8`8`r`L`8`8`8`8`8`8`8`8`8`8`8`8`8`8`8`8`8`8`8`8`8`8`8`8`8`8`8`8`8`8`8`8`8`8`8`8`8`8`8`8`8`8",
"`8`8`8`8`8`8`8`8`8`8`8`B`y`8`8`8`8`8`8`8`8`8`8`8`8`8`8`8`8`8`8`8`8`8`8`8`8`8`I`w`8`8`8`8`8`8`r`M`8`8`8`8`8`8`8`8`8`8`8`8`8`8`8`8`8`8`8`8`8`8`8`8`8`8`8`8`8`8`8`8`8`8`8`8`8`8`8`8`8`8",
"`8`8`8`8`8`8`8`8`8`8`8`B`y`8`8`8`8`8`8`8`8`8`8`8`8`8`8`8`8`8`8`8`8`8`8`8`8`8`I`x`8`8`8`8`8`8`r`N`8`8`8`8`8`8`8`8`8`8`8`8`8`8`8`8`8`8`8`8`8`8`8`8`8`8`8`8`8`8`8`8`8`8`8`8`8`8`8`8`8`8",
"`8`8`8`8`8`8`8`8`8`8`8`B`y`8`8`8`8`8`8`8`8`8`8`8`8`8`8`8`8`8`8`8`8`8`8`8`8`8`H`x`8`8`8`8`8`8`r`N`8`8`8`8`8`8`8`8`8`8`8`8`8`8`8`8`8`8`8`8`8`8`8`8`8`8`8`8`8`8`8`8`8`8`8`8`8`8`8`8`8`8",
"`8`8`8`8`8`8`8`8`8`8`8`B`y`8`8`8`8`8`8`8`8`8`8`8`8`8`8`8`8`8`8`8`8`8`8`8`8`8`G`x`8`8`8`8`8`8`q`N`8`8`8`8`8`8`8`8`8`8`8`8`8`8`8`8`8`8`8`8`8`8`8`8`8`8`8`8`8`8`8`8`8`8`8`8`8`8`8`8`8`8",
"`8`8`8`8`8`8`8`8`8`8`8`B`y`8`8`8`8`8`8`8`8`8`8`8`8`8`8`8`8`8`8`8`8`8`8`8`8`8`G`x`8`8`8`8`8`8`q`N`8`8`8`8`8`8`8`8`8`8`8`8`8`8`8`8`8`8`8`8`8`8`8`8`8`8`8`8`8`8`8`8`8`8`8`8`8`8`8`8`8`8",
"`8`8`8`8`8`8`8`8`8`8`8`B`y`8`8`8`8`8`8`8`8`8`8`8`8`8`8`8`8`8`8`8`8`8`8`8`8`8`G`x`8`8`8`8`8`8`q`N`8`8`8`8`8`8`8`8`8`8`8`8`8`8`8`8`8`8`8`8`8`8`8`8`8`8`8`8`8`8`8`8`8`8`8`8`8`8`8`8`8`8",
"`8`8`8`8`8`8`8`8`8`8`8`B`y`8`8`8`8`8`8`8`8`8`8`8`8`8`8`8`8`8`8`8`8`8`8`8`8`8`G`x`8`8`8`8`8`8`q`N`8`8`8`8`8`8`8`8`8`8`8`8`8`8`8`8`8`8`8`8`8`8`8`8`8`8`8`8`8`8`8`8`8`8`8`8`8`8`8`8`8`8",
"`8`8`8`8`8`8`8`8`8`8`8`B`y`8`8`8`8`8`8`8`8`8`8`8`8`8`8`8`8`8`8`8`8`8`8`8`8`8`G`x`8`8`8`8`8`8`q`N`8`8`8`8`8`8`8`8`8`8`8`8`8`8`8`8`8`8`8`8`8`8`8`8`8`8`8`8`8`8`8`8`8`8`8`8`8`8`8`8`8`8",
"`8`8`8`8`8`8`8`8`8`8`8`B`y`8`8`8`8`8`8`8`8`8`8`8`8`8`8`8`8`8`8`8`8`8`8`8`8`8`G`x`8`8`8`8`8`8`q`N`8`8`8`8`8`8`8`8`8`8`8`8`8`8`8`8`8`8`8`8`8`8`8`8`8`8`8`8`8`8`8`8`8`8`8`8`8`8`8`8`8`8",
"`8`8`8`8`8`8`8`8`8`8`8`B`y`8`8`8`8`8`8`8`8`8`8`8`8`8`8`8`8`8`8`8`8`8`8`8`8`8`G`y`8`8`8`8`8`8`q`N`8`8`8`8`8`8`8`8`8`8`8`8`8`8`8`8`8`8`8`8`8`8`8`8`8`8`8`8`8`8`8`8`8`8`8`8`8`8`8`8`8`8",
"`8`8`8`8`8`8`8`8`8`8`8`B`y`8`8`8`8`8`8`8`8`8`8`8`8`8`8`8`8`8`8`8`8`8`8`8`8`8`G`y`8`8`8`8`8`8`q`P`8`8`8`8`8`8`8`8`8`8`8`8`8`8`8`8`8`8`8`8`8`8`8`8`8`8`8`8`8`8`8`8`8`8`8`8`8`8`8`8`8`8",
"`8`8`8`7`T`8`8`8`8`8`8`B`y`8`8`8`8`8`8`8`8`8`8`8`8`8`8`8`8`8`8`8`8`8`8`8`8`8`G`y`8`8`8`8`8`8`q`P`8`8`8`8`8`8`8`8`8`8`8`8`8`8`8`8`8`8`8`8`8`8`8`8`8`8`8`8`8`8`8`8`8`8`8`8`8`8`8`8`8`8",
"`8`8`4`v`k`8`8`8`8`8`8`B`y`8`8`8`8`8`8`8`8`8`8`8`8`8`8`8`8`8`8`8`8`8`8`8`8`8`F`y`8`8`8`8`8`8`n`P`8`8`8`8`8`8`8`8`8`8`8`8`8`8`8`8`8`8`8`8`8`8`8`8`8`8`8`8`8`8`8`8`8`8`8`8`8`8`8`8`8`8",
"`8`8`U`F`k`8`8`8`8`8`8`B`y`8`8`8`8`8`8`8`8`8`8`8`8`8`8`8`8`8`8`8`8`8`8`8`8`8`E`y`8`8`8`8`8`8`l`P`8`8`8`8`8`8`8`8`8`8`8`8`8`8`8`8`8`8`8`8`8`8`8`8`8`8`8`8`8`8`8`8`8`8`8`8`8`8`8`8`8`8",
"`8`8`8`Y`k`8`8`8`8`8`8`B`y`8`8`8`8`8`8`8`8`8`8`8`8`8`8`8`8`8`8`8`8`8`8`8`8`8`E`y`8`8`8`8`8`8`l`P`8`8`8`8`8`8`8`8`8`8`8`8`8`8`8`8`8`8`8`8`8`8`8`8`8`8`8`8`8`8`8`8`8`8`8`8`8`8`8`8`8`8",
"`8`8`8`Y`k`8`8`8`8`8`8`B`y`8`8`8`8`8`8`8`8`8`8`8`8`8`8`8`8`8`8`8`8`8`8`8`8`8`E`y`8`8`8`8`8`8`l`P`8`8`8`8`8`8`8`3`Z`Z`8`8`8`8`8`8`8`8`8`8`8`8`8`8`8`8`8`8`8`8`8`8`8`8`8`8`8`8`8`8`8`8",
"`8`8`8`3`G`8`8`8`8`8`8`B`y`8`8`8`8`8`8`8`8`8`8`8`8`8`8`8`8`8`8`8`8`8`8`8`8`8`E`y`8`8`8`8`8`8`l`P`8`8`8`8`8`8`8`x`j`n`8`8`8`8`8`8`8`8`8`8`8`8`8`8`8`8`8`8`8`8`8`8`8`8`8`8`8`8`8`8`8`8",
"`8`8`8`8`8`8`8`8`8`8`8`B`y`8`8`8`8`8`8`8`8`8`8`8`8`8`8`8`8`8`8`8`8`8`8`8`8`8`E`y`8`8`8`8`8`8`l`P`8`8`8`8`8`8`8`l`t`M`8`8`8`8`8`8`8`8`8`8`8`8`8`8`8`8`8`8`8`8`8`8`8`8`8`8`8`8`8`8`8`8",
"`8`8`8`8`8`8`8`8`8`8`8`B`y`8`8`8`8`8`8`8`8`8`8`8`8`8`8`8`8`8`8`8`8`8`8`8`8`8`E`z`8`8`8`8`8`8`l`P`8`8`8`8`8`8`8`K`W`f`1`8`8`8`8`8`8`8`8`8`8`8`8`8`8`8`8`8`8`8`8`8`8`8`8`8`8`8`8`8`8`8",
"`8`8`8`8`8`8`8`8`8`8`8`B`y`8`8`8`8`8`8`8`8`8`8`8`8`8`8`8`8`8`8`8`8`8`8`8`8`8`E`A`8`8`8`8`8`8`l`S`8`8`8`8`8`8`7`v`0`g`0`8`8`8`8`8`8`8`8`8`8`8`8`8`8`8`8`8`8`8`8`8`8`8`8`8`8`8`8`8`8`8",
"`8`8`8`8`8`8`8`8`8`8`8`B`y`8`8`8`8`8`8`8`8`8`8`8`8`8`8`8`8`8`8`8`8`8`8`8`8`8`E`A`8`8`8`8`8`8`l`T`8`8`8`8`8`8`8`N`s`L`8`8`8`8`8`8`8`8`8`8`8`8`8`8`8`8`8`8`8`8`8`8`8`8`8`8`8`8`8`8`8`8",
"`8`8`8`8`8`8`8`8`8`8`8`B`y`8`8`8`8`8`8`8`8`8`8`8`8`8`8`8`8`8`8`8`8`8`Q`7`8`8`C`A`8`8`8`8`8`8`k`T`8`8`7`R`7`8`8`8`8`8`8`8`8`8`8`8`8`8`8`8`8`8`8`8`8`8`8`8`8`8`8`8`8`8`8`8`8`8`8`8`8`8",
"`8`8`8`8`8`8`8`8`8`8`8`B`y`8`8`8`8`8`8`8`8`8`8`8`8`8`8`8`8`8`8`8`8`8`c`g`K`6`A`A`8`8`8`8`8`8`g`T`6`M`i`c`7`8`8`8`8`8`8`8`8`8`8`8`8`8`8`8`8`8`8`8`8`8`8`8`8`8`8`8`8`8`8`8`8`8`8`8`8`8",
"`8`8`8`8`8`8`8`8`8`8`8`B`y`8`8`8`8`8`8`8`8`8`8`8`8`8`8`8`8`8`7`u`r`r`.`````e`i`g`r`r`r`r`r`r`a`u`f`````.`r`r`s`4`8`8`8`8`8`8`8`8`8`8`8`8`8`8`8`8`8`8`8`8`8`8`8`8`8`8`8`8`8`8`8`8`8`8",
"`8`8`8`8`8`8`8`8`8`8`8`B`y`8`8`8`8`8`8`8`8`8`8`8`8`8`8`8`8`8`8`N`L`M`a`````m`o`q`L`L`L`L`L`M`d`G`o`````a`L`L`M`6`8`8`8`8`8`8`8`8`8`8`8`8`8`8`8`8`8`8`8`8`8`8`8`8`8`8`8`8`8`8`8`8`8`8",
"`8`8`8`8`8`8`8`8`8`8`8`B`y`8`8`8`8`8`8`8`8`8`8`8`8`8`8`8`8`8`8`8`8`8`c`j`Q`8`A`A`8`8`8`8`8`8`g`T`8`S`k`c`7`8`8`8`8`8`8`8`8`8`8`8`8`8`8`8`8`8`8`8`8`8`8`8`8`8`8`8`8`8`8`8`8`8`8`8`8`8",
"`8`8`8`8`8`8`8`8`8`8`8`B`y`8`8`8`8`8`8`8`8`8`8`8`8`8`8`8`8`8`8`8`8`8`P`7`8`8`A`A`8`8`8`8`8`8`g`T`8`8`7`R`7`8`8`8`8`8`8`8`8`8`8`8`8`8`8`8`8`8`8`8`8`8`8`8`8`8`8`8`8`8`8`8`8`8`8`8`8`8",
"`8`8`8`8`8`8`8`8`8`8`8`B`y`8`8`8`8`8`8`8`8`8`8`8`8`8`8`8`8`8`8`8`8`8`8`8`8`8`A`A`8`8`8`8`8`8`g`T`8`8`8`8`8`8`8`8`8`8`8`8`8`8`8`8`8`8`8`8`8`8`8`8`8`8`8`8`8`8`8`8`8`8`8`8`8`8`8`8`8`8",
"`8`8`8`8`8`8`8`8`8`8`8`B`y`8`8`8`8`8`8`8`8`8`8`8`8`8`8`8`8`8`8`8`8`8`8`8`8`8`A`E`8`8`8`8`8`8`g`V`8`8`8`8`8`8`8`8`8`8`8`8`8`8`8`8`8`8`8`8`8`8`8`8`8`8`8`8`8`8`8`8`8`8`8`8`8`8`8`8`8`8",
"`8`8`8`8`8`8`8`8`8`8`8`B`y`8`8`8`8`8`8`8`8`8`8`8`8`8`8`8`8`8`8`8`8`8`8`8`8`8`A`F`8`8`8`8`8`8`g`Y`8`8`8`8`8`8`8`8`8`8`8`8`8`8`8`8`8`8`8`8`8`8`8`8`8`8`8`8`8`8`8`8`8`8`8`8`8`8`8`8`8`8",
"`8`8`8`8`8`8`8`8`8`8`8`B`y`8`8`8`8`8`8`8`8`8`8`8`8`8`8`8`8`8`8`8`8`8`8`8`8`8`z`F`8`8`8`8`8`8`g`Y`8`8`8`8`8`8`8`8`8`8`8`8`8`8`8`8`8`8`8`8`8`8`8`8`8`8`8`8`8`8`8`8`8`8`8`8`8`8`8`8`8`8",
"`8`8`8`8`8`8`8`8`8`8`8`B`y`8`8`8`8`8`8`8`8`8`8`8`8`8`8`8`8`8`8`8`8`8`8`8`8`8`v`F`8`8`8`8`8`8`f`Y`8`8`8`8`8`8`8`8`8`8`8`8`8`8`8`8`8`8`8`8`8`8`8`8`8`8`8`8`8`8`8`8`8`8`8`8`8`8`8`8`8`8",
"`8`8`8`8`8`8`8`8`8`8`8`B`y`8`8`8`8`8`8`8`8`8`8`8`8`8`8`8`8`8`8`8`8`8`8`8`8`8`v`F`8`8`8`8`8`8`e`Y`8`8`8`8`8`8`8`8`8`8`8`8`8`8`8`8`8`8`8`8`8`8`8`8`8`8`8`8`8`8`8`8`8`8`8`8`8`8`8`8`8`8",
"`8`8`8`8`8`8`8`8`8`8`8`B`y`8`8`8`8`8`8`8`8`8`8`8`8`8`8`8`8`8`8`8`8`8`8`8`8`8`v`F`8`8`8`8`8`8`e`Y`8`8`8`8`8`8`8`8`8`8`8`8`8`8`8`8`8`8`8`8`8`8`8`8`8`8`8`8`8`8`8`8`8`8`8`8`8`8`8`8`8`8",
"`8`8`8`8`8`8`8`8`8`8`8`B`y`8`8`8`8`8`8`8`8`8`8`8`8`8`8`8`8`8`8`8`8`8`8`8`8`8`v`F`8`8`8`8`8`8`e`Y`8`8`8`8`8`8`8`8`8`8`8`8`8`8`8`8`8`8`8`8`8`8`8`8`8`8`8`8`8`8`8`8`8`8`8`8`8`8`8`8`8`8",
"`8`8`8`8`8`8`8`8`8`8`8`B`y`8`8`8`8`8`8`8`8`8`8`8`8`8`8`8`8`8`8`8`8`8`8`8`8`8`v`F`8`8`8`8`8`8`e`Y`8`8`8`8`8`8`8`8`8`8`8`8`8`8`8`8`8`8`8`8`8`8`8`8`8`8`8`8`8`8`8`8`8`8`8`8`8`8`8`8`8`8",
"`8`8`8`8`8`8`8`8`8`8`8`B`y`8`8`8`8`8`8`8`8`8`8`8`8`8`8`8`8`8`8`8`8`8`8`8`8`8`v`F`8`8`8`8`8`8`e`Y`8`8`8`8`8`8`8`8`8`8`8`8`8`8`8`8`8`8`8`8`8`8`8`8`8`8`8`8`8`8`8`8`8`8`8`8`8`8`8`8`8`8",
"`8`8`8`8`8`8`8`8`8`8`8`B`y`8`8`8`8`8`8`8`8`8`8`8`8`8`8`8`8`8`8`8`8`8`8`8`8`8`v`G`8`8`8`8`8`8`e`Y`8`8`8`8`8`8`8`8`8`8`8`8`8`8`8`8`8`8`8`8`8`8`8`8`8`8`8`8`8`8`8`8`8`8`8`8`8`8`8`8`8`8",
"`8`8`8`8`8`8`8`8`8`8`8`B`y`8`8`8`8`8`8`8`8`8`8`8`8`8`8`8`8`8`8`8`8`8`8`8`8`8`v`K`8`8`8`8`8`8`e`0`8`8`8`8`8`8`8`8`8`8`8`8`8`8`8`8`8`8`8`8`8`8`8`8`8`8`8`8`8`8`8`8`8`8`8`8`8`8`8`8`8`8",
"`8`8`8`8`8`8`8`8`8`8`8`B`y`8`8`8`8`8`8`8`8`8`8`8`8`8`8`8`8`8`8`8`8`8`8`8`8`8`v`K`8`8`8`8`8`8`e`0`8`8`8`8`8`8`8`8`8`8`8`8`8`8`8`8`8`8`8`8`8`8`8`8`8`8`8`8`8`8`8`8`8`8`8`8`8`8`8`8`8`8",
"`8`8`8`8`8`8`8`8`8`8`8`B`y`8`8`8`8`8`8`8`8`8`8`8`8`8`8`8`8`8`8`8`8`8`8`8`8`8`t`K`8`8`8`8`8`8`e`0`8`8`8`8`8`8`8`8`8`8`8`8`8`8`8`8`8`8`8`8`8`8`8`8`8`8`8`8`8`8`8`8`8`8`8`8`8`8`8`8`8`8",
"`8`8`8`8`8`8`8`8`8`8`8`B`y`8`8`8`8`8`8`8`8`8`8`8`8`8`8`8`8`8`8`8`8`8`8`8`8`8`t`K`8`8`8`8`8`8`d`0`8`8`8`8`8`8`8`8`8`8`8`8`8`8`8`8`8`8`8`8`8`8`8`8`8`8`8`8`8`8`8`8`8`8`8`8`8`8`8`8`8`8",
"`8`8`8`8`8`8`8`8`8`8`8`B`y`8`8`8`8`8`8`8`8`8`8`8`8`8`8`8`8`8`8`8`8`8`8`8`8`8`t`K`8`8`8`8`8`8`d`0`8`8`8`8`8`8`8`8`8`8`8`8`8`8`8`8`8`8`8`8`8`8`8`8`8`8`8`8`8`8`8`8`8`8`8`8`8`8`8`8`8`8",
"`8`8`8`8`8`8`8`8`8`8`8`B`y`8`8`8`8`8`8`8`8`8`8`8`8`8`8`8`8`8`8`8`8`8`8`8`8`8`t`K`8`8`8`8`8`8`d`0`8`8`8`8`8`8`8`8`8`8`8`8`8`8`8`8`8`8`8`8`8`8`8`8`8`8`8`8`8`8`8`8`8`8`8`8`8`8`8`8`8`8",
"`8`8`8`8`8`8`8`8`8`8`8`B`y`8`8`8`8`8`8`8`8`8`8`8`8`8`8`8`8`8`8`8`8`8`8`8`8`8`t`K`8`8`8`8`8`8`d`0`8`8`8`8`8`8`8`8`8`8`8`8`8`8`8`8`8`8`8`8`8`8`8`8`8`8`8`8`8`8`8`8`8`8`8`8`8`8`8`8`8`8",
"`8`8`8`8`8`8`8`8`8`8`8`B`y`8`8`8`8`8`8`8`8`8`8`8`8`8`8`8`8`8`8`8`8`8`8`8`8`8`t`K`8`8`8`8`8`8`d`0`8`8`8`8`8`8`8`8`8`8`8`8`8`8`8`8`8`8`8`8`8`8`8`8`8`8`8`8`8`8`8`8`8`8`8`8`8`8`8`8`8`8",
"`8`8`8`8`8`8`8`8`8`8`8`B`y`8`8`8`8`8`8`8`8`8`8`8`8`8`8`8`8`8`8`8`8`8`8`8`8`8`t`K`8`8`8`8`8`8`d`0`8`8`8`8`8`8`8`8`8`8`8`8`8`8`8`8`8`8`8`8`8`8`8`8`8`8`8`8`8`8`8`8`8`8`8`8`8`8`8`8`8`8",
"`8`8`8`8`8`8`8`8`8`8`8`B`y`8`8`8`8`8`8`8`8`8`8`8`8`8`8`8`8`8`8`8`8`8`8`8`8`8`t`L`8`8`8`8`8`8`d`1`8`8`8`8`8`8`8`8`8`8`8`8`8`8`8`8`8`8`8`8`8`8`8`8`8`8`8`8`8`8`8`8`8`8`8`8`8`8`8`8`8`8",
"`8`8`8`8`8`8`8`8`8`Y`p`g`f`p`Z`8`8`8`8`8`8`8`8`8`8`8`8`8`8`8`8`8`8`8`8`8`8`8`t`L`8`8`8`8`8`8`e`2`8`8`8`8`8`8`8`8`8`8`8`8`8`8`8`8`8`8`8`8`8`8`8`8`8`8`8`8`8`8`8`8`8`8`8`8`8`8`8`8`8`8",
"`8`8`8`8`8`8`8`8`8`8`l`````l`8`8`8`8`8`8`8`8`8`8`8`8`8`8`8`8`8`8`8`8`8`8`8`8`s`L`8`8`8`8`8`8`e`2`8`8`8`8`8`8`8`8`8`8`8`8`8`8`8`8`8`8`8`8`8`8`8`8`8`8`8`8`8`8`8`8`8`8`8`8`8`8`8`8`8`8",
"`8`8`8`8`8`8`8`8`8`8`Q`````Q`8`8`8`8`8`8`8`8`8`8`8`8`8`8`8`8`8`8`8`8`8`8`8`8`r`L`8`8`8`8`8`6`b`2`8`8`8`8`8`8`8`8`8`8`8`8`8`8`8`8`8`8`8`8`8`8`8`8`8`8`8`8`8`8`8`8`8`8`8`8`8`8`8`8`8`8",
"`8`8`8`8`8`8`8`8`8`8`8`k`l`8`8`8`8`8`8`8`8`8`8`8`8`8`8`8`8`8`8`8`8`8`8`8`8`8`r`L`8`8`8`8`8`5`b`2`8`8`8`8`8`8`8`8`8`8`8`8`8`8`8`8`8`8`8`8`8`8`8`8`8`8`8`8`8`8`8`8`8`8`8`8`8`8`8`8`8`8",
"`8`8`8`8`8`8`8`U`B`B`B`p`p`B`B`B`B`C`5`8`8`8`8`8`8`8`8`8`8`8`8`8`8`8`8`8`8`8`r`q`B`B`B`B`B`A`#`1`8`8`8`8`8`8`8`8`8`8`8`8`8`8`8`8`8`8`8`8`8`8`8`8`8`8`8`8`8`8`8`8`8`8`8`8`8`8`8`8`8`8",
"`8`8`8`8`8`8`8`S`y`y`y`y`y`y`y`y`y`z`4`8`8`8`8`8`8`8`8`8`8`8`8`8`8`8`8`8`8`8`O`y`y`y`y`y`y`y`B`7`8`8`8`8`8`8`8`8`8`8`8`8`8`8`8`8`8`8`8`8`8`8`8`8`8`8`8`8`8`8`8`8`8`8`8`8`8`8`8`8`8`8"
};
