/* XPM */
static char *section1[] = {
/* width height num_colors chars_per_pixel */
"    90    90       53            1",
/* colors */
"` c #000000",
". c #080808",
"# c #101010",
"a c #141414",
"b c #181818",
"c c #202020",
"d c #242424",
"e c #282828",
"f c #2c2c2c",
"g c #303030",
"h c #343434",
"i c #383838",
"j c #404040",
"k c #444444",
"l c #484848",
"m c #4c4c4c",
"n c #505050",
"o c #555555",
"p c #595959",
"q c #5d5d5d",
"r c #616161",
"s c #656565",
"t c #696969",
"u c #6d6d6d",
"v c #717171",
"w c #757575",
"x c #797979",
"y c #7d7d7d",
"z c #818181",
"A c #858585",
"B c #898989",
"C c #8d8d8d",
"D c #999999",
"E c #9d9d9d",
"F c #a1a1a1",
"G c #a5a5a5",
"H c #aeaeae",
"I c #b2b2b2",
"J c #b6b6b6",
"K c #bababa",
"L c #bebebe",
"M c #cacaca",
"N c #cecece",
"O c #d2d2d2",
"P c #d6d6d6",
"Q c #e2e2e2",
"R c #e6e6e6",
"S c #eaeaea",
"T c #eeeeee",
"U c #f2f2f2",
"V c #f6f6f6",
"W c #fafafa",
"X c #ffffff",
/* pixels */
"XXXXXXXXXXXXXXXXXXXXXXXXXXXXXXXXXXXXXXXXXXXXXXXXXXXXXXXXXXXXXXXXXXXXXXXXXXXXXXXXXXXXXXXXXX",
"XXXXXXXXXXXXXXXXXXXXXXXXXXXXXXXXXXXXXXXXXXXXXXXXXXXXXXXXXXXXXXXXXXXXXXXXXXXXXXXXXXXXXXXXXX",
"XXXXXXXXXXXXXXXXXXXXXXXXXXXXXXXXXXXXXXXXXXXXXXXXXXXXXXXXXXXXXXXXXXXXXXXXXXXXXXXXXXXXXXXXXX",
"XXXXXXXXXXXXXXXXXXXXXVVVVVVVVVVVVVVVVVVVVVVVVVVVVVVVWXXVVVVVVVVVVVVVWXXXXXXXXXXXXXXXXXXXXX",
"XXXXXXXXXXXXXXXXXXXXXbqqqqqqqqqqqqqqqqqqqqqqqqqqqqqgFXQdccccccccc#cciXXXXXXXXXXXXXXXXXXXXX",
"XXXXXXXXXXXXXXXXXXXXXdXXXXXXXXXXXXXXXXXXXXXXXXXXXXXxEXXXXXXXXXXXLdWXXXXXXXXXXXXXXXXXXXXXXX",
"XXXXXXXXXXXXXXXXXXXXXaWXXXXXXXXXXXXXXXXXXXXXXXXXXXXxEXXXXXXXXXXXj`FXXXXXXXXXXXXXXXXXXXXXXX",
"XXXXXXXXXXXXXXXXXXXXXaWXXXXXXXXXXXXXXXXXXXXXXXXXXXXxEXXXXXXXXXXL``dWXXXXXXXXXXXXXXXXXXXXXX",
"XXXXXXXXXXXXXXXXXXXXXaWXXXXXXXXXXXXXXXXXXXXXXXXXXXXxEXXXXXXXXXXDnbrPXXXXXXXXXXXXXXXXXXXXXX",
"XXXXXXXXXXXXXXXXXXXXXaWXXXXXXXXXXXXXXXXXXXXXXXXXXXXxEXXXXXXXXXXXOkXXXXXXXXXXXXXXXXXXXXXXXX",
"XXXXXXXXXXXXXXXXXXXXXaWXXXXXXXXXXXXXXXXXXXXXXXXXXXXxEXXXXXXXXXXXOkXXXXXXXXXXXXXXXXXXXXXXXX",
"XXXXXXXXXXXXXXXXXXXXXaWXXXXXXXXXXXXXXXXXXXXXXXXXXXXxEXXXXXXXXXXXOkXXXXXXXXXXXXXXXXXXXXXXXX",
"XXXXXXXXXXXXXXXXXXXXXaWXXXXXXXXXXXXXXXXXXXXXXXXXXXXxEXXXXXXXXXXXOkXXXXXXXXXXXXXXXXXXXXXXXX",
"XXXXXXXXXXXXXXXXXXXXXaWXXXXXXXXXXXXXXXXXXXXXXXXXXXXxEXXXXXXXXXXXOkXXXXXXXXXXXXXXXXXXXXXXXX",
"XXXXXXXXXXXXXXXXXXXXXaWXXXXXXXXXXXXXXXXXXXXXXXXXXXXxEXXXXXXXXXXXOkXXXXXXXXXXXXXXXXXXXXXXXX",
"XXXXXXXXXXXXXXXXXXXXXaWXXXXXXXXXXXXXXXXXXXXXXXXXXXXxEXXXXXXXXXXXOkXXXXXXXXXXXXXXXXXXXXXXXX",
"XXXXXXXXXXXXXXXXXXXXXaWXXXXXXXXXXXXXXXXXXXXXXXXXXXXxEXXXXXXXXXXXOkXXXXXXXXXXXXXXXXXXXXXXXX",
"XXXXXXXXXXXXXXXXXXXXXaWXXXXXXXXXXXXXXXXXXXXXXXXXXXXxEXXXXXXXXXXXOkXXXXXXXXXXXXXXXXXXXXXXXX",
"XXXXXXXXXXXXXXXXXXXXXaWXXXXXXXXXXXXXXXXXXXXXXXXXXXXxEXXXXXXXXXXXOkXXXXXXXXXXXXXXXXXXXXXXXX",
"XXXXXXXXXXXXXXXXXXXXXaWXXXXXXXXXXXXXXXXXXXXXXXXXXXXxEXXXXXXXXXXXOkXXXXXXXXXXXXXXXXXXXXXXXX",
"XXXXXXXXXXXXXXXXXXXXXaWXXXXXXXXXXXXXXXXXXXXXXXXXXXXxEXXXXXXXXXXXOkXXXXXXXXXXXXXXXXXXXXXXXX",
"XXXXXXXXXXXXXXXXXXXXXaWXXXXXXXXXXXXXXXXXXXXXXXXXXXXxEXXXXXXXXXXXOkXXXXXXXXXXXXXXXXXXXXXXXX",
"XXXXXXXXXXXXXXXXXXXXXaWXXXXXXXXXXXXXXXXXXXXXXXXXXXXxEXXXXXXXXXXXOkXXXXXXXXXXXXXXXXXXXXXXXX",
"XXXXXXXXXXXXXXXXXXXXXaWXXXXXXXXXXXXXXXXXXXXXXXXXXXXxEXXXXXXXXXXXOkXXXXXXXXXXXXXXXXXXXXXXXX",
"XXXXXXXXXXXXXXXXXXXXXaWXXXXXXXXXXXXXXXXXXXXXXXXXXXXxEXXXXXXXXXXXOkXXXXXXXXXXXXXXXXXXXXXXXX",
"XXXXXXXXXXXXXXXXXXXXXaWXXXXXXXXXXXXXXXXXXXXXXXXXXXXxEXXXXXXXXXXXOkXXXXXXXXXXXXXXXXXXXXXXXX",
"XXXXXXXXXXXXXXXXXXXXXaWXXXXXXXXXXXXXXXXXXXXXXXXXXXXxEXXXXXXXXXXXOkXXXXXXXXXXXXXXXXXXXXXXXX",
"XXXXXXXXXXXXXXXXXXXXXaWXXXXXXXXXXXXXXXXXXXXXXXXXXXXxEXXXXXXXXXXXOkXXXXXXXXXXXXXXXXXXXXXXXX",
"XXXXXXXXXXXXXXXXXXXXXaWXXXXXXXXXXXXXXXXXXXXXXXXXXXXxEXXXXXXXXXXXOkXXXXXXXXXXXXXXXXXXXXXXXX",
"XXXXXXXXXXXXXXXXXXXXXaWXXXXXXXXXXXXXXXXXXXXXXXXXXXXxEXXXXXXXXXXXOkXXXXXXXXXXXXXXXXXXXXXXXX",
"XXXXXXXXXXXXXXXXXXXXXaWXXXXXXXXXXXXXXXXXXXXXXXXXXXXxEXXXXXXXXXXXOkXXXXXXXXXXXXXXXXXXXXXXXX",
"XXXXXXXXXXXXXXXXXXXXXaWXXXXXXXXXXXXXXXXXXXXXXXXXXXXxEXXXXXXXXXXXOkXXXXXXXXXXXXXXXXXXXXXXXX",
"XXXXXXXXXXXXXXXXXXXXXaWXXXXXXXXXXXXXXXXXXXXXXXXXXXXxEXXXXXXXXXXXOkXXXXXXXXXXXXXXXXXXXXXXXX",
"XXXXXXXXXXXXXXXXXXXXXaWXXXXXXXXXXXXXXXXXXXXXXXXXXXXxEXXXXXXXXXXXOkXXXXXXXXXXXXXXXXXXXXXXXX",
"XXXXXXXXXXXXXXXXXXXXXaWXXXXXXXXXXXXXXXXXXXXXXXXXXXXxEXXXXXXVXXXXOkXXXXXXXXXXXXXXXXXXXXXXXX",
"XXXXXXXXXXXXXXXXXXXXXaWXXXXXXXXXXXXXXXXXXXXXXXXXXXXxEXXXXWvwXXXXOkXXXXXXXXXXXXXXXXXXXXXXXX",
"XXXXXXXXXXXXXXXXXXXXXaWXXXXXXXXXXXXXXXXXXXXXXXXXXXXxEXXXXMuvXXXXOkXXXXXXXXXXXXXXXXXXXXXXXX",
"XXXXXXXXXXXXXXXXXXXXXaWXXXXXXXXXXXXXXXXXXXXXXXXXXXXxEXXXXXJvXXXXOkXXXXXXXXXXXXXXXXXXXXXXXX",
"XXXXXXXXXXXXXXXXXXXXXaWXXXXXXXXXXXXXXXXXXXXXXXXXXXXxEXXXXXJvXXXXOkXXXXXXXXXXXXXXXXXXXXXXXX",
"XXXXXXXXXXXXXXXXXXXXXaWXXXXXXXXXXXXXXXXXXXXXXXXXXXXxEXXXXXTQXXXXOkXXXXXXXXXXXXXXXXXXXXXXXX",
"XXXXXXXXXXXXXXXXXXXXXaWXXXXXXXXXXXXXXXXXXXXXXXXXXXXxEXXXXXXXXXXXOkXXXXXXXXXXXXXXXXXXXXXXXX",
"XXXXXXXXXXXXXXXXXXXXXaWXXXXXXXXXXXXXXXXXXXXXXXXXXXXxEXXXXXXXXXXXOkXXXXXXXXXXXXXXXXXXXXXXXX",
"XXXXXXXXXXXXXXXXXXXXXaWXXXXXXXXXXXXXXXXXXXXXXXXXXXXxEXXXXXXXXXXXOkXXXXXXXXXXXXXXXXXXXXXXXX",
"XXXXXXXXXXXXXXXXXXXXXaWXXXXXXXXXXXXXXXXXXXXXXXXXXXXxEXXXXXXXXXXXOkXXXXXXXXXXXXXXXXXXXXXXXX",
"XXXXXXXXXXXXXXXXXXXXXaWXXXXXXXXXXXXXXXXXXXXXXXXXXXXxEXXXXXXXXXXXOkXXXXXXXXXXXXXXXXXXXXXXXX",
"XXXXXXXXXXXXXXXXXXXXXaWXXXXXXXXXXXXXXXXXXXXXXXXXXXXxEXXXXXXXXXXXOkXXXXXXXXXXXXXXXXXXXXXXXX",
"XXXXXXXXXXXXXXXXXXXXXaWXXXXXXXXXXXXXXXXXXXXXXXXXXXXxEXXXXXXXXXXXOkXXXXXXXXXXXXXXXXXXXXXXXX",
"XXXXXXXXXXXXXXXXXXXXXaWXXXXXXXXXXXXXXXXXXXXXXXXXXXXxEXXXXXXXXXXXOkXXXXXXXXXXXXXXXXXXXXXXXX",
"XXXXXXXXXXXXXXXXXXXXXaWXXXXXXXXXXXXXXXXXXXXXXXXXXXXxEXXXXXXXXXXXOkXXXXXXXXXXXXXXXXXXXXXXXX",
"XXXXXXXXXXXXXXXXXXXXXaWXXXXXXXXXXXXXXXXXXXXXXXXXXXXxEXXXXXXXXXXXOkXXXXXXXXXXXXXXXXXXXXXXXX",
"XXXXXXXXXXXXXXXXXXXXXaWXXXXXXXXXXXXXXXXXXXXXXXXXXXXxEXXXXXXXXXXXOkXXXXXXXXXXXXXXXXXXXXXXXX",
"XXXXXXXXXXXXXXXXXXXXXaWXXXXXXXXXXXXXXXXXXXXXXXXXXXXxEXXXXXXXXXXXOkXXXXXXXXXXXXXXXXXXXXXXXX",
"XXXXXXXXXXXXXXXXXXXXXaWXXXXXXXXXXXXXXXXXXXXXXXXXXXXxEXXXXXXXXXXXOkXXXXXXXXXXXXXXXXXXXXXXXX",
"XXXXXXXXXXXXXXXXXXXXXaWXXXXXXXXXXXXXXXXXXXXXXXXXXXXxEXXXXXXXXXXXOkXXXXXXXXXXXXXXXXXXXXXXXX",
"XXXXXXXXXXXXXXXXXXXXXaWXXXXXXXXXXXXXXXXXXXXXXXXXXXXxEXXXXXXXXXXXOkXXXXXXXXXXXXXXXXXXXXXXXX",
"XXXXXXXXXXXXXXXXXXXXXaWXXXXXXXXXXXXXXXXXXXXXXXXXXXXxEXXXXXXXXXXXOkXXXXXXXXXXXXXXXXXXXXXXXX",
"XXXXXXXXXXXXXXXXXXXXXaWXXXXXXXXXXXXXXXXXXXXXXXXXXXXxEXXXXXXXXXXXOkXXXXXXXXXXXXXXXXXXXXXXXX",
"XXXXXXXXXXXXXXXXXXXXXaWXXXXXXXXXXXXXXXXXXXXXXXXXXXXxEXXXXXXXXXXXOkXXXXXXXXXXXXXXXXXXXXXXXX",
"XXXXXXXXXXXXXXXXXXXXXaWXXXXXXXXXXXXXXXXXXXXXXXXXXXXxEXXXXXXXXXXXOkXXXXXXXXXXXXXXXXXXXXXXXX",
"XXXXXXXXXXXXXXXXXXXXXaWXXXXXXXXXXXXXXXXXXXXXXXXXXXXxEXXXXXXXXXXXOkXXXXXXXXXXXXXXXXXXXXXXXX",
"XXXXXXXXXXXXXXXXXXXXXaWXXXXXXXXXXXXXXXXXXXXXXXXXXXXxEXXXXXXXXXXXOkXXXXXXXXXXXXXXXXXXXXXXXX",
"XXXXXXXXXXXXXXXXXXXXXaWXXXXXXXXXXXXXXXXXXXXXXXXXXXXxEXXXXXXXXXXXOkXXXXXXXXXXXXXXXXXXXXXXXX",
"XXXXXXXXXXXXXXXXXXXXXaWXXXXXXXXXXXXXXXXXXXXXXXXXXXXxEXXXXXXXXXXXOkXXXXXXXXXXXXXXXXXXXXXXXX",
"XXXXXXXXXXXXXXXXXXXXXaWXXXXXXXXXXXXXXXXXXXXXXXXXXXXxEXXXXXXXXXXXOkXXXXXXXXXXXXXXXXXXXXXXXX",
"XXXXXXXXXXXXXXXXXXXXXaWXXXXXXXXXXXXXXXXXXXXXXXXXXXXxEXXXXXXXXXXyc.fOXXXXXXXXXXXXXXXXXXXXXX",
"XXXXXXXXXXXXXXXXXXXXXaWXXXXXXXXXXXXXXXXXXXXXXXXXXXXxEXXXXXXXXXXN``hXXXXXXXXXXXXXXXXXXXXXXX",
"XXXXXXXXXXXXXXXXXXXXXaWXXXXXXXXXXXXXXXXXXXXXXXXXXXXxEXXXXXXXXXXXk`HXXXXXXXXXXXXXXXXXXXXXXX",
"XXXXXXXXXXXXXXXXXXXXXaWXXXXXXXXXXXXXXXXXXXXXXXXXXXXxEXXXXXXXXXXXLeWXXXXXXXXXXXXXXXXXXXXXXX",
"XXXXXXXXXXXXXXXXXXXXX#rssssssssssssssssssssssssssssgEXQhgggggggggbggkXXXXXXXXXXXXXXXXXXXXX",
"XXXXXXXXXXXXXXXXXXXXXJIIIIIIIIIIIIIIIIIIIIIIIIIIIIIIQXXRRRRRRRRRRRRRSXXXXXXXXXXXXXXXXXXXXX",
"XXXXXXXXXXXXXXXXXXXXXXXXXXXXXXXXXXXXXXXXXXXXXXXXXXXXXXXXXXXXXXXXXXXXXXXXXXXXXXXXXXXXXXXXXX",
"XXXXXXXXXXXXXXXXXXXXXBXXXXXXXXXXXXXXXXXXXXXXXXXXXXXETXXXXXXXXXXXXXXXXXXXXXXXXXXXXXXXXXXXXX",
"XXXXXXXXXXXXXXXXXXXXXaWXXXXXXXXXXXXXXXXXXXXXXXXXXXXkOXXXXXXXXXXXXXXXXXXXXXXXXXXXXXXXXXXXXX",
"XXXXXXXXXXXXXXXXXXXXXaWXXXXXXXXXXXXXXXXXXXXXXXXXXXXkOXXXXXXXXXXXXXXXXXXXXXXXXXXXXXXXXXXXXX",
"XXXXXXXXXXXXXXXXXXXXXaWXXXXXXXXXXXtlLXXXXXXXXXXXXXXkOXXXXXXXXXXXXXXXXXXXXXXXXXXXXXXXXXXXXX",
"XXXXXXXXXXXXXXXXXXXXXaWXXXXXXXXXXUGKtXXXXXXXXXXXXXXkOXXXXXXXXXXXXXXXXXXXXXXXXXXXXXXXXXXXXX",
"XXXXXXXXXXXXXXXXXXXXXaWXXXXXXXXXXXQiOXXXXXXXXXXXXXXkOXXXXXXXXXXXXXXXXXXXXXXXXXXXXXXXXXXXXX",
"XXXXXXXXXXXXXXXXXXXXXaWXXXXXXXXXXWfxMXXXXXXXXXXXXXXkOXXXXXXXXXXXXXXXXXXXXXXXXXXXXXXXXXXXXX",
"XXXXXXXXXXXXXXXXXXXXXaWXXXXXXXXXXSCCJXXXXXXXXXXXXXXkOXXXXXXXXXXXXXXXXXXXXXXXXXXXXXXXXXXXXX",
"XXXXXXXXXXXXXXXXXXXXXaWXXVXXXXXXXXXXXXXXXXXXXXXVXXXkOXXXXXXXXXXXXXXXXXXXXXXXXXXXXXXXXXXXXX",
"XXXXXXXXXXXXXXXXXXXXXaWUyoXXXXXXXXXXXXXXXXXXXXXBqQXkOXXXXXXXXXXXXXXXXXXXXXXXXXXXXXXXXXXXXX",
"XXXXXXXXXXXXXXXXXXXXXaDb`hLLLLLLLLLLLLLLLLLLLLLr`.ziOXXXXXXXXXXXXXXXXXXXXXXXXXXXXXXXXXXXXX",
"XXXXXXXXXXXXXXXXXXXXX#m``bpppppppppppppppppppppf``hcOXXXXXXXXXXXXXXXXXXXXXXXXXXXXXXXXXXXXX",
"XXXXXXXXXXXXXXXXXXXXXaWNnmXXXXXXXXXXXXXXXXXXXXXAhIXkOXXXXXXXXXXXXXXXXXXXXXXXXXXXXXXXXXXXXX",
"XXXXXXXXXXXXXXXXXXXXXaWXXRXXXXXXXXXXXXXXXXXXXXXSXXXkOXXXXXXXXXXXXXXXXXXXXXXXXXXXXXXXXXXXXX",
"XXXXXXXXXXXXXXXXXXXXXnWXXXXXXXXXXXXXXXXXXXXXXXXXXXXvQXXXXXXXXXXXXXXXXXXXXXXXXXXXXXXXXXXXXX",
"XXXXXXXXXXXXXXXXXXXXXXXXXXXXXXXXXXXXXXXXXXXXXXXXXXXXXXXXXXXXXXXXXXXXXXXXXXXXXXXXXXXXXXXXXX",
"XXXXXXXXXXXXXXXXXXXXXXXXXXXXXXXXXXXXXXXXXXXXXXXXXXXXXXXXXXXXXXXXXXXXXXXXXXXXXXXXXXXXXXXXXX",
"XXXXXXXXXXXXXXXXXXXXXXXXXXXXXXXXXXXXXXXXXXXXXXXXXXXXXXXXXXXXXXXXXXXXXXXXXXXXXXXXXXXXXXXXXX",
"XXXXXXXXXXXXXXXXXXXXXXXXXXXXXXXXXXXXXXXXXXXXXXXXXXXXXXXXXXXXXXXXXXXXXXXXXXXXXXXXXXXXXXXXXX"
};
