/* XPM */
static char *section8[] = {
/* width height num_colors chars_per_pixel */
"    90    90       64            2",
/* colors */
"`` c #000000",
"`. c #040404",
"`# c #080808",
"`a c #0c0c0c",
"`b c #101010",
"`c c #141414",
"`d c #181818",
"`e c #1c1c1c",
"`f c #202020",
"`g c #242424",
"`h c #282828",
"`i c #2c2c2c",
"`j c #303030",
"`k c #343434",
"`l c #383838",
"`m c #3c3c3c",
"`n c #404040",
"`o c #444444",
"`p c #484848",
"`q c #4c4c4c",
"`r c #505050",
"`s c #555555",
"`t c #595959",
"`u c #5d5d5d",
"`v c #616161",
"`w c #656565",
"`x c #696969",
"`y c #6d6d6d",
"`z c #717171",
"`A c #757575",
"`B c #797979",
"`C c #7d7d7d",
"`D c #818181",
"`E c #858585",
"`F c #898989",
"`G c #8d8d8d",
"`H c #919191",
"`I c #959595",
"`J c #999999",
"`K c #9d9d9d",
"`L c #a1a1a1",
"`M c #a5a5a5",
"`N c #aaaaaa",
"`O c #aeaeae",
"`P c #b2b2b2",
"`Q c #b6b6b6",
"`R c #bababa",
"`S c #bebebe",
"`T c #c2c2c2",
"`U c #c6c6c6",
"`V c #cacaca",
"`W c #cecece",
"`X c #d2d2d2",
"`Y c #d6d6d6",
"`Z c #dadada",
"`0 c #dedede",
"`1 c #e2e2e2",
"`2 c #e6e6e6",
"`3 c #eaeaea",
"`4 c #eeeeee",
"`5 c #f2f2f2",
"`6 c #f6f6f6",
"`7 c #fafafa",
"`8 c #ffffff",
/* pixels */
"`8`8`8`8`8`8`8`8`8`8`8`8`8`8`8`8`8`8`8`8`8`8`8`8`8`8`8`8`8`8`8`8`8`8`8`8`3`0`T`G`z`y`w`n`k`h`n`t`y`y`D`P`Z`2`7`8`8`8`8`8`8`8`8`8`8`8`8`8`8`8`8`8`8`8`8`8`8`8`8`8`8`8`8`8`8`8`8`8`8`8",
"`8`8`8`8`8`8`8`8`8`8`8`8`8`8`8`8`8`8`8`8`8`8`8`8`8`8`8`8`8`8`8`7`4`Q`D`m`c`.```````````.`.`.`.`.```````````b`j`v`M`0`7`8`8`8`8`8`8`8`8`8`8`8`8`8`8`8`8`8`8`8`8`8`8`8`8`8`8`8`8`8`8`8",
"`8`8`8`8`8`8`8`8`8`8`8`8`8`8`8`8`8`8`8`8`8`8`8`8`8`8`8`8`8`3`J`m`a```````d`k`t`G`L`S`U`1`2`2`2`W`T`N`H`y`l`f`.`````#`g`C`Y`8`8`8`8`8`8`8`8`8`8`8`8`8`8`8`8`8`8`8`8`8`8`8`8`8`8`8`8`8",
"`8`8`8`8`8`8`8`8`8`8`8`8`8`8`8`8`8`8`8`8`8`8`8`8`8`8`7`R`v`c`````b`q`E`V`4`8`8`8`8`8`8`8`8`8`8`8`8`8`8`8`8`6`Y`K`v`f`.```#`n`K`5`8`8`8`8`8`8`8`8`8`8`8`8`8`8`8`8`8`8`8`8`8`8`8`8`8`8",
"`8`8`8`8`8`8`8`8`8`8`8`8`8`8`8`8`8`8`8`8`8`8`8`8`7`N`l`````a`q`N`4`8`8`8`8`8`8`8`8`8`8`8`8`8`8`8`8`8`8`8`8`8`8`8`8`6`S`y`e`````e`F`2`8`8`8`8`8`8`8`8`8`8`8`8`8`8`8`8`8`8`8`8`8`8`8`8",
"`8`8`8`8`8`8`8`8`8`8`8`8`8`8`8`8`8`8`8`8`8`8`7`N`i`````g`H`2`8`8`8`8`8`8`8`8`8`8`8`8`8`8`8`8`8`8`8`8`8`8`8`8`8`8`8`8`8`8`5`O`n`.```c`C`5`8`8`8`8`8`8`8`8`8`8`8`8`8`8`8`8`8`8`8`8`8`8",
"`8`8`8`8`8`8`8`8`8`8`8`8`8`8`8`8`8`8`8`8`8`X`q`````i`K`5`8`8`8`8`8`8`8`8`8`8`8`8`8`8`7`7`7`7`7`7`7`8`8`8`8`8`8`8`8`8`8`8`8`8`7`T`q`.```g`N`7`8`8`8`8`8`8`8`8`8`8`8`8`8`8`8`8`8`8`8`8",
"`8`8`8`8`8`8`8`8`8`8`8`8`8`8`8`8`8`8`8`4`z`#```g`M`6`8`8`8`8`8`8`8`8`8`8`7`Z`U`I`A`p`n`f`e`d`e`m`n`x`G`R`X`5`8`8`8`8`8`8`8`8`8`8`7`V`q`````o`Y`8`8`8`8`8`8`8`8`8`8`8`8`8`8`8`8`8`8`8",
"`8`8`8`8`8`8`8`8`8`8`8`8`8`8`8`8`8`8`X`j```#`C`4`8`8`8`8`8`8`8`8`8`4`N`y`i`.`````````.`#`#`#`#`.```````````e`r`J`Z`7`8`8`8`8`8`8`8`8`7`M`f```c`L`8`8`8`8`8`8`8`8`8`8`8`8`8`8`8`8`8`8",
"`8`8`8`8`8`8`8`8`8`8`8`8`8`8`8`8`7`K`a```k`W`8`8`8`8`8`8`8`8`5`Q`t`a`````.`i`n`z`K`Q`V`1`4`4`3`W`S`L`D`q`k`#`````.`n`K`2`8`8`8`8`8`8`8`8`4`w`````v`4`8`8`8`8`8`8`8`8`8`8`8`8`8`8`8`8",
"`8`8`8`8`8`8`8`8`8`8`8`8`8`8`8`6`u`````w`5`8`8`8`8`8`8`8`4`G`f`````a`o`H`Z`6`8`8`8`8`8`8`8`8`8`8`8`8`8`8`8`1`N`w`c`````b`w`X`8`8`8`8`8`8`8`7`K`a```h`W`8`8`8`8`8`8`8`8`8`8`8`8`8`8`8",
"`8`8`8`8`8`8`8`8`8`8`8`8`8`8`4`o```c`L`8`8`8`8`8`8`8`5`D`d`````l`I`1`8`8`8`8`8`8`8`8`8`8`8`8`8`8`8`8`8`8`8`8`8`8`5`O`t`#```.`u`0`8`8`8`8`8`8`8`X`k```d`T`8`8`8`8`8`8`8`8`8`8`8`8`8`8",
"`8`8`8`8`8`8`8`8`8`8`8`8`8`2`k```f`X`8`8`8`8`8`8`8`R`i```.`p`R`7`8`8`8`8`8`8`8`8`8`8`8`8`8`8`8`8`8`8`8`8`8`8`8`8`8`8`8`Z`x`b```b`F`6`8`8`8`8`8`8`5`t```b`Q`8`8`8`8`8`8`8`8`8`8`8`8`8",
"`8`8`8`8`8`8`8`8`8`8`8`8`1`h```j`0`8`8`8`8`8`8`3`t`````j`R`8`8`8`8`8`8`8`8`8`8`8`8`8`8`8`8`8`8`8`8`8`8`8`8`8`8`8`8`8`8`8`8`1`u`.```j`U`8`8`8`8`8`8`7`z```#`O`8`8`8`8`8`8`8`8`8`8`8`8",
"`8`8`8`8`8`8`8`8`8`8`8`3`j```m`4`8`8`8`8`8`8`T`h```b`F`6`8`8`8`8`8`8`8`8`8`8`8`8`8`8`8`8`8`8`8`8`8`8`8`8`8`8`8`8`8`8`8`8`8`8`8`S`i```#`H`7`8`8`8`8`8`8`D```#`R`8`8`8`8`8`8`8`8`8`8`8",
"`8`8`8`8`8`8`8`8`8`8`6`p```i`1`8`8`8`8`8`7`D`#```p`0`8`8`8`8`8`8`8`8`8`8`8`8`8`8`8`8`8`8`8`8`8`8`8`8`8`8`8`8`8`8`8`8`8`8`8`8`8`8`6`D`.```q`4`8`8`8`8`8`8`z```c`W`8`8`8`8`8`8`8`8`8`8",
"`8`8`8`8`8`8`8`8`8`7`t```f`Z`8`8`8`8`8`7`y```.`D`6`8`8`8`8`8`8`8`8`8`8`8`8`8`8`8`8`8`8`8`8`8`8`8`8`8`8`8`8`8`8`8`8`8`8`8`8`8`8`8`8`8`R`e```k`1`8`8`8`8`8`7`v```d`Y`8`8`8`8`8`8`8`8`8",
"`8`8`8`8`8`8`8`8`8`F```c`X`8`8`8`8`8`6`v```a`N`8`8`8`8`8`8`8`8`8`8`8`8`8`8`8`8`8`8`8`8`8`8`8`8`8`8`8`8`8`8`8`8`8`8`8`8`8`8`8`8`8`8`8`8`0`i```i`X`8`8`8`8`8`5`q```l`6`8`8`8`8`8`8`8`8",
"`8`8`8`8`8`8`8`8`T`.```P`8`8`8`8`8`7`q```c`U`8`8`8`8`8`8`8`8`8`8`8`8`8`8`8`8`8`8`8`8`8`8`8`8`8`8`8`8`8`8`8`8`8`8`8`8`8`8`8`8`8`8`8`8`8`8`3`n```c`X`8`8`8`8`8`3`g```y`8`8`8`8`8`8`8`8",
"`8`8`8`8`8`8`8`2`g```A`8`8`8`8`8`7`v```e`X`8`8`8`8`8`8`8`8`8`8`8`8`8`8`8`8`8`8`8`8`8`8`8`8`8`8`8`8`8`8`8`8`8`8`8`8`8`8`8`8`8`8`8`8`8`8`8`8`5`p```f`1`8`8`8`8`8`T`#```N`8`8`8`8`8`8`8",
"`8`8`8`8`8`8`8`v```m`6`8`8`8`8`8`z```c`W`8`8`8`8`8`8`8`8`8`8`8`8`8`8`8`8`8`8`8`8`8`8`8`8`8`8`8`8`8`8`8`8`8`8`8`8`8`8`8`8`8`8`8`8`8`8`8`8`8`8`5`n```j`4`8`8`8`8`8`H```d`2`8`8`8`8`8`8",
"`8`8`8`8`8`8`S`.`a`Y`8`8`8`8`8`O`.`.`Q`8`8`8`8`8`8`8`8`8`8`8`8`8`8`8`8`8`8`8`8`8`8`8`8`8`8`8`8`8`8`8`8`8`8`8`8`8`8`8`8`8`8`8`8`8`8`8`8`8`8`8`8`3`i```s`7`8`8`8`8`7`o```x`8`8`8`8`8`8",
"`8`8`8`8`8`6`j```B`8`8`8`8`8`0`d```H`8`8`8`8`8`8`8`8`8`8`8`8`8`8`8`8`8`8`8`8`8`8`8`8`8`8`8`8`8`8`8`8`8`8`8`8`8`8`8`8`8`8`8`8`8`8`8`8`8`8`8`8`8`8`Z`c```I`8`8`8`8`8`X`#`.`T`8`8`8`8`8",
"`8`8`8`8`8`F```h`5`8`8`8`8`6`n```u`7`8`8`8`8`8`8`8`8`8`8`8`8`8`8`8`8`8`8`8`8`8`8`8`8`8`8`8`8`8`8`8`8`8`8`8`8`8`8`8`8`8`8`8`8`8`8`8`8`8`8`8`8`8`8`8`O`.`a`W`8`8`8`8`8`B```k`7`8`8`8`8",
"`8`8`8`8`5`f```N`8`8`8`8`8`H```g`4`8`8`8`8`8`8`8`8`8`8`8`8`8`8`8`8`8`8`8`8`8`8`8`8`8`8`8`8`8`8`8`8`8`8`8`8`8`8`8`8`8`8`8`8`8`8`8`8`8`8`8`8`8`8`8`8`8`y```l`7`8`8`8`8`4`f```O`8`8`8`8",
"`8`8`8`8`H```l`7`8`8`8`8`0`b`.`Q`8`8`8`8`8`8`8`8`8`8`8`8`8`8`8`8`8`8`8`8`8`8`8`8`8`8`8`8`8`8`8`8`8`8`8`8`8`8`8`8`8`8`8`8`8`8`8`8`8`8`8`8`8`8`8`8`8`8`5`h```I`8`8`8`8`8`H```k`6`8`8`8",
"`8`8`8`6`g```O`8`8`8`8`8`v```r`7`8`8`8`8`8`8`8`8`8`8`8`8`8`8`8`8`8`8`8`8`8`8`8`8`8`8`8`8`8`8`8`8`8`8`8`8`8`8`8`8`8`8`8`8`8`8`8`8`8`8`8`8`8`8`8`8`8`8`8`P```d`2`8`8`8`8`4`e```R`8`8`8",
"`8`8`8`L```k`7`8`8`8`8`W`.`a`Z`8`8`8`8`8`8`8`8`8`8`8`8`8`8`8`8`8`8`8`8`8`8`8`8`8`8`8`8`8`8`8`8`8`8`8`8`8`8`8`8`8`8`8`8`8`8`8`8`8`8`8`8`8`8`8`8`8`8`8`8`7`p```B`8`8`8`8`8`H```o`8`8`8",
"`8`8`7`n```L`8`8`8`8`8`v```y`8`8`8`8`8`8`8`8`8`8`8`8`8`8`8`8`8`8`8`8`8`8`8`8`8`8`8`8`8`8`8`8`8`8`8`8`8`8`8`8`8`8`8`8`8`2`Z`8`8`8`8`X`S`5`8`8`8`8`8`8`8`8`V`.`d`3`8`8`8`8`4`d`#`Y`8`8",
"`8`8`Z`#`c`4`8`8`8`8`Y`#`a`1`8`8`8`8`8`8`8`8`8`8`8`8`8`8`8`8`8`8`8`8`8`8`8`8`8`8`8`8`8`8`8`8`8`8`8`8`8`8`8`8`8`8`8`8`2`f`g`7`8`7`x`.```f`X`8`8`8`8`8`8`8`8`r```D`8`8`8`8`8`v```C`8`8",
"`8`8`D```w`8`8`8`8`8`y```x`8`8`8`8`8`8`8`8`8`8`8`8`8`8`8`8`8`8`8`8`8`8`8`8`8`8`8`8`8`8`8`8`8`8`8`8`8`8`8`8`8`8`8`8`V`i```f`7`8`R```u`N`#`p`7`8`8`8`8`8`8`8`T```e`5`8`8`8`8`S`.`g`6`8",
"`8`7`i```S`8`8`8`8`5`e`.`V`8`8`8`8`8`8`8`8`8`8`8`8`8`8`8`8`8`8`8`8`8`8`8`8`8`8`8`8`8`8`8`8`8`8`8`8`8`8`8`8`8`8`8`Z`a`i`a`f`7`8`z```V`8`m`#`4`8`8`8`8`8`8`8`6`k```Q`8`8`8`8`6`g```R`8",
"`8`Y```f`5`8`8`8`8`P```j`7`8`8`8`8`8`8`8`8`8`8`8`8`8`8`8`8`8`8`8`8`8`8`8`8`8`8`8`8`8`8`8`8`8`8`8`8`8`8`8`8`8`8`8`2`G`3`c`f`7`8`p```Y`8`r`.`1`8`8`8`8`8`8`8`8`F```t`8`8`8`8`8`z```D`8",
"`8`K```q`8`8`8`8`8`t```E`8`8`8`8`8`8`8`8`8`8`8`8`8`8`8`8`8`8`8`8`8`8`8`8`8`8`8`8`8`8`8`8`8`8`8`8`8`8`8`8`8`8`8`8`8`8`6`c`f`7`8`p```Z`8`z`.`1`8`8`8`8`8`8`8`8`Z`#`a`4`8`8`8`8`R```n`8",
"`8`w```I`8`8`8`8`7`f```Y`8`8`8`8`8`8`8`8`8`8`8`8`8`8`8`8`8`8`8`8`8`8`8`8`8`8`8`8`8`8`8`8`8`8`8`8`8`8`8`8`8`8`8`8`8`8`6`c`f`7`8`q```Y`8`r`.`1`8`8`8`8`8`8`8`8`8`l```N`8`8`8`8`1`a`b`2",
"`6`f`.`W`8`8`8`8`W```g`6`8`8`8`8`8`8`8`8`8`8`8`8`8`8`8`8`8`8`8`8`8`8`8`8`8`8`8`8`8`8`8`8`8`8`8`8`8`8`8`8`8`8`8`8`8`8`6`c`f`7`8`C```S`8`i`b`4`8`8`8`8`8`8`8`8`8`C```z`8`8`8`8`8`k```Q",
"`1`a`c`6`8`8`8`8`G```t`8`8`8`8`8`8`8`8`8`8`8`8`8`8`8`8`8`8`8`8`8`8`8`8`8`8`8`8`8`8`8`8`8`8`8`8`8`8`8`8`8`8`8`8`8`8`8`6`c`f`7`8`V`.`k`A`.`v`8`8`8`8`8`8`8`8`8`8`T```j`7`8`8`8`8`B```D",
"`Q```n`7`8`8`8`8`u```L`8`8`8`8`8`8`8`8`8`8`8`8`8`8`8`8`8`8`8`8`8`8`8`8`8`8`8`8`8`8`8`8`8`8`8`8`8`8`8`8`8`8`8`8`8`8`8`6`g`j`7`8`8`J`e`b`q`3`8`8`8`8`8`8`8`8`8`8`3`c`#`0`8`8`8`8`J```v",
"`L```w`8`8`8`8`7`j```T`8`8`8`8`8`8`8`8`8`8`8`8`8`8`8`8`8`8`8`8`8`8`8`8`8`8`8`8`8`8`8`8`8`8`8`8`8`8`8`8`8`8`8`8`8`8`8`8`6`6`8`8`8`8`6`6`7`8`8`8`8`8`8`8`8`8`8`8`8`l```W`8`8`8`8`T```f",
"`z```D`8`8`8`8`5`b`b`4`8`8`8`8`8`8`8`8`8`8`8`8`8`8`8`8`8`8`8`8`8`8`8`8`8`8`8`8`8`8`8`8`8`8`8`8`8`8`8`8`8`8`8`8`8`8`8`8`8`8`8`8`8`8`8`8`8`8`8`8`8`8`8`8`8`8`8`8`8`q```L`8`8`8`8`3`#``",
"`s```Q`8`8`8`8`0`#`d`6`8`8`8`8`8`8`8`8`8`8`8`8`8`8`8`8`8`8`8`8`8`8`8`8`8`8`8`8`8`8`8`8`8`8`8`8`8`8`8`8`8`8`8`8`8`8`8`8`8`8`8`8`8`8`8`8`8`8`8`8`8`8`8`8`8`8`8`8`N`u```A`8`8`8`8`5`b``",
"`s```U`8`8`8`8`T```n`7`8`8`8`8`8`8`8`8`8`8`8`8`8`8`8`8`8`8`8`8`8`8`8`8`8`8`8`8`8`8`8`8`8`8`8`8`8`8`8`8`8`8`8`8`8`8`8`8`8`8`8`8`8`8`8`8`8`8`8`8`8`8`8`8`8`8`8`8`x`````t`7`8`8`8`7`i``",
"`s```V`8`8`8`8`N```o`8`8`8`8`8`8`8`8`8`8`8`8`8`8`8`8`8`8`8`8`8`8`8`8`8`8`8`8`8`8`8`8`8`8`8`8`8`8`8`8`8`8`8`8`8`8`8`8`8`8`8`8`8`8`8`8`8`8`8`8`8`8`8`8`8`8`8`8`8`x```````n`P`7`8`7`j``",
"`s```X`8`8`8`8`M```w`8`8`8`8`8`8`8`8`8`8`8`8`8`8`8`8`8`8`8`8`8`8`8`8`8`8`8`8`8`8`8`8`8`8`3`S`S`S`S`S`S`S`S`S`S`S`S`S`S`S`S`S`S`S`S`S`S`S`S`S`S`S`S`S`S`S`S`S`S`r```````````k`L`6`q``",
"`s```X`8`8`8`8`K```w`8`8`8`8`8`8`8`8`8`8`8`8`8`8`8`8`8`8`8`8`8`8`8`8`8`8`8`8`8`8`8`8`8`8`s`````````````````````````````````````````````````````````````````````````````````````g`f``",
"`s```X`8`8`8`8`K```w`8`8`8`8`8`8`8`8`8`8`8`8`8`8`8`8`8`8`8`8`8`8`8`8`8`8`8`8`8`8`8`8`8`8`o```m`r`r`r`r`r`r`r`r`r`r`r`r`r`r`r`r`r`r`r`r`r`r`r`r`r`r`r`r`r`r`r`r`f`````````````i`J`n``",
"`s```W`8`8`8`8`M```v`8`8`8`8`8`8`8`8`8`8`8`8`8`8`8`8`8`8`8`8`8`8`8`8`8`8`8`8`8`8`8`8`8`8`o```S`8`8`8`8`8`8`8`8`8`8`8`8`8`8`8`8`8`8`8`8`8`8`8`8`8`8`8`8`8`8`8`8`x```````.`l`N`6`8`q``",
"`s```V`8`8`8`8`N```o`8`8`8`8`8`8`8`8`8`8`8`8`8`8`8`8`8`8`8`8`8`8`8`8`8`8`8`8`8`8`8`8`8`8`o```S`8`8`8`8`8`8`8`8`8`8`8`8`8`8`8`8`8`8`8`8`8`8`8`8`8`8`8`8`8`8`8`8`x`````h`S`8`8`8`7`j``",
"`s```T`8`8`8`8`U`.`l`7`8`8`8`8`8`8`8`8`8`8`8`8`8`8`8`8`8`8`8`8`8`8`8`8`8`8`8`8`8`8`8`8`8`o```S`8`8`8`8`8`8`8`8`8`8`8`8`8`8`8`8`8`8`8`8`8`8`8`8`8`8`8`8`8`8`8`8`A`i```x`8`8`8`8`6`h``",
"`s```O`8`8`8`8`2`#`d`6`8`8`8`8`8`8`8`8`8`8`8`8`8`8`8`8`8`8`8`8`8`8`8`8`8`8`8`8`8`8`8`8`8`o```S`8`8`8`8`8`8`8`8`8`8`8`8`8`8`8`8`8`8`8`8`8`8`8`8`8`8`8`8`8`8`8`8`5`C```B`8`8`8`8`5`a``",
"`C```B`8`8`8`8`5`b`a`2`8`8`8`8`8`8`8`8`8`8`8`8`8`8`8`8`8`8`8`2`0`8`8`8`8`8`2`0`8`8`8`8`8`o```S`8`8`8`8`8`8`8`8`8`8`8`8`8`8`8`8`8`8`8`8`8`8`8`8`8`8`8`8`8`8`8`8`8`o```O`8`8`8`8`2`.``",
"`M```v`8`8`8`8`7`l```R`8`8`8`8`8`8`8`8`8`8`8`8`8`8`8`8`8`8`3`h`g`7`8`8`8`2`g`i`7`8`8`8`8`o```S`8`8`8`8`8`8`8`8`8`8`8`8`8`8`8`8`8`8`8`8`8`8`8`8`8`8`8`8`8`8`8`8`8`k```X`8`8`8`8`Q```i",
"`S```l`7`8`8`8`8`v```J`8`8`8`8`8`8`8`8`8`8`8`8`8`8`8`8`8`W`k```e`7`8`8`W`i```g`7`8`8`8`8`o```S`8`8`8`8`8`8`8`8`8`8`8`8`8`8`8`8`8`8`8`8`8`8`8`8`8`8`8`8`8`8`8`8`2`a`a`1`8`8`8`8`I```x",
"`2`a`b`5`8`8`8`8`K```r`8`8`8`8`8`8`8`8`8`8`8`8`8`8`8`8`0`b`g`a`e`7`8`Y`a`h`#`g`7`8`8`8`8`o```S`8`8`8`8`8`8`8`8`8`8`8`8`8`8`8`8`8`8`8`8`8`8`8`8`8`8`8`8`8`8`8`8`S```k`8`8`8`8`8`y```E",
"`7`h```S`8`8`8`8`X`.`e`5`8`8`8`8`8`8`8`8`8`8`8`8`8`8`8`2`F`3`d`e`7`8`1`F`2`c`g`7`8`8`8`8`o```S`8`8`8`8`8`8`8`8`8`8`8`8`8`8`8`8`8`8`8`8`8`8`8`8`8`8`8`8`8`8`8`8`A```B`8`8`8`8`8`j```U",
"`8`y```G`8`8`8`8`7`g```X`8`8`8`8`8`8`8`8`8`8`8`8`8`8`8`8`8`6`d`e`7`8`8`8`5`b`g`7`8`8`8`8`o```S`8`8`8`8`8`8`8`8`8`8`8`8`8`8`8`8`8`8`8`8`8`8`8`8`8`8`8`8`8`8`8`7`j```Q`8`8`8`8`Z`#`d`4",
"`8`O```o`8`8`8`8`8`x```B`8`8`8`8`8`8`8`8`8`8`8`8`8`8`8`8`8`6`d`e`7`8`8`8`5`b`g`7`8`8`8`8`o```S`8`8`8`8`8`8`8`8`8`8`8`8`8`8`8`8`8`8`8`8`8`8`8`8`8`8`8`8`8`8`8`X`#`b`5`8`8`8`8`N```o`8",
"`8`0`.`c`3`8`8`8`8`T```g`6`8`8`8`8`8`8`8`8`8`8`8`8`8`8`8`8`6`d`e`7`8`8`8`5`b`g`7`8`8`8`8`o```S`8`8`8`8`8`8`8`8`8`8`8`8`8`8`8`8`8`8`8`8`8`8`8`8`8`8`8`8`8`8`8`C```v`8`8`8`8`8`w```G`8",
"`8`7`k```N`8`8`8`8`6`h```S`8`8`8`8`8`8`8`8`8`8`8`8`8`8`8`8`6`d`e`7`8`8`8`5`b`g`7`8`8`8`8`o```S`8`8`8`8`8`8`8`8`8`8`8`8`8`8`8`8`8`8`8`8`8`8`8`8`8`8`8`8`8`8`6`i```R`8`8`8`8`5`d`.`V`8",
"`8`8`H```q`8`8`8`8`8`C```s`8`8`8`8`8`8`8`8`8`8`8`8`8`8`8`8`6`h`h`7`8`8`8`5`f`j`7`8`8`8`8`o```S`8`8`8`8`8`8`8`8`8`8`8`8`8`8`8`8`8`8`8`8`8`8`8`8`8`8`8`8`8`8`O```g`6`8`8`8`8`N```k`7`8",
"`8`8`2`a`a`0`8`8`8`8`2`b`.`X`8`8`8`8`8`8`8`8`8`8`8`8`8`8`8`8`6`6`8`8`8`8`8`6`6`8`8`8`8`8`o```S`8`8`8`8`8`8`8`8`8`8`8`8`8`8`8`8`8`8`8`8`8`8`8`8`8`8`8`8`8`8`m```G`8`8`8`8`8`r```H`8`8",
"`8`8`8`s```G`8`8`8`8`8`y```t`8`8`8`8`8`8`8`8`8`8`8`8`8`8`8`8`8`8`8`8`8`8`8`8`8`8`8`8`8`8`o```S`8`8`8`8`8`8`8`8`8`8`8`8`8`8`8`8`8`8`8`8`8`8`8`8`8`8`8`8`8`Q```e`4`8`8`8`8`1`#`a`1`8`8",
"`8`8`8`Q```g`5`8`8`8`8`Z`#`#`X`8`8`8`8`8`8`8`8`8`8`8`8`8`8`8`8`8`8`8`8`8`8`8`8`8`8`8`8`8`o```S`8`8`8`8`8`8`8`8`8`8`8`8`8`8`8`8`8`8`8`8`8`8`8`8`8`8`8`8`7`m```E`8`8`8`8`8`B```t`8`8`8",
"`8`8`8`7`k```J`8`8`8`8`8`y```o`7`8`8`8`8`8`8`8`8`8`8`8`8`8`8`8`8`8`8`8`8`8`8`8`8`8`8`8`8`o```S`8`8`8`8`8`8`8`8`8`8`8`8`8`8`8`8`8`8`8`8`8`8`8`8`8`8`8`8`J```g`4`8`8`8`8`2`b`.`V`8`8`8",
"`8`8`8`8`N```g`5`8`8`8`8`3`e```L`8`8`8`8`8`8`8`8`8`8`8`8`8`8`8`8`8`8`8`8`8`8`8`8`8`8`8`8`o```S`8`8`8`8`8`8`8`8`8`8`8`8`8`8`8`8`8`8`8`8`8`8`8`8`8`8`8`2`d```N`8`8`8`8`8`C```q`7`8`8`8",
"`8`8`8`8`6`i```H`8`8`8`8`8`L```d`0`8`8`8`8`8`8`8`8`8`8`8`8`8`8`8`8`8`8`8`8`8`8`8`8`8`8`8`o```S`8`8`8`8`8`8`8`8`8`8`8`8`8`8`8`8`8`8`8`8`8`8`8`8`8`8`7`r```q`7`8`8`8`8`1`b`.`U`8`8`8`8",
"`8`8`8`8`8`O```c`2`8`8`8`8`7`r```o`6`8`8`8`8`8`8`8`8`8`8`8`8`8`8`8`8`8`8`8`8`8`8`8`8`8`8`o```S`8`8`8`8`8`8`8`8`8`8`8`8`8`8`8`8`8`8`8`8`8`8`8`8`8`8`H```c`0`8`8`8`8`8`u```q`8`8`8`8`8",
"`8`8`8`8`8`8`r```v`8`8`8`8`8`2`f```C`8`8`8`8`8`8`8`8`8`8`8`8`8`8`8`8`8`8`8`8`8`8`8`8`8`8`o```S`8`8`8`8`8`8`8`8`8`8`8`8`8`8`8`8`8`8`8`8`8`8`8`8`8`V`a```M`8`8`8`8`8`R`.`b`Y`8`8`8`8`8",
"`8`8`8`8`8`8`Z`a`.`T`8`8`8`8`8`U`#`.`L`8`8`8`8`8`8`8`8`8`8`8`8`8`8`8`8`8`8`8`8`8`8`8`8`8`o```S`8`8`8`8`8`8`8`8`8`8`8`8`8`8`8`8`8`8`8`8`8`8`8`8`Z`e```w`8`8`8`8`8`5`j```D`8`8`8`8`8`8",
"`8`8`8`8`8`8`8`C```g`3`8`8`8`8`8`I`.`#`P`8`8`8`8`8`8`8`8`8`8`8`8`8`8`8`8`8`8`8`8`8`8`8`8`o```S`8`8`8`8`8`8`8`8`8`8`8`8`8`8`8`8`8`8`8`8`8`8`8`2`h```q`5`8`8`8`8`8`z```i`5`8`8`8`8`8`8",
"`8`8`8`8`8`8`8`5`l```t`7`8`8`8`8`8`E```a`S`8`8`8`8`8`8`8`8`8`8`8`8`8`8`8`8`8`8`8`8`8`8`8`o```S`8`8`8`8`8`8`8`8`8`8`8`8`8`8`8`8`8`8`8`8`8`8`4`m```l`5`8`8`8`8`8`N`.`#`T`8`8`8`8`8`8`8",
"`8`8`8`8`8`8`8`8`Z`b```H`8`8`8`8`8`8`y```a`O`8`8`8`8`8`8`8`8`8`8`8`8`8`8`8`8`8`8`V`S`S`S`k```H`S`S`W`8`8`8`8`8`8`8`8`8`8`8`8`8`8`8`8`8`8`0`k```g`2`8`8`8`8`8`Z`c```H`8`8`8`8`8`8`8`8",
"`8`8`8`8`8`8`8`8`8`M`.`#`Q`8`8`8`8`8`7`A```.`J`8`8`8`8`8`8`8`8`8`8`8`8`8`8`8`8`8`G`````````````````I`8`8`8`8`8`8`8`8`8`8`8`8`8`8`8`8`8`X`f```k`1`8`8`8`8`8`1`i```s`7`8`8`8`8`8`8`8`8",
"`8`8`8`8`8`8`8`8`8`8`C```b`T`8`8`8`8`8`7`E```.`y`5`8`8`8`8`8`8`8`8`8`8`8`8`8`8`8`5`f`````````````e`5`8`8`8`8`8`8`8`8`8`8`8`8`8`8`8`8`N`c```n`3`8`8`8`8`8`4`n```j`3`8`8`8`8`8`8`8`8`8",
"`8`8`8`8`8`8`8`8`8`8`8`x```d`W`8`8`8`8`8`8`L`c```k`W`8`8`8`8`8`8`8`8`8`8`8`8`8`8`8`J`````````````F`8`8`8`8`8`8`8`8`8`8`8`8`8`8`8`4`y```.`z`5`8`8`8`8`8`6`q```g`2`8`8`8`8`8`8`8`8`8`8",
"`8`8`8`8`8`8`8`8`8`8`8`6`q```g`Y`8`8`8`8`8`8`Y`k```#`B`4`8`8`8`8`8`8`8`8`8`8`8`8`8`6`h`````````c`2`8`8`8`8`8`8`8`8`8`8`8`8`8`7`M`f```b`O`8`8`8`8`8`8`6`t```d`Y`8`8`8`8`8`8`8`8`8`8`8",
"`8`8`8`8`8`8`8`8`8`8`8`8`4`p```d`T`8`8`8`8`8`8`5`y`#```g`N`7`8`8`8`8`8`8`8`8`8`8`8`8`N`````````A`8`8`8`8`8`8`8`8`8`8`8`8`8`W`q`````n`X`8`8`8`8`8`8`4`p```d`W`8`8`8`8`8`8`8`8`8`8`8`8",
"`8`8`8`8`8`8`8`8`8`8`8`8`8`5`v```a`P`8`8`8`8`8`8`8`V`m`````k`N`6`8`8`8`8`8`8`8`8`8`8`7`l`````a`1`8`8`8`8`8`8`8`8`8`8`8`W`s`.```e`K`7`8`8`8`8`8`8`0`k```h`Z`8`8`8`8`8`8`8`8`8`8`8`8`8",
"`8`8`8`8`8`8`8`8`8`8`8`8`8`8`7`C```.`A`6`8`8`8`8`8`8`6`J`g`````h`E`0`8`8`8`8`8`8`8`8`8`Q`````x`8`8`8`8`8`8`8`8`8`4`M`o`#```a`z`3`8`8`8`8`8`8`8`P`d```m`2`8`8`8`8`8`8`8`8`8`8`8`8`8`8",
"`8`8`8`8`8`8`8`8`8`8`8`8`8`8`8`8`G`#```m`0`8`8`8`8`8`8`8`6`L`j`.```.`n`D`T`6`8`8`8`8`8`7`o`#`Y`8`8`8`8`8`6`X`J`q`d`````d`C`1`8`8`8`8`8`8`8`6`A`````r`4`8`8`8`8`8`8`8`8`8`8`8`8`8`8`8",
"`8`8`8`8`8`8`8`8`8`8`8`8`8`8`8`8`8`U`f```d`N`8`8`8`8`8`8`8`8`6`U`z`e```````c`p`y`D`P`V`X`K`o`X`V`R`F`z`t`e`#`````a`r`O`4`8`8`8`8`8`8`8`8`Y`m```#`G`7`8`8`8`8`8`8`8`8`8`8`8`8`8`8`8`8",
"`8`8`8`8`8`8`8`8`8`8`8`8`8`8`8`8`8`8`4`s`````r`Y`8`8`8`8`8`8`8`8`8`5`U`C`m`a`.```````````````````````````#`h`x`P`1`8`8`8`8`8`8`8`8`8`5`B`a```h`V`8`8`8`8`8`8`8`8`8`8`8`8`8`8`8`8`8`8",
"`8`8`8`8`8`8`8`8`8`8`8`8`8`8`8`8`8`8`8`7`K`e```a`B`1`8`8`8`8`8`8`8`8`8`8`7`4`V`L`E`p`o`m`l`k`l`o`o`y`J`Q`2`6`8`8`8`8`8`8`8`8`8`8`5`K`h```#`z`4`8`8`8`8`8`8`8`8`8`8`8`8`8`8`8`8`8`8`8",
"`8`8`8`8`8`8`8`8`8`8`8`8`8`8`8`8`8`8`8`8`8`4`A`#```b`z`Z`8`8`8`8`8`8`8`8`8`8`8`8`8`8`8`8`8`8`8`8`8`8`8`8`8`8`8`8`8`8`8`8`8`8`4`I`g`````p`X`8`8`8`8`8`8`8`8`8`8`8`8`8`8`8`8`8`8`8`8`8",
"`8`8`8`8`8`8`8`8`8`8`8`8`8`8`8`8`8`8`8`8`8`8`8`W`s`.```a`w`T`7`8`8`8`8`8`8`8`8`8`8`8`8`8`8`8`8`8`8`8`8`8`8`8`8`8`8`8`8`8`Y`D`e`````j`N`7`8`8`8`8`8`8`8`8`8`8`8`8`8`8`8`8`8`8`8`8`8`8",
"`8`8`8`8`8`8`8`8`8`8`8`8`8`8`8`8`8`8`8`8`8`8`8`8`8`X`v`a`````g`B`W`6`8`8`8`8`8`8`8`8`8`8`8`8`8`8`8`8`8`8`8`8`8`8`8`0`I`n`#`````m`Q`6`8`8`8`8`8`8`8`8`8`8`8`8`8`8`8`8`8`8`8`8`8`8`8`8",
"`8`8`8`8`8`8`8`8`8`8`8`8`8`8`8`8`8`8`8`8`8`8`8`8`8`8`8`Z`G`j`.`````g`s`J`X`5`7`8`8`8`8`8`8`8`8`8`8`8`8`7`6`1`N`y`k`#`````e`z`U`8`8`8`8`8`8`8`8`8`8`8`8`8`8`8`8`8`8`8`8`8`8`8`8`8`8`8",
"`8`8`8`8`8`8`8`8`8`8`8`8`8`8`8`8`8`8`8`8`8`8`8`8`8`8`8`8`8`7`U`w`j`#`````.`b`j`u`A`I`J`R`S`S`S`L`I`C`w`n`c`#```````f`q`N`5`8`8`8`8`8`8`8`8`8`8`8`8`8`8`8`8`8`8`8`8`8`8`8`8`8`8`8`8`8",
"`8`8`8`8`8`8`8`8`8`8`8`8`8`8`8`8`8`8`8`8`8`8`8`8`8`8`8`8`8`8`8`8`8`0`O`x`j`d`a`````````````````````````#`c`i`s`G`X`6`8`8`8`8`8`8`8`8`8`8`8`8`8`8`8`8`8`8`8`8`8`8`8`8`8`8`8`8`8`8`8`8",
"`8`8`8`8`8`8`8`8`8`8`8`8`8`8`8`8`8`8`8`8`8`8`8`8`8`8`8`8`8`8`8`8`8`8`8`8`7`6`1`R`L`K`B`B`B`B`B`B`I`K`P`Y`6`7`8`8`8`8`8`8`8`8`8`8`8`8`8`8`8`8`8`8`8`8`8`8`8`8`8`8`8`8`8`8`8`8`8`8`8`8"
};
