/* XPM */
static char *section5[] = {
/* width height num_colors chars_per_pixel */
"    90    90       64            2",
/* colors */
"`` c #000000",
"`. c #040404",
"`# c #080808",
"`a c #0c0c0c",
"`b c #101010",
"`c c #141414",
"`d c #181818",
"`e c #1c1c1c",
"`f c #202020",
"`g c #242424",
"`h c #282828",
"`i c #2c2c2c",
"`j c #303030",
"`k c #343434",
"`l c #383838",
"`m c #3c3c3c",
"`n c #404040",
"`o c #444444",
"`p c #484848",
"`q c #4c4c4c",
"`r c #505050",
"`s c #555555",
"`t c #595959",
"`u c #5d5d5d",
"`v c #616161",
"`w c #656565",
"`x c #696969",
"`y c #6d6d6d",
"`z c #717171",
"`A c #757575",
"`B c #797979",
"`C c #7d7d7d",
"`D c #818181",
"`E c #858585",
"`F c #898989",
"`G c #8d8d8d",
"`H c #919191",
"`I c #959595",
"`J c #999999",
"`K c #9d9d9d",
"`L c #a1a1a1",
"`M c #a5a5a5",
"`N c #aaaaaa",
"`O c #aeaeae",
"`P c #b2b2b2",
"`Q c #b6b6b6",
"`R c #bababa",
"`S c #bebebe",
"`T c #c2c2c2",
"`U c #c6c6c6",
"`V c #cacaca",
"`W c #cecece",
"`X c #d2d2d2",
"`Y c #d6d6d6",
"`Z c #dadada",
"`0 c #dedede",
"`1 c #e2e2e2",
"`2 c #e6e6e6",
"`3 c #eaeaea",
"`4 c #eeeeee",
"`5 c #f2f2f2",
"`6 c #f6f6f6",
"`7 c #fafafa",
"`8 c #ffffff",
/* pixels */
"`8`8`8`8`8`8`8`8`8`8`8`8`8`8`8`8`8`8`8`8`8`8`8`8`8`8`8`8`8`8`8`8`8`8`8`8`8`8`8`8`7`0`7`8`8`8`8`8`8`8`8`8`8`8`8`8`8`8`8`8`8`8`8`8`8`8`8`8`8`8`8`8`8`8`8`8`8`8`8`8`8`8`8`8`8`8`8`8`8`8",
"`8`8`8`8`8`8`8`8`8`8`8`8`8`8`8`8`8`8`8`8`8`8`8`8`8`8`8`8`8`8`8`8`8`8`8`8`8`8`8`8`G`w`y`8`8`8`8`8`8`8`8`8`8`8`8`8`8`8`8`8`8`8`8`8`8`8`8`8`8`8`8`8`8`8`8`8`8`8`8`8`8`8`8`8`8`8`8`8`8`8",
"`8`8`8`8`8`8`8`8`8`8`8`8`8`8`8`8`8`8`8`8`8`8`8`8`8`8`8`8`8`8`8`8`8`8`8`8`8`8`8`8`7`E`B`8`8`8`8`8`8`8`8`8`8`8`8`8`8`8`8`8`8`8`8`8`8`8`8`8`8`8`8`8`8`8`8`8`8`8`8`8`8`8`8`8`8`8`8`8`8`8",
"`8`8`8`8`8`8`8`8`8`8`8`8`8`8`8`8`8`8`8`8`8`8`8`8`8`8`8`8`8`8`8`8`8`8`8`8`8`8`8`8`X`3`l`8`8`8`8`8`8`8`8`8`8`8`8`8`8`8`8`8`8`8`8`8`8`8`8`8`8`8`8`8`8`8`8`8`8`8`8`8`8`8`8`8`8`8`8`8`8`8",
"`8`8`8`8`8`8`8`8`8`8`8`8`8`8`8`8`8`8`8`8`8`8`8`L`N`8`8`8`8`8`8`8`8`8`8`8`8`8`8`8`K`q`C`8`8`8`8`8`8`8`8`8`8`8`8`8`8`8`8`8`8`1`w`8`8`8`8`8`8`8`8`8`8`8`8`8`8`8`8`8`8`8`8`8`8`8`8`8`8`8",
"`8`8`8`8`8`8`8`8`8`8`8`8`8`8`8`8`8`8`8`8`8`8`8`F`H`8`8`7`7`8`8`8`8`8`8`8`8`8`8`8`8`8`8`8`8`8`8`8`8`8`8`8`8`8`8`8`8`8`6`8`8`Z`o`8`8`8`8`8`8`8`8`8`8`8`8`8`8`8`8`8`8`8`8`8`8`8`8`8`8`8",
"`8`8`8`8`8`8`8`8`8`8`8`8`8`8`8`8`8`8`8`8`8`8`8`F`H`7`M`j`W`8`8`8`8`8`8`8`8`8`8`8`8`8`8`8`8`8`8`8`8`8`8`8`8`8`8`8`8`8`w`w`Y`Z`o`8`8`8`8`8`8`8`8`8`8`8`8`8`8`8`8`8`8`8`8`8`8`8`8`8`8`8",
"`8`8`8`8`8`8`8`8`8`8`8`8`8`8`8`8`8`8`8`8`8`8`8`F`o`g`````r`w`w`w`w`w`w`w`w`w`w`w`w`w`w`w`w`w`w`w`w`w`w`w`w`w`w`w`w`w`g```.`m`o`8`8`8`8`8`8`8`8`8`8`8`8`8`8`8`8`8`8`8`8`8`8`8`8`8`8`8",
"`8`8`8`8`8`8`8`8`8`8`8`8`8`8`8`8`8`8`8`8`8`8`8`F`B`A`a```I`R`R`R`R`R`R`R`R`R`R`R`R`R`R`R`R`R`R`R`R`R`R`R`R`R`R`R`R`R`n```j`F`o`8`8`8`8`8`8`8`8`8`8`8`8`8`8`8`8`8`8`8`8`8`8`8`8`8`8`8",
"`8`8`8`8`8`8`8`8`8`8`8`8`8`8`8`8`8`8`8`8`8`8`8`F`H`8`4`E`Z`8`8`8`8`8`8`8`8`8`8`8`8`8`8`8`8`8`8`8`8`8`8`8`8`8`8`8`8`8`I`R`8`Z`o`8`8`8`8`6`F`P`6`8`8`8`8`8`8`8`8`8`8`8`8`8`8`8`8`8`8`8",
"`8`8`8`8`8`8`8`8`8`8`8`8`8`8`8`8`8`8`8`8`8`8`8`F`H`8`8`8`8`8`8`8`8`8`8`8`8`8`8`8`8`8`8`8`8`8`8`8`8`8`8`8`8`8`8`8`8`8`8`8`8`Z`o`8`8`8`3`e`#`a`v`8`8`8`8`8`8`8`8`8`8`8`8`8`8`8`8`8`8`8",
"`8`8`8`8`8`8`8`8`8`8`8`8`8`8`8`8`8`8`8`8`8`8`8`F`H`8`8`8`8`8`8`8`8`8`8`8`8`8`8`8`8`8`8`8`8`8`8`8`8`8`8`8`8`8`8`8`8`8`8`8`8`Z`o`8`8`8`8`A`````U`8`8`8`8`8`8`8`8`8`8`8`8`8`8`8`8`8`8`8",
"`8`8`8`8`8`8`8`8`8`8`8`8`8`8`8`8`8`8`8`8`8`8`8`J`L`8`8`8`8`8`8`8`8`8`8`8`8`8`8`8`8`8`8`8`8`8`8`8`8`8`8`8`8`8`8`8`8`8`8`8`8`1`t`8`8`8`8`3`c`n`8`8`8`8`8`8`8`8`8`8`8`8`8`8`8`8`8`8`8`8",
"`8`8`8`8`8`8`8`8`8`8`8`8`8`8`U`T`T`T`T`T`T`T`Z`3`T`T`T`T`T`T`T`T`T`T`T`T`T`T`T`T`T`T`T`T`T`T`T`T`T`T`T`T`T`T`T`T`T`T`T`T`T`T`Z`3`T`T`T`T`t`D`T`T`4`8`8`8`8`8`8`8`8`8`8`8`8`8`8`8`8`8",
"`8`8`8`8`8`8`8`8`8`8`8`8`8`5`u`s`s`e`s`s`s`s`F`G`j`s`s`s`s`s`s`s`s`s`s`s`s`s`s`s`s`s`s`s`s`s`s`s`s`s`s`s`s`s`s`s`s`s`s`s`s`p`o`R`s`s`s`s`s`s`s`s`V`8`8`8`8`8`8`8`8`8`8`8`8`8`8`8`8`8",
"`8`8`8`8`8`8`8`8`8`8`8`8`8`8`8`8`3`b`T`8`8`8`8`F`H`8`8`8`8`8`8`8`8`8`8`8`8`8`8`8`8`8`8`8`8`8`8`8`8`8`8`8`8`8`8`8`8`8`8`8`8`Z`o`8`8`8`8`8`8`8`8`8`8`8`G`s`X`8`8`8`8`8`8`8`8`8`8`8`8`8",
"`8`8`8`8`8`8`8`8`8`8`8`8`8`8`8`8`D```q`8`8`8`8`F`H`8`8`8`8`8`8`8`8`8`8`8`8`8`8`8`8`8`8`8`8`8`8`8`8`8`8`8`8`8`8`8`8`8`8`8`8`Z`o`8`8`8`8`8`8`8`8`8`8`4`k`I`Z`8`8`8`8`8`8`8`8`8`8`8`8`8",
"`8`8`8`8`8`8`8`8`8`8`8`8`8`8`8`5`d```.`X`8`8`8`F`H`8`8`8`8`8`8`8`8`8`8`8`8`8`8`8`8`8`8`8`8`8`8`8`8`8`8`8`8`8`8`8`8`8`8`8`8`Z`o`8`8`8`8`8`8`8`8`8`8`2`h`H`E`8`8`8`8`8`8`8`8`8`8`8`8`8",
"`8`8`8`8`8`8`8`8`8`8`8`8`8`8`8`1`I`d`G`W`8`8`8`F`H`8`8`8`8`8`8`8`8`8`8`8`8`8`8`8`8`8`8`8`8`8`8`8`8`8`8`8`8`8`8`8`8`8`8`8`8`Z`o`8`8`8`8`8`8`8`8`8`8`7`n`z`H`8`8`8`8`8`8`8`8`8`8`8`8`8",
"`8`8`8`8`8`8`8`8`8`8`8`8`8`8`8`8`8`h`4`8`8`8`8`F`H`8`8`8`8`8`8`8`8`8`8`8`8`8`8`8`8`8`8`8`8`8`8`8`8`8`8`8`8`8`8`8`8`8`8`8`8`Z`o`8`8`8`8`8`8`8`8`8`8`8`3`U`8`8`8`8`8`8`8`8`8`8`8`8`8`8",
"`8`8`8`8`8`8`8`8`8`8`8`8`8`8`8`8`8`h`4`8`8`8`8`F`H`8`8`8`8`5`j`j`j`j`j`j`j`j`j`j`j`j`j`j`j`j`j`j`j`j`j`j`j`j`j`j`j`j`j`j`j`i`s`N`j`j`j`j`h`i`j`j`S`8`8`8`8`8`8`8`8`8`8`8`8`8`8`8`8`8",
"`8`8`8`8`8`8`8`8`8`8`8`8`8`8`8`8`8`h`4`8`8`8`8`F`H`8`8`8`8`4`i`6`6`6`6`6`6`6`6`6`6`6`6`6`6`6`6`6`6`6`6`6`6`6`6`6`6`6`6`6`6`6`7`8`6`6`6`6`v`I`6`6`8`8`8`8`8`8`8`8`8`8`8`8`8`8`8`8`8`8",
"`8`8`8`8`8`8`8`8`8`8`8`8`8`8`8`8`8`h`4`8`8`8`8`F`H`8`8`8`8`4`j`8`8`8`8`8`8`8`8`8`8`8`8`8`8`8`8`8`8`8`8`8`8`8`8`8`8`8`8`8`8`8`8`8`8`8`8`Z`#`h`7`8`8`8`8`8`8`8`8`8`8`8`8`8`8`8`8`8`8`8",
"`8`8`8`8`8`8`8`8`8`8`8`8`8`8`8`8`8`h`4`8`8`8`8`F`H`8`8`8`8`4`j`8`8`8`8`8`8`8`8`8`8`8`8`8`8`8`8`8`8`8`8`8`8`8`8`8`8`8`8`8`8`8`8`8`8`8`8`t`````O`8`8`8`8`8`8`8`8`8`8`8`8`8`8`8`8`8`8`8",
"`8`8`8`8`8`8`8`8`8`8`8`8`8`8`8`8`8`h`4`8`8`8`8`F`H`8`8`8`8`4`j`8`8`8`8`8`8`8`8`8`8`8`8`8`8`8`8`8`8`8`8`8`8`8`8`8`8`8`8`8`8`8`8`8`8`8`2`o`e`h`B`8`8`8`8`8`8`8`8`8`8`8`8`8`8`8`8`8`8`8",
"`8`8`8`8`8`8`8`8`8`8`8`8`8`8`8`8`8`h`4`8`8`8`8`F`H`8`8`8`8`4`j`8`8`8`8`8`8`8`8`8`8`8`8`8`8`8`8`8`8`8`8`8`8`8`8`8`8`8`8`8`8`8`8`8`8`8`8`8`F`P`8`8`8`8`8`8`8`8`8`8`8`8`8`8`8`8`8`8`8`8",
"`8`8`8`8`8`8`8`8`8`8`8`8`8`8`8`8`8`h`4`8`8`8`8`F`H`8`8`8`8`4`j`8`8`8`8`8`8`8`8`8`8`8`8`8`8`8`8`8`8`8`8`8`8`8`8`8`8`8`8`8`8`8`8`8`8`8`8`8`7`8`8`8`8`8`8`8`8`8`8`8`8`8`8`8`8`8`8`8`8`8",
"`8`8`8`8`8`8`8`8`8`8`8`8`8`8`8`8`8`h`4`8`8`8`8`F`H`8`8`8`8`4`j`8`8`8`8`8`8`8`8`8`8`8`8`8`8`8`8`8`8`8`8`8`8`8`8`8`8`8`8`8`8`8`8`8`8`8`8`8`8`8`8`8`8`8`8`8`8`8`8`8`8`8`8`8`8`8`8`8`8`8",
"`8`8`8`8`8`8`8`8`8`8`8`8`8`8`8`8`8`h`4`8`8`8`8`F`H`8`8`8`8`4`j`8`8`8`8`8`8`8`8`8`8`8`8`8`8`8`8`8`8`8`8`8`8`8`8`8`8`8`8`8`8`8`8`8`8`8`8`8`8`8`8`8`8`8`8`8`8`8`8`8`8`8`8`8`8`8`8`8`8`8",
"`8`8`8`8`8`8`8`8`8`8`8`8`8`8`8`8`8`h`4`8`8`8`8`F`H`8`8`8`8`4`j`8`8`8`8`8`8`8`8`8`8`8`8`8`8`8`8`8`8`8`8`8`8`8`8`8`8`8`8`8`8`8`8`8`8`8`8`8`8`8`8`8`8`8`8`8`8`8`8`8`8`8`8`8`8`8`8`8`8`8",
"`8`8`8`8`8`8`8`8`8`8`8`8`8`8`8`8`8`h`4`8`8`8`8`F`H`8`8`8`8`4`j`8`8`8`8`8`8`8`8`8`8`8`8`8`8`8`8`8`8`8`8`8`8`8`8`8`8`8`8`8`8`8`8`8`8`8`8`8`8`8`8`8`8`8`8`8`8`8`8`8`8`8`8`8`8`8`8`8`8`8",
"`8`8`8`8`8`8`8`8`8`8`8`8`8`8`8`8`8`h`4`8`8`8`8`F`H`8`8`8`8`4`j`8`8`8`8`8`8`8`8`8`8`8`8`8`8`8`8`8`8`8`8`8`8`8`8`8`8`8`8`8`8`8`8`8`8`8`8`8`8`8`8`8`8`8`8`8`8`8`8`8`8`8`8`8`8`8`8`8`8`8",
"`8`8`8`8`8`8`8`8`8`8`8`8`8`8`8`8`8`h`4`8`8`8`8`F`H`8`8`8`8`4`j`8`8`8`8`8`8`8`8`8`8`8`8`8`8`8`8`8`8`8`8`8`8`8`8`8`8`8`8`8`8`8`8`8`8`8`8`8`8`8`8`8`8`8`8`8`8`8`8`8`8`8`8`8`8`8`8`8`8`8",
"`8`8`8`8`8`8`8`8`8`8`8`8`8`8`8`8`8`h`4`8`8`8`8`F`H`8`8`8`8`4`j`8`8`8`8`8`8`8`8`8`8`8`8`8`8`8`8`8`8`8`8`8`8`8`8`8`8`8`8`8`8`8`8`8`8`8`8`8`8`8`8`8`8`8`8`8`8`8`8`8`8`8`8`8`8`8`8`8`8`8",
"`8`8`8`8`8`8`8`8`8`8`8`8`8`8`8`8`8`h`4`8`8`8`8`F`H`8`8`8`8`4`j`8`8`8`8`8`8`8`8`8`8`8`8`8`8`8`8`8`8`8`8`8`8`8`8`8`8`8`8`8`8`8`8`8`8`8`8`8`8`8`8`8`8`8`8`8`8`8`8`8`8`8`8`8`8`8`8`8`8`8",
"`8`8`8`8`8`8`8`8`8`8`8`8`8`8`8`8`8`h`4`8`8`8`8`F`H`8`8`8`8`4`j`8`8`8`8`8`8`8`8`8`8`8`8`8`8`8`8`8`8`8`8`8`8`8`8`8`8`8`8`8`8`8`8`8`8`8`8`8`8`8`8`8`8`8`8`8`8`8`8`8`8`8`8`8`8`8`8`8`8`8",
"`8`8`8`8`8`8`8`8`8`8`8`8`8`8`8`8`8`h`4`8`8`8`8`F`H`8`8`8`8`4`j`8`8`8`8`8`8`8`8`8`8`8`8`8`8`8`8`8`8`8`8`8`8`8`8`8`8`8`8`8`8`8`8`8`8`8`8`8`8`8`8`8`8`8`8`8`8`8`8`8`8`8`8`8`8`8`8`8`8`8",
"`8`8`8`8`8`8`8`8`8`8`8`8`8`8`8`8`8`h`4`8`8`8`8`F`H`8`8`8`8`4`j`8`8`8`8`8`8`Y`S`1`8`8`8`8`8`8`8`8`8`8`8`8`8`8`8`8`8`8`8`8`8`8`8`8`8`8`8`8`8`8`8`8`8`8`8`8`8`8`8`8`8`8`8`8`8`8`8`8`8`8",
"`8`8`8`8`8`8`8`8`8`8`8`8`8`8`8`8`8`h`4`8`8`8`8`F`H`8`8`8`8`4`j`8`8`8`8`8`8`q`C`W`8`8`8`8`8`8`8`8`8`8`8`8`8`8`8`8`8`8`8`8`8`8`8`8`8`8`8`8`8`8`8`8`8`8`8`8`8`8`8`8`8`8`8`8`8`8`8`8`8`8",
"`8`8`8`8`8`8`8`8`8`8`8`8`8`8`8`8`8`h`4`8`8`8`8`F`H`8`8`8`8`4`j`8`8`8`8`8`8`p`r`O`8`8`8`8`8`8`8`8`8`8`8`8`8`8`8`8`8`8`8`8`8`8`8`8`8`8`8`8`8`8`8`8`8`8`8`8`8`8`8`8`8`8`8`8`8`8`8`8`8`8",
"`8`8`8`8`8`8`8`8`8`8`8`8`8`8`8`8`8`h`4`8`8`8`8`F`H`8`8`8`8`4`j`8`8`8`8`8`7`P`T`y`8`8`8`8`8`8`8`8`8`8`8`8`8`8`8`8`8`8`8`8`8`8`8`8`8`8`8`8`8`8`8`8`8`8`8`8`8`8`8`8`8`8`8`8`8`8`8`8`8`8",
"`8`8`8`8`8`8`8`8`8`8`O`t`8`8`8`8`8`h`4`8`8`8`8`F`H`8`8`8`8`4`j`8`8`8`8`8`8`E`v`Z`8`8`8`8`8`8`8`8`8`8`8`8`8`8`8`8`8`8`8`8`8`8`8`8`8`8`8`8`8`8`8`8`8`8`8`8`8`8`8`8`8`8`8`8`8`8`8`8`8`8",
"`8`8`8`8`8`8`8`8`8`5`B`q`8`8`8`8`8`h`4`5`4`8`8`F`H`8`8`8`8`4`j`8`8`8`2`8`8`8`8`8`8`8`8`8`8`8`8`8`8`8`8`8`8`8`8`8`8`8`8`8`8`8`8`8`8`8`8`8`8`8`8`8`8`8`8`8`8`8`8`8`8`8`8`8`8`8`8`8`8`8",
"`8`8`8`8`8`8`8`8`8`8`2`q`8`8`8`8`8`h`4`X`b`A`1`F`H`8`8`8`8`4`j`6`M`j`z`8`8`8`8`8`8`8`8`8`8`8`8`8`8`8`8`8`8`8`8`8`8`8`8`8`8`8`8`8`8`8`8`8`8`8`8`8`8`8`8`8`8`8`8`8`8`8`8`8`8`8`8`8`8`8",
"`8`8`8`8`8`8`8`8`8`8`2`r`8`8`8`8`8`h`j`i`````#`i`e`k`k`k`k`j`c`g`````d`k`l`0`8`8`8`8`8`8`8`8`8`8`8`8`8`8`8`8`8`8`8`8`8`8`8`8`8`8`8`8`8`8`8`8`8`8`8`8`8`8`8`8`8`8`8`8`8`8`8`8`8`8`8`8",
"`8`8`8`8`8`8`8`8`8`8`8`5`8`8`8`8`8`h`Z`T```j`M`E`E`3`3`3`3`Z`j`X`u`.`x`3`3`8`8`8`8`8`8`8`8`8`8`8`8`8`8`8`8`8`8`8`8`8`8`8`8`8`8`8`8`8`8`8`8`8`8`8`8`8`8`8`8`8`8`8`8`8`8`8`8`8`8`8`8`8",
"`8`8`8`8`8`8`8`8`8`8`8`8`8`8`8`8`8`h`4`2`Q`7`8`F`H`8`8`8`8`4`j`8`8`0`S`8`8`8`8`8`8`8`8`8`8`8`8`8`8`8`8`8`8`8`8`8`8`8`8`8`8`8`8`8`8`8`8`8`8`8`8`8`8`8`8`8`8`8`8`8`8`8`8`8`8`8`8`8`8`8",
"`8`8`8`8`8`8`8`8`8`8`8`8`8`8`8`8`8`h`4`8`8`8`8`F`H`8`8`8`8`4`j`8`8`8`8`8`8`8`8`8`8`8`8`8`8`8`8`8`8`8`8`8`8`8`8`8`8`8`8`8`8`8`8`8`8`8`8`8`8`8`8`8`8`8`8`8`8`8`8`8`8`8`8`8`8`8`8`8`8`8",
"`8`8`8`8`8`8`8`8`8`8`8`8`8`8`8`8`8`h`4`8`8`8`8`F`H`8`8`8`8`4`j`8`8`8`8`8`8`8`8`8`8`8`8`8`8`8`8`8`8`8`8`8`8`8`8`8`8`8`8`8`8`8`8`8`8`8`8`8`8`8`8`8`8`8`8`8`8`8`8`8`8`8`8`8`8`8`8`8`8`8",
"`8`8`8`8`8`8`8`8`8`8`8`8`8`8`8`8`8`h`4`8`8`8`8`F`H`8`8`8`8`4`j`8`8`8`8`8`8`8`8`8`8`8`8`8`8`8`8`8`8`8`8`8`8`8`8`8`8`8`8`8`8`8`8`8`8`8`8`8`8`8`8`8`8`8`8`8`8`8`8`8`8`8`8`8`8`8`8`8`8`8",
"`8`8`8`8`8`8`8`8`8`8`8`8`8`8`8`8`8`h`4`8`8`8`8`F`H`8`8`8`8`4`j`8`8`8`8`8`8`8`8`8`8`8`8`8`8`8`8`8`8`8`8`8`8`8`8`8`8`8`8`8`8`8`8`8`8`8`8`8`8`8`8`8`8`8`8`8`8`8`8`8`8`8`8`8`8`8`8`8`8`8",
"`8`8`8`8`8`8`8`8`8`8`8`8`8`8`8`8`8`h`4`8`8`8`8`F`H`8`8`8`8`4`j`8`8`8`8`8`8`8`8`8`8`8`8`8`8`8`8`8`8`8`8`8`8`8`8`8`8`8`8`8`8`8`8`8`8`8`8`8`8`8`8`8`8`8`8`8`8`8`8`8`8`8`8`8`8`8`8`8`8`8",
"`8`8`8`8`8`8`8`8`8`8`8`8`8`8`8`8`8`h`4`8`8`8`8`F`H`8`8`8`8`4`j`8`8`8`8`8`8`8`8`8`8`8`8`8`8`8`8`8`8`8`8`8`8`8`8`8`8`8`8`8`8`8`8`8`8`8`8`8`8`8`8`8`8`8`8`8`8`8`8`8`8`8`8`8`8`8`8`8`8`8",
"`8`8`8`8`8`8`8`8`8`8`8`8`8`8`8`8`8`h`4`8`8`8`8`F`H`8`8`8`8`4`j`8`8`8`8`8`8`8`8`8`8`8`8`8`8`8`8`8`8`8`8`8`8`8`8`8`8`8`8`8`8`8`8`8`8`8`8`8`8`8`8`8`8`8`8`8`8`8`8`8`8`8`8`8`8`8`8`8`8`8",
"`8`8`8`8`8`8`8`8`8`8`8`8`8`8`8`8`8`h`4`8`8`8`8`F`H`8`8`8`8`4`j`8`8`8`8`8`8`8`8`8`8`8`8`8`8`8`8`8`8`8`8`8`8`8`8`8`8`8`8`8`8`8`8`8`8`8`8`8`8`8`8`8`8`8`8`8`8`8`8`8`8`8`8`8`8`8`8`8`8`8",
"`8`8`8`8`8`8`8`8`8`8`8`8`8`8`8`8`8`h`4`8`8`8`8`F`H`8`8`8`8`4`j`8`8`8`8`8`8`8`8`8`8`8`8`8`8`8`8`8`8`8`8`8`8`8`8`8`8`8`8`8`8`8`8`8`8`8`8`8`8`8`8`8`8`8`8`8`8`8`8`8`8`8`8`8`8`8`8`8`8`8",
"`8`8`8`8`8`8`8`8`8`8`8`8`8`8`8`8`8`h`4`8`8`8`8`F`H`8`8`8`8`4`j`8`8`8`8`8`8`8`8`8`8`8`8`8`8`8`8`8`8`8`8`8`8`8`8`8`8`8`8`8`8`8`8`8`8`8`8`8`8`8`8`8`8`8`8`8`8`8`8`8`8`8`8`8`8`8`8`8`8`8",
"`8`8`8`8`8`8`8`8`8`8`8`8`8`8`8`8`8`h`4`8`8`8`8`F`H`8`8`8`8`4`j`8`8`8`8`8`8`8`8`8`8`8`8`8`8`8`8`8`8`8`8`8`8`8`8`8`8`8`8`8`8`8`8`8`8`8`8`8`8`8`8`8`8`8`8`8`8`8`8`8`8`8`8`8`8`8`8`8`8`8",
"`8`8`8`8`8`8`8`8`8`8`8`8`8`8`8`8`8`h`4`8`8`8`8`F`H`8`8`8`8`4`j`8`8`8`8`8`8`8`8`8`8`8`8`8`8`8`8`8`8`8`8`8`8`8`8`8`8`8`8`8`8`8`8`8`8`8`8`8`8`8`8`8`8`8`8`8`8`8`8`8`8`8`8`8`8`8`8`8`8`8",
"`8`8`8`8`8`8`8`8`8`8`8`8`8`8`8`8`8`h`4`8`8`8`8`F`H`8`8`8`8`4`j`8`8`8`8`8`8`8`8`8`8`8`8`8`8`8`8`8`8`8`8`8`8`8`8`8`8`8`8`8`8`8`8`8`8`8`8`8`8`8`8`8`8`8`8`8`8`8`8`8`8`8`8`8`8`8`8`8`8`8",
"`8`8`8`8`8`8`8`8`8`8`8`8`8`8`8`8`8`h`4`8`8`8`8`F`H`8`8`8`8`4`j`8`8`8`8`8`8`8`8`8`8`8`8`8`8`8`8`8`8`8`8`8`8`8`8`8`8`8`8`8`8`8`8`8`8`8`8`8`8`8`8`8`8`8`8`8`8`8`8`8`8`8`8`8`8`8`8`8`8`8",
"`8`8`8`8`8`8`8`8`8`8`8`8`8`8`8`8`8`h`4`8`8`8`8`F`H`8`8`8`8`4`j`8`8`8`8`8`8`8`8`8`8`8`8`8`8`8`8`8`8`8`8`8`8`8`8`8`8`8`8`8`8`8`8`8`8`8`8`8`8`8`8`8`8`8`8`8`8`8`8`8`8`8`8`8`8`8`8`8`8`8",
"`8`8`8`8`8`8`8`8`8`8`8`8`8`8`8`8`8`h`4`8`8`8`8`F`H`8`8`8`8`4`j`8`8`8`8`8`8`8`8`8`8`8`8`8`8`8`8`8`8`8`8`8`8`8`8`8`8`8`8`8`8`8`8`8`8`8`8`8`8`8`8`8`8`8`8`8`8`8`8`8`8`8`8`8`8`8`8`8`8`8",
"`8`8`8`8`8`8`8`8`8`8`8`8`8`8`8`8`8`h`4`8`8`8`8`F`H`8`8`8`8`4`j`8`8`8`8`8`8`8`8`8`8`8`8`8`8`8`8`8`8`8`8`8`8`8`8`8`8`8`8`8`8`8`8`8`8`8`8`8`N`V`8`8`8`8`8`8`8`8`8`8`8`8`8`8`8`8`8`8`8`8",
"`8`8`8`8`8`8`8`8`8`8`8`8`8`8`8`8`8`h`4`8`8`8`8`F`H`8`8`8`8`4`j`8`8`8`8`8`8`8`8`8`8`8`8`8`8`8`8`8`8`8`8`8`8`8`8`8`8`8`8`8`8`8`8`8`8`8`3`E`m`t`L`8`8`8`8`8`8`8`8`8`8`8`8`8`8`8`8`8`8`8",
"`8`8`8`8`8`8`8`8`8`8`8`8`8`8`8`8`8`h`4`8`8`8`8`F`H`8`8`8`8`4`j`8`8`8`8`8`8`8`8`8`8`8`8`8`8`8`8`8`8`8`8`8`8`8`8`8`8`8`8`8`8`8`8`8`8`8`7`k`````G`8`8`8`8`8`8`8`8`8`8`8`8`8`8`8`8`8`8`8",
"`8`8`8`8`8`8`8`8`8`8`8`8`8`8`8`8`8`h`4`8`8`8`8`F`H`8`8`8`8`4`j`8`8`8`8`8`8`8`8`8`8`8`8`8`8`8`8`8`8`8`8`8`8`8`8`8`8`8`8`8`8`8`8`8`8`8`8`R```c`5`8`8`8`8`8`8`8`8`8`8`8`8`8`8`8`8`8`8`8",
"`8`8`8`8`8`8`8`8`8`8`8`8`8`8`8`8`8`h`4`8`8`8`8`F`H`8`8`8`8`4`j`8`8`8`8`8`8`8`8`8`8`8`8`8`8`8`8`8`8`8`8`8`8`8`8`8`8`8`8`8`8`8`8`8`8`8`8`8`o`C`8`8`8`8`8`8`8`8`8`8`8`8`8`8`8`8`8`8`8`8",
"`8`8`8`8`8`8`8`8`8`8`8`8`8`8`8`8`8`h`4`8`8`8`8`F`H`8`8`8`8`5`c`n`n`n`n`n`n`n`n`n`n`n`n`n`n`n`n`n`n`n`n`n`n`n`n`n`n`n`n`n`n`n`C`P`n`n`n`n`g`j`n`n`T`8`8`8`8`8`8`8`8`8`8`8`8`8`8`8`8`8",
"`8`8`8`8`8`8`8`8`8`8`8`8`8`8`8`8`8`h`4`8`8`8`8`F`H`8`8`8`8`8`0`Y`Y`Y`Y`Y`Y`Y`Y`Y`Y`Y`Y`Y`Y`Y`Y`Y`Y`Y`Y`Y`Y`Y`Y`Y`Y`Y`Y`Y`Y`Q`o`5`Y`Y`Y`Y`w`G`Y`Y`6`7`0`0`4`8`8`8`8`8`8`8`8`8`8`8`8`8",
"`8`8`8`8`8`8`8`8`8`8`8`8`8`8`8`7`3`g`Z`6`8`8`8`F`H`8`8`8`8`8`8`8`8`8`8`8`8`8`8`8`8`8`8`8`8`8`8`8`8`8`8`8`8`8`8`8`8`8`8`8`8`Z`o`8`8`8`8`8`A`M`8`8`8`4`y`j`K`8`8`8`8`8`8`8`8`8`8`8`8`8",
"`8`8`8`8`8`8`8`8`8`8`8`8`8`8`8`0`#`````O`8`8`8`F`H`8`8`8`8`8`8`8`8`8`8`8`8`8`8`8`8`8`8`8`8`8`8`8`8`8`8`8`8`8`8`8`8`8`8`8`8`Z`o`8`8`8`8`8`A`M`8`8`8`8`5`s`8`7`8`8`8`8`8`8`8`8`8`8`8`8",
"`8`8`8`8`8`8`8`8`8`8`8`8`8`8`8`8`u```i`7`8`8`8`F`H`8`8`8`8`8`8`8`8`8`8`8`8`8`8`8`8`8`8`8`8`8`8`8`8`8`8`8`8`8`8`8`8`8`8`8`8`Z`o`8`8`8`8`8`A`M`8`8`8`8`M`K`8`8`8`8`8`8`8`8`8`8`8`8`8`8",
"`8`8`8`8`8`8`8`8`8`8`8`8`8`8`8`8`X`.`L`8`8`8`8`F`H`8`8`8`8`8`8`8`8`8`8`8`8`8`8`8`8`8`8`8`8`8`8`8`8`8`8`8`8`8`8`8`8`8`8`8`8`Z`o`8`8`8`8`8`A`M`8`8`8`8`H`Y`8`8`8`8`8`8`8`8`8`8`8`8`8`8",
"`8`8`8`8`8`8`8`8`8`8`8`8`8`7`M`L`L`i`J`L`L`L`S`F`u`L`L`L`L`L`L`L`L`L`L`L`L`L`L`L`L`L`L`L`L`L`L`L`L`L`L`L`L`L`L`L`L`L`L`L`L`F`o`Z`L`L`L`L`p`x`L`L`1`8`8`8`8`8`8`8`8`8`8`8`8`8`8`8`8`8",
"`8`8`8`8`8`8`8`8`8`8`8`8`8`6`D`C`C`C`C`C`C`C`M`W`C`C`C`C`C`C`C`C`C`C`C`C`C`C`C`C`C`C`C`C`C`C`C`C`C`C`C`C`C`C`C`C`C`C`C`C`C`C`N`V`C`C`C`C`n`u`C`C`Y`8`8`8`8`8`8`8`8`8`8`8`8`8`8`8`8`8",
"`8`8`8`8`8`8`8`8`8`8`8`8`8`8`8`8`8`8`8`8`8`8`8`R`S`8`8`8`8`8`8`8`8`8`8`8`8`8`8`8`8`8`8`8`8`8`8`8`8`8`8`8`8`8`8`8`8`8`8`8`8`4`G`8`8`8`8`7`i`w`8`8`8`8`8`8`8`8`8`8`8`8`8`8`8`8`8`8`8`8",
"`8`8`8`8`8`8`8`8`8`8`8`8`8`8`8`8`8`8`8`8`8`8`8`F`H`8`8`8`8`8`8`8`8`8`8`8`8`8`8`8`8`8`8`8`8`8`8`8`8`8`8`8`8`8`8`8`8`8`8`8`8`Z`o`8`8`8`8`K```#`1`8`8`8`8`8`8`8`8`8`8`8`8`8`8`8`8`8`8`8",
"`8`8`8`8`8`8`8`8`8`8`8`8`8`8`8`8`8`8`8`8`8`8`8`F`H`8`8`8`8`8`8`8`8`8`8`8`8`8`8`8`8`8`8`8`8`8`8`8`8`8`8`8`8`8`8`8`8`8`8`8`8`Z`o`8`8`8`6`f`````A`8`8`8`8`8`8`8`8`8`8`8`8`8`8`8`8`8`8`8",
"`8`8`8`8`8`8`8`8`8`8`8`8`8`8`8`8`8`8`8`8`8`8`8`F`H`8`8`V`3`8`8`8`8`8`8`8`8`8`8`8`8`8`8`8`8`8`8`8`8`8`8`8`8`8`8`8`8`8`T`4`8`Z`o`8`8`8`4`Q`t`B`U`8`8`8`8`8`8`8`8`8`8`8`8`8`8`8`8`8`8`8",
"`8`8`8`8`8`8`8`8`8`8`8`8`8`8`8`8`8`8`8`8`8`8`8`F`H`R`o```V`7`7`7`7`7`7`7`7`7`7`7`7`7`7`7`7`7`7`7`7`7`7`7`7`7`7`7`7`7`t`c`B`T`o`8`8`8`8`8`3`5`8`8`8`8`8`8`8`8`8`8`8`8`8`8`8`8`8`8`8`8",
"`8`8`8`8`8`8`8`8`8`8`8`8`8`8`8`8`8`8`8`8`8`8`8`F`g```````f`i`i`i`i`i`i`i`i`i`i`i`i`i`i`i`i`i`i`i`i`i`i`i`i`i`i`i`i`i`b`````a`o`8`8`8`8`8`8`8`8`8`8`8`8`8`8`8`8`8`8`8`8`8`8`8`8`8`8`8",
"`8`8`8`8`8`8`8`8`8`8`8`8`8`8`8`8`8`8`8`8`8`8`8`F`H`Q`k```W`8`8`8`8`8`8`8`8`8`8`8`8`8`8`8`8`8`8`8`8`8`8`8`8`8`8`8`8`8`u`#`y`T`o`8`8`8`8`8`8`8`8`8`8`8`8`8`8`8`8`8`8`8`8`8`8`8`8`8`8`8",
"`8`8`8`8`8`8`8`8`8`8`8`8`8`8`8`8`8`8`8`8`8`8`8`F`H`8`7`M`0`8`8`8`8`8`8`8`8`8`8`8`8`8`8`8`8`8`8`8`8`8`8`8`8`8`8`8`8`8`M`Z`8`Z`o`8`8`8`8`8`8`8`8`8`8`8`8`8`8`8`8`8`8`8`8`8`8`8`8`8`8`8",
"`8`8`8`8`8`8`8`8`8`8`8`8`8`8`8`8`8`8`8`8`8`8`8`G`I`8`8`8`8`8`8`8`8`8`8`8`8`8`8`8`8`R`J`8`8`8`8`8`8`8`8`8`8`8`8`8`8`8`8`8`8`Z`p`8`8`8`8`8`8`8`8`8`8`8`8`8`8`8`8`8`8`8`8`8`8`8`8`8`8`8",
"`8`8`8`8`8`8`8`8`8`8`8`8`8`8`8`8`8`8`8`8`8`8`8`4`5`8`8`8`8`8`8`8`8`8`8`8`8`8`8`8`3`l`z`8`8`8`8`8`8`8`8`8`8`8`8`8`8`8`8`8`8`8`2`8`8`8`8`8`8`8`8`8`8`8`8`8`8`8`8`8`8`8`8`8`8`8`8`8`8`8",
"`8`8`8`8`8`8`8`8`8`8`8`8`8`8`8`8`8`8`8`8`8`8`8`8`8`8`8`8`8`8`8`8`8`8`8`8`8`8`8`8`w`B`u`8`8`8`8`8`8`8`8`8`8`8`8`8`8`8`8`8`8`8`8`8`8`8`8`8`8`8`8`8`8`8`8`8`8`8`8`8`8`8`8`8`8`8`8`8`8`8",
"`8`8`8`8`8`8`8`8`8`8`8`8`8`8`8`8`8`8`8`8`8`8`8`8`8`8`8`8`8`8`8`8`8`8`8`8`8`8`8`8`K`x`n`7`8`8`8`8`8`8`8`8`8`8`8`8`8`8`8`8`8`8`8`8`8`8`8`8`8`8`8`8`8`8`8`8`8`8`8`8`8`8`8`8`8`8`8`8`8`8",
"`8`8`8`8`8`8`8`8`8`8`8`8`8`8`8`8`8`8`8`8`8`8`8`8`8`8`8`8`8`8`8`8`8`8`8`8`8`8`8`8`8`4`Y`8`8`8`8`8`8`8`8`8`8`8`8`8`8`8`8`8`8`8`8`8`8`8`8`8`8`8`8`8`8`8`8`8`8`8`8`8`8`8`8`8`8`8`8`8`8`8",
"`8`8`8`8`8`8`8`8`8`8`8`8`8`8`8`8`8`8`8`8`8`8`8`8`8`8`8`8`8`8`8`8`8`8`8`8`8`8`8`8`8`8`8`8`8`8`8`8`8`8`8`8`8`8`8`8`8`8`8`8`8`8`8`8`8`8`8`8`8`8`8`8`8`8`8`8`8`8`8`8`8`8`8`8`8`8`8`8`8`8"
};
