/* XPM */
static char *select_arrow[] = {
/* width height num_colors chars_per_pixel */
"    36    36      256            2",
/* colors */
"`` c None",
"`. c #d6d7ce",
"`# c #ded7d6",
"`a c #efefef",
"`b c #e7e3de",
"`c c #dedbd6",
"`d c #f7f3ef",
"`e c #ffffff",
"`f c #fffbf7",
"`g c #e7e7de",
"`h c #efe7de",
"`i c #fffff7",
"`j c #fffbef",
"`k c #f7f3de",
"`l c #efe7d6",
"`m c #dedbce",
"`n c #ffffef",
"`o c #ffffe7",
"`p c #f7f7d6",
"`q c #efebce",
"`r c #dedfce",
"`s c #d6cfc6",
"`t c #fff7de",
"`u c #ffffde",
"`v c #ffffd6",
"`w c #f7f7ce",
"`x c #e7dfc6",
"`y c #cecbc6",
"`z c #fffbe7",
"`A c #ffffce",
"`B c #fff7c6",
"`C c #efebbd",
"`D c #e7dfbd",
"`E c #d6d3c6",
"`F c #fffbde",
"`G c #fffbc6",
"`H c #efe7bd",
"`I c #cecfbd",
"`J c #cecfc6",
"`K c #d6cfce",
"`L c #d6cfbd",
"`M c #fff7ce",
"`N c #fffbce",
"`O c #cecfb5",
"`P c #b5aea5",
"`Q c #bdb6b5",
"`R c #c6c3bd",
"`S c #cecbbd",
"`T c #f7efc6",
"`U c #fffbd6",
"`V c #efefd6",
"`W c #ada69c",
"`X c #848684",
"`Y c #94928c",
"`Z c #a5a29c",
"`0 c #b5b6ad",
"`1 c #efe3bd",
"`2 c #dedbc6",
"`3 c #84867b",
"`4 c #6b696b",
"`5 c #737573",
"`6 c #9c9a94",
"`7 c #b5aead",
"`8 c #cecfce",
".` c #ded7b5",
".. c #fff7bd",
".# c #7b7573",
".a c #636163",
".b c #7b7973",
".c c #8c8a8c",
".d c #cec7c6",
".e c #d6cfb5",
".f c #fff3b5",
".g c #7b7d7b",
".h c #8c8a84",
".i c #a59e9c",
".j c #b5b2ad",
".k c #f7ebad",
".l c #fff7b5",
".m c #9c9694",
".n c #9c9e9c",
".o c #e7dfa5",
".p c #fff7ad",
".q c #f7f3ce",
".r c #efebe7",
".s c #bdbeb5",
".t c #bdbab5",
".u c #ded3ad",
".v c #fff3a5",
".w c #d6d3ad",
".x c #a59e8c",
".y c #ffef9c",
".z c #efe3ad",
".A c #848273",
".B c #63615a",
".C c #adaa94",
".D c #fff7d6",
".E c #f7e794",
".F c #fff394",
".G c #a59e7b",
".H c #6b6563",
".I c #73716b",
".J c #cec7a5",
".K c #e7df94",
".L c #fff38c",
".M c #cec38c",
".N c #847d7b",
".O c #949284",
".P c #dedbb5",
".Q c #e7dfd6",
".R c #c6c7bd",
".S c #ded39c",
".T c #efdf8c",
".U c #8c8684",
".V c #f7ebc6",
".W c #cec7b5",
".X c #bdb6a5",
".Y c #adaaa5",
".Z c #bdbaa5",
".0 c #fff3ce",
".1 c #c6bebd",
".2 c #cec7ad",
".3 c #e7e7e7",
".4 c #a5a6a5",
".5 c #adaead",
".6 c #efebde",
".7 c #949694",
".8 c #b5b6b5",
"#` c #adaa9c",
"#. c #e7dfb5",
"## c #efe7ce",
"#a c #6b6963",
"#b c #b5ae9c",
"#c c #f7ebbd",
"#d c #fff3c6",
"#e c #9c968c",
"#f c #636563",
"#g c #6b6d6b",
"#h c #bdb69c",
"#i c #8c8e8c",
"#j c #ada6a5",
"#k c #84827b",
"#l c #000000",
"#m c #000000",
"#n c #000000",
"#o c #000000",
"#p c #000000",
"#q c #000000",
"#r c #000000",
"#s c #000000",
"#t c #000000",
"#u c #000000",
"#v c #000000",
"#w c #000000",
"#x c #000000",
"#y c #000000",
"#z c #000000",
"#A c #000000",
"#B c #000000",
"#C c #000000",
"#D c #000000",
"#E c #000000",
"#F c #000000",
"#G c #000000",
"#H c #000000",
"#I c #000000",
"#J c #000000",
"#K c #000000",
"#L c #000000",
"#M c #000000",
"#N c #000000",
"#O c #000000",
"#P c #000000",
"#Q c #000000",
"#R c #000000",
"#S c #000000",
"#T c #000000",
"#U c #000000",
"#V c #000000",
"#W c #000000",
"#X c #000000",
"#Y c #000000",
"#Z c #000000",
"#0 c #000000",
"#1 c #000000",
"#2 c #000000",
"#3 c #000000",
"#4 c #000000",
"#5 c #000000",
"#6 c #000000",
"#7 c #000000",
"#8 c #000000",
"a` c #000000",
"a. c #000000",
"a# c #000000",
"aa c #000000",
"ab c #000000",
"ac c #000000",
"ad c #000000",
"ae c #000000",
"af c #000000",
"ag c #000000",
"ah c #000000",
"ai c #000000",
"aj c #000000",
"ak c #000000",
"al c #000000",
"am c #000000",
"an c #000000",
"ao c #000000",
"ap c #000000",
"aq c #000000",
"ar c #000000",
"as c #000000",
"at c #000000",
"au c #000000",
"av c #000000",
"aw c #000000",
"ax c #000000",
"ay c #000000",
"az c #000000",
"aA c #000000",
"aB c #000000",
"aC c #000000",
"aD c #000000",
"aE c #000000",
"aF c #000000",
"aG c #000000",
"aH c #000000",
"aI c #000000",
"aJ c #000000",
"aK c #000000",
"aL c #000000",
"aM c #000000",
"aN c #000000",
"aO c #000000",
"aP c #000000",
"aQ c #000000",
"aR c #000000",
"aS c #000000",
"aT c #000000",
"aU c #000000",
"aV c #000000",
"aW c #000000",
"aX c #000000",
"aY c #000000",
"aZ c #000000",
"a0 c #000000",
"a1 c #000000",
"a2 c #000000",
"a3 c #000000",
"a4 c #000000",
"a5 c #000000",
"a6 c #000000",
"a7 c #000000",
"a8 c #000000",
/* pixels */
"````````````````````````````````````````````````````````````````````````",
"````````````````````````````````````````````````````````````````````````",
"````````````````````````````````````````````````````````````````````````",
"`````````````.``````````````````````````````````````````````````````````",
"```````````#`a`b`c`.````````````````````````````````````````````````````",
"`````````````d`e`f`d`g`c````````````````````````````````````````````````",
"`````````````h`i`e`e`i`j`k`l`m`.````````````````````````````````````````",
"`````````````m`j`i`e`e`i`n`o`o`p`q`r`.``````````````````````````````````",
"`````````````s`t`n`i`e`e`i`i`n`o`u`v`w`q`x`.````````````````````````````",
"`````````````y`q`z`n`i`e`e`i`i`n`o`u`v`A`A`B`C`D`E``````````````````````",
"`````````````y`x`F`z`n`i`e`e`i`i`n`o`u`u`A`A`G`H`I`J````````````````````",
"`````````````K`L`M`F`z`n`i`e`e`i`i`n`o`u`u`N`O`P`Q`R`y``````````````````",
"```````````````S`T`U`F`z`n`i`e`e`i`i`n`o`V`W`X`Y`Z`0`R`K````````````````",
"```````````````y`1`G`U`F`z`n`i`e`e`i`n`2`3`4`5`X`6`7`R`8````````````````",
"```````````````y.`..`G`U`F`z`n`i`e`e`b.#.a`4.b.c`Z`Q.d`K````````````````",
"```````````````K.e.f..`B`U`F`z`n`i`e`e`y.g.#.h.i.j`R`J``````````````````",
"`````````````````S.k.l..`B`N`F`z`n`i`e`e`c.m.n.j`R`J````````````````````",
"`````````````````y.o.p.l..`B`M.q`F`n`i`e`e.r.s.t`y``````````````````````",
"`````````````````J.u.v.p.l...w.x.q`F`o`i`e`e`d`y.d`K````````````````````",
"`````````````````K.e.y.v.p.z.A.B.C.D`F`o`n`i`e`f`..d`K``````````````````",
"```````````````````S.E.F.y.G.a.H.I.J`U`F`o`n`i`e`f`m.d`8````````````````",
"```````````````````y.K.L.M.I`4`5.N.O.P`U`F`o`n`i`e`e.Q.R`y``````````````",
"```````````````````8.S.T.O.#.b.U.m.n`W.V`U`F`o`n`i`e`e`g`y`y````````````",
"```````````````````K.W.X`Y`X.h.n`7.j.Y.Z.0`U`F`o`n`i`e`e`c.1`y``````````",
"````````````````````.d`Q`Z.m.i.j.1`R.t.Y.2`M`U`F`o`n`i.3.4.5.1`y````````",
"`````````````````````J`R.j.5.j`R`y`K.d.t`W.u`N`U`F`o.6.7`X`6`0.d`K``````",
"```````````````````````y`R.1`R`y`````K.d.8#`#.`N`U##.h#a.b`Y.5`R`K``````",
"`````````````````````````8`J`K`````````K`R`7#b#c#d#e#f#g.N.m.j.R`K``````",
"`````````````````````````````````````````J.1.Y#h.C.I#g.b#i.4.t`y````````",
"```````````````````````````````````````````y.s#j`Y#k.N#i`Z`Q.d`K````````",
"````````````````````````````````````````````.d.t#j`6.m.4`Q.d`K``````````",
"`````````````````````````````````````````````K.d.t.j.j.t.d`K````````````",
"```````````````````````````````````````````````K`y.d.d`y`K``````````````",
"```````````````````````````````````````````````````K`K``````````````````",
"````````````````````````````````````````````````````````````````````````",
"````````````````````````````````````````````````````````````````````````"
};
