/* XPM */
static char *settings[] = {
/* width height num_colors chars_per_pixel */
"    36    36      150            2",
/* colors */
"`` c #656579",
"`. c #696579",
"`# c #6d6d71",
"`a c #69697d",
"`b c #6d6d7d",
"`c c #71716d",
"`d c #757171",
"`e c #757571",
"`f c #757575",
"`g c #71717d",
"`h c #757579",
"`i c #75757d",
"`j c #797975",
"`k c #7d7975",
"`l c #797979",
"`m c #7d7979",
"`n c #7d7d79",
"`o c #555581",
"`p c #555585",
"`q c #505089",
"`r c #505589",
"`s c #555589",
"`t c #555985",
"`u c #555989",
"`v c #595981",
"`w c #595985",
"`x c #5d5d81",
"`y c #5d5d85",
"`z c #595989",
"`A c #59598d",
"`B c #595d8d",
"`C c #5d5d89",
"`D c #5d5d8d",
"`E c #616181",
"`F c #616185",
"`G c #656581",
"`H c #61618d",
"`I c #65658d",
"`J c #6d6981",
"`K c #69698d",
"`L c #6d6d89",
"`M c #656591",
"`N c #656991",
"`O c #696991",
"`P c #696995",
"`Q c #6d6d95",
"`R c #757181",
"`S c #757185",
"`T c #757585",
"`U c #7d7d85",
"`V c #717191",
"`W c #717195",
"`X c #757591",
"`Y c #717199",
"`Z c #757599",
"`0 c #7d7d95",
"`1 c #797999",
"`2 c #7d7d9d",
"`3 c #817d79",
"`4 c #817d7d",
"`5 c #81817d",
"`6 c #85817d",
"`7 c #858181",
"`8 c #858581",
".` c #85858d",
".. c #898581",
".# c #898585",
".a c #898985",
".b c #8d8985",
".c c #8d8d89",
".d c #818199",
".e c #81819d",
".f c #85859d",
".g c #8d8991",
".h c #898999",
".i c #8d8d99",
".j c #918d89",
".k c #918d8d",
".l c #91918d",
".m c #95918d",
".n c #959191",
".o c #959591",
".p c #999591",
".q c #999995",
".r c #9d9995",
".s c #9d9999",
".t c #9d9d99",
".u c #8181a1",
".v c #8585a1",
".w c #8985a5",
".x c #8989a5",
".y c #8d8da1",
".z c #9191a5",
".A c #9595a1",
".B c #9999a1",
".C c #9999aa",
".D c #9999ae",
".E c #9d9dae",
".F c #a19d99",
".G c #a1a19d",
".H c #a5a19d",
".I c #a5a5a1",
".J c #a1a1ae",
".K c #aaa5a1",
".L c #aaaaa5",
".M c #aeaaa5",
".N c #aeaaae",
".O c #aeaeaa",
".P c #a5a1b2",
".Q c #aeaeb6",
".R c #b2aeaa",
".S c #b2aeae",
".T c #b2aeb6",
".U c #b2aeba",
".V c #b2b2ae",
".W c #b6b2ae",
".X c #b6b2b6",
".Y c #b6b6b2",
".Z c #b2b2ba",
".0 c #b6b6ba",
".1 c #bab6b2",
".2 c #bab6be",
".3 c #babab2",
".4 c #babab6",
".5 c #bebab6",
".6 c #bebeb6",
".7 c #bababe",
".8 c #bebabe",
"#` c #bebeba",
"#. c #c2beba",
"## c #c2bec2",
"#a c #c2c2ba",
"#b c #c2c2be",
"#c c #c6c2be",
"#d c #c6c6be",
"#e c #c6c2c2",
"#f c #c6c2c6",
"#g c #c6c6c2",
"#h c #cac6c2",
"#i c #cac6c6",
"#j c #cacac2",
"#k c #cacac6",
"#l c #cecac6",
"#m c #cecec6",
"#n c #cecaca",
"#o c #cececa",
"#p c #d2ceca",
"#q c #d2d2ca",
"#r c #d2d2ce",
"#s c None",
/* pixels */
"#s#s#s#s#s#s#s#s#s#s#s#s#s#s#s#s#s#s#s#s#s#s#s#s#s#s#s#s#s#s#s#s#s#s#s#s",
"#s#s#s#s#s#s#s#s#s#s#s#s#s#s#s#s#s#s#s#s#s#s#s#s#s#s#i.2.Z#r#s#s#s#s#s#s",
"#s#s#s#s#s#s#s#s#s#s#s#s#s#s#s#s#s#s#s#s#s#s#s#s#n.D`M`B.E#m#p#q#s#s#s#s",
"#s#s#s#s#s#s#s#s#s#s#s#s#s#s#s#s#s#s#s#s#s#s#s#q.P`r`q.u#c#h#l#p#q#s#s#s",
"#s#s#s#s#s#s#s#s#s#s#s#s#s#s#s#s#s#s#s#s#s#s#q#l`Y`q`D.N.5#a#h#l#q#s#s#s",
"#s#s#s#s#s#s#s#s#s#s#s#s#s#s#s#s#s#s#s#s#s#s#q#g`M`q`s.A.R.4#c#l#p#s#s#s",
"#s#s#s#s#s#s#s#s#s#s#s#s#s#s#s#s#s#s#s#s#s#q#p#b`M`q`q`X.K.W#.#j#e#l#s#s",
"#s#s#s#s#s#s#s#s#s#s#s#s#s#s#s#s#s#s#s#s#s#q#l.T`A`q`q`C.s.R.6#b.v.7#q#q",
"#s#s#s#s#s#s#s#s#s#s#s#s#s#s#s#s#s#s#s#s#s#p#e`1`q`q`q`q`K.i.V.z`A.0#l#p",
"#s#s#s#s#s#s#s#s#s#s#s#s#s#s#s#s#s#s#s#s#q#e.e`q`q`q`q`q`q`q`I`z`D.X#h#l",
"#s#s#s#s#s#s#s#s#s#s#s#s#s#s#s#s#s#s#s#q##`Y`W`M`q`q`q`q`q`q`q`q`W.Y#.#h",
"#s#s#s#s#s#s#s#s#s#s#s#s#s#s#s#s#s#s#q##`Y`1.f`K`z`q`q`q`q`q`q`z.h.O.1#b",
"#s#s#s#s#s#s#s#s#s#s#s#s#s#s#s#s#s#q##`Y`Z`Z`q`q`q`q`v```.`b`S.`.r.K.W#.",
"#s#s#s#s#s#s#s#s#s#s#s#s#s#s#s#s#q.U`Y`2`M`q`q`q`q`x`#`c`e`n`8.j.q.K.Y#b",
"#s#s#s#s#s#s#s#s#s#s#s#s#s#s#s#q.U`N.u`O`q`q`q`q`E`f`e`j`5...j.p.G.O.5#d",
"#s#s#s#s#s#s#s#s#s#s#s#s#s#s#q.Q`N`Z`H`q`q`q`q`G`l`n`5.a.l.q.F.K.R.1#b#l",
"#s#s#s#s#s#s#s#s#s#s#s#s#s#p.P`P`Z`D`q`q`q`r`G`l`n`8.k.r.I.M.W.1#`#c#j#p",
"#s#s#s#s#s#s#s#s#s#s#s#s#p.D`M.e`D`q`q`q`r`J`l`3.#.m.G.O.1#`#b#d#h#l#p#q",
"#s#s#s#s#s#s#s#s#s#s#s#p.D`M.e`D`q`q`q`r`a`l`4.a.o.H.V.6#c#j#l#p#p#q#q#s",
"#s#s#s#s#s#s#s#s#s#s#o.D`W`Z`u`q`q`q`t`b`j`4.a.p.I.W#.#h#l#p#q#q#s#s#s#s",
"#s#s#s#s#s#s#s#s#q#k.v`Q.e`s`q`q`q`t`g`k`5.a.p.K.W#.#h#m#q#s#s#s#s#s#s#s",
"#s#s#s#s#p.Z.U#e.8.u`q`Q`s`q`q`q`w`g`m`5.b.q.K.Y#a#j#p#q#s#s#s#s#s#s#s#s",
"#s#s#s#f.w`A`s`H`D`q`q`q`q`q`q`y`i`n`5.c.q.L.1#b#j#p#q#s#s#s#s#s#s#s#s#s",
"#s#s#q.x`q`q`q`q`q`q`q`q`q`q`y`h`n`6.c.r.M.1#c#l#p#q#s#s#s#s#s#s#s#s#s#s",
"#s#q.2`D`s`A`q`q`q`q`q`q`q`y`h`n`7.j.t.M.3#c#l#p#q#s#s#s#s#s#s#s#s#s#s#s",
"#s#p.E`q.d.B`V`z`q`q`q`q`E`f`m`7.k.F.O.5#c#l#p#q#s#s#s#s#s#s#s#s#s#s#s#s",
"#s#m.C`1.L.F.n`U`p`q`q`p`#`j`5.k.F.O.5#d#l#p#q#s#s#s#s#s#s#s#s#s#s#s#s#s",
"#s#l.0.S.M.F.m.a`F`q`q`o`d`4.j.F.R.5#h#l#p#s#s#s#s#s#s#s#s#s#s#s#s#s#s#s",
"#s#l#d.5.R.I.r.l`T`q`q`p`l.a.r.O.5#h#l#q#s#s#s#s#s#s#s#s#s#s#s#s#s#s#s#s",
"#s#m#h#..1.R.L.G.g`s`q`y`7.n.K.1#d#l#q#s#s#s#s#s#s#s#s#s#s#s#s#s#s#s#s#s",
"#s#p#l#h#b#`.1.R`0`q`q`R.c.F.R#.#l#p#s#s#s#s#s#s#s#s#s#s#s#s#s#s#s#s#s#s",
"#s#q#p#l#l#h#c.z`s`s`L.c.p.K.1#d#m#q#s#s#s#s#s#s#s#s#s#s#s#s#s#s#s#s#s#s",
"#s#s#q#p#p#m#h.J.y.i.q.p.F.O.6#h#p#s#s#s#s#s#s#s#s#s#s#s#s#s#s#s#s#s#s#s",
"#s#s#s#s#q#p#l#c.3.M.H.G.L.1#c#l#q#s#s#s#s#s#s#s#s#s#s#s#s#s#s#s#s#s#s#s",
"#s#s#s#s#s#q#m#h.6.W.M.O.W#.#h#p#q#s#s#s#s#s#s#s#s#s#s#s#s#s#s#s#s#s#s#s",
"#s#s#s#s#s#q#p#j#c.5.1.4#.#h#l#q#s#s#s#s#s#s#s#s#s#s#s#s#s#s#s#s#s#s#s#s"
};
