/* XPM */
static char *tlAssignBC[] = {
/* width height num_colors chars_per_pixel */
"    18    18        6            1",
/* colors */
"` c #008100",
". c #00ff00",
"# c #810000",
"a c #ff0000",
"b c none",
"c c #ffffff",
/* pixels */
"bbbbbbbbbbbbbbbbbb",
"bbbbbbbbbbbbbbbbbb",
"bbbbbbbbbbbbbbbbbb",
"bbbbbbbbbbbbbbbbbb",
"bbbb####bbcbbcbbbb",
"bbbaaaa#bc.bc.bbbb",
"bbbaaaa#c..c..bbbb",
"bbbaaaa#b``b``bbbb",
"bbbaaaabbb`bb`bbbb",
"bbbbbcbbbbbbbbbbbb",
"bbbbc.`bbbbbbbbbbb",
"bbbc..``bbbbbbbbbb",
"bbbbbcbbbbbbbbbbbb",
"bbbbc.`bbbbbbbbbbb",
"bbbc..``bbbbbbbbbb",
"bbbbbbbbbbbbbbbbbb",
"bbbbbbbbbbbbbbbbbb",
"bbbbbbbbbbbbbbbbbb"
};
