/* XPM */
static char *tlClearMaterial[] = {
/* width height num_colors chars_per_pixel */
"    18    18        6            1",
/* colors */
"` c #000081",
". c #810000",
"# c none",
"a c #818181",
"b c #c2c2c2",
"c c #ffffff",
/* pixels */
"#######`###`######",
"###.####`#`####.##",
"##...#...`...#...#",
"###.####`#`####.##",
"#######`###`######",
"#####ccccccccca###",
"####cccccccccaa###",
"###cccccccccaaa###",
"###cbbbbbbbbaaa###",
"###cbbbbbbbbaaa###",
"###cbbbbbbbbaaa###",
"###cbbbbbbbbaaa###",
"###cbbbbbbbbaaa###",
"###cbbbbbbbbaaa###",
"###cbbbbbbbbaa####",
"###cbbbbbbbaa#####",
"###aaaaaaaaa######",
"##################"
};
