/* XPM */
static char *tlInspCond[] = {
/* width height num_colors chars_per_pixel */
"    18    18       16            1",
/* colors */
"` c #000000",
". c #800000",
"# c #008000",
"a c None",
"b c #000080",
"c c #800080",
"d c #008080",
"e c #c0c0c0",
"f c #808080",
"g c #ff0000",
"h c #00ff00",
"i c #ffff00",
"j c #0000ff",
"k c #ff00ff",
"l c #00ffff",
"m c #ffffff",
/* pixels */
"aaaaaaaaaaaaaaaaaa",
"aaaaaaaa``````abba",
"aaaaaaa`mmmmmm`bbf",
"a`eeee`m`mmmmmmbbf",
"a`mme`m`m`mmmmmbbf",
"a`mm`m`m`m`mmm`bbf",
"a`e`m`f`m`m```fbbf",
"a`mf`.g.`m`fffmfbf",
"a`mm.mmef`fmmemmff",
"a`egeeeeefgeeeeeea",
"a`gmemmemmegmemmea",
"a`mmemmemmemgemmea",
"a`eeeeeeeeeeegggga",
"a`mmemmemmemmemmea",
"a`mmemmemmemmemmea",
"a````````````````a",
"aaaaaaaaaaaaaaaaaa",
"aaaaaaaaaaaaaaaaaa"
};
aaaaaaaa",
"aaaaaaaaaaaaaaaaaa"
};
