/* XPM */
static char *tlInspNodeLoad[] = {
/* width height num_colors chars_per_pixel */
"    18    18        6            1",
/* colors */
"` c #000000",
". c #000081",
"# c #810000",
"a c #ff0000",
"b c none",
"c c #ffffff",
/* pixels */
"bbbbbbbbbbbbbbbbbb",
"bbbbba#bbbbbbbbbbb",
"bbbbba#bbbbbbbbbbb",
"bbbbba#bbbbbbbbbbb",
"bbbbba#b``````b..b",
"bbbbba#`cccccc`..b",
"bbbbba`c`cccccc..b",
"bbbbb`c`c`ccccc..b",
"bbbb`c`c`c`ccc`..b",
"bbb`c`#`c`c```b..b",
"bbbb`a#b`c`bbbbb.b",
"bbbbba#bb`bbbbbbbb",
"bbbbba#bbbbbbbbbbb",
"bbaa######bbbbbbbb",
"bbbaa####bbbbbbbbb",
"bbbbaa##bbbbbbbbbb",
"bbbbba#bbbbbbbbbbb",
"bbbbbbbbbbbbbbbbbb"
};
