/* XPM */
static char *tlPrint[] = {
/* width height num_colors chars_per_pixel */
"    18    18       16            1",
/* colors */
"` c #000000",
". c #800000",
"# c #008000",
"a c None",
"b c #000080",
"c c #800080",
"d c #008080",
"e c #c0c0c0",
"f c #808080",
"g c #ff0000",
"h c #00ff00",
"i c #ffff00",
"j c #0000ff",
"k c #ff00ff",
"l c #00ffff",
"m c #ffffff",
/* pixels */
"aaaaaaaaaaaaaaaaaa",
"aaaaaaaaaaaaaaaaaa",
"aaaaaa`````````aaa",
"aaaaa`mmmmmmmm`aaa",
"aaaaa`m`````m`aaaa",
"aaaa`mmmmmmmm`aaaa",
"aaaa`m`````m````aa",
"aaa`mmmmmmmm`e`e`a",
"aa``````````e`e``a",
"a`eeeeeeeeee`e`e`a",
"a`````````````ee`a",
"a`eeeeeefffee`e`aa",
"a`eeeeeeiiiee```aa",
"a`````````````e`aa",
"aa`eeeeeeeee`e`aaa",
"aaa```````````aaaa",
"aaaaaaaaaaaaaaaaaa",
"aaaaaaaaaaaaaaaaaa"
};
