/* XPM */
static char *tlProp[] = {
/* width height num_colors chars_per_pixel */
"    18    18       16            1",
/* colors */
"` c #000000",
". c #800000",
"# c #008000",
"a c None",
"b c #000080",
"c c #800080",
"d c #008080",
"e c #c0c0c0",
"f c #808080",
"g c #ff0000",
"h c #00ff00",
"i c #ffff00",
"j c #0000ff",
"k c #ff00ff",
"l c #00ffff",
"m c #ffffff",
/* pixels */
"aaaaaaaaaaaaaaaaaa",
"aaaaaaaaaaaaaaaaaa",
"aa```aaaaaaaaaaaaa",
"aaa`a`````aaaaaaaa",
"aaaa``mimi`aaaaaaa",
"aaa`im`mi`i`aaaaaa",
"aaa`mimi`imi`aaaaa",
"aaa`imi`m`imi`aaaa",
"aaa`mi`m`m`i`i`aaa",
"aaaa`mi`m`imimi`aa",
"aaaaa`mi`m`imim`aa",
"aaaaaa`mi`m`im`aaa",
"aaaaaaa`mimim`aaaa",
"aaaaaaaa`mim`aaaaa",
"aaaaaaaaa`m`aaaaaa",
"aaaaaaaaaa`aaaaaaa",
"aaaaaaaaaaaaaaaaaa",
"aaaaaaaaaaaaaaaaaa"
};
aaaaaaaa",
"aaaaaaaaaaaaaaaaaa"
};
