/* XPM */
static char *tlqdel[] = {
/* width height num_colors chars_per_pixel */
"    18    18       16            1",
/* colors */
"` c #000000",
". c #800000",
"# c #008000",
"a c None",
"b c #000080",
"c c #800080",
"d c #008080",
"e c #c0c0c0",
"f c #808080",
"g c #ff0000",
"h c #00ff00",
"i c #ffff00",
"j c #0000ff",
"k c #ff00ff",
"l c #00ffff",
"m c #ffffff",
/* pixels */
"aaaaaaaaaaaaaaaaaa",
"aa`aaaaaaaaaaaaaaa",
"a`````aaaaaaaaaaaa",
"aa`ddd``````aaa`aa",
"aaa`dddddddd`````a",
"aaa`ddddddddddd`aa",
"aaaa`ddddddddd`aaa",
"aaaa`ddddddddd`aaa",
"aaaa`ddddddddd`aaa",
"aaaaa`dddddddd`aaa",
"aaaaa`ddddddd`aaaa",
"aaaaaa`dddddd`aaaa",
"aaaaa```ddddd`aaaa",
"aaaaaa`a``ddd`aaaa",
"aaaaaaaaaa```aaaaa",
"aaaaaaaaaaa```aaa`",
"aaaaaaaaaaaa`aaa``",
"aaaaaaaaaaaaaaa```"
};
aa`aaa``",
"aaaaaaaaaaaaaaa```"
};
