/* XPM */
static char *tlQload[] = {
/* width height num_colors chars_per_pixel */
"    18    18       16            1",
/* colors */
"` c #000000",
". c #800000",
"# c #008000",
"a c None",
"b c #000080",
"c c #800080",
"d c #008080",
"e c #c0c0c0",
"f c #808080",
"g c #ff0000",
"h c #00ff00",
"i c #ffff00",
"j c #0000ff",
"k c #ff00ff",
"l c #00ffff",
"m c #ffffff",
/* pixels */
"aaaaaa`aaaaaaaaaaa",
"aaaaa`a`aaaaaaaaaa",
"aaaa`aaa`aaaaaaaaa",
"af`faaaaa`aaaaaaaa",
"a```aaaaaa`aaaaaaa",
"af`faaaaaaa`aaaaaa",
"aaaa`aaa`a`a`aaaaa",
"aaaaa`aa``aaa`aaaa",
"aaaaaa`a```aaa`aaa",
"aaaaaaa`aaaaaaa`aa",
"aaaaaaaa`aaaaaaa`a",
"aaaaaaaaa`aaaaa`aa",
"aaaaaaaaaa`aaa`aaa",
"aaaaaaaaaaaf`faaaa",
"aaaaaaaaaaa```aaaa",
"aaaaaaaaaaaf`faaa`",
"aaaaaaaaaaaaaaaa``",
"aaaaaaaaaaaaaaa```"
};
aaaaaa``",
"aaaaaaaaaaaaaaa```"
};
