/* XPM */
static char *tlRectMax[] = {
/* width height num_colors chars_per_pixel */
"    18    18       16            1",
/* colors */
"` c #000000",
". c #800000",
"# c #008000",
"a c None",
"b c #000080",
"c c #800080",
"d c #008080",
"e c #c0c0c0",
"f c #808080",
"g c #ff0000",
"h c #00ff00",
"i c #ffff00",
"j c #0000ff",
"k c #ff00ff",
"l c #00ffff",
"m c #ffffff",
/* pixels */
"eeeeeeeeeeeeeeeeee",
"eeeeeeeeeeeeeeeeee",
"ee`````````````eee",
"ee`eeeeeeeeeee`eee",
"ee`eeeeeeeeeee`eee",
"ee`e````.````e`eee",
"ee`eeee.e.eeee`eee",
"ee`eee.eee.eee`eee",
"ee`eee.eee.eee`eee",
"ee`eee.eee.eee`eee",
"ee`ee.eeeee.ee`eee",
"ee`e.eeeeeee.e`eee",
"ee`eeeeeeeeeee`eee",
"ee`eeeeeeeeeee`eee",
"ee`````````````eee",
"eeeeeeeeeeeeeeeeee",
"eeeeeeeeeeeeeeeeee",
"eeeeeeeeeeeeeeeeee"
};
