/* XPM */
static char *tr[] = {
/* width height num_colors chars_per_pixel */
"    18    18       16            1",
/* colors */
"` c #000000",
". c #800000",
"# c #008000",
"a c None",
"b c #000080",
"c c #800080",
"d c #008080",
"e c #c0c0c0",
"f c #808080",
"g c #ff0000",
"h c #00ff00",
"i c #ffff00",
"j c #0000ff",
"k c #ff00ff",
"l c #00ffff",
"m c #ffffff",
/* pixels */
"aaaaaaaaaaaaaaaaaa",
"aa`aaaaaaaaaaaaaaa",
"a````aaaaaaaaaaaaa",
"aa`dd````aaaaaaaaa",
"aaa`ddddd````aa`aa",
"aaa`ddddddddd````a",
"aaaa`ddddddddd``aa",
"aaaa`ddddddddd`aaa",
"aaaaa`ddddddd`aaaa",
"aaaaa`ddddddd`aaaa",
"aaaaaa`ddddd`aaaaa",
"aaaaaa`ddddd`aaaaa",
"aaaaaaa`ddd`aaaaaa",
"aaaaaaa`ddd`aaaaaa",
"aaaaaaaa`d`aaaaaaa",
"aaaaaaaaa`aaaaaaa`",
"aaaaaaaa```aaaaa``",
"aaaaaaaaa`aaaaa```"
};
