/* XPM */
static char *view_reset[] = {
/* width height num_colors chars_per_pixel */
"    36    36      256            2",
/* colors */
"`` c None",
"`. c #b5b2c6",
"`# c #7371bd",
"`a c #424db5",
"`b c #3941ad",
"`c c #393cad",
"`d c #5259b5",
"`e c #3945ad",
"`f c #7379bd",
"`g c #4a4db5",
"`h c #4a51b5",
"`i c #adaabd",
"`j c #cecfce",
"`k c #d6cfce",
"`l c #8c8abd",
"`m c #7b79bd",
"`n c #cec7c6",
"`o c #b5b2bd",
"`p c #ada6b5",
"`q c #b5aeb5",
"`r c #9c9aad",
"`s c #5259ad",
"`t c #4245ad",
"`u c #7b7dad",
"`v c #7b7db5",
"`w c #cecbc6",
"`x c #8482bd",
"`y c #8c8ebd",
"`z c #c6bebd",
"`A c #b5b6b5",
"`B c #9c9ead",
"`C c #5a61a5",
"`D c #5255a5",
"`E c #4249ad",
"`F c #7b7d9c",
"`G c #6b71ad",
"`H c #bdbebd",
"`I c #9c9ec6",
"`J c #6b71b5",
"`K c #c6c3bd",
"`L c #8486b5",
"`M c #7b79ad",
"`N c #9c9a9c",
"`O c #9c9e9c",
"`P c #5255ad",
"`Q c #4a51a5",
"`R c #847d7b",
"`S c #5a5d9c",
"`T c #8482ad",
"`U c #bdb6b5",
"`V c #cecfc6",
"`W c #b5b2ad",
"`X c #7b7573",
"`Y c #73757b",
"`Z c #a5a29c",
"`0 c #7375ad",
"`1 c #4a4dad",
"`2 c #4a4da5",
"`3 c #73716b",
"`4 c #525994",
"`5 c #737194",
"`6 c #94928c",
"`7 c #b5b6ad",
"`8 c #7b7dbd",
".` c #7b7d94",
".. c #5a619c",
".# c #5a5da5",
".a c #52519c",
".b c #4a4d9c",
".c c #3941a5",
".d c #4a5194",
".e c #63617b",
".f c #8c8a8c",
".g c #8c8a84",
".h c #ada6a5",
".i c #6b6994",
".j c #4a51ad",
".k c #7b7994",
".l c #848684",
".m c #6b6d8c",
".n c #4249a5",
".o c #525584",
".p c #5a6194",
".q c #948e8c",
".r c #8c8e8c",
".s c #bdbab5",
".t c #9492a5",
".u c #4245a5",
".v c #6b6984",
".w c #84827b",
".x c #848294",
".y c #5259a5",
".z c #4a519c",
".A c #63657b",
".B c #7b7973",
".C c #9c9694",
".D c #737573",
".E c #7b797b",
".F c #adaaa5",
".G c #a59e9c",
".H c #949294",
".I c #7b7d7b",
".J c #8c8684",
".K c #949694",
".L c #b5aead",
".M c #adaead",
".N c #c6c7bd",
".O c #c6bece",
".P c #adaac6",
".Q c #7375bd",
".R c #c6c7ce",
".S c #4249b5",
".T c #c6c3c6",
".U c #6361b5",
".V c #a5a2b5",
".W c #5a61b5",
".X c #cecbce",
".Y c #6369ad",
".Z c #a5a2a5",
".0 c #7375a5",
".1 c #a5a6a5",
".2 c #bdbace",
".3 c #6b71bd",
".4 c #9492c6",
".5 c #52559c",
".6 c #9c9a94",
".7 c #5a5db5",
".8 c #5a5d7b",
"#` c #6b6d6b",
"#. c #bdbac6",
"## c #7375b5",
"#a c #4a4d94",
"#b c #636563",
"#c c #6b6973",
"#d c #5a5994",
"#e c #6b6963",
"#f c #8482a5",
"#g c #6b6563",
"#h c #bdbeb5",
"#i c #8c8a94",
"#j c #5a5d94",
"#k c #84828c",
"#l c #6b696b",
"#m c #73718c",
"#n c #63618c",
"#o c #737173",
"#p c #000000",
"#q c #000000",
"#r c #000000",
"#s c #000000",
"#t c #000000",
"#u c #000000",
"#v c #000000",
"#w c #000000",
"#x c #000000",
"#y c #000000",
"#z c #000000",
"#A c #000000",
"#B c #000000",
"#C c #000000",
"#D c #000000",
"#E c #000000",
"#F c #000000",
"#G c #000000",
"#H c #000000",
"#I c #000000",
"#J c #000000",
"#K c #000000",
"#L c #000000",
"#M c #000000",
"#N c #000000",
"#O c #000000",
"#P c #000000",
"#Q c #000000",
"#R c #000000",
"#S c #000000",
"#T c #000000",
"#U c #000000",
"#V c #000000",
"#W c #000000",
"#X c #000000",
"#Y c #000000",
"#Z c #000000",
"#0 c #000000",
"#1 c #000000",
"#2 c #000000",
"#3 c #000000",
"#4 c #000000",
"#5 c #000000",
"#6 c #000000",
"#7 c #000000",
"#8 c #000000",
"a` c #000000",
"a. c #000000",
"a# c #000000",
"aa c #000000",
"ab c #000000",
"ac c #000000",
"ad c #000000",
"ae c #000000",
"af c #000000",
"ag c #000000",
"ah c #000000",
"ai c #000000",
"aj c #000000",
"ak c #000000",
"al c #000000",
"am c #000000",
"an c #000000",
"ao c #000000",
"ap c #000000",
"aq c #000000",
"ar c #000000",
"as c #000000",
"at c #000000",
"au c #000000",
"av c #000000",
"aw c #000000",
"ax c #000000",
"ay c #000000",
"az c #000000",
"aA c #000000",
"aB c #000000",
"aC c #000000",
"aD c #000000",
"aE c #000000",
"aF c #000000",
"aG c #000000",
"aH c #000000",
"aI c #000000",
"aJ c #000000",
"aK c #000000",
"aL c #000000",
"aM c #000000",
"aN c #000000",
"aO c #000000",
"aP c #000000",
"aQ c #000000",
"aR c #000000",
"aS c #000000",
"aT c #000000",
"aU c #000000",
"aV c #000000",
"aW c #000000",
"aX c #000000",
"aY c #000000",
"aZ c #000000",
"a0 c #000000",
"a1 c #000000",
"a2 c #000000",
"a3 c #000000",
"a4 c #000000",
"a5 c #000000",
"a6 c #000000",
"a7 c #000000",
"a8 c #000000",
/* pixels */
"````````````````````````````````````````````````````````````````````````",
"````````````````````````````````````````````````````````````````````````",
"```````````````.`#`a`b`c`c`c`b`a`#`.````````````````````````````````````",
"```````````.`d`b`e`f`#`c`c`c`c`e`g`e`h`i`j`k````````````````````````````",
"`````````l`c`c`m`n`n`o`p`q`r`s`b`t`u`b`b`v`n`w``````````````````````````",
"```````x`c`c`y`n`z`A`B`c`c`b`C`D`E`C`F`c`c`G`H`n`k``````````````````````",
"`````I`c`c`J`K`L`M`N`O`P`c`c`c`Q`b`e`R`S`c`c`T`U`K`V````````````````````",
"`````h`c`c`o`W`b`c`e`b`P`c`c`c`c`c`c`X`Y`c`c`E`Z`W`K`j``````````````````",
"`````I`c`c`0`Z`b`b`1`c`c`c`c`c`2`b`b`3`4`c`c`5`6`Z`7`n`k````````````````",
"```````8`c`c.`..`1.#`s`c`c`c.a.b.c.d.e`c`c...f.g`6.h`z`j````````````````",
"```````w`v`b`b.i`Q`e.j.k.l.m.n`c`b.o`b`b.p.q.f.l.r`Z.s`w````````````````",
"```````j`z.t`1`b`E`E`c`c`c`c`c`b.c`b.u.v.w.r.f.g`6.h`z`j````````````````",
"```````k`n`A`Z.x.y`t`c`c`c`c`c`b.z.A`3.B.w.g.r`6`Z`7`n`k````````````````",
"`````````j`K`W`Z.C`6.g`R.B.B.B.B.B.D.D.E.l.q.C`Z`W`K`j``````````````````",
"```````````V`K`U.F.G.H.g.w`R`R.w`R.I`R.J`6`O.F`U`K`V````````````````````",
"`````````````k`n`z`W.F.G.C`6`6`6`6`6.K`O.h`W`H`n`k``````````````````````",
"`````````````````w`n`z`U`W.L.M.M.M.L`W`U`z`n`w``````````````````````````",
"`````````````````````j`w`n.N`K`K`K.N`n`w`j`k````````````````````````````",
"````````````````````````````````````````````````````````````````````````",
"``````````````````````````````````````.O.P````````````.O.P``````````````",
"````````````````````````````````````.P`d.Q``````````.P`d.Q``````````````",
"````````````````````````````````.R`x.S`c.Q`w`w`w.T`x.S`c.Q`w`w`w`k``````",
"```````````````````````````````..U`c`c`c`J`H.s.V.W`c`c`c`J`H.s`z`n`k````",
"``````````````````````````.X`y`a`c`c`c`c.Y.Z.0`E`c`c`c`c.Y.h.1.L`z`w````",
"````````````````````````.2.3`b`c`c`c`c`c.y.y`c`c`c`c`c`c`C.q`6`Z.s`w````",
"````````````````````````.4.S`c`c`c`c`c`c`2`b`c`c`c`c`c`c.5.B.w.6`A`w````",
"``````````````````````````.P.7`c`c`c`c`c.d.8.n`c`c`c`c`c.d#`.E.K`W`n````",
"````````````````````````````#.##`e`c`c`c#a#b#c#d`b`c`c`c#a#e.B.K`W`n````",
"`````````````````````````````n`A#f`2`c`c#a#b#`.E.m`2`c`c#a#g.B.K`W`n````",
"`````````````````````````````w#h.F#i#j`b#a#e`3.w.g#k#j`b#a#l.B.K`W`n````",
"`````````````````````````````k`n.s.F.C#m#n#o.E.r`O.G.K#m#n.D`R.C`7`w````",
"```````````````````````````````k`w`z`W`Z`6.J.g.6.M`7.L`Z`6.J.f.G`U`w````",
"```````````````````````````````````V`K.s.F.G.G.F.s`K`K.s.F`Z.G.F`H`w````",
"`````````````````````````````````````k`w`z`U`A.s.N`V`j`w`z`U`A.s`n`k````",
"`````````````````````````````````````````j`w`n`n`j```````j`w`n`n`j``````",
"````````````````````````````````````````````````````````````````````````"
};
