/* XPM */
static char *view_pan[] = {
/* width height num_colors chars_per_pixel */
"    36    36      256            2",
/* colors */
"`` c None",
"`. c #b5b2c6",
"`# c #7371bd",
"`a c #424db5",
"`b c #3941ad",
"`c c #393cad",
"`d c #5259b5",
"`e c #4245ad",
"`f c #7379bd",
"`g c #3945ad",
"`h c #4a4db5",
"`i c #4a51b5",
"`j c #adaabd",
"`k c #cecfce",
"`l c #d6cfce",
"`m c #8c8abd",
"`n c #7b79bd",
"`o c #cec7c6",
"`p c #b5b2bd",
"`q c #ada6b5",
"`r c #b5aeb5",
"`s c #9c9aad",
"`t c #5259ad",
"`u c #7b7dad",
"`v c #7b7db5",
"`w c #cecbc6",
"`x c #8482bd",
"`y c #8c8ebd",
"`z c #c6bebd",
"`A c #b5b6b5",
"`B c #9c9ead",
"`C c #5a61a5",
"`D c #5255a5",
"`E c #4249ad",
"`F c #7b7d9c",
"`G c #6b71ad",
"`H c #bdbebd",
"`I c #9c9ec6",
"`J c #6b71b5",
"`K c #c6c3bd",
"`L c #8486b5",
"`M c #7b79ad",
"`N c #9c9a9c",
"`O c #9c9e9c",
"`P c #5255ad",
"`Q c #4a51a5",
"`R c #847d7b",
"`S c #5a5d9c",
"`T c #8482ad",
"`U c #bdb6b5",
"`V c #cecfc6",
"`W c #b5b2ad",
"`X c #7b7573",
"`Y c #73757b",
"`Z c #a5a29c",
"`0 c #7375ad",
"`1 c #4a4dad",
"`2 c #4a4da5",
"`3 c #73716b",
"`4 c #525994",
"`5 c #737194",
"`6 c #94928c",
"`7 c #b5b6ad",
"`8 c #7b7dbd",
".` c #7b7d94",
".. c #5a619c",
".# c #5a5da5",
".a c #52519c",
".b c #4a4d9c",
".c c #3941a5",
".d c #4a5194",
".e c #63617b",
".f c #8c8a8c",
".g c #8c8a84",
".h c #ada6a5",
".i c #6b6994",
".j c #4a51ad",
".k c #7b7994",
".l c #848684",
".m c #6b6d8c",
".n c #4249a5",
".o c #525584",
".p c #5a6194",
".q c #948e8c",
".r c #8c8e8c",
".s c #bdbab5",
".t c #9492a5",
".u c #4245a5",
".v c #6b6984",
".w c #84827b",
".x c #848294",
".y c #5259a5",
".z c #4a519c",
".A c #63657b",
".B c #7b7973",
".C c #9c9694",
".D c #737573",
".E c #7b797b",
".F c #adaaa5",
".G c #a59e9c",
".H c #949294",
".I c #7b7d7b",
".J c #8c8684",
".K c #949694",
".L c #b5b6bd",
".M c #bdbece",
".N c #b5aead",
".O c #adaead",
".P c #bdbac6",
".Q c #6365b5",
".R c #bdbec6",
".S c #c6c7bd",
".T c #cecbce",
".U c #7375bd",
".V c #bdbabd",
".W c #9496c6",
".X c #424dad",
".Y c #7b82ad",
".Z c #7375a5",
".0 c #c6bece",
".1 c #9c9ac6",
".2 c #6b6d94",
".3 c #7b79a5",
".4 c #c6c3ce",
".5 c #6b6dbd",
".6 c #bdb6c6",
".7 c #b5b6c6",
".8 c #8486bd",
"#` c #5a5d94",
"#. c #6b697b",
"## c #737184",
"#a c #5a59ad",
"#b c #6b6db5",
"#c c #6b6dad",
"#d c #b5b2b5",
"#e c #6365a5",
"#f c #52599c",
"#g c #42499c",
"#h c #4a4d94",
"#i c #9c9a94",
"#j c #c6c7c6",
"#k c #7371b5",
"#l c #6365ad",
"#m c #5a5d84",
"#n c #52557b",
"#o c #63615a",
"#p c #636563",
"#q c #6b6d73",
"#r c #bdb6bd",
"#s c #9496a5",
"#t c #5a618c",
"#u c #636163",
"#v c #736d73",
"#w c #5a599c",
"#x c #5a597b",
"#y c #6b696b",
"#z c #5a5984",
"#A c #6b6d6b",
"#B c #c6bec6",
"#C c #7b757b",
"#D c #736d6b",
"#E c #8c8ead",
"#F c #000000",
"#G c #000000",
"#H c #000000",
"#I c #000000",
"#J c #000000",
"#K c #000000",
"#L c #000000",
"#M c #000000",
"#N c #000000",
"#O c #000000",
"#P c #000000",
"#Q c #000000",
"#R c #000000",
"#S c #000000",
"#T c #000000",
"#U c #000000",
"#V c #000000",
"#W c #000000",
"#X c #000000",
"#Y c #000000",
"#Z c #000000",
"#0 c #000000",
"#1 c #000000",
"#2 c #000000",
"#3 c #000000",
"#4 c #000000",
"#5 c #000000",
"#6 c #000000",
"#7 c #000000",
"#8 c #000000",
"a` c #000000",
"a. c #000000",
"a# c #000000",
"aa c #000000",
"ab c #000000",
"ac c #000000",
"ad c #000000",
"ae c #000000",
"af c #000000",
"ag c #000000",
"ah c #000000",
"ai c #000000",
"aj c #000000",
"ak c #000000",
"al c #000000",
"am c #000000",
"an c #000000",
"ao c #000000",
"ap c #000000",
"aq c #000000",
"ar c #000000",
"as c #000000",
"at c #000000",
"au c #000000",
"av c #000000",
"aw c #000000",
"ax c #000000",
"ay c #000000",
"az c #000000",
"aA c #000000",
"aB c #000000",
"aC c #000000",
"aD c #000000",
"aE c #000000",
"aF c #000000",
"aG c #000000",
"aH c #000000",
"aI c #000000",
"aJ c #000000",
"aK c #000000",
"aL c #000000",
"aM c #000000",
"aN c #000000",
"aO c #000000",
"aP c #000000",
"aQ c #000000",
"aR c #000000",
"aS c #000000",
"aT c #000000",
"aU c #000000",
"aV c #000000",
"aW c #000000",
"aX c #000000",
"aY c #000000",
"aZ c #000000",
"a0 c #000000",
"a1 c #000000",
"a2 c #000000",
"a3 c #000000",
"a4 c #000000",
"a5 c #000000",
"a6 c #000000",
"a7 c #000000",
"a8 c #000000",
/* pixels */
"````````````````````````````````````````````````````````````````````````",
"````````````````````````````````````````````````````````````````````````",
"```````````````.`#`a`b`c`c`c`b`a`#`.````````````````````````````````````",
"```````````.`d`b`e`f`#`c`c`c`c`g`h`g`i`j`k`l````````````````````````````",
"`````````m`c`c`n`o`o`p`q`r`s`t`b`e`u`b`b`v`o`w``````````````````````````",
"```````x`c`c`y`o`z`A`B`c`c`b`C`D`E`C`F`c`c`G`H`o`l``````````````````````",
"`````I`c`c`J`K`L`M`N`O`P`c`c`c`Q`g`g`R`S`c`c`T`U`K`V````````````````````",
"`````i`c`c`p`W`b`c`e`b`P`c`c`c`c`c`c`X`Y`c`c`E`Z`W`K`k``````````````````",
"`````I`c`c`0`Z`b`b`1`c`c`c`c`c`2`b`b`3`4`c`c`5`6`Z`7`o`l````````````````",
"```````8`c`c.`..`1.#`t`c`c`c.a.b.c.d.e`c`c...f.g`6.h`z`k````````````````",
"```````w`v`b`b.i`Q`b.j.k.l.m.n`c`b.o`b`b.p.q.f.l.r`Z.s`w````````````````",
"```````k`z.t`1`b`E`E`c`c`c`c`c`b.c`b.u.v.w.r.f.g`6.h`z`k````````````````",
"```````l`o`A`Z.x.y`e`c`c`c`c`c`b.z.A`3.B.w.g.r`6`Z`7`o`l````````````````",
"`````````k`K`W`Z.C`6.g`R.B.B.B.B.B.D.D.E.l.q.C`Z`W`K`k``````````````````",
"```````````V`K`U.F.G.H.g.w`R`R.w`R.I`R.J`6`O.F`U`K`V````````````````````",
"`````````````l`o`z`W.F.G.C`6`6`6`6`6.K`O.h`W`H.L`8.M````````````````````",
"`````````````````w`o`z`U`W.N.O.O.O.N`W`U`z`o.P.Q`c.Q.R`l`l``````````````",
"`````````````````````k`w`o.S`K`K`K.S`o`w`k.T.U`c`c`c`J.V`o`w````````````",
"`````````````````````````````````````````l.W`i`c`c`c.X.Y`W`z`w``````````",
"```````````````````````````````````````````k.W`c`c`c.Z.H`O.N`K`k````````",
"````````````````````````````````````.0.1````.1`c`c`c.2`R.g.3`q`o````````",
"``````````````````````````````````.4.Q.5.6.7.8`c`c`c#`#.##.y#a`p`V``````",
"````````````````````````````````.T.U`c`b`e`e`b`c`c`c`b`b`b`c`c#b`H`o`V``",
"```````````````````````````````l`8`b`c`c`c`c`c`c`c`c`c`c`c`c`c`c#c#d`K`w",
"```````````````````````````````l`8`b`c`c`c`c`c`c`c`c`c`c`c`c`c`c#e`O.N`z",
"````````````````````````````````.T`n`b`1`C#f`2`c`c`c#g#h#h.u`c#f.I.g#i`W",
"``````````````````````````````````#j#k#l.q.B#m`c`c`c#n#o#p#h.d#q`3.B.q.h",
"```````````````````````````````````k#r#s.q.I#t`c`c`c.o#u#p.A#v.D.D.I.q.F",
"```````````````````````````````````l.S`W`N`5#w`c`c`c.d#x#y.B.l.g.g.q`O`W",
"`````````````````````````````````````w`K`W.3`b`c`c`c`b#z.D.g#i`Z`Z.h`W`K",
"```````````````````````````````````````w`K`H`v`c`c`c#`#A.B.q.h`W.s`H`K`w",
"`````````````````````````````````````````l`w#B#k`b`C#C#D.B`6.F`H`o`w`l``",
"`````````````````````````````````````````````k.V#E.H.I.D.I.K.N`K`k``````",
"```````````````````````````````````````````````o`U`Z.f.w.f`Z`U`o````````",
"```````````````````````````````````````````````k`K`W`Z#i`Z`W`K`k````````",
"`````````````````````````````````````````````````w`K.s`7.s`K`w``````````"
};
