/* XPM */
static char *bc[] = {
/* width height num_colors chars_per_pixel */
"    36    36      256            2",
/* colors */
"`` c None",
"`. c #ded3ce",
"`# c #efcbc6",
"`a c #efc7c6",
"`b c #efc3c6",
"`c c #d69e9c",
"`d c #efcbce",
"`e c #ffc3c6",
"`f c #ffc3bd",
"`g c #d6716b",
"`h c #c64d4a",
"`i c #cecbc6",
"`j c #d6cfce",
"`k c #cecbce",
"`l c #decbc6",
"`m c #ffb6b5",
"`n c #ffbabd",
"`o c #ffbab5",
"`p c #f7b6b5",
"`q c #de7973",
"`r c #c60000",
"`s c #bd4542",
"`t c #bdbab5",
"`u c #c6bebd",
"`v c #c6c7bd",
"`w c #cecfc6",
"`x c #c6c7ce",
"`y c #adb2de",
"`z c #adaace",
"`A c #c6c3ce",
"`B c #debab5",
"`C c #ff4d4a",
"`D c #ff4542",
"`E c #c61410",
"`F c #b53839",
"`G c #a59e9c",
"`H c #adaaa5",
"`I c #b5b6b5",
"`J c #b5b2ce",
"`K c #949ade",
"`L c #8c96de",
"`M c #6b6dbd",
"`N c #a5a2c6",
"`O c #cecfce",
"`P c #ff4142",
"`Q c #ff3c39",
"`R c #bd1010",
"`S c #ad3029",
"`T c #8c8684",
"`U c #9492a5",
"`V c #949ace",
"`W c #848ed6",
"`X c #7b86d6",
"`Y c #7b82ce",
"`Z c #4249b5",
"`0 c #8482b5",
"`1 c #c6c3bd",
"`2 c #cec7c6",
"`3 c #a52c29",
"`4 c #7b82a5",
"`5 c #7b86ce",
"`6 c #7b7dd6",
"`7 c #7379ce",
"`8 c #6b71ce",
".` c #6b6dc6",
".. c #3941ad",
".# c #6361ad",
".a c #b5aead",
".b c #bd0c08",
".c c #9c2829",
".d c #737194",
".e c #6b75bd",
".f c #6b6dce",
".g c #636dc6",
".h c #5a5dbd",
".i c #393cad",
".j c #4a4da5",
".k c #8c8a8c",
".l c #9c9a94",
".m c #adaead",
".n c #bd0000",
".o c #943031",
".p c #6b696b",
".q c #737584",
".r c #7379ad",
".s c #6369bd",
".t c #5a61c6",
".u c #5259bd",
".v c #52519c",
".w c #7b797b",
".x c #8c8a84",
".y c #a5a29c",
".z c #9c2421",
".A c #6b5d5a",
".B c #6b6963",
".C c #7b7573",
".D c #84869c",
".E c #6b6dad",
".F c #4a55bd",
".G c #3945ad",
".H c #5a5984",
".I c #73716b",
".J c #84827b",
".K c #bdb6b5",
".L c #e79a94",
".M c #de8e8c",
".N c #ce7d7b",
".O c #b56d6b",
".P c #a55d5a",
".Q c #a55152",
".R c #6b5552",
".S c #636563",
".T c #6b6d6b",
".U c #8c8e8c",
".V c #9c9694",
".W c #949294",
".X c #52559c",
".Y c #636573",
".Z c #847d7b",
".0 c #b5b6ad",
".1 c #9496b5",
".2 c #7b7d9c",
".3 c #6b6563",
".4 c #736d6b",
".5 c #7b7973",
".6 c #ada6a5",
".7 c #a5a6a5",
".8 c #848684",
"#` c #9c9e9c",
"#. c #adaab5",
"## c #949ad6",
"#a c #8486c6",
"#b c #7b7d84",
"#c c #b5b2ad",
"#d c #94928c",
"#e c #bdbebd",
"#f c #9ca2d6",
"#g c #8c92de",
"#h c #7b82b5",
"#i c #948e8c",
"#j c #949694",
"#k c #adb2ce",
"#l c #9c9ee7",
"#m c #6b75c6",
"#n c #8c8e9c",
"#o c #6b71b5",
"#p c #9c9ece",
"#q c #6369c6",
"#r c #5a61bd",
"#s c #737594",
"#t c #8c92ce",
"#u c #5a65c6",
"#v c #525dbd",
"#w c #63619c",
"#x c #adb2d6",
"#y c #7b82c6",
"#z c #6b71bd",
"#A c #6369a5",
"#B c #636584",
"#C c #7b7d7b",
"#D c #000000",
"#E c #000000",
"#F c #000000",
"#G c #000000",
"#H c #000000",
"#I c #000000",
"#J c #000000",
"#K c #000000",
"#L c #000000",
"#M c #000000",
"#N c #000000",
"#O c #000000",
"#P c #000000",
"#Q c #000000",
"#R c #000000",
"#S c #000000",
"#T c #000000",
"#U c #000000",
"#V c #000000",
"#W c #000000",
"#X c #000000",
"#Y c #000000",
"#Z c #000000",
"#0 c #000000",
"#1 c #000000",
"#2 c #000000",
"#3 c #000000",
"#4 c #000000",
"#5 c #000000",
"#6 c #000000",
"#7 c #000000",
"#8 c #000000",
"a` c #000000",
"a. c #000000",
"a# c #000000",
"aa c #000000",
"ab c #000000",
"ac c #000000",
"ad c #000000",
"ae c #000000",
"af c #000000",
"ag c #000000",
"ah c #000000",
"ai c #000000",
"aj c #000000",
"ak c #000000",
"al c #000000",
"am c #000000",
"an c #000000",
"ao c #000000",
"ap c #000000",
"aq c #000000",
"ar c #000000",
"as c #000000",
"at c #000000",
"au c #000000",
"av c #000000",
"aw c #000000",
"ax c #000000",
"ay c #000000",
"az c #000000",
"aA c #000000",
"aB c #000000",
"aC c #000000",
"aD c #000000",
"aE c #000000",
"aF c #000000",
"aG c #000000",
"aH c #000000",
"aI c #000000",
"aJ c #000000",
"aK c #000000",
"aL c #000000",
"aM c #000000",
"aN c #000000",
"aO c #000000",
"aP c #000000",
"aQ c #000000",
"aR c #000000",
"aS c #000000",
"aT c #000000",
"aU c #000000",
"aV c #000000",
"aW c #000000",
"aX c #000000",
"aY c #000000",
"aZ c #000000",
"a0 c #000000",
"a1 c #000000",
"a2 c #000000",
"a3 c #000000",
"a4 c #000000",
"a5 c #000000",
"a6 c #000000",
"a7 c #000000",
"a8 c #000000",
/* pixels */
"````````````````````````````````````````````````````````````````````````",
"````````````````````````````````````````````````````````````````````````",
"````````````````````````````````````````````````````````````````````````",
"````````````````````````````````````````````````````````````````````````",
"````````````````````````````````````````````````````````````````````````",
"````````````````````````````````````````````````````````````````````````",
"````````````````````````````````````````````````````````````````````````",
"````````````````````````````````````````````````````````````````````````",
"````````````````````````````````````````````````````````````````````````",
"`````````````````````.`#`a`a`a`a`a`b`c``````````````````````````````````",
"`````````````````````d`e`e`e`e`e`f`g`h`i`i`j```````k````````````````````",
"```````````````````l`m`n`n`o`m`p`q`r`s`t`u`v`w`x`y`z`A``````````````````",
"```````````````````B`C`D`D`D`D`D`E`r`F`G`H`I`J`K`L`M`N`w`O`j````````````",
"```````````````````B`D`P`P`P`P`Q`R`r`S`T`U`V`W`X`Y`Z`0`u`1`2`j``````````",
"```````````````````B`D`P`P`P`P`Q`R`r`3`4`5`6`7`8.`...#`H.a`t`2``````````",
"```````````````````B`D`P`P`P`P`Q.b`r.c.d.e.f.g.g.h.i.j.k.l.m`1`O````````",
"```````````````````B`D`P`P`P`P`Q.b.n.o.p.q.r.s.t.u...v.w.x.y`t`i````````",
"```````````````````B`D`P`P`P`P`Q.b.z.A.B.C.x.D.E.F.G.H.I.J.l.K`i````````",
"```````````````````l.L.M.N.O.P.Q.c.R.S.T.w.U.V.W.d.X.Y.I.Z.V.0`2````````",
"`````````````````````j`1`H.1.2.T.3.B.4.5.x.l.6.7.l`T.Z.w.8#`.K`i````````",
"`````````````````````j`v#.###a#b.5.5.Z.x#`.a`t`t#c.y.V#d.V`H#e`i````````",
"```````````````````````2#f#g`X#h.U#i#j.y#c`u`i`i`v`t#c`H.m.K`2`j````````",
"``````````````````````#k#l`W`6#m#n.l.y#c`1`i`````j`i`2`1`1`2`O``````````",
"`````````````````````A##`K`W`7.g#o.W.y.K`2`j`````````j`j`O`j````````````",
"```````````````````j#p`K#g`X`8#q#r#s.V#c`1`j````````````````````````````",
"```````````````````A#t#l#g`6.f#u#v#w.x.y`t`i````````````````````````````",
"`````````````````````x#x`V#y#z#A#B.p#C#j#c`2`j``````````````````````````",
"```````````````````````i.K#`.8.I.B.T.5#i`H`1`j``````````````````````````",
"```````````````````````i`t.y.U#C.C.5.8.V.a`1`j``````````````````````````",
"```````````````````````O`1#c.y.V#d.W.l`H`t`2````````````````````````````",
"`````````````````````````i`1`t#c.a#c.K`u`2`j````````````````````````````",
"```````````````````````````j`i`2`2`2`i`w`j``````````````````````````````",
"````````````````````````````````````````````````````````````````````````",
"````````````````````````````````````````````````````````````````````````",
"````````````````````````````````````````````````````````````````````````",
"````````````````````````````````````````````````````````````````````````"
};
