/* XPM */
static char *beamload[] = {
/* width height num_colors chars_per_pixel */
"    36    36      256            2",
/* colors */
"`` c None",
"`. c #d6bebd",
"`# c #d6bab5",
"`a c #d6cbc6",
"`b c #ce6163",
"`c c #ce4542",
"`d c #d6595a",
"`e c #e7b2b5",
"`f c #e7bab5",
"`g c #d65d5a",
"`h c #ce595a",
"`i c #ce3c39",
"`j c #d65152",
"`k c #efa2a5",
"`l c #efa6a5",
"`m c #ce5552",
"`n c #c6bebd",
"`o c #c6c3bd",
"`p c #cec7c6",
"`q c #cecfce",
"`r c #b5a6a5",
"`s c #b5aead",
"`t c #bdb6b5",
"`u c #ce5152",
"`v c #948a84",
"`w c #949294",
"`x c #a5a29c",
"`y c #bdbab5",
"`z c #cecbc6",
"`A c #7b7173",
"`B c #847d7b",
"`C c #ce4d4a",
"`D c #6b6563",
"`E c #737173",
"`F c #8c8e8c",
"`G c #adaaa5",
"`H c #d6cfce",
"`I c #6b615a",
"`J c #73716b",
"`K c #8c8a84",
"`L c #736d6b",
"`M c #d6c3bd",
"`N c #ce5952",
"`O c #e79e9c",
"`P c #6b5d5a",
"`Q c #d67573",
"`R c #ce4142",
"`S c #d66163",
"`T c #e7a2a5",
"`U c #d66563",
"`V c #bd4542",
"`W c #ad4d4a",
"`X c #8c8284",
"`Y c #ada6a5",
"`Z c #d6a29c",
"`0 c #de797b",
"`1 c #e78684",
"`2 c #9c5952",
"`3 c #848284",
"`4 c #bdbeb5",
"`5 c #ce7973",
"`6 c #de696b",
"`7 c #b54542",
"`8 c #736563",
".` c #7b7d7b",
".. c #9c9a94",
".# c #b5b2ad",
".a c #d6b6b5",
".b c #de8684",
".c c #e79694",
".d c #d64d4a",
".e c #845552",
".f c #7b7573",
".g c #948e8c",
".h c #ce8e8c",
".i c #de7d7b",
".j c #c6595a",
".k c #635d5a",
".l c #636563",
".m c #cec3bd",
".n c #ce6d6b",
".o c #bd8684",
".p c #ad8e8c",
".q c #9c8284",
".r c #947d7b",
".s c #94797b",
".t c #947973",
".u c #b5595a",
".v c #a56d6b",
".w c #946563",
".x c #63615a",
".y c #7b7973",
".z c #94928c",
".A c #ded3ce",
".B c #efcbc6",
".C c #efc7c6",
".D c #e7bebd",
".E c #deb6b5",
".F c #d6aaad",
".G c #bd9694",
".H c #6b6963",
".I c #6b6d6b",
".J c #b59294",
".K c #c69e9c",
".L c #b58e8c",
".M c #8c5952",
".N c #84827b",
".O c #9c9e9c",
".P c #efcbce",
".Q c #ffc3c6",
".R c #f7babd",
".S c #bd595a",
".T c #a52c29",
".U c #737573",
".V c #7b797b",
".W c #b59a9c",
".X c #ffbebd",
".Y c #bd5552",
".Z c #a53029",
".0 c #a5a6a5",
".1 c #bdbebd",
".2 c #decbc6",
".3 c #ffb6b5",
".4 c #ffbabd",
".5 c #ffbab5",
".6 c #f7b6b5",
".7 c #f7b2b5",
".8 c #d67173",
"#` c #bd0000",
"#. c #ad3029",
"## c #848684",
"#a c #949694",
"#b c #9c9694",
"#c c #b59a94",
"#d c #efaead",
"#e c #f7aead",
"#f c #ce696b",
"#g c #ad3031",
"#h c #debab5",
"#i c #ff4d4a",
"#j c #ff4542",
"#k c #bd1410",
"#l c #c60000",
"#m c #a52c31",
"#n c #7b798c",
"#o c #848294",
"#p c #8c8e9c",
"#q c #9c9aad",
"#r c #a5a2b5",
"#s c #b5929c",
"#t c #bd1010",
"#u c #8c8a8c",
"#v c #ff4142",
"#w c #ff3c39",
"#x c #9c2442",
"#y c #5a61bd",
"#z c #5a61c6",
"#A c #5a65c6",
"#B c #7b5dad",
"#C c #9c284a",
"#D c #6369ce",
"#E c #8461ad",
"#F c #a52829",
"#G c #bd0c08",
"#H c #a52c4a",
"#I c #7375d6",
"#J c #8c6db5",
"#K c #9c2421",
"#L c #b5b6b5",
"#M c #943c5a",
"#N c #7375bd",
"#O c #7379bd",
"#P c #7379c6",
"#Q c #737dc6",
"#R c #9471ad",
"#S c #943031",
"#T c #6b696b",
"#U c #b5b6ad",
"#V c #636163",
"#W c #6b656b",
"#X c #6b6d73",
"#Y c #8c696b",
"#Z c #e79a94",
"#0 c #de8e8c",
"#1 c #ce7d7b",
"#2 c #b5696b",
"#3 c #a55d5a",
"#4 c #a55152",
"#5 c #9c2829",
"#6 c #6b5552",
"#7 c #847173",
"#8 c #a56163",
"a` c #ad5d5a",
"a. c #a55952",
"a# c #a55552",
"aa c #8c8684",
"ab c #cecfc6",
"ac c #c6c7bd",
"ad c #a59e9c",
"ae c #000000",
"af c #000000",
"ag c #000000",
"ah c #000000",
"ai c #000000",
"aj c #000000",
"ak c #000000",
"al c #000000",
"am c #000000",
"an c #000000",
"ao c #000000",
"ap c #000000",
"aq c #000000",
"ar c #000000",
"as c #000000",
"at c #000000",
"au c #000000",
"av c #000000",
"aw c #000000",
"ax c #000000",
"ay c #000000",
"az c #000000",
"aA c #000000",
"aB c #000000",
"aC c #000000",
"aD c #000000",
"aE c #000000",
"aF c #000000",
"aG c #000000",
"aH c #000000",
"aI c #000000",
"aJ c #000000",
"aK c #000000",
"aL c #000000",
"aM c #000000",
"aN c #000000",
"aO c #000000",
"aP c #000000",
"aQ c #000000",
"aR c #000000",
"aS c #000000",
"aT c #000000",
"aU c #000000",
"aV c #000000",
"aW c #000000",
"aX c #000000",
"aY c #000000",
"aZ c #000000",
"a0 c #000000",
"a1 c #000000",
"a2 c #000000",
"a3 c #000000",
"a4 c #000000",
"a5 c #000000",
"a6 c #000000",
"a7 c #000000",
"a8 c #000000",
/* pixels */
"````````````````````````````````````````````````````````````````````````",
"`````````````.`#`.```````````````.`#`.```````````````.`#`.``````````````",
"```````````a`b`c`d`e`f`f`f`f`f`e`d`c`d`e`f`f`f`f`f`e`d`c`g`a````````````",
"```````````a`h`i`j`k`l`l`l`l`l`k`j`i`j`k`l`l`l`l`l`k`j`i`m`n`o`p`q``````",
"```````````a`h`i`j`k`l`l`l`l`l`k`j`i`j`k`l`l`l`l`l`k`j`i`m`r`s`t`o`q````",
"```````````a`h`i`j`k`l`l`l`l`l`k`j`i`j`k`l`l`l`l`l`k`j`i`u`v`w`x`y`z````",
"```````````a`h`i`j`k`l`l`l`l`l`k`j`i`j`k`l`l`l`l`l`k`j`i`u`A`B`w`s`p````",
"```````````a`h`i`j`k`l`l`l`l`l`k`j`i`j`k`l`l`l`l`l`k`j`i`C`D`E`F`G`o`H``",
"```````````a`h`i`j`k`l`l`l`l`l`k`j`i`j`k`l`l`l`l`l`k`j`i`C`I`J`K`G`o`H``",
"```````````a`h`i`j`k`l`l`l`l`l`k`j`i`j`k`l`l`l`l`l`k`j`i`C`I`L`K`G`o`H``",
"```````````a`h`i`j`k`l`l`l`l`l`k`j`i`j`k`l`l`l`l`l`k`j`i`C`I`L`K`G`o`H``",
"```````````a`h`i`j`k`l`l`l`l`l`k`j`i`j`k`l`l`l`l`l`k`j`i`C`I`L`K`G`o`H``",
"```````````a`h`i`j`k`l`l`l`l`l`k`j`i`j`k`l`l`l`l`l`k`j`i`C`I`L`K`G`o`H``",
"```````````a`h`i`j`k`l`l`l`l`l`k`j`i`j`k`l`l`l`l`l`k`j`i`C`I`L`K`G`o`H``",
"`````````a`M`N`i`j`O`k`l`l`l`k`O`j`i`j`O`k`l`l`l`k`O`j`i`C`P`L`K`G`o`H``",
"```````a`Q`N`R`i`R`j`S`T`l`T`U`j`R`i`R`j`S`T`l`T`U`j`R`i`R`V`W`X`Y`o`H``",
"`````````Z`c`i`i`i`R`0`l`l`l`1`R`i`i`i`R`0`l`l`l`1`R`i`i`i`i`2`3`x`4`z``",
"`````````H`5`i`i`i`d`T`l`l`l`l`6`i`i`i`d`T`l`l`l`l`6`i`i`i`7`8.`...#`p`H",
"``````````.a`u`i`R.b`l`l`l`l`l.c.d`i`R.b`l`l`l`l`l.c.d`i`R.e`D.f.g`G`o`q",
"```````````H.h`R`S`k`l`l`l`l`l`l.i`R`S`k`l`l`l`l`l`l.i`R.j.k.l`E`F`G`n`q",
"```````````H.m.n.o.p.q.r.s.s.s.s.t.u.v.s.s.s.s.s.s.s.t.u.w.x`D.y.z`s`o`H",
"``````.A.B.C.C.D.E.F.G.e`D`D`D.H.H.H.H`D`D`D.I.J.K.K.K.K.K.L.M.N.O`t`z``",
"``````.P.Q.Q.Q.Q.Q.R.S.T`E.U.y.V.`.`.`.V.V.`.W.X.Q.Q.Q.Q.R.Y.Z`F.0.1`z``",
"````.2.3.4.4.5.6.7.8#`#.`B##`F#a........#b#c#d.7.7.7.7#e#f#`#g.z`Y`y`z``",
"````#h#i#j#j#j#j#j#k#l#m#n#o#p#q#r#r#r#r#r#s#i#j#j#j#j#j#t#l#.#u.O.#`o`H",
"````#h#j#v#v#v#v#w#t#l#x#y#y#y#z#A#A#A#A#A#B#v#v#v#v#v#w#t#l.T`B.z`Y`4`z",
"````#h#j#v#v#v#v#w#t#l#C#D#D#D#D#D#D#D#D#D#E#v#v#v#v#v#w#t#l#F.U##.O`t`z",
"````#h#j#v#v#v#v#w#G#l#H#I#I#I#I#I#I#I#I#I#J#j#v#v#v#v#w#G#l#K`L`B..#L`z",
"````#h#j#v#v#v#v#w#G#`#M#N#O#O#P#Q#Q#Q#Q#Q#R#j#v#v#v#v#w#G#`#S#T.`#b#U`p",
"````#h#j#v#v#v#v#w#G#K`P#V#W#T#X`E`E`E`E`E#Y#v#v#v#v#v#w#G#K`P#T.`#b#L`z",
"````.2#Z#0#1#2#3#4#5#6#V`D.I`J`E.U.U.U.U.U#7#8a`#3a.a##4#5#6.l`L.N.O`t`z",
"```````H`o`G`F.f`L`D#T`L`E.V`3`K`F`F`F`F`F`F#uaa`B.U`L#T`D#T`L.y#u.0.1ab",
"```````Hac.#..`K.N`B`B.N`K`wad`Y`G`G`G`G`G`G`G.0...g##`B`B`B.N`F.O.#ac`H",
"`````````z`n`s.0ad.O.Oad.0`s`y`o`o`o`o`o`o`o`o`n#L`G`xad.O.Oad`Y.#`o`z``",
"`````````H`z`o.1`y`y`y`y`n`o`z`H`H```````````Hab`p`o`4`y`y`y`y`nac`z````",
"`````````````Hab`z`z`z`z`q`H```````````````````````Hab`z`z`z`z`q`H``````"
};
