/* XPM */
static char *beam[] = {
/* width height num_colors chars_per_pixel */
"    36    36      256            2",
/* colors */
"`` c None",
"`. c #ded3ce",
"`# c #efcbc6",
"`a c #efc7c6",
"`b c #d6a29c",
"`c c #efcbce",
"`d c #ffc3c6",
"`e c #ffc3bd",
"`f c #d6716b",
"`g c #c64d4a",
"`h c #cecbc6",
"`i c #d6cfce",
"`j c #decbc6",
"`k c #ffb6b5",
"`l c #ffbabd",
"`m c #ffbab5",
"`n c #f7b6b5",
"`o c #de7973",
"`p c #c60000",
"`q c #bd4542",
"`r c #bdbab5",
"`s c #c6bebd",
"`t c #c6c7bd",
"`u c #cecfc6",
"`v c #debab5",
"`w c #ff4d4a",
"`x c #ff4542",
"`y c #c61410",
"`z c #b53839",
"`A c #a59e9c",
"`B c #adaaa5",
"`C c #bdb6b5",
"`D c #ff4142",
"`E c #ff3c39",
"`F c #bd1010",
"`G c #ad3029",
"`H c #8c8684",
"`I c #949294",
"`J c #ada6a5",
"`K c #bdbebd",
"`L c #a52829",
"`M c #7b7573",
"`N c #848684",
"`O c #9c9e9c",
"`P c #bd0c08",
"`Q c #bd0408",
"`R c #8c4163",
"`S c #736d73",
"`T c #847d7b",
"`U c #9c9a94",
"`V c #b5b6ad",
"`W c #b51c21",
"`X c #8c4984",
"`Y c #7375ce",
"`Z c #6b71a5",
"`0 c #7b797b",
"`1 c #949694",
"`2 c #b5b2ad",
"`3 c #cec7c6",
"`4 c #ef454a",
"`5 c #8c61a5",
"`6 c #737dd6",
"`7 c #7379d6",
"`8 c #6b75ce",
".` c #7375ad",
".. c #948e94",
".# c #adaead",
".a c #c6c3bd",
".b c #e79a94",
".c c #de8e8c",
".d c #ce7d7b",
".e c #b5696b",
".f c #a55d5a",
".g c #9c555a",
".h c #7b65a5",
".i c #7b7dad",
".j c #a59ea5",
".k c #8c8e8c",
".l c #6b6d6b",
".m c #6b6973",
".n c #7375b5",
".o c #7b82b5",
".p c #ada6ad",
".q c #8c8a84",
".r c #84827b",
".s c #7b7984",
".t c #7379bd",
".u c #adaaad",
".v c #b5aead",
".w c #a5a6a5",
".x c #8c8e94",
".y c #7b7dbd",
".z c #9c9aa5",
".A c #7b82bd",
".B c #7b82c6",
".C c #9c9aad",
".D c #7b7dce",
".E c #949aad",
".F c #bd9eb5",
".G c #d6b2ad",
".H c #e7bab5",
".I c #e7bebd",
".J c #efc3c6",
".K c #d69e9c",
".L c #9496ad",
".M c #7b7dd6",
".N c #b596b5",
".O c #ffbebd",
".P c #9c8aad",
".Q c #efaaad",
".R c #f7aead",
".S c #f7b2b5",
".T c #de7573",
".U c #b5928c",
".V c #ff494a",
".W c #c6a29c",
".X c #d6aead",
".Y c #deb6ad",
".Z c #9c2421",
".0 c #736d6b",
".1 c #b5b6b5",
".2 c #deb6b5",
".3 c #bd0000",
".4 c #943031",
".5 c #6b696b",
".6 c #7b7d7b",
".7 c #9c9694",
".8 c #6b5d5a",
"#` c #a55152",
"#. c #9c2829",
"## c #6b5552",
"#a c #636563",
"#b c #6b6563",
"#c c #7b7973",
"#d c #8c8a8c",
"#e c #cecfce",
"#f c #000000",
"#g c #000000",
"#h c #000000",
"#i c #000000",
"#j c #000000",
"#k c #000000",
"#l c #000000",
"#m c #000000",
"#n c #000000",
"#o c #000000",
"#p c #000000",
"#q c #000000",
"#r c #000000",
"#s c #000000",
"#t c #000000",
"#u c #000000",
"#v c #000000",
"#w c #000000",
"#x c #000000",
"#y c #000000",
"#z c #000000",
"#A c #000000",
"#B c #000000",
"#C c #000000",
"#D c #000000",
"#E c #000000",
"#F c #000000",
"#G c #000000",
"#H c #000000",
"#I c #000000",
"#J c #000000",
"#K c #000000",
"#L c #000000",
"#M c #000000",
"#N c #000000",
"#O c #000000",
"#P c #000000",
"#Q c #000000",
"#R c #000000",
"#S c #000000",
"#T c #000000",
"#U c #000000",
"#V c #000000",
"#W c #000000",
"#X c #000000",
"#Y c #000000",
"#Z c #000000",
"#0 c #000000",
"#1 c #000000",
"#2 c #000000",
"#3 c #000000",
"#4 c #000000",
"#5 c #000000",
"#6 c #000000",
"#7 c #000000",
"#8 c #000000",
"a` c #000000",
"a. c #000000",
"a# c #000000",
"aa c #000000",
"ab c #000000",
"ac c #000000",
"ad c #000000",
"ae c #000000",
"af c #000000",
"ag c #000000",
"ah c #000000",
"ai c #000000",
"aj c #000000",
"ak c #000000",
"al c #000000",
"am c #000000",
"an c #000000",
"ao c #000000",
"ap c #000000",
"aq c #000000",
"ar c #000000",
"as c #000000",
"at c #000000",
"au c #000000",
"av c #000000",
"aw c #000000",
"ax c #000000",
"ay c #000000",
"az c #000000",
"aA c #000000",
"aB c #000000",
"aC c #000000",
"aD c #000000",
"aE c #000000",
"aF c #000000",
"aG c #000000",
"aH c #000000",
"aI c #000000",
"aJ c #000000",
"aK c #000000",
"aL c #000000",
"aM c #000000",
"aN c #000000",
"aO c #000000",
"aP c #000000",
"aQ c #000000",
"aR c #000000",
"aS c #000000",
"aT c #000000",
"aU c #000000",
"aV c #000000",
"aW c #000000",
"aX c #000000",
"aY c #000000",
"aZ c #000000",
"a0 c #000000",
"a1 c #000000",
"a2 c #000000",
"a3 c #000000",
"a4 c #000000",
"a5 c #000000",
"a6 c #000000",
"a7 c #000000",
"a8 c #000000",
/* pixels */
"````````````````````````````````````````````````````````````````````````",
"````````````````````````````````````````````````````````````````````````",
"```````.`#`a`a`a`a`a`a`b````````````````````````````````````````````````",
"```````c`d`d`d`d`d`e`f`g`h`h`i``````````````````````````````````````````",
"`````j`k`l`l`m`k`n`o`p`q`r`s`t`u````````````````````````````````````````",
"`````v`w`x`x`x`x`x`y`p`z`A`B`C`t`i``````````````````````````````````````",
"`````v`x`D`D`D`D`E`F`p`G`H`I`J`K`h``````````````````````````````````````",
"`````v`x`D`D`D`D`E`F`p`L`M`N`O`C`h``````````````````````````````````````",
"`````v`x`D`D`D`D`E`P`Q`R`S`T`U`V`h``````````````````````````````````````",
"`````v`x`D`D`D`D`E`W`X`Y`Z`0`1`2`3``````````````````````````````````````",
"`````v`x`D`D`D`D`4`5`6`7`8.`...#.a`i````````````````````````````````````",
"`````j.b.c.d.e.f.g.h`6`6`7`8.i.j`r`h````````````````````````````````````",
"```````i.a`B.k`M.l.m.n`6`6`7`8.o.p`s`h``````````````````````````````````",
"```````i`t`2`U.q.r`T.s.t`6`6`7`8.o.u`s`h````````````````````````````````",
"`````````h`s.v.w`A`O`U.x.y`6`6`7`8.o.u`s`h``````````````````````````````",
"`````````i`h.a`K`r`r`C.#.z.A`6`6`7`8.o.u`s`h````````````````````````````",
"`````````````i`u`h`h`h.a`C.j.B`6`6`7`8.o.u`s`h``````````````````````````",
"```````````````````````i`3`r.C.D`6`6`7`8.o.u`s`h````````````````````````",
"`````````````````````````i`3`r.C.D`6`6`7`8.o.u`s`h``````````````````````",
"```````````````````````````i`3`r.C.D`6`6`7`8.o.u`s`h````````````````````",
"`````````````````````````````i`3`r.E.D`6`6.D.F.G.H.I.J`a.J.K````````````",
"```````````````````````````````i`3`C.L.D.M.N.O`d`d`d`d.O`f`g`h`h`i``````",
"`````````````````````````````````i`3`C.L.P.Q.R.R.S.S.S.T`p`q`r`s`t`u````",
"```````````````````````````````````i`3`C.U.V`x`x`x`x`x`y`p`z`A`B`C`t`i``",
"`````````````````````````````````````i`3.W`x`D`D`D`D`E`F`p`G`H`I`J`K`h``",
"```````````````````````````````````````i.X`x`D`D`D`D`E`F`p`L`M`N`O`C`h``",
"````````````````````````````````````````.Y`x`D`D`D`D`E`P`p.Z.0`T`U.1`h``",
"````````````````````````````````````````.2`x`D`D`D`D`E`P.3.4.5.6.7`V`3``",
"`````````````````````````````````````````v`x`D`D`D`D`E`P.Z.8.5.6.7.1`h``",
"`````````````````````````````````````````j.b.c.d.e.f#`#.###a.0.r`O`C`h``",
"```````````````````````````````````````````i.a`B.k`M.l#b.5.0#c#d.w`K`u``",
"```````````````````````````````````````````i`t`2`U.q.r`T`T.r.k`O`2`t`i``",
"`````````````````````````````````````````````h`s.v.w`A`O`O`A`J`2.a`h````",
"`````````````````````````````````````````````i`h.a`K`r`r`r`r`s`t`h``````",
"`````````````````````````````````````````````````i`u`h`h`h`h#e`i````````",
"````````````````````````````````````````````````````````````````````````"
};
