/* XPM */
static char *calc[] = {
/* width height num_colors chars_per_pixel */
"    36    36      128            2",
/* colors */
"`` c #717d6d",
"`. c #797975",
"`# c #04ba04",
"`a c #1cae1c",
"`b c #10ba0c",
"`c c #3c9d38",
"`d c #20ae1c",
"`e c #20b21c",
"`f c #24aa24",
"`g c #24ba24",
"`h c #34a534",
"`i c #34b234",
"`j c #04c204",
"`k c #24c220",
"`l c #409124",
"`m c #40993c",
"`n c #40a53c",
"`o c #489944",
"`p c #509548",
"`q c #559550",
"`r c #44a540",
"`s c #50a54c",
"`t c #698165",
"`u c #6d9969",
"`v c #71816d",
"`w c #798575",
"`x c #799575",
"`y c #61b25d",
"`z c #69a165",
"`A c #71aa6d",
"`B c #79aa75",
"`C c #75ba71",
"`D c #6dc669",
"`E c #9d3c38",
"`F c #ae201c",
"`G c #aa2828",
"`H c #a13838",
"`I c #b63030",
"`J c #a1403c",
"`K c #895d59",
"`L c #994444",
"`M c #915555",
"`N c #89615d",
"`O c #856561",
"`P c #85716d",
"`Q c #817575",
"`R c #916d69",
"`S c #957975",
"`T c #ae4444",
"`U c #a15050",
"`V c #b65955",
"`W c #b6615d",
"`X c #a17979",
"`Y c #b66561",
"`Z c #ba7975",
"`0 c #c20404",
"`1 c #c21010",
"`2 c #c2201c",
"`3 c #c62828",
"`4 c #c23c38",
"`5 c #ca615d",
"`6 c #c67571",
"`7 c #81857d",
"`8 c #81c67d",
".` c #8d9985",
".. c #918d89",
".# c #91918d",
".a c #999591",
".b c #89a581",
".c c #8db285",
".d c #91a18d",
".e c #99aa91",
".f c #99b695",
".g c #aa8581",
".h c #a59995",
".i c #be918d",
".j c #b69d99",
".k c #a5a19d",
".l c #a5b69d",
".m c #aaaaa1",
".n c #aabea5",
".o c #b2aaa5",
".p c #b2b2ae",
".q c #babab2",
".r c #91c28d",
".s c #9dca95",
".t c #a5caa1",
".u c #bec2b6",
".v c #c28985",
".w c #c2918d",
".x c #ca9995",
".y c #cea19d",
".z c #caaeaa",
".A c #c2bab6",
".B c #d2aeaa",
".C c #d2b2ae",
".D c #d2bab6",
".E c #c2c6ba",
".F c #cacac2",
".G c #d2cac6",
".H c None",
".I c #b21010",
".J c #b61814",
".K c #b21818",
".L c #ba1010",
".M c #ba1818",
".N c #858181",
".O c #858981",
".P c #898581",
".Q c #898985",
".R c #8d8d89",
".S c #55b255",
".T c #55ba50",
".U c #59b255",
".V c #5db659",
".W c #59ba55",
".X c #10b610",
".Y c #10be10",
".Z c #18b218",
".0 c #18be18",
".1 c #b22020",
".2 c #b22c2c",
".3 c #be2020",
".4 c #ba2824",
".5 c #be0000",
".6 c #ba0808",
".7 c #618959",
".8 c #000000",
/* pixels */
".H.H.H.H.H.H.H.H.H.H.H.H.H.H.H.H.H.H.H.H.H.H.H.H.H.H.H.H.H.H.H.H.H.H.H.H",
".H.H.H.H.H.H.H.H.H.B.B.B.H.H.H.H.H.H.H.H.H.H.H.H.H.H.H.H.H.H.H.H.H.H.H.H",
".H.H.H.H.H.H.H.G.v`0`0`0.v.E.F.F.G.G.H.H.H.H.H.H.H.H.H.H.H.H.H.H.H.H.H.H",
".H.H.H.G.x.y.F.F`6`0`0`0`Y.p.q.v.x.F.F.G.H.H.H.H.H.H.H.H.H.H.H.H.H.H.H.H",
".H.H.G`6`0`1.i.A`V`0`0`0`V.k`W`0`1.v.E.F.F.G.H.H.H.H.H.H.H.H.H.H.H.H.H.H",
".H.H.x`0`0`0`1.4`0`0`0`0`0.1`0`0`0`1.j.q.E.F.H.H.H.H.H.H.H.H.H.H.H.H.H.H",
".H.H.y`1`0`0`0`0`0`0`0`0`0`0`0`0`0.M.h.o.u.F.G.H.H.H.H.H.H.H.H.H.H.H.H.H",
".H.H.F.i`1`0`0`0`0.L.I.6`0`0`0`0.J`S.a.k.q.E.F.H.H.H.H.H.H.H.H.H.H.H.H.H",
".H.H.F.q.3`0`0`0`L`P`Q`P`G`0`0.6`E`7...h.o.u.F.G.H.H.H.H.H.H.H.H.H.H.H.H",
".G`5`4`I`0`0`0`E`.`.`7.Q`7`G`0`0.6`G`G`T.k.q.F.G.H.H.H.H.H.H.H.H.H.H.H.H",
".B`0`0`0`0`0`0`N`.`7...a.a`X`0`0`0`0`0`0.g.p.u.F.G.H.H.H.H.H.H.H.H.H.H.H",
".B`0`0`0`0`0`0`N`7...a.k.m.g`0`0`0`0`0`0`X.m.q.F.G.H.H.H.H.H.H.H.H.H.H.H",
".D`3.M`1`0`0`0`K`7.#.k.p.q`Z`0`0`0`0`0.L`S.k.p.E.F.G.H.H.H.H.H.H.H.H.H.H",
".H.G.o`X`0`0`0.K`Q.a.m.q.i`1`0`0.K`K`N`P...h.o.u.F.s.t.E.F.G.G.H.H.H.H.H",
".H.H.p.k.1`0`0`0`F`U`W`W.M`0`0`0`E`.`.`w`s`z.m.q.r`j`j`k.r.E.F.G.H.H.H.H",
".H.H.q`W`1`0`0`0`0`0`0`0`0`0`0`0.6`M`p`b`#`b.e.p.W`j`j`j.W.q.u.F.F.H.H.H",
".H.H.i`0`0`0`0`0`0`0`0`0`0`0`0`0`0.6`l`#`j`#`i`y.Y`j`j`#`A.k.p.q.F.F.G.H",
".H.H.z`2`0`0.1`L.I`0`0`0.K`L.I`0`0`G.7`#`j`j`#`#`#`j`j`#`u.`.S`g.f.E.F.G",
".H.H.F.i`2.4`S`7`L`0`0`0`L`.`K.I`F`P`w`a`#`j`j`j`j`j`j`#`b.X`#`j`i.p.u.F",
".H.H.F.E.o.k.a..`U`0`0`0`L`.`7`p`a`h`o`#`j`j`#`b`b`#`#`#`#`#`j`j`#.c.p.u",
".H.H.G.F.u.p.m.k`X`I`I`G`R.Q.Q.Z`#`#`#`#`#`#`f`t``.7`h`#`j`j`#`#`d.`.m.q",
".H.H.H.F.F.u.q.p.o.m.k.a.#.a.b`b`j`j`j`j`#`c`.`.`7`7`w.Z`#`j`#`o`7...k.p",
".H.H.H.H.G.F.F.E.u.q.p.m.k.k.e.0`#`#`#`j`#`t`.`7...#.a`z`#`j`#`t`Q...k.p",
".H.H.H.H.H.G.G.F.F.F.u.q.q.q.q.l`B`i`#`#`b```7...a.k.m`B`#`j`#`a`o`x.h.p",
".H.H.H.H.H.H.H.H.G.G.F.F.F.E.E.u.p`A`#`j`#.7`7.#.k.p.q.T`#`j`j`#`#.Z.a.o",
".H.H.H.H.H.H.H.H.H.H.H.G.G.G.F.u`C`b`#`j`#`a`7.a.m.p.f.0`#`j`j`j`j`a.a.m",
".H.H.H.H.H.H.H.H.H.H.H.H.H.H.G`D`j`j`j`j`j`#`e`r`B`y`b`#`j`#`b`#`#`n.a.m",
".H.H.H.H.H.H.H.H.H.H.H.H.H.H.G`8`j`j`j`#`#`j`#`#`#`#`j`j`#`f```t`t`7.a.m",
".H.H.H.H.H.H.H.H.H.H.H.H.H.H.H.E`g`#`b`n`a`#`j`j`j`j`j`j`#`c`.`.`7...h.o",
".H.H.H.H.H.H.H.H.H.H.H.H.H.H.H.F.n.c.d..`p`#`j`#`#`#`#`j`j`#```7...h.m.q",
".H.H.H.H.H.H.H.H.H.H.H.H.H.H.H.F.E.q.m.a`i`#`j`#`c```a`#`j`#`q...a.m.q.E",
".H.H.H.H.H.H.H.H.H.H.H.H.H.H.H.G.F.u.q.m`g`#`#`#.7`..7`b`b`o`7.#.k.q.E.F",
".H.H.H.H.H.H.H.H.H.H.H.H.H.H.H.H.G.F.E.q.f.U`i`n`7.P.Q.O.Q...#.k.o.u.F.G",
".H.H.H.H.H.H.H.H.H.H.H.H.H.H.H.H.H.G.F.F.u.p.k.a.a.a.a.h.k.k.k.o.q.E.F.H",
".H.H.H.H.H.H.H.H.H.H.H.H.H.H.H.H.H.H.H.G.F.u.p.o.m.m.o.p.p.p.q.q.E.F.G.H",
".H.H.H.H.H.H.H.H.H.H.H.H.H.H.H.H.H.H.H.H.G.F.E.q.q.q.u.E.E.E.E.F.F.G.H.H"
};
