/* XPM */
static char *drawing_tools[] = {
/* width height num_colors chars_per_pixel */
"    36    36      256            2",
/* colors */
"`` c #755d55",
"`. c #615069",
"`# c #79657d",
"`a c #7d6975",
"`b c #797565",
"`c c #757175",
"`d c #3440ba",
"`e c #3c48ce",
"`f c #444485",
"`g c #44448d",
"`h c #484481",
"`i c #4850ae",
"`j c #5959b6",
"`k c #5d6191",
"`l c #795081",
"`m c #615da5",
"`n c #6159aa",
"`o c #7548ba",
"`p c #656581",
"`q c #6d6191",
"`r c #716585",
"`s c #75799d",
"`t c #7d7d9d",
"`u c #696db2",
"`v c #6d71aa",
"`w c #6d71b2",
"`x c #7175a5",
"`y c #7575aa",
"`z c #7979ae",
"`A c #7175b2",
"`B c #4048d6",
"`C c #484cda",
"`D c #4c50ca",
"`E c #4450de",
"`F c #4c50d2",
"`G c #4850da",
"`H c #594cd2",
"`I c #594cda",
"`J c #5059c2",
"`K c #555dd2",
"`L c #5059da",
"`M c #4450e6",
"`N c #4450ea",
"`O c #4c59e6",
"`P c #4c59ea",
"`Q c #5050e6",
"`R c #5059e2",
"`S c #5d65c2",
"`T c #5961ca",
"`U c #5561de",
"`V c #714cc2",
"`W c #6169c6",
"`X c #6d71c6",
"`Y c #7175ca",
"`Z c #7d81b2",
"`0 c #be3855",
"`1 c #b63c65",
"`2 c #ba3c69",
"`3 c #8d7138",
"`4 c #9d752c",
"`5 c #917134",
"`6 c #917138",
"`7 c #9d7d38",
"`8 c #a57924",
".` c #ae7d20",
".. c #a57d34",
".# c #aa7d30",
".a c #8d446d",
".b c #856944",
".c c #8d715d",
".d c #997548",
".e c #997940",
".f c #a15d59",
".g c #ba4c48",
".h c #aa6161",
".i c #b26565",
".j c #b26965",
".k c #b66969",
".l c #ba6d6d",
".m c #e6343c",
".n c #ea3434",
".o c #ea3438",
".p c #f23434",
".q c #f23838",
".r c #fa3838",
".s c #ca3850",
".t c #d63444",
".u c #de3848",
".v c #e23840",
".w c #c65050",
".x c #ca5050",
".y c #d25555",
".z c #d25959",
".A c #da5d5d",
".B c #c27575",
".C c #ca7d7d",
".D c #de6161",
".E c #e26561",
".F c #e26965",
".G c #e66969",
".H c #953c81",
".I c #89449d",
".J c #9d4085",
".K c #994089",
".L c #8144a1",
".M c #b28118",
".N c #b6891c",
".O c #ba8514",
".P c #be8910",
".Q c #ba8918",
".R c #ae8934",
".S c #aa893c",
".T c #b28520",
".U c #ba8d20",
".V c #b68d30",
".W c #be9534",
".X c #ba9538",
".Y c #958159",
".Z c #9d8959",
".0 c #818179",
".1 c #898571",
".2 c #998961",
".3 c #918975",
".4 c #998d71",
".5 c #be9944",
".6 c #b29555",
".7 c #b2955d",
".8 c #ba9950",
"#` c #a5956d",
"#. c #ae9969",
"## c #bea56d",
"#a c #c68d04",
"#b c #c28d10",
"#c c #c69108",
"#d c #c69110",
"#e c #c69118",
"#f c #c29120",
"#g c #c29534",
"#h c #c29d44",
"#i c #c29d48",
"#j c #c6aa69",
"#k c #c2aa71",
"#l c #c2ae7d",
"#m c #858581",
"#n c #898581",
"#o c #89858d",
"#p c #8d8985",
"#q c #8d8d89",
"#r c #818199",
"#s c #898591",
"#t c #898991",
"#u c #918d85",
"#v c #918d8d",
"#w c #91918d",
"#x c #959591",
"#y c #91919d",
"#z c #999591",
"#A c #999999",
"#B c #8181a1",
"#C c #8989a1",
"#D c #8589b6",
"#E c #9595aa",
"#F c #a19d99",
"#G c #a1a19d",
"#H c #beaa81",
"#I c #baae8d",
"#J c #b2aa91",
"#K c #baae99",
"#L c #bab299",
"#M c #a5a1a1",
"#N c #aaa5a1",
"#O c #aaaaaa",
"#P c #b6aea1",
"#Q c #b2aeaa",
"#R c #b6b2a5",
"#S c #b6b6b2",
"#T c #bab6b2",
"#U c #bebeba",
"#V c #ca9995",
"#W c #d68585",
"#X c #de918d",
"#Y c #c6ba99",
"#Z c #c2baa1",
"#0 c #c2beb2",
"#1 c #c2beba",
"#2 c #c6c6c2",
"#3 c #cac6c2",
"#4 c #d2ceca",
"#5 c None",
"#6 c #c2890c",
"#7 c #c28d08",
"#8 c #c28d0c",
"a` c #c68d08",
"a. c #c68d0c",
"a# c #c2c2ba",
"aa c #c2c2be",
"ab c #c6c2ba",
"ac c #c6c2be",
"ad c #c6c6be",
"ae c #999991",
"af c #999995",
"ag c #9d9991",
"ah c #9d9995",
"ai c #aaaaa5",
"aj c #aeaaa1",
"ak c #aeaaa5",
"al c #aeaea5",
"am c #3038a5",
"an c #3438a1",
"ao c #3438a5",
"ap c #3840c2",
"aq c #3844c2",
"ar c #3844c6",
"as c #4048da",
"at c #404cda",
"au c #404cde",
"av c #404ce2",
"aw c #444ce2",
"ax c #444ce6",
"ay c #4850ea",
"az c #4855ee",
"aA c #4c50ee",
"aB c #4850f2",
"aC c #4855f2",
"aD c #4855f6",
"aE c #b2b2ae",
"aF c #b6b2ae",
"aG c #b6b6ae",
"aH c #babab6",
"aI c #bebab6",
"aJ c #bebeb6",
"aK c #cacac2",
"aL c #cecac6",
"aM c #cecec6",
"aN c #504879",
"aO c #50487d",
"aP c #69595d",
"aQ c #6d5959",
"aR c #34389d",
"aS c #343c9d",
"aT c #383c95",
"aU c #3c3c91",
"aV c #3038aa",
"aW c #343cae",
"aX c #343cb2",
"aY c #343cb6",
"aZ c #3840ba",
"a0 c #3840be",
"a1 c #3c44ca",
"a2 c #3c44ce",
"a3 c #3c48d2",
"a4 c #3c48d6",
"a5 c #797d95",
"a6 c #7d7d95",
"a7 c #594c71",
"a8 c #000000",
/* pixels */
"#5#5#5#5#5#5#5#5#5#5#5#5#5#5#5#5#5#5#5#5#5#5#5#5#5#5#5#5#5#5#5#5#5#5#5#5",
"#5#4aL#3adaa#1#1#1#1#1#1#1#1#1#1#1#1#1#1#1#1#1aaad#3aL#4#5#5#5#5#5#5#5#5",
"#5aL#X.G.G.E.E.E.E.E.E.E.E.E.E.E.E.E.E.E.E.E.E.E#W#1#3aL#5#5#5#5#5#5#5#5",
"#5#3.G.r.r.r.r.r.r.r.r.r.r.r.r.r.r.r.r.r.r.r.r.r.DaF#1#3#4#5#5#5#5#5#5#5",
"#5ad.G.r.r.r.r.r.r.r.r.r.r.r.r.r.r.r.r.r.r.r.r.r.A#N#TadaM#5#5#5#5#5#5#5",
"#5aa.E.r.r.r.r.r.r.r.r.r.r.r.r.r.r.r.r.r.r.r.r.r.z#FaFaaaL#5#5#5#5#5#5#5",
"#5#1.E.r.r.r.r.r.r.r.r.r.r.r.r.r.r.r.r.r.r.r.r.r.yaf#Q#1aL#4#4#5#5#5#5#5",
"#5#1.E.r.r.r.r.r.r.r.r.r.r.r.r.r.r.r.r.r.r.r.r.r.x#zak#U#3aLaLaM#4#4#5#5",
"#5#1.E.r.r.r.r.r.r.r.r.r.r.r.r.r.r.r.r.r.r.r.r.r.x#waiaHacab#Yac#3aL#4#5",
"#5#1.E.r.r.r.r.r.r.r.r.r.r.r.r.r.r.r.r.r.r.r.q.q.w#v#GaE#L#i#d#HaJacaL#4",
"#5#1.E.r.r.r.r.r.r.r.r.r.r.r.r.r.r.r.q.p.p.n.n.n.g#m#z#.#f#a#a#f#JaHacaL",
"#5#1.E.r.r.r.r.r.r.r.r.r.r.r.r.r.q.p.m.s`1.J.L.H.a`c.Sa.#a#a#a#a.X#P#1aK",
"#5#1.E.r.r.r.r.r.r.r.r.r.r.r.r.q.o`2`V`QaA`N`Nax`n..a`#a#a#a#a#b.6ajaJ#3",
"#5#1.E.r.r.r.r.r.r.r.r.r.r.r.q.v.K`QaCaC`N`N`G`#.Q#a#a#a#a#a.N.2ae#OaJaK",
"#5#1.E.r.r.r.r.r.r.r.r.r.r.q.u`oaCaCaC`N`M`j.da`#a#a#a#a#6`3`b#n#AaEa#aL",
"#5#1.E.r.r.r.r.r.r.r.r.r.q.n.KaCaC`N`N`E`q.T#a#a#a#a#a.``.aS`p#p#G#SacaL",
"#5#1.E.r.r.r.r.r.r.r.r.r.p.s`IaC`N`M`D.c#8#a#a#a#a#7`5`faV`d`i#o#G#T#2#4",
"#5#1.E.r.r.r.r.r.r.r.r.q.n.I`N`Naw`m.#a`#a#a#a#a.MaPaRaWa0a2`B`x#G#T#2aM",
"#5#1.E.r.r.r.r.r.r.r.r.q.t`H`N`F`a.Q#a#a#a#aa``4aOamaYaqa3au`M`T#AaFaaaL",
"#5ac.F.r.r.r.r.r.r.r.r.n`0`C`j.ea`#a#a#a#a.P``aTaWaZa1`Bav`N`N`R#yak#1aL",
"#5#3#V.C.B.l.k.j.j.i.h.f`l`r.T#a#a#a#aa``8a7aoaYapa3atax`NaBaCaz#B#NaI#3",
"#5aKa##Tak#G#Aahaf#x#q.1.e#8#a#a#a#a#6.baUaV`da1a4av`N`NaCaCaDaD`A#G#Tad",
"#5aM#3aaaI#SaE#Qak#G#`.U#a#a#a#a#a.M`.anaXa0a2asaw`N`NaCaDaDaDaD`W#FaFac",
"#5#5aMaKadac#U#T#P.8#d#a#a#a#a#7`6`haV`dara3au`M`NaCaCaDaDaDaDaD`w#FaFac",
"#5#5#4#4aLad#1#I#ga`#a#a#a#a.OaQaRaWa0a1asav`N`NaCaDaDaDaDaDaDaz`t#FaGac",
"#5#5#4aL#3#0###e#a#a#a#aa``4aNamaYaqa3au`M`NaCaCaDaDaDaDaDaDaD`L#s#G#T#3",
"#5#5aM#3#Z#h#c#a#a#a#a#8`7`gaWaZa1`Bav`N`NaCaCaDaDaDaDaDaDaDaD`S#w#NaI#3",
"#5#4#3#l#f#a#a#a#a#a.U.Y.0`kap`eatax`N`NaCaDaDaDaDaDaDaDaDaDaz`saf#Q#1aL",
"#5aL#j#d#a#a#a#aa..R.3#q#w#t`Jav`N`NaCaCaDaDaDaDaDaDaDaDaDaD`S#q#G#TacaM",
"#5aL#k#c#a#a#a.Q.Z#u#z#G#M#M`Zay`NaCaDaDaDaDaDaDaDaDaDaDaD`Oa6afak#U#3#4",
"#5aL#0.5#aa`.V.4#w#FaiaF#T#T#O`Y`PaDaDaDaDaDaDaDaDaDaDaD`O`v#w#M#TacaL#5",
"#5aLaa#K.W.7ag#A#M#QaIa#acacaI#O#D`RaDaDaDaDaDaDaDaDaC`Ka5#w#GaF#1aL#4#5",
"#5aM#3#U#Ralak#Q#T#1#3aLaMaLadaI#Q#E`X`U`PaDaDaD`P`L`u#o#z#GaF#1#3#4#5#5",
"#5#4aL#3a#aJaI#1acaKaM#5#4#4aL#3aJaF#N#A#C`z`A`y#r#t#x#Fai#S#1#3aM#5#5#5",
"#5#5#4aMaL#3#3aLaL#4#5#5#5#5#4aL#3a#aHaEak#M#G#G#G#MakaFaIacaKaM#5#5#5#5",
"#5#5#5#5#4#4#4#4#5#5#5#5#5#5#5#5#4aL#3aaaJaH#T#S#TaH#Uac#3aL#4#5#5#5#5#5"
};
