/* XPM */
static char *ibcY[] = {
/* width height num_colors chars_per_pixel */
"    18    18       16            1",
/* colors */
"` c #000000",
". c #800000",
"# c #008000",
"a c None",
"b c #000080",
"c c #800080",
"d c #008080",
"e c #c0c0c0",
"f c #808080",
"g c #ff0000",
"h c #00ff00",
"i c #ffff00",
"j c #0000ff",
"k c #ff00ff",
"l c #00ffff",
"m c #ffffff",
/* pixels */
"mmmmmmmm`mmmmmmmmm",
"mmmmmmm`m`mmmmmmmm",
"mmmmmm`mmm`mmmmmmm",
"mmmmm`mmmmm`mmmmmm",
"mmmm`mmmmmmm`mmmmm",
"mmmm`````````mmmmm",
"mmm`mm`mmm`mm`mmmm",
"mmm`mm`mmm`mm`mmmm",
"m````````````````m",
"mmm`mmm`mmm`mmm`mm",
"mm`mmm`mmm`mmm`mmm",
"m`mmm`mmm`mmm`mmmm",
"mmmmmmmmmmmmmmmmmm",
"mmmmmmmmmmmmmmmmmm",
"mmmmmmmmmmmmmmmmmm",
"mmmmmmmmmmmmmmmmmm",
"mmmmmmmmmmmmmmmmmm",
"mmmmmmmmmmmmmmmmmm"
};
