/* XPM */
static char *imgGeom[] = {
/* width height num_colors chars_per_pixel */
"    25   200       16            1",
/* colors */
"` c #000000",
". c #800000",
"# c #008000",
"a c None",
"b c #000080",
"c c #800080",
"d c #008080",
"e c #c0c0c0",
"f c #808080",
"g c #ff0000",
"h c #00ff00",
"i c #ffff00",
"j c #0000ff",
"k c #ff00ff",
"l c #00ffff",
"m c #ffffff",
/* pixels */
"aaaaaaaaaaaaaaaaaaaaaaaaa",
"aaaaaaaaaaaaaaaaaaaaaaaaa",
"aaaaaaaaaaaaaaaaaaaaaaaaa",
"aaaaaaaaaaaaaaaaaaaaaaaaa",
"aaaaaaaaaaaaaaaaaaaaaaaaa",
"aaaaaaaaaaaaaaaaaaaaaaaaa",
"aaaaaaaaaaaaaaaaaaaaaaaaa",
"aaaaaaaaaaaaaaaaaaaaaaaaa",
"aaaaaaaaaaaaaaaaaaaaaaaaa",
"aaaaaaaaaaaaaaaaaaaaaaaaa",
"aaaaaaaaaaaaaaaaaaaaaaaaa",
"aaaaaaaaaaaaaaaaaaaaaaaaa",
"aaaaaaaaaaaaaaaaaaaaaaaaa",
"aaaaaaaaaaaaaaaaaaaaaaaaa",
"aaaaaaaaaaaaaaaaaaaaaaaaa",
"aaaaaaaaaaaaaaaaaaaaaaaaa",
"aaaaaaaaaaaaaaaaaaaaaaaaa",
"aaaaaaaaaaaaaaaaaaaaaaaaa",
"aaaaaaaaaaaaaaaaaaaaaaaaa",
"aaaaaaaaaaaaaaaaaaaaaaaaa",
"aaaaaaaaaaaaaaaaaaaaaaaaa",
"aaaaaaaaaaaaaaaaaaaaaaaaa",
"aaaaaaaaaaaaaaaaaaaaaaaaa",
"aaaaaaaaaaaaaaaaaaaaaaaaa",
"aaaaaaaaaaaaaaaaaaaaaaaaa",
"aaaaaaaaaaaaaaaaaaaaaaaaa",
"aaaaaaaaaaaaaaaaaaaaaaaaa",
"aaaaaaaaaaaaaaaaaaaaaaaaa",
"aaaaaaaaaaaaaaaaaaaaaaaaa",
"aaaaaaaaaaaaaaaaaaaaaaaaa",
"aaaaaaaaaaaaaaaaaaaaaaaaa",
"aaaaaaaaaaaaaaaaaaaaaaaaa",
"aaaaaaaaaaaaaaaaaaaaaaaaa",
"aaaaaaaaaaaaaaaaaaaaaaaaa",
"aaaaaaaaaaaaaaaaaaaaaaaaa",
"aaaaaaaaaaaaaaaaaaaaaaaaa",
"aaaaaaaaaaaaaaaaaaaaaaaaa",
"aaaaaaaaaaaaaaaaaaaaaaaaa",
"aaaaaaaaaaaaaaaaaaaaaaaaa",
"aaaaaaaaaaaaaaaaaaaaaaaaa",
"aaaaaaaaaaaaaaaaaaaaaaaaa",
"aaaaaaaaaaaaaaaaaaaaaaaaa",
"aaaaaaaaaaaaaaaaaaaaaaaaa",
"aaaaaaaaaaaaaaaaaaaaaaaaa",
"aaaaaaaaaaaaaaaaaaaaaaaaa",
"aaaaaaaaaaaaaaaaaaaaaaaaa",
"aaaaaaaaaaaaaaaaaaaaaaaaa",
"aaaaaaaaaaaaaaaaaaaaaaaaa",
"aaaaaaaaaaaaaaaaaaaaaaaaa",
"aaaaaaaaaaaaaaaaaaaaaaaaa",
"aaaaaaaaaaaaaaaaaaaaaaaaa",
"aaaaaaaaaaaaaaaaaaaaaaaaa",
"aaaaaaaaaaaaaaaaaaaaaaaaa",
"aaaaaaaaaaaaaaaaaaaaaaaaa",
"aaaaaaaaaaaaaaaaaaaaaaaaa",
"aaaaaaaaaaaaaaaaaaaaaaaaa",
"aaaaaaaaaaaaaaaaaaaaaaaaa",
"aaaaaaaaaaaaaaaaaaaaaaaaa",
"aaaaaaaaaaaaaaaaaaaaaaaaa",
"aaaaaaaaaaaaaaaaaaaaaaaaa",
"aaaaaaaaaaaaaaaaaaaaaaaaa",
"aaaaaaaaaaaaaaaaaaaaaaaaa",
"aaaaaaaaaaaaaaaaaaaaaaaaa",
"aaaaaaaaaaaaaaaaaaaaaaaaa",
"aaaaaaaaaaaaaaaaaaaaaaaaa",
"aaaaaaaaaaaaaaaaaaaaaaaaa",
"aaaaaaaaaaaaaaaaaaaaaaaaa",
"aaaaaaaaaaaaaaaaaaaaaaaaa",
"aaaaaaaaaaaaaaaaaaaaaaaaa",
"aaaaaaaaaaaaaaaaaaaaaaaaa",
"aaaaaaaaaaaaaaaaaaaaaaaaa",
"aaaaaaaaaaaaaaaaaaaaaaaaa",
"aaaaaaaaaaaaaaaaaaaaaaaaa",
"aaaaaaaaaaaaaaaaaaaaaaaaa",
"aaaaaaaaaaaaaaaaaaaaaaaaa",
"aaaaaaaaaaaaaaaaaaaaaaaaa",
"aaaaaaaaaaaaaaaaaaaaaaaaa",
"aaaaaaaaaaaaaaaaaaaaaaaaa",
"aaaaaaaaaaaaaaaaaaaaaaaaa",
"aaaaaaaaaaaaaaaaaaaaaaaaa",
"aaaaaaaaaaaaaaaaaaaaaaaaa",
"aaaaaaaaaaaaaaaaaaaaaaaaa",
"aaaaaaaaaaaaaaaaaaaaaaaaa",
"aaaaaaaaaaaaaaaaaaaaaaaaa",
"aaaaaaaaaaaaaaaaaaaaaaaaa",
"aaaaaaaaaaaaaaaaaaaaaaaaa",
"aaaaaaaaaaaaaaaaaaaaaaaaa",
"aaaaaaaaaaaaaaaaaaaaaaaaa",
"aaaaaaaaaaaaaaaaaaaaaaaaa",
"aaaaaaaaaaaaaaaaaaaaaaaaa",
"aaaaaaaaaaaaaaaaaaaaaaaaa",
"aaaaaaaaaaaaaaaaaaaaaaaaa",
"aaaaaaaaaaaaaaaaaaaaaaaaa",
"aaaaaaaaaaaaaaaaaaaaaaaaa",
"aaaaaaaaaaaaaaaaaaaaaaaaa",
"aaaaaemeaaaaaaaaaaaaaaaaa",
"aaaaafmmmeaaaaaaaaaaaaaaa",
"aaaaaaafmmmeaaaaaaaaaaaaa",
"aaaaaaaaaaemmeaaaaaaaaaaa",
"aaaaaaaaaaaaemmmfaaaaaaaa",
"aaaaaaaaaaaaemmmmmfaaaaaa",
"aaaaaaaaaaemmmmfemmeaaaaa",
"aaaaaaaaemmmeaaaaaemaaaaa",
"aaaaaaemmmeaaaaaaaameaaaa",
"aaaaaemmeaaaaaaaaaameaaaa",
"aaaaaeeaaaaaaaaaaaaeaaaaa",
"aaaaaaaaaaaaaaaaaaaaaaaaa",
"aaaaaaaaaaaaaaaaaaaaaaaaa",
"aaaaammmeaaaaaaaaaaaaaaaa",
"aaaaammeaaaaaaaaaaaaaaaaa",
"aaaaameaaaaaaaaaaaaaaaaaa",
"aaaaammaaaaaaaaaaaaaaaaaa",
"aaaaafmfaaaaaaaaaaaaaaaaa",
"aaaaaaemaaaaaaaaaaaaaaaaa",
"aaaaaeemmeeeeeeefaaaaaaaa",
"aaaaaemmmmmmmmmmeaaaaaaaa",
"aaaaaaaaaaaaaaaaaaaaaaaaa",
"aaaaaaaaaaaaaaaaaaaaaaaaa",
"aaaaaaaaaaaaaaaaaaaaaaaaa",
"aaaaaaaaaaaaaaaaaaaaaaaaa",
"aaaaaaaaaaaaaaaaaaaaaaaaa",
"aaaaafeaaaaaaaameaaaaaaaa",
"aaaaaemaaaaaaaaeeaaaaaaaa",
"aaaaaemaaaaaaaaeeaaaaaaaa",
"aaaaaemaaaaaaaameaaaaaaaa",
"aaaaaemaaaaaaaameaaaaaaaa",
"aaaeemmeeeeeeemmfaaaaaaaa",
"aaaemmmmmmmmmmmeaaaaaaaaa",
"aaaaaemaaaaaaaaaaaaaaaaaa",
"aaaaaemaaaaaaaaaaaaaaaaaa",
"aaaaaemaaaaaaaaaaaaaaaaaa",
"aaaaaaaaaaaaaaaaaaaaaaaaa",
"aaaaaaaaaaaaaaaaaaaaaaaaa",
"aaaaaaaaaaaaaaaaaaaaaaaaa",
"aaaaaaaemmmeaaamaaaaaaaaa",
"aaaaaammmmmeaaameaaaaaaaa",
"aaaaaemeaameaaaeeaaaaaaaa",
"aaaaameaaameaaaeeaaaaaaaa",
"aaaaameaaameaaameaaaaaaaa",
"aaaaameaaameaaameaaaaaaaa",
"aaaaaemeaameaammaaaaaaaaa",
"aaaaaammmmmmmmmeaaaaaaaaa",
"aaaaaaaemmmmmmeaaaaaaaaaa",
"aaaaaaaaafeefaaaaaaaaaaaa",
"aaaaaaaaaaaaaaaaaaaaaaaaa",
"aaaaaaaaaaaaaaaaaaaaaaaaa",
"aaaaaammmmmmmmmmeaaaaaaaa",
"aaaaammeeeeeeeeefaaaaaaaa",
"aaaaammaaaaaaaaaaaaaaaaaa",
"aaaaaameaaaaaaaaaaaaaaaaa",
"aaaaaaammeeeeeeeaaaaaaaaa",
"aaaaaemmmmmmmmmmeaaaaaaaa",
"aaaaammaaaaaaaaaaaaaaaaaa",
"aaaaaemaaaaaaaaaaaaaaaaaa",
"aaaaaaemfaaaaaaaaaaaaaaaa",
"aaaaaemmmmmmmmmmeaaaaaaaa",
"aaaaaeeeeeeeeeeefaaaaaaaa",
"aaaaaaaaaaaaaaaaaaaaaaaaa",
"aaaaaaaaaaaaaaaaaaaaaaaaa",
"aaaaaaaaemmmmeaaaaaaaaaaa",
"aaaaaaemmmmmmmmfaaaaaaaaa",
"aaaaaammefaaeemmaaaaaaaaa",
"aaaaaemaaaaaaafmeaaaaaaaa",
"aaaaameaaaaaaaameaaaaaaaa",
"aaaaameaaaaaaaaeeaaaaaaaa",
"aaaaammaaaaaaaameaaaaaaaa",
"aaaaaemeaaaaaammfaaaaaaaa",
"aaaaaammmmeemmmeaaaaaaaaa",
"aaaaaaaemmmmmmeaaaaaaaaaa",
"aaaaaaaaaeeefaaaaaaaaaaaa",
"aaaaaaaaaaaaaaaaaaaaaaaaa",
"aaaaaaaaaaaaaaaaaaaaaaaaa",
"aaaaaaaeemmeaafmaaaaaaaaa",
"aaaaaammmmmeaaameaaaaaaaa",
"aaaaaemefameaaameaaaaaaaa",
"aaaaameaaameaaaeeaaaaaaaa",
"aaaaameaaameaaameaaaaaaaa",
"aaaaameaaameaaameaaaaaaaa",
"aaaaaemfaameaammaaaaaaaaa",
"aaaaaammmemeemmmaaaaaaaaa",
"aaaaaaammmmmmmmaaaaaaaaaa",
"aaaaaaaafeeeefaaaaaaaaaaa",
"aaaaaaaaaaaaaaaaaaaaaaaaa",
"aaaaaaaaaaaaaaaaaaaaaaaaa",
"aaaaaaaaaaeeeeeeaaaaaaaaa",
"aaaemaaaaammmmmmfaaaaaaaa",
"aaammaaaaameeeemeaaaaaaaa",
"aaameaaaaameaaaeeaaaaaaaa",
"aaameaaaaameaaaeeaaaaaaaa",
"aaameaaaaaaaaaameaaaaaaaa",
"aaaemaaaaaaaaafmeaaaaaaaa",
"aaafmmaaaaaaaammaaaaaaaaa",
"aaaammmfaaaaemmeaaaaaaaaa",
"aaaaammmmmmmmmeaaaaaaaaaa",
"aaaaaaemmmmmmfaaaaaaaaaaa",
"aaaaaaaaaaaaaaaaaaaaaaaaa",
"aaaaaaaaaaaaaaaaaaaaaaaaa",
"aaaaaaaaaaaaaaaaaaaaaaaaa",
"aaaaaaaaaaaaaaaaaaaaaaaaa",
"aaaaaaaaaaaaaaaaaaaaaaaaa"
};
