/* XPM */
static char *rectangle[] = {
/* width height num_colors chars_per_pixel */
"    36    36      105            2",
/* colors */
"`` c #7d6d4c",
"`. c #7d714c",
"`# c #896514",
"`a c #8d6914",
"`b c #916914",
"`c c #916d14",
"`d c #956d14",
"`e c #997114",
"`f c #9d7514",
"`g c #816934",
"`h c #816d38",
"`i c #856d38",
"`j c #a17914",
"`k c #a57914",
"`l c #aa7d18",
"`m c #81714c",
"`n c #8d7540",
"`o c #817150",
"`p c #857550",
"`q c #8d7d55",
"`r c #817965",
"`s c #817d79",
"`t c #817d7d",
"`u c #ae8118",
"`v c #b28518",
"`w c #b68518",
"`x c #b68918",
"`y c #ba8918",
"`z c #be8d18",
"`A c #be9118",
"`B c #998148",
"`C c #99855d",
"`D c #81817d",
"`E c #a5894c",
"`F c #b29555",
"`G c #b69955",
"`H c #ba9d55",
"`I c #a59569",
"`J c #bea155",
"`K c #b6a175",
"`L c #b6a57d",
"`M c #c29118",
"`N c #c6951c",
"`O c #ca991c",
"`P c #ce991c",
"`Q c #ce9d1c",
"`R c #d29d1c",
"`S c #d6a11c",
"`T c #daa51c",
"`U c #deaa20",
"`V c #e2ae20",
"`W c #e6ae20",
"`X c #e6b220",
"`Y c #eab220",
"`Z c #eeb620",
"`0 c #c2a155",
"`1 c #c2a159",
"`2 c #c2a559",
"`3 c #c6a559",
"`4 c #c6aa59",
"`5 c #caaa59",
"`6 c #ceae59",
"`7 c #d2b259",
"`8 c #d6b659",
".` c #dab659",
".. c #daba59",
".# c #deba5d",
".a c #debe5d",
".b c #e2be61",
".c c #858581",
".d c #898985",
".e c #8d8989",
".f c #8d8d89",
".g c #918d8d",
".h c #959591",
".i c #999591",
".j c #999995",
".k c #9d9995",
".l c #9d9d99",
".m c #a19d99",
".n c #a5a19d",
".o c #aaa5a1",
".p c #aaaaa5",
".q c #aeaaa5",
".r c #aeaeaa",
".s c #b2aeaa",
".t c #b2b2ae",
".u c #b6b2ae",
".v c #bab6b2",
".w c #babab6",
".x c #bebab6",
".y c #c2b695",
".z c #c2beba",
".A c #dec689",
".B c #c2c2ba",
".C c #c2c2be",
".D c #c6c2be",
".E c #c6c6be",
".F c #cac6c2",
".G c #cacac2",
".H c #cecac6",
".I c #cecec6",
".J c #d2ceca",
".K c #d2d2ca",
".L c None",
/* pixels */
".L.L.L.L.L.L.L.L.L.L.L.L.L.L.L.L.L.L.L.L.L.L.L.L.L.L.L.L.L.L.L.L.L.L.L.L",
".L.L.L.L.L.L.L.L.L.L.L.L.L.L.L.L.L.L.L.L.L.L.L.L.L.L.L.L.L.L.L.L.L.L.L.L",
".L.L.L.L.L.L.L.L.L.L.L.L.L.L.L.L.L.L.L.L.L.L.L.L.L.L.L.L.L.L.L.L.L.L.L.L",
".L.L.L.L.L.L.L.L.L.L.L.L.L.L.L.L.L.L.L.L.L.L.L.L.L.L.L.L.L.L.L.L.L.L.L.L",
".L.L.L.L.L.L.L.L.L.L.L.L.L.L.L.L.L.L.L.L.L.L.L.L.L.L.L.L.L.L.L.L.L.L.L.L",
".L.L.L.L.L.L.L.L.L.L.L.L.L.L.L.L.L.L.L.L.L.L.L.L.L.L.L.L.L.L.L.L.L.L.L.L",
".L.L.L.L.L.L.K.K.K.K.K.K.K.K.K.K.K.K.K.K.K.K.K.K.K.K.K.K.K.K.K.K.K.L.L.L",
".L.L.L.L.K.K.J.I.H.H.H.H.H.H.H.H.H.H.H.H.H.H.H.H.H.H.H.H.H.H.H.I.J.K.K.L",
".L.L.L.K.A.b.b.a.#.#.#.#.#.#.#...``8`7`6`6`5`4`3`0`J`H`G`G`F`L.E.F.H.J.K",
".L.L.L.K.b`Z`Z`Z`Z`Z`Z`Z`Z`Z`Z`X`V`U`S`S`Q`O`N`A`z`x`v`l`k`j`E.v.z.F.H.K",
".L.L.K.J.b`Z`Z`Z`Z`Z`Z`Z`Z`Y`W`V`U`S`R`P`N`N`A`y`w`u`l`k`f`e`B.o.u.z.F.J",
".L.L.K.I.a`Z`Z`Z`Z`Z`Z`Z`Y`W`U`T`S`R`P`N`M`z`y`w`u`l`j`f`e`c`n.i.o.v.E.I",
".L.L.K.H.#`Z`Z`Z`Z`Z`Z`X`V`U`T`S`Q`O`N`M`z`x`v`l`l`j`f`d`b`a`i.e.m.u.C.H",
".L.L.K.H.#`Z`Z`Z`Z`Y`X`V`U`S`R`Q`O`N`A`y`x`v`l`k`f`e`d`b`#`#`g.c.j.s.z.H",
".L.L.K.H.#`Z`Z`Z`Y`W`U`U`S`R`P`N`M`A`y`w`u`l`k`f`e`c`a`#`#`#`g`D.i.r.z.H",
".L.L.K.H.#`Z`Z`X`W`U`T`S`Q`P`N`M`z`x`w`u`l`j`f`d`c`a`#`#`#`#`g`t.h.q.z.H",
".L.L.K.H.#`Z`X`V`U`T`S`Q`O`N`A`z`x`v`l`k`j`f`d`b`#`#`#`#`#`#`g`s.h.q.z.H",
".L.L.K.H.``W`V`U`S`R`P`O`N`A`y`w`v`l`k`f`e`c`b`#`#`#`#`#`#`#`g`s.h.q.z.H",
".L.L.K.H`8`U`T`S`R`P`N`M`z`y`w`u`l`j`f`e`c`a`#`#`#`#`#`#`#`#`g`s.h.q.z.H",
".L.L.K.H`7`T`S`Q`O`N`M`z`x`v`u`l`j`f`d`b`a`#`#`#`#`#`#`#`#`#`g`s.h.q.z.H",
".L.L.K.H`6`R`Q`O`N`A`y`x`v`l`k`f`f`d`b`#`#`#`#`#`#`#`#`#`#`#`g`s.h.q.z.H",
".L.L.K.H`5`P`N`N`A`y`w`u`l`k`f`e`c`a`#`#`#`#`#`#`#`#`#`#`#`#`g`s.h.q.z.H",
".L.L.K.H`4`N`M`z`x`w`u`l`j`f`e`c`a`#`#`#`#`#`#`#`#`#`#`#`#`#`g`D.h.q.z.H",
".L.L.K.H`2`M`z`x`v`l`k`j`f`d`b`#`#`#`#`#`#`#`#`#`#`#`#`#`#`#`g`D.i.r.z.H",
".L.L.K.H`1`y`w`v`l`k`f`e`d`b`#`#`#`#`#`#`#`#`#`#`#`#`#`#`#`#`h.c.j.s.z.H",
".L.L.K.H.y`K`I`C`q`p`m`.```````````````````````````````````o`r.f.m.u.D.H",
".L.L.K.I.F.w.p.k.g.d.c.c.c.c.c.c.c.c.c.c.c.c.c.c.c.c.c.c.c.d.g.k.p.w.F.I",
".L.L.L.J.G.B.v.q.n.m.l.k.k.k.k.k.k.k.k.k.k.k.k.k.k.k.k.k.l.m.n.q.v.B.G.J",
".L.L.L.K.I.F.C.x.v.u.u.u.t.t.t.t.t.t.t.t.t.t.t.t.t.t.t.u.u.u.v.x.C.F.I.K",
".L.L.L.L.K.I.H.F.E.D.D.D.C.C.C.C.C.C.C.C.C.C.C.C.C.C.C.D.D.D.E.F.H.I.K.L",
".L.L.L.L.L.K.J.J.I.H.H.H.H.H.H.H.H.H.H.H.H.H.H.H.H.H.H.H.H.H.I.J.J.K.L.L",
".L.L.L.L.L.L.L.L.K.K.K.K.K.K.K.K.K.K.K.K.K.K.K.K.K.K.K.K.K.K.K.L.L.L.L.L",
".L.L.L.L.L.L.L.L.L.L.L.L.L.L.L.L.L.L.L.L.L.L.L.L.L.L.L.L.L.L.L.L.L.L.L.L",
".L.L.L.L.L.L.L.L.L.L.L.L.L.L.L.L.L.L.L.L.L.L.L.L.L.L.L.L.L.L.L.L.L.L.L.L",
".L.L.L.L.L.L.L.L.L.L.L.L.L.L.L.L.L.L.L.L.L.L.L.L.L.L.L.L.L.L.L.L.L.L.L.L",
".L.L.L.L.L.L.L.L.L.L.L.L.L.L.L.L.L.L.L.L.L.L.L.L.L.L.L.L.L.L.L.L.L.L.L.L"
};
