/* XPM */
static char *save[] = {
/* width height num_colors chars_per_pixel */
"    36    36      109            2",
/* colors */
"`` c #000000",
"`. c #040404",
"`# c #080808",
"`a c #0c0c0c",
"`b c #141414",
"`c c #181818",
"`d c #1c1c1c",
"`e c #201c1c",
"`f c #202020",
"`g c #282824",
"`h c #282828",
"`i c #2c2c2c",
"`j c #343434",
"`k c #383838",
"`l c #3c3c3c",
"`m c #403c3c",
"`n c #404040",
"`o c #444040",
"`p c #444440",
"`q c #444444",
"`r c #484844",
"`s c #4c4c4c",
"`t c #50504c",
"`u c #505050",
"`v c #555550",
"`w c #595555",
"`x c #595959",
"`y c #61615d",
"`z c #616161",
"`A c #656561",
"`B c #696565",
"`C c #696965",
"`D c #696969",
"`E c #6d6d6d",
"`F c #717171",
"`G c #757571",
"`H c #797975",
"`I c #7d7975",
"`J c #81817d",
"`K c #858181",
"`L c #858581",
"`M c #858585",
"`N c #898585",
"`O c #898985",
"`P c #8d8985",
"`Q c #8d8989",
"`R c #8d8d89",
"`S c #8d8d8d",
"`T c #918d89",
"`U c #919191",
"`V c #959191",
"`W c #959591",
"`X c #959595",
"`Y c #999591",
"`Z c #999995",
"`0 c #9d9995",
"`1 c #999999",
"`2 c #9d9d99",
"`3 c #9d9d9d",
"`4 c #a19d99",
"`5 c #a1a19d",
"`6 c #a5a19d",
"`7 c #a5a5a1",
"`8 c #a5a5a5",
".` c #aaa5a1",
".. c #aeaaa5",
".# c #aaaaaa",
".a c #aeaeae",
".b c #b2aeaa",
".c c #b2b2ae",
".d c #b6b2ae",
".e c #b6b6ae",
".f c #b2b2b2",
".g c #b6b6b2",
".h c #b6b6b6",
".i c #bab6b2",
".j c #babab2",
".k c #babab6",
".l c #bebab6",
".m c #bebeb6",
".n c #bababa",
".o c #bebeba",
".p c #bebebe",
".q c #c2beba",
".r c #c2c2ba",
".s c #c2c2be",
".t c #c6c2be",
".u c #c6c6be",
".v c #c2c2c2",
".w c #c6c6c2",
".x c #cac6c2",
".y c #cacac2",
".z c #cecac6",
".A c #cecec6",
".B c #d2ceca",
".C c #d2d2ca",
".D c None",
".E c #ceceff",
".F c #d2d2ff",
".G c #dadaff",
".H c #e6e6ff",
".I c #eaeaff",
".J c #eeeeff",
".K c #f6f6f6",
".L c #f2f2ff",
".M c #f6f6ff",
".N c #fafafa",
".O c #fafaff",
".P c #ffffff",
/* pixels */
".D.D.D.D.D.D.D.D.D.D.D.D.D.D.D.D.D.D.D.D.D.D.D.D.D.D.D.D.D.D.D.D.D.D.D.D",
".D.D.D.D.D.D.D.D.D.D.D.D.D.D.D.D.D.D.D.D.D.D.D.D.D.D.D.D.D.D.D.D.D.D.D.D",
".D.D.D.D.D.D.D.C.C.C.C.B.B.B.B.B.B.B.B.B.B.B.B.B.B.B.B.B.C.C.C.C.D.D.D.D",
".D.D.D.D.D.C.C.B.z.z.z.y.y.y.y.y.x.x.x.x.x.x.x.x.y.y.y.y.z.z.z.A.B.C.D.D",
".D.D.D.D.B`I`m`l`E.p.v.v.v.v.v.v.v.v.v.v.v.v.v.v.v.v`8`n`k`w.l.x.z.B.C.D",
".D.D.D.D.w`f`q`h.a.N.N.N.N.N.N.N.N.N.N.N.N.N.N.N.N.N.K`i```.`V.l.t.z.B.C",
".D.D.D.C.t`u.p`3.f.N.L.G.G.G.G.G.G.G.G.G.G.G.G.G.G.O.K`i```.`K...k.t.z.C",
".D.D.D.C.r`g`s`j.f.N.M.H.H.H.H.H.H.H.H.H.H.H.H.H.I.O.K`i```.`G`4.b.q.y.B",
".D.D.D.B.q`b````.f.N.P.P.P.P.P.P.P.P.P.P.P.P.P.P.P.P.K`i```.`C`V.`.l.x.B",
".D.D.D.B.q`b````.f.N.O.M.M.M.M.M.M.M.M.M.M.M.M.M.M.P.K`i```.`A`R`6.i.x.B",
".D.D.D.B.q`b````.f.N.J.E.E.E.E.E.E.E.E.E.E.E.E.E.F.M.K`i```.`y`P`6.i.x.B",
".D.D.D.B.q`b````.f.N.P.P.P.P.P.P.P.P.P.P.P.P.P.P.P.P.K`i```.`y`O`5.i.u.B",
".D.D.D.B.o`b````.f.N.P.P.P.P.P.P.P.P.P.P.P.P.P.P.P.P.K`i```.`y`O`5.i.u.B",
".D.D.D.B.o`b````.f.N.L.G.G.G.G.G.G.G.G.G.G.G.G.G.G.O.K`i```.`y`O`5.i.u.B",
".D.D.D.B.o`b````.f.N.M.H.H.H.H.H.H.H.H.H.H.H.H.H.I.O.K`i```.`y`O`5.i.u.B",
".D.D.D.B.o`b````.f.N.P.P.P.P.P.P.P.P.P.P.P.P.P.P.P.P.K`i```.`y`O`5.i.u.B",
".D.D.D.B.o`b````.a.N.K.K.K.K.K.K.K.K.K.K.K.K.K.K.K.N.K`i```.`y`O`5.i.u.B",
".D.D.D.B.o`b`````x.a.f.f.f.f.f.f.f.f.f.f.f.f.f.f.f.f`1`b```.`y`O`5.i.u.B",
".D.D.D.B.o`b```````````````````````````````````````````````.`y`O`5.i.u.B",
".D.D.D.B.o`b```````````#`f`f`f`f`f`f`f`f`f`f`f`f`c`````````.`y`O`5.i.u.B",
".D.D.D.B.o`b```````````D.n.h`1`X`1.h.n.n.n.n.n.n.a`c```````.`y`O`5.i.u.B",
".D.D.D.B.o`b```````````M.p`M`#`#`#`M.v.v.v.v.v.v.n`f```````.`y`O`5.i.u.B",
".D.D.D.B.q`b```````````M.p`F`.```.`F.v.v.v.v.v.v.n`f```````.`y`O`5.i.u.B",
".D.D.D.B.q`b```````````M.p`F`.```.`F.v.v.v.v.v.v.n`f```````.`y`O`5.i.u.B",
".D.D.D.B.q`b```````````F.n`F`.```.`F.v.v.v.v.v.v.n`f```````.`y`O`5.i.u.B",
".D.D.D.B.q`e```````````s.n`F`.```.`F.v.v.v.v.v.v.n`f```````.`y`O`5.i.u.B",
".D.D.D.B.z`P`a`````````s.n`F`.`.`.`F.v.v.v.v.v.v.n`f```````.`y`O`5.i.u.B",
".D.D.D.C.z.r`J`a```````s.n`1`n`k`n`1.v.v.v.v.v.v.n`f```````.`z`P`6.i.x.B",
".D.D.D.C.A.u.i`H`a`.`#`j`S`U`X`X`X`3.#.#`8`8`8`8`3`d`.`.`.`.`B`T`7.i.x.B",
".D.D.D.D.B.z.q.d`J`v`s`r`q`o`o`o`o`p`r`r`r`r`r`r`r`n`o`o`p`t`J`Y...l.x.B",
".D.D.D.D.C.A.x.o.c`6`Y`T`O`L`L`L`L`K`K`K`K`K`K`K`K`K`L`L`N`Q`W`6.d.q.z.B",
".D.D.D.D.D.C.A.x.q.g..`6`4`2`0`0`0`0`0`0`Z`Z`Z`Z`Z`0`0`0`2`5.`.b.l.x.A.C",
".D.D.D.D.D.D.C.A.x.t.m.i.e.d.d.c.b.b.b.b.b.b.b.b.b.b.b.c.d.g.j.q.u.z.B.C",
".D.D.D.D.D.D.D.C.B.z.x.x.t.t.t.t.s.s.s.s.s.s.s.s.s.s.s.s.t.t.x.y.z.B.C.D",
".D.D.D.D.D.D.D.D.C.C.B.B.A.z.z.z.z.z.z.z.z.z.z.z.z.z.z.z.z.A.B.B.C.C.D.D",
".D.D.D.D.D.D.D.D.D.D.D.D.C.C.C.C.C.C.C.C.C.C.C.C.C.C.C.C.C.C.C.D.D.D.D.D"
};
