/* XPM */
static char *saveimage[] = {
/* width height num_colors chars_per_pixel */
"    36    36      256            2",
/* colors */
"`` c #000000",
"`. c #000810",
"`# c #001418",
"`a c #001424",
"`b c #002034",
"`c c #14342c",
"`d c #242814",
"`e c #382404",
"`f c #30301c",
"`g c #383824",
"`h c #3c3c30",
"`i c #003459",
"`j c #143840",
"`k c #384c14",
"`l c #38551c",
"`m c #244820",
"`n c #2c4434",
"`o c #385d3c",
"`p c #184044",
"`q c #1c4c55",
"`r c #084461",
"`s c #004871",
"`t c #14617d",
"`u c #244444",
"`v c #2c4c59",
"`w c #2c5555",
"`x c #284c61",
"`y c #2c5d65",
"`z c #30556d",
"`A c #28616d",
"`B c #206175",
"`C c #443008",
"`D c #443810",
"`E c #593408",
"`F c #553810",
"`G c #653c04",
"`H c #7d3804",
"`I c #713c14",
"`J c #595918",
"`K c #4c4424",
"`L c #404030",
"`M c #5d4420",
"`N c #504c34",
"`O c #595938",
"`P c #446124",
"`Q c #556d30",
"`R c #6d4408",
"`S c #654410",
"`T c #655508",
"`U c #615918",
"`V c #79480c",
"`W c #794414",
"`X c #7d500c",
"`Y c #795514",
"`Z c #655020",
"`0 c #715d24",
"`1 c #6d6118",
"`2 c #6d612c",
"`3 c #696934",
"`4 c #796128",
"`5 c #7d7520",
"`6 c #797134",
"`7 c #446d69",
"`8 c #4c7169",
".` c #597979",
".. c #655d55",
".# c #6d7150",
".a c #797950",
".b c #797975",
".c c #005081",
".d c #1c6585",
".e c #146191",
".f c #14719d",
".g c #3c6d81",
".h c #3c718d",
".i c #107dd6",
".j c #758161",
".k c #2091aa",
".l c #3085a1",
".m c #0881d6",
".n c #1891d6",
".o c #0481ee",
".p c #0491ee",
".q c #0095fa",
".r c #1099ea",
".s c #04aafa",
".t c #00baff",
".u c #24aee6",
".v c #04c6ff",
".w c #08d2ff",
".x c #14d6ff",
".y c #3cc6da",
".z c #24d6fa",
".A c #30d6fa",
".B c #2ce2ff",
".C c #34e2fa",
".D c #79aa89",
".E c #79baba",
".F c #79c2be",
".G c #48cede",
".H c #40defa",
".I c #40eaff",
".J c #4cf6ff",
".K c #59e2ee",
".L c #50eeff",
".M c #55f6ff",
".N c #61deea",
".O c #65eaf6",
".P c #61f6fa",
".Q c #79faff",
".R c #852c04",
".S c #854408",
".T c #8d4810",
".U c #895010",
".V c #994408",
".W c #954410",
".X c #95500c",
".Y c #955918",
".Z c #895924",
".0 c #897114",
".1 c #9d7118",
".2 c #896524",
".3 c #897124",
".4 c #857538",
".5 c #996920",
".6 c #917524",
".7 c #957d30",
".8 c #ae550c",
"#` c #a15514",
"#. c #ba500c",
"## c #be5d14",
"#a c #a55d20",
"#b c #a56918",
"#c c #aa7918",
"#d c #aa6d20",
"#e c #a57924",
"#f c #817d79",
"#g c #c65010",
"#h c #ca6914",
"#i c #c67918",
"#j c #c27520",
"#k c #ea7118",
"#l c #9d8928",
"#m c #a18514",
"#n c #ba8918",
"#o c #a18d24",
"#p c #ba8928",
"#q c #919171",
"#r c #a5aa48",
"#s c #aaaa55",
"#t c #aeb250",
"#u c #bea559",
"#v c #aaaa65",
"#w c #b2b275",
"#x c #bec265",
"#y c #bec271",
"#z c #d28518",
"#A c #d68928",
"#B c #ceaa28",
"#C c #d2a128",
"#D c #ee9d2c",
"#E c #e29130",
"#F c #e6aa28",
"#G c #eabe38",
"#H c #faa128",
"#I c #faa538",
"#J c #faa140",
"#K c #f2b261",
"#L c #c2c265",
"#M c #c6c671",
"#N c #ced279",
"#O c #d2d279",
"#P c #898581",
"#Q c #918d89",
"#R c #95918d",
"#S c #999591",
"#T c #a19d99",
"#U c #aaaa8d",
"#V c #aaa599",
"#W c #bab685",
"#X c #bab691",
"#Y c #aaaaa1",
"#Z c #b2aeaa",
"#0 c #babab2",
"#1 c #a1c295",
"#2 c #a5d2ba",
"#3 c #95dae2",
"#4 c #81e6ee",
"#5 c #85ffff",
"#6 c #95fafa",
"#7 c #bee6d2",
"#8 c #a5f6f6",
"a` c #b6eef2",
"a. c #b6faff",
"a# c #c2beb6",
"aa c #caca85",
"ab c #d2c685",
"ac c #d2d685",
"ad c #d6d699",
"ae c #c6c6a5",
"af c #c2c2b6",
"ag c #d6d6a1",
"ah c #dedeb2",
"ai c #dee281",
"aj c #eaea95",
"ak c #eef28d",
"al c #eef299",
"am c #f2f299",
"an c #e2e2ba",
"ao c #f2f6a1",
"ap c #cacac2",
"aq c None",
"ar c #d2d2ca",
"as c #c6f6f6",
"at c #daffff",
"au c #e6e6ca",
"av c #eeeeda",
"aw c #eef2de",
"ax c #f2f2de",
"ay c #f2f2e6",
"az c #fafaf6",
"aA c #504414",
"aB c #554418",
"aC c #504814",
"aD c #5d4c14",
"aE c #594c18",
"aF c #95651c",
"aG c #956914",
"aH c #9d6118",
"aI c #996914",
"aJ c #996d18",
"aK c #b2b261",
"aL c #b6ba65",
"aM c #bebe69",
"aN c #baba61",
"aO c #baba65",
"aP c #babe61",
"aQ c #bebe61",
"aR c #bebe65",
"aS c #b6b2a5",
"aT c #b6b2ae",
"aU c #babaa1",
"aV c #bebaaa",
"aW c #b2b250",
"aX c #b2b259",
"aY c #b6ba5d",
"aZ c #baba5d",
"a0 c #818175",
"a1 c #818179",
"a2 c #898975",
"a3 c #8d8d79",
"a4 c #e6e685",
"a5 c #e2e289",
"a6 c #eaea89",
"a7 c #ba7118",
"a8 c #000000",
/* pixels */
"aqaqaqaqaqaqaqaqaqaqaqaqaqaqaqaqaqaqaqaqaqaqaqaqaqaqaqaqaqaqaqaqaqaqaqaq",
"aqaqaqaqaqaqaqaqaqaqaqaqaqaqaqaqaqaqaqapapa##W#v#X#0a#afapaqaqaqaqaqaqaq",
"aqaqaqaqaqaqaqaqaqaqaqaqaqaqaqaqaqapapa##W#s#r#r#v#V#Z#0afapaqaqaqaqaqaq",
"aqaqaqaqaqaqaqaqaqaqaqaqaqaqaqapapa##W#s#r#r#taKadaU#T#Y#0afapaqaqaqaqaq",
"aqaqaqaqaqaqaqapapapapapapapapaV#w#s#s#r#taKagayazay#S#S#Y#0afapapaqaqaq",
"aqaqaqaqaqapapaU#w#0#0a#a#aU#w#s#s#r#taKagayazazazaz#X#P#T#Y#0a#apapaqaq",
"aqaqaqaqapa##w#r#r#v#Y#V#v#s#s#r#taKagayazazazazazazau#q#Uadad#0#0afapaq",
"aqaqaqap#X#s#r#r#r#r#s#s#s#r#raXagayazazazazazazazazan#yajalaj#V#Z#0apap",
"aqaqae#v#r#r#r#r#r#r#r#r#r#taaawazazazazazazazazavaa#Najalalaj#R#T#Za#ap",
"aq#X#s#r#r#r#r#r#r#r#r#taaavazazazazazazazazavaa#Najalalalalaj#P#S#Ya#ap",
"aq#W#r#r#r#r#r#r#r#taaavazazazazazazazazavaa#Najalalalalalala5#P#Q#Y#0ap",
"aqa##s#r#r#r#r#taaavazazazazazazazazawadacajamalalalalalalaka5#f#Q#Y#0ap",
"aqap#v#r#r#taaavazazazazazazazazawadacajaoamalalalalalalakaka5#f#Q#Y#0ap",
"aqap#X#s#taLazazazazazazazazayagacajaoaoamamalalalalalakakaka5#f#Q#Y#0ap",
"aqapa##s#taXayazazazazazayagacajaoaoaoamamalalalalalalakakaka5#f#Q#T#0ap",
"aqaqap#w#t#sanazazazayagacalaoaoaoaoamamalalalalalalakakakaka6a3#Q#T#0ap",
"aqaqapaU#t#taaazazazadalaoaoaoaoaoaoamalalalalalalakakakakaka6#q#P#T#0ap",
"aqaqapa#aK#taOazazazadaoaoaoaoalalalalajajajajajajakakaka6a6a4a2#P#T#0ap",
"aqaqaqap#XaX#tauazazacaoao.e.f.o.i.g.r.q.p.n.s.t.t.v.w.x.x.z.C.J.y#R#Zap",
"aqaqaqap#0aX#tadazazaaaoao`o`m`t.m.`.p.p.r.s.t.v.w.w.x.B.A.H.M.G.P#P#Yaf",
"aqaqaqapaf#waX#yazaz#Maoal`l`k`P.d.j.l.k.u.t.v.x.z.B.I.J.M.P.K.O.Q.b#Taf",
"aqaqaqaqap#XaXaYavaz#Maoal`P`k`J`2.#.j`Q.D.F.A.C.I.L.P.P.P.O.N#5#6.b#Taf",
"aqaqaqaqapa#aKaYahaz#Malal`UaDaC`Z`O`Z`6.3#Gab#1#2.Q.Q.Q.Q#5#4#6#6.b#Yaf",
"aqaqaqaqaqap#WaN#yad#xalal.5.W.Z`Z`g`3#p.2#j#H#j#j#Kae#6#6#8#8a.#3#f#Yap",
"aqaqaqaqaqapaUaNaZaN#xalal#A#a.2`M`g`6a7#j#g#k#h.5#E#J#u#7a`asatas#P#Zap",
"aqaqaqaqaqapaf#w#x#x#xalaj.1#d`4`I`g.2#z#D#ha7#.#C#F#I#i.a`8`u`7.`#Q#Zap",
"aqaqaqaqaqaqap#X#x#x#xajaj.U.5`Y`W`f.T#n#ia7#h#i#B#c#A#``h`z`x`j`v#Q#0aq",
"aqaqaqaqaqaqapa##x#x#xajaj.8`S`F`S`g#e#m#e.5#d.0#c`R.0#p.4`n`u`c`w#R#0aq",
"aqaqaqaqaqaqapap#W#x#xa6ajaH.2`F`C`d`U.0.6#l#l.6.6`0`1#b.E`y`p`p`q#S#0aq",
"aqaqaqaqaqaqaqapaU#x#xa6aj`Y`5`5aE`h`S.2`4`0`Y`Y.1`XaG.Y`A`B```a`##S#0aq",
"aqaqaqaqaqaqaqapa##y#xa5aj.7.6.7aB`h`DaA`S`V.S.S#caI##`8`r`#`#`.``#T#0aq",
"aqaqaqaqaqaqaqaqapaa#xaia6`Z`D`C`C`f`C`T.X`H.S.S`X.Y..`b`a`b`b`a`a#T#0aq",
"aqaqaqaqaqaqaqaqapae#Mai#X`E`C`D`e`N`e`G`G.R.V`R`K.h.c`s.c`i`.`a`.#Ta#aq",
"aqaqaqaqaqaqaqaqapapae#Z#T#Q#f.b#f#P#Q#Q#R#R#S#S#S#S#T#T#T#T#T#T#T#Zafaq",
"aqaqaqaqaqaqaqaqaqapaf#0#Z#Z#Y#Y#Y#Z#Z#0#0#0#0#0#0#0#0#0#0#0#0#0a#afapaq",
"aqaqaqaqaqaqaqaqaqaqapapafa#a#afapapapaqaqaqaqaqaqaqaqaqaqaqaqaqaqaqaqaq"
};
