/* XPM */
static char *section3[] = {
/* width height num_colors chars_per_pixel */
"    90    90       63            1",
/* colors */
"` c #000000",
". c #040404",
"# c #080808",
"a c #0c0c0c",
"b c #101010",
"c c #141414",
"d c #181818",
"e c #1c1c1c",
"f c #202020",
"g c #242424",
"h c #282828",
"i c #2c2c2c",
"j c #303030",
"k c #343434",
"l c #383838",
"m c #3c3c3c",
"n c #404040",
"o c #444444",
"p c #484848",
"q c #4c4c4c",
"r c #505050",
"s c #555555",
"t c #595959",
"u c #5d5d5d",
"v c #616161",
"w c #656565",
"x c #696969",
"y c #6d6d6d",
"z c #717171",
"A c #757575",
"B c #797979",
"C c #7d7d7d",
"D c #818181",
"E c #858585",
"F c #898989",
"G c #8d8d8d",
"H c #919191",
"I c #959595",
"J c #999999",
"K c #9d9d9d",
"L c #a1a1a1",
"M c #a5a5a5",
"N c #aaaaaa",
"O c #aeaeae",
"P c #b6b6b6",
"Q c #bababa",
"R c #bebebe",
"S c #c2c2c2",
"T c #c6c6c6",
"U c #cacaca",
"V c #cecece",
"W c #d2d2d2",
"X c #d6d6d6",
"Y c #dadada",
"Z c #dedede",
"0 c #e2e2e2",
"1 c #e6e6e6",
"2 c #eaeaea",
"3 c #eeeeee",
"4 c #f2f2f2",
"5 c #f6f6f6",
"6 c #fafafa",
"7 c #ffffff",
/* pixels */
"77777777777777777777777771v77777JL77777777777777777777777777777777777777777777777777777777",
"7777777777777777777777177Ym77777DF775277VOX77777777777777777777777777777777777777777777777",
"7777777777777777777775#xYYm77777DF3GeK77pDS77777777777777777777777777777777777777777777777",
"777777777777777777775q``.obooooofkc``iS6mqK77777777777777777777777777777777777777777777777",
"777777777777777777777T``oMjTTTTTwAy#`B46RXr77777777777777777777777777777777777777777777777",
"7777777777777777777775kP7Ym77777DF7YtL76xqR77777777777777777777777777777777777777777777777",
"7777777777777777777777677Ym77777DF77767777777777777777777777777777777777777777777777777777",
"7777777777777777777777777Ym77777DF77777777777777777777777777777777777777777777777777777777",
"7777777777777777777777777Ym77777DF77777777777777777777777777777777777777777777777777777777",
"77777777777777773333333345O33333TX77777777777777777777777777777777777777777777777777777777",
"777777777777777WfffbffffkYafffffbI77777777777777777777777777777777777777777777777777777777",
"7777777777777777775gX7777Ym77777DF77777777777777777777777777777777777777777777777777777777",
"777777777777777777L`w7777Ym77777DF77777777777777777777777777777777777777777777777777777777",
"777777777777777776i`#0777Ym77777DF77777777777777777777777777777777777777777777777777777777",
"77777777777777777Tg.fH777Ym77777DF77777777777777777777777777777777777777777777777777777777",
"7777777777777777777h37777Ym77777DF77777777777777777777777777777777777777777777777777777777",
"7777777777777777777h37777Ym77777DF77777777777777777777777777777777777777777777777777777777",
"7777777777777777777h37777Ym77777DF77777777777777777777777777777777777777777777777777777777",
"7777777777777777777h37777Ym77777DF77777777777777777777777777777777777777777777777777777777",
"7777777777777777777h37777Ym77777DF77777777777777777777777777777777777777777777777777777777",
"7777777777777777777h37777Ym77777DF77777777777777777777777777777777777777777777777777777777",
"7777777777777777777h37777Ym77777DF77777777777777777777777777777777777777777777777777777777",
"7777777777777777777h37777Ym77777DF77777777777777777777777777777777777777777777777777777777",
"7777777777777777777h37777Ym77777DF77777777777777777777777777777777777777777777777777777777",
"7777777777777777777h37777Ym77777DF77777777777777777777777777777777777777777777777777777777",
"7777777777777777777h37777Ym77777DF77777777777777777777777777777777777777777777777777777777",
"7777777777777777777h37777Ym77777DF77777777777777777777777777777777777777777777777777777777",
"7777777777777777777h37777Ym77777DF77777777777777777777777777777777777777777777777777777777",
"7777777777777777777h37777Ym77777DF77777777777777777777777777777777777777777777777777777777",
"7777777777777777777h37777Ym77777DF77777777777777777777777777777777777777777777777777777777",
"7777777777777777777h37777Ym77777DF77777777777777777777777777777777777777777777777777777777",
"7777777777777777777h37777Ym77777DF77777777777777777777777777777777777777777777777777777777",
"7777777777777777777h37777Ym77777DF77777777777777777777777777777777777777777777777777777777",
"7777777777777777777h37777Ym77777DF77777777777777777777777777777777777777777777777777777777",
"7777777777777777777h37777Ym77777DF77777777777777777777777777777777777777777777777777777777",
"7777777777777777777h37777Ym77777DF77777777777777777777777777777777777777777777777777777777",
"7777777777777777777h37777Ym77777DF77777777777777777777777777777777777777777777777777777777",
"7777777777777777777h37777Ym77777DF77777777777777777777777777777777777777777777777777777777",
"7777777777770Y77777h37777Ym77777DF77777777777777777777777777777777777777777777777777777777",
"77777777777XiH77777h37777Ym77777DF77777777777777777777777777777777777777777777777777777777",
"77777777777ZFH77777h37777Ym77777DF77777777777777777777777777777777777777777777777777777777",
"777777777777JH77777h37777Ym77777DF77777777777777777777777777777777777777777777777777777777",
"777777777777NL77777h37777Ym77777DF77777777777777777777777777777777777777777777777777777777",
"7777777777777777777h37777Ym77777DF77777777777777777777777777777777777777777777777777777777",
"7777777777777777777h37777Ym77777DF77777777777777777777777777777777777777777777777777777777",
"7777777777777777777h37777Ym77777DF77777777777777777777777777777777777777777777777777777777",
"7777777777777777777h37777Ym77777DF77777777777777777777777777777777777777777777777777777777",
"7777777777777777777h37777Ym77777DF77777777777777777777777777777777777777777777777777777777",
"7777777777777777777h37777Ym77777DF77777777777777777777777777777777777777777777777777777777",
"7777777777777777777h37777Ym77777DF77777777777777777777777777777777777777777777777777777777",
"7777777777777777777h37777Ym77777DF77777777777777777777777777777777777777777777777777777777",
"7777777777777777777h37777Ym77777DF77777777777777777777777777777777777777777777777777777777",
"7777777777777777777h37777Ym77777DF77777777777777777777777777777777777777777777777777777777",
"7777777777777777777h37777Ym77777DF77777777777777777777777777777777777777777777777777777777",
"7777777777777777777h37777Ym77777DF77777777777777777777777777777777777777777777777777777777",
"7777777777777777777h37777Ym77777DF77777777777777777777777777777777777777777777777777777777",
"7777777777777777777h37777Ym77777DF77777777777777777777777777777777777777777777777777777777",
"7777777777777777777h37777Ym77777DF77777777777777777777777777777777777777777777777777777777",
"7777777777777777777h37777Ym77777DF77777777777777777777777777777777777777777777777777777777",
"7777777777777777777h37777Ym77777DF77777777777777777777777777777777777777777777777777777777",
"7777777777777777777h37777Ym77777DF77777777777777777777777777777777777777777777777777777777",
"7777777777777777777h37777Ym77777DF77777777777777777777777777777777777777777777777777777777",
"7777777777777777777h37777Ym77777DF77777777777777777777777777777775B77777777777777777777777",
"7777777777777777777h37777Ym77777DF777777777777777777777777777777MnaoI777777777777777777777",
"7777777777777777777h37777Ym77777DF7777777777777777777777777777771a``W777777777777777777777",
"7777777777777777777h37777Ym77777DF7777777777777777777777777777777C`q7777777777777777777777",
"7777777777777777777h37777Ym77777DF77777777777777777777777777777773dS7777777777777777777777",
"7777777777777777777h37777Ym77777FdiiiiiiiiiiiiiiiiiiiiiiiiijYniiiibiiiT7777777777777777777",
"7777777777777777777h37777Ym777776ZZZZZZZZZZZZZZZZZZZZZZZZZZlU2ZZZViZZ066003777777777777777",
"7777777777777777765h16777Ym77777777777777777777777777777777nU77772j7777ZuhI777777777777777",
"77777777777777777U.``G777Ym77777777777777777777777777777777nU77772j777773r6777777777777777",
"777777777777777777n`c3777Ym77777777777777777777777777777777nU77772j77777JK7777777777777777",
"777777777777777777Q`C7777Ym77777777777777777777777777777777nU77772j77777xX7767777777777777",
"77777777777777760ZZjUZZZ1YlZZZZZZZZZZZZZZZZZZZZZZZZZZZZZZZZlU1ZZZViZZ067577777777777777777",
"777777777777777Xkkkkkkkko1lkkkkkkkkkkkkkkkkkkkkkkkkkkkkkkkklYpkkkkckkkU7777777777777777777",
"77777777777777777777777775T77777777777777777777777777777777U577773dS7777777777777777777777",
"7777777777777777777777777Zn77777777777777777777777777777777nU7777D`r7777777777777777777777",
"7777777777777777777777777Ym77777777777777777777777777777777nU7772b``X777777777777777777777",
"7777777777777777777777777Ym77777777777777777777777777777777nU777MlamI777777777777777777777",
"7777777777777777777777777Ym73Ex777777777777777777777777MwZ7nU77775A77777777777777777777777",
"7777777777777777777777777YiAb`iHHHHHHHHHHHHHHHHHHHHHHHHu`#wjU77777777777777777777777777777",
"7777777777777777777777777Yhr``hEEEEEEEEEEEEEEEEEEEEEEEEs``nhU77777777777777777777777777777",
"7777777777777777777777777Ym7Snr777777777777777777777777LgO7nU77777777777777777777777777777",
"7777777777777777777777777Ym777Y777777777770Z777777777770577nU77777777777777777777777777777",
"77777777777777777777777770t77777777777777VooS77777777777777uX77777777777777777777777777777",
"7777777777777777777777777767777777777777763uS777777777777776777777777777777777777777777777",
"777777777777777777777777777777777777777777zD7777777777777777777777777777777777777777777777",
"77777777777777777777777777777777777777777QaoQ777777777777777777777777777777777777777777777",
"777777777777777777777777777777777777777776446777777777777777777777777777777777777777777777",
"777777777777777777777777777777777777777777777777777777777777777777777777777777777777777777"
};
