/* XPM */
static char *section6[] = {
/* width height num_colors chars_per_pixel */
"    90    90       62            1",
/* colors */
"` c #000000",
". c #040404",
"# c #080808",
"a c #0c0c0c",
"b c #101010",
"c c #141414",
"d c #181818",
"e c #1c1c1c",
"f c #202020",
"g c #242424",
"h c #282828",
"i c #2c2c2c",
"j c #303030",
"k c #343434",
"l c #383838",
"m c #3c3c3c",
"n c #444444",
"o c #484848",
"p c #4c4c4c",
"q c #555555",
"r c #595959",
"s c #5d5d5d",
"t c #616161",
"u c #656565",
"v c #696969",
"w c #6d6d6d",
"x c #717171",
"y c #757575",
"z c #797979",
"A c #7d7d7d",
"B c #818181",
"C c #858585",
"D c #898989",
"E c #8d8d8d",
"F c #919191",
"G c #959595",
"H c #999999",
"I c #9d9d9d",
"J c #a1a1a1",
"K c #a5a5a5",
"L c #aaaaaa",
"M c #aeaeae",
"N c #b2b2b2",
"O c #b6b6b6",
"P c #bababa",
"Q c #bebebe",
"R c #c2c2c2",
"S c #c6c6c6",
"T c #cacaca",
"U c #cecece",
"V c #d2d2d2",
"W c #d6d6d6",
"X c #dadada",
"Y c #dedede",
"Z c #e2e2e2",
"0 c #e6e6e6",
"1 c #eaeaea",
"2 c #eeeeee",
"3 c #f2f2f2",
"4 c #f6f6f6",
"5 c #fafafa",
"6 c #ffffff",
/* pixels */
"6666666666666666666666Ueffffffffffffffffffffffffffffffffi56tffffffffffeeffm666666666666666",
"6666666666666666666666TiZZZZZZZZZZZZZZZZZZZZZZZZZZZZZZZUc562ZZZZZZZZZZsvZZ1666666666666666",
"6666666666666666666666Tj66666666666666666666666666666661c566666666666X#b266666666666666666",
"6666666666666666666666Tj66666666666666666666666666666661c566666666666q``A66666666666666666",
"6666666666666666666666Tj66666666666666666666666666666661c56666666666R```b16666666666666666",
"6666666666666666666666Tj66666666666666666666666666666661c566666666661XePX36666666666666666",
"6666666666666666666666Tj66666666666666666666666666666661c5666666666666fW666666666666666666",
"6666666666666666666666Tj666666KBBBBBBBBBBBBBBBBBBS666661c5666666666666fW666666666666666666",
"6666666666666666666666Tj666666gvzzzzzzzzzzzzzzzzpu666661c5666666666666fW666666666666666666",
"6666666666666666666666Tj666666gY6666666666666666Ju666661c5666666666666fW666666666666666666",
"6666666666666666666666Tj666666gY6666666666666666Ju666661c5666666666666fW666666666666666666",
"6666666666666666666666Tj666666gY6666666666666666Ju666661c5666666666666fW666666666666666666",
"6666666666666666666666Tj666666gY6666666666666666Ju666661c5666666666666fW666666666666666666",
"6666666666666666666666Tj666666gY6666666666666666Ju666661c5666666666666fW666666666666666666",
"6666666666666666666666Tj666666gY6666666666666666Ju666661c5666666666666fW666666666666666666",
"6666666666666666666666Tj666666gY6666666666666666Ju666661c5666666666666fW666666666666666666",
"6666666666666666666666Tj666666gY6666666666666666Ju666661c5666666666666fW666666666666666666",
"6666666666666666666666Tj666666gY6666666666666666Ju666661c5666666666666fW666666666666666666",
"6666666666666666666666Tj666666gY6666666666666666Ju666661c5666666666666fW666666666666666666",
"6666666666666666666666Tj666666gY6666666666666666Ju666661c5666666666666fW666666666666666666",
"6666666666666666666666Tj666666gY6666666666666666Ju666661c5666666666666fW666666666666666666",
"6666666666666666666666Tj666666gY6666666666666666Ju666661c5666666666666fW666666666666666666",
"6666666666666666666666Tj666666gY6666666666666666Ju666661c5666666666666fW666666666666666666",
"6666666666666666666666Tj666666gY6666666666666666Ju666661c5666666666666fW666666666666666666",
"6666666666666666666666Tj666666gY6666666666666666Ju666661c5666666666666fW666666666666666666",
"6666666666666666666666Tj666666gY6666666666666666Ju666661c5666666666666fW666666666666666666",
"6666666666666666666666Tj666666gY6666666666666666Ju666661c5666666666666fW666666666666666666",
"6666666666666666666666Tj666666gY6666666666666666Ju666661c5666666666666fW666666666666666666",
"6666666666666666666666Tj666666gY6666666666666666Ju666661c5666666666666fW666666666666666666",
"6666666666666666666666Tj666666gY6666666556666666Ju666661c5666666666666fW666666666666666666",
"6666666666666666666666Tj666666gY666666QfgY666666Ju666661c5666666666666fW666666666666666666",
"6666666666666666666666Tj666666gY666666DrM6666666Ju666661c5666666666666fW666666666666666666",
"6666666666666666666666Tj666666gY666666KIlR666666Ju666661c5666666666666fW666666666666666666",
"6666666666666666666666Tj666666gY666666IWsN666666Ju666661c5666666466666fW666666666666666666",
"6666666666666666666666Tj666666gY666666Sow5666666Ju666661c566666Jl66666fW666666666666666666",
"666666666666666666X466Tj666666gY664V666666666666Ju666661c56666Tqk66666fW666666666666666666",
"666666666666666666xeE3Tj666666gY2Deu666666666666Ju666661c566666Wk66666fW666666666666666666",
"666666666666666Iqqg``csbqqqqqqauc``fqqL666666666Ju666661c566666Wk66666fW666666666666666666",
"666666666666666UIIn``iBeIIIIIIdFh``mIIV666666666Ju666661c5666660z66666fW666666666666666666",
"666666666666666666xfJ5Tj666666gY4Hfu666666666666Ju666661c5666666666666fW666666666666666666",
"666666666666666666V466Tj666666gY664U666666666666Ju666661c5666666666666fW666666666666666666",
"6666666666666666666666Tj666666gY6666666666666666Ju666661c5666666666666fW666666666666666666",
"6666666666666666666666Tj666666gY6666666666666666Ju666661c5666666666666fW666666666666666666",
"6666666666666666666666Tj666666gY6666666666666666Ju666661c5666666666666fW666666666666666666",
"6666666666666666666666Tj666666gY6666666666666666Ju666661c5666666666666fW666666666666666666",
"6666666666666666666666Tj666666gY6666666666666666Ju666661c5666666666666fW666666666666666666",
"6666666666666666666666Tj666666gY6666666666666666Ju666661c5666666666666fW666666666666666666",
"6666666666666666666666Tj666666gY6666666666666666Ju666661c5666666666666fW666666666666666666",
"6666666666666666666666Tj666666gY6666666666666666Ju666661c5666666666666fW666666666666666666",
"6666666666666666666666Tj666666gY6666666666666666Ju666661c5666666666666fW666666666666666666",
"6666666666666666666666Tj666666gY6666666666666666Ju666661c5666666666666fW666666666666666666",
"6666666666666666666666Tj666666gY6666666666666666Ju666661c5666666666666fW666666666666666666",
"6666666666666666666666Tj666666gY6666666666666666Ju666661c5666666666666fW666666666666666666",
"6666666666666666666666Tj666666gY6666666666666666Ju666661c5666666666666fW666666666666666666",
"6666666666666666666666Tj666666gY6666666666666666Ju666661c5666666666666fW666666666666666666",
"6666666666666666666666Tj666666gY6666666666666666Ju666661c5666666666666fW666666666666666666",
"6666666666666666666666Tj666666gY6666666666666666Ju666661c5666666666666fW666666666666666666",
"6666666666666666666666Tj666666gY6666666666666666Ju666661c5666666666666fW666666666666666666",
"6666666666666666666666Tj666666gY6666666666666666Ju666661c5666666666666fW666666666666666666",
"6666666666666666666666Tj666666gY6666666666666666Ju666661c5666666666666fW666666666666666666",
"6666666666666666666666Tj666666gY6666666666666666Ju666661c5666666666666fW666666666666666666",
"6666666666666666666666Tj666666gY6666666666666666Ju666661c5666666666666fW666666666666666666",
"6666666666666666666666Tj666666gY6666666666666666Ju666661c5666666666666fW666666666666666666",
"6666666666666666666666Tj666666gCGGGGGGGGGGGGGGGGtu666661c5666666666666fW666666666666666666",
"6666666666666666666666Tj666666EwwwwwwwwwwwwwwwwwwN666661c5666666666666fW666666666666666666",
"6666666666666666666666Tj66666666666666666666666666666661c5666666666654fU456666666666666666",
"6666666666666666666666Tj66666666666666666666666666666661c56666666666Nb`adZ6666666666666666",
"6666666666666666666666Tj66666666666666666666666666666661c566666666665j``t66666666666666666",
"6666666666666666666666Tj66666666666666666666666666666661c566666666666N``V66666666666666666",
"6666666666666666666666Tj66666666666666666666666666666661c5666666666666lo666666666666666666",
"6666666666666666666666TfMMMMMMMMMMMMMMMMMMMMMMMMMMMMMMMIc56HxxxxxxxxxxnnxxC666666666666666",
"6666666666666666666666Xppppppppppppppppppppppppppppppppps56OFFFFFFFFFFFFFFJ666666666666666",
"666666666666666666666666666666666666666666666666666666666666666666666666666666666666666666",
"666666666666666666666666666666666666666666666666666666666666666666666666666666666666666666",
"6666666666666666666666yH6666666666666666666666666666666Nq666666666666666666666666666666666",
"6666666666666666666666vE6666666666666666666666666666666Jn666666666666666666666666666666666",
"6666666666666666666666vE6666666666666556666666666666666Jn666666666666666666666666666666666",
"6666666666666666666666vE666666666666SjiU666666666666666Jn666666666666666666666666666666666",
"6666666666666666666666vE666666666666TVCF666666666666666Jn666666666666666666666666666666666",
"6666666666666666666666vE6666666666666Qj1666666666666666Jn666666666666666666666666666666666",
"6666666666666666666666vE666666666666UeN1666666666666666Jn666666666666666666666666666666666",
"6666666666666666666666vE666666666666HppL666666666666666Jn666666666666666666666666666666666",
"6666666666666666666666vE6666666666666666666666666666666Jn666666666666666666666666666666666",
"6666666666666666666666vE66WC66666666666666666666666BV66Jn666666666666666666666666666666666",
"6666666666666666666666vEZv.k66666666666666666666666l.sXJn666666666666666666666666666666666",
"6666666666666666666666vja``aooooooooooooooooooooooob``.kn666666666666666666666666666666666",
"6666666666666666666666vxxb`gOOOOOOOOOOOOOOOOOOOOOOOh`avBn666666666666666666666666666666666",
"6666666666666666666666vE61Cp66666666666666666666666pA06Jn666666666666666666666666666666666",
"6666666666666666666666vE6665666666666666666666666665666Jn666666666666666666666666666666666",
"6666666666666666666666HN6666666666666666666666666666666SB666666666666666666666666666666666"
};
