/* XPM */
static char *stiffness[] = {
/* width height num_colors chars_per_pixel */
"    36    36      133            2",
/* colors */
"`` c #202020",
"`. c #282828",
"`# c #303030",
"`a c #383838",
"`b c #3c3c3c",
"`c c #592424",
"`d c #5d302c",
"`e c #710000",
"`f c #790000",
"`g c #7d0000",
"`h c #653030",
"`i c #653834",
"`j c #693434",
"`k c #6d3434",
"`l c #6d3834",
"`m c #753c38",
"`n c #404040",
"`o c #444444",
"`p c #484848",
"`q c #4c4c4c",
"`r c #505050",
"`s c #555050",
"`t c #555555",
"`u c #595959",
"`v c #654440",
"`w c #616161",
"`x c #656161",
"`y c #656561",
"`z c #696969",
"`A c #6d6d69",
"`B c #6d6d6d",
"`C c #71716d",
"`D c #75716d",
"`E c #717171",
"`F c #757171",
"`G c #757571",
"`H c #757575",
"`I c #797571",
"`J c #797575",
"`K c #797979",
"`L c #7d7d79",
"`M c #7d7d7d",
"`N c #850000",
"`O c #850404",
"`P c #890000",
"`Q c #890404",
"`R c #8d0000",
"`S c #8d0404",
"`T c #910000",
"`U c #910404",
"`V c #950000",
"`W c #950404",
"`X c #990404",
"`Y c #814040",
"`Z c #814444",
"`0 c #814848",
"`1 c #894848",
"`2 c #894c4c",
"`3 c #8d5550",
"`4 c #8d5555",
"`5 c #8d5959",
"`6 c #914c48",
"`7 c #995d5d",
"`8 c #817d7d",
".` c #a16d69",
".. c #81817d",
".# c #85817d",
".a c #818181",
".b c #858181",
".c c #858581",
".d c #858585",
".e c #898985",
".f c #898989",
".g c #8d8989",
".h c #8d8d89",
".i c #8d8d8d",
".j c #918d89",
".k c #91918d",
".l c #95918d",
".m c #919191",
".n c #959191",
".o c #959591",
".p c #959595",
".q c #999591",
".r c #9d9995",
".s c #999999",
".t c #9d9d9d",
".u c #a59995",
".v c #a1a19d",
".w c #a5a19d",
".x c #a1a1a1",
".y c #a5a5a1",
".z c #a5a5a5",
".A c #aaa5a1",
".B c #aaaaa5",
".C c #aeaaa5",
".D c #aaaaaa",
".E c #aeaeae",
".F c #b2aeaa",
".G c #b6b2ae",
".H c #b6b6ae",
".I c #b2b2b2",
".J c #b6b6b2",
".K c #b6b6b6",
".L c #bab6b2",
".M c #babab2",
".N c #babab6",
".O c #bebab6",
".P c #bebeb6",
".Q c #bababa",
".R c #bebeba",
".S c #bebebe",
".T c #c2beba",
".U c #c2c2ba",
".V c #c2c2be",
".W c #c6c2be",
".X c #c6c6be",
".Y c #c2c2c2",
".Z c #c6c6c6",
".0 c #cac6c2",
".1 c #cecac6",
".2 c #cecec6",
".3 c #cecece",
".4 c #d2ceca",
".5 c #d2d2ca",
".6 c None",
".7 c #d6d6d6",
".8 c #dedede",
"#` c #e2e2e2",
"#. c #e6e6e6",
"## c #eaeaea",
"#a c #f2f2f2",
"#b c #fafafa",
/* pixels */
".6.6.6.6.6.6.6.6.6.6.6.6.6.6.6.6.6.6.6.6.6.6.6.6.6.6.6.6.6.6.6.6.6.6.6.6",
".6.6.6.6.6.6.6.6.6.6.0.V.V.T.T.T.T.R.R.R.R.T.T.W.2.4.5.6.6.6.6.6.6.6.6.6",
".6.6.6.6.6.6.6.6.6.0.a`M`M`M`M`L`L`L`L`L`L`L`L`8.N.X.1.4.6.6.6.6.6.6.6.6",
".6.6.6.6.6.6.6.6.6.V`M`a`.`.`.`.`.`.`.`.`.`.`a`M.w.J.U.1.5.6.6.6.6.6.6.6",
".6.6.6.6.6.6.6.6.6.T`M`#`````````````````````#`K.h.v.H.X.4.6.6.6.6.6.6.6",
".6.6.6.6.6.6.6.6.6.T`M`a`.`.`.`.`.`.`.`.`.`.`a`K`L.k.C.U.2.6.6.6.6.6.6.6",
".6.6.6.6.6.6.6.6.5.T`M`b`#`#`#`#`#`#`#`#`#`#`b`K`G.e.y.T.1.5.6.6.6.6.6.6",
".6.6.6.6.6.6.6.6.5.R`M`o`a`a`a`a`a`a`a`a`a`a`o`K`E.c.w.R.1.5.6.6.6.6.6.6",
".6.6.6.6.6.6.6.6.5.R`M`q`n`n`n`n`n`n`n`n`n`n`q`K`C.c.w.P.1.5.6.6.6.6.6.6",
".6.6.6.6.6.6.6.6.5.R`M`t`p`p`p`p`p`p`p`p`p`p`t`K`C.c.w.P.1.5.6.6.6.6.6.6",
".6.6.6.6.6.6.6.6.5.R`8`u`r`r`r`r`r`r`r`r`r`r`u`M`C.c.w.P.1.5.6.6.6.6.6.6",
".6.6.6.6.6.6.6.6.5.R.a`w`u`u`u`u`u`u`u`u`u`u`w`M`C.c.w.P.1.5.6.6.6.6.6.6",
".6.6.6.6.6.6.6.6.5.R.a`z`w`w`w`w`w`w`w`w`w`w`z`M`C.#.u.P.1.5.6.6.6.6.6.6",
".6.6.6.6.6.6.6.6.5.R.a`B`z`z`z`z`z`z`z`z`z`z`B`M`C`6.`.O.1.5.6.6.6.6.6.6",
".6.6.6.6.6.6.6.6.5.R.a`H`E`E`E`E`E`E`E`E`E`E`H`M`Y`X`7.G.0.4.6.6.6.6.6.6",
".6.6.6.6.6.6.6.6.5.R.a`M`M`M`M`M`M`M`M`M`M`M`M`1`W`V`3.y.V.4.6.6.6.6.6.6",
".6.6.6.6.6.6.6.6.5.R.a.a.d.d.d.d.d.d.d.d.d.b`2`U`T`T`Z.o.R.4.6.6.6.6.6.6",
".6.6.6.6.6.6.6.6.5.R.a.f.i.i.i.i.i.i.i.i.i`4`S`R`R`R`m.j.O.4.6.6.6.6.6.6",
".6.6.6.6.6.6.6.6.5.R.a.m.p.p.p.p.p.p.p.p.p`5`Q`P`P`P`l.h.O.4.6.6.6.6.6.6",
".6.6.6.6.6.6.6.6.5.R.d.s.t.t.t.t.t.t.t.t.t.p`0`O`N`N`k.h.O.4.6.6.6.6.6.6",
".6.6.6.6.6.6.6.6.5.R.d.x.D.D.D.D.D.D.D.D.z.t.a`h`f`g`j.h.O.4.6.6.6.6.6.6",
".6.6.6.6.6.6.6.6.5.R.d.D.I.I.I.I.I.I.I.I.I.E.p`w`c`e`i.h.O.4.6.6.6.6.6.6",
".6.6.6.6.6.6.6.6.5.R.d.I.Q.Q.Q.Q.Q.Q.Q.Q.Q.Q.D`E`s`d`v.j.O.4.6.6.6.6.6.6",
".6.6.6.6.6.6.6.6.5.R.d.K.Y.Y.Y.Y.Y.Y.Y.Y.Y.Y.K`M`x`y`D.q.R.4.6.6.6.6.6.6",
".6.6.6.6.6.6.6.6.5.R.d.S.3.3.3.3.3.3.3.3.3.3.S.a`A`I.e.y.W.4.6.6.6.6.6.6",
".6.6.6.6.6.6.6.6.5.R.f.Z.7.7.7.7.7.7.7.7.7.7.Z.d`C...r.H.0.4.6.6.6.6.6.6",
".6.6.6.6.6.6.6.6.5.R.f.3.8.8.8.8.8.8.8.8.8.8.3.d`C.c.w.O.1.5.6.6.6.6.6.6",
".6.6.6.6.6.6.6.6.5.R.f.7#.#.#.#.#.#.#.#.#.#..7.d`C.c.w.P.1.5.6.6.6.6.6.6",
".6.6.6.6.6.6.6.6.5.R.f.8#a#a#a#a#a#a#a#a#a#a.8.d`C.c.w.P.1.5.6.6.6.6.6.6",
".6.6.6.6.6.6.6.6.5.R.f#`#b#b#b#b#b#b#b#b#b#b#`.d`C.c.w.P.1.5.6.6.6.6.6.6",
".6.6.6.6.6.6.6.6.5.R.f.7####################.7.d`F.c.w.R.1.5.6.6.6.6.6.6",
".6.6.6.6.6.6.6.6.5.W.n.m.i.f.e.d.d.d.d.d.d.d.d.a`G.e.A.T.1.5.6.6.6.6.6.6",
".6.6.6.6.6.6.6.6.6.2.T.C.l..`J`F`F`F`F`F`F`F`F`J...n.C.V.2.6.6.6.6.6.6.6",
".6.6.6.6.6.6.6.6.6.4.0.L.y.q.j.h.g.g.g.g.g.g.h.j.q.y.L.0.4.6.6.6.6.6.6.6",
".6.6.6.6.6.6.6.6.6.5.1.W.M.F.C.C.C.B.B.B.B.C.C.C.F.M.W.1.5.6.6.6.6.6.6.6",
".6.6.6.6.6.6.6.6.6.6.5.1.0.W.W.V.V.V.V.V.V.V.V.W.W.0.1.5.6.6.6.6.6.6.6.6"
};
