/* XPM */
static char *tlInspBC[] = {
/* width height num_colors chars_per_pixel */
"    18    18        6            1",
/* colors */
"` c #000000",
". c #000081",
"# c #008100",
"a c #00ff00",
"b c none",
"c c #ffffff",
/* pixels */
"bbbbbbbbbbbbbbbbbb",
"bbbbbbbbcbbcbbbbbb",
"bbbbbbbcabcabbbbbb",
"bbbbbbcaacaabbbbbb",
"bbbbbbb##b##bbbbbb",
"bbbbbbbb#bb#bbbbbb",
"bbbcbbbbbbbbbbbbbb",
"bbca#bbbbbbbbbbbbb",
"bcaa##bbbbbbbbbbb.",
"bbbcbbbbb``````b..",
"bbca#bbb`cccccc`..",
"bcaa##b`c`cccccc..",
"bbbbbb`c`c`ccccc..",
"bbbbb`c`c`c`ccc`..",
"bbbb`c`b`c`c```b..",
"bbbbb`bbb`c`bbbbb.",
"bbbbbbbbbb`bbbbbbb",
"bbbbbbbbbbbbbbbbbb"
};
