/* XPM */
static char *tlLoading[] = {
/* width height num_colors chars_per_pixel */
"    18    18       16            1",
/* colors */
"` c #000000",
". c #800000",
"# c #008000",
"a c None",
"b c #000080",
"c c #800080",
"d c #008080",
"e c #c0c0c0",
"f c #808080",
"g c #ff0000",
"h c #00ff00",
"i c #ffff00",
"j c #0000ff",
"k c #ff00ff",
"l c #00ffff",
"m c #ffffff",
/* pixels */
"aaaaaaaaaaaaaaaaaa",
"aaaaaaaaaaaaaaaaaa",
"aaa`aaaaaa```aaaaa",
"aaa`aaa`a`aaa`aaaa",
"aaa`aaa``aaaaa`aaa",
"aaa`aaa```aaaa`aaa",
"aaa`aaaaaaaaaa`aaa",
"a`````aaaaaaa`aaaa",
"aa```aaaaaaa`aaaaa",
"aaa`aaaaaaaaaaaaaa",
"aaaaaaaaaaaaaaaaaa",
"aaaa`````````````a",
"aaaa`mmmmm`mmmmm`a",
"aaaa`mmmmm`mmmmm`a",
"aaaa`mmmm```mmmm`a",
"aaaa`mmmmm`mmmmm`a",
"aaaa`````````````a",
"aaaaaaaaaaaaaaaaaa"
};
```````a",
"aaaaaaaaaaaaaaaaaa"
};
