/* XPM */
static char *Winprev[] = {
/* width height num_colors chars_per_pixel */
"    16    16       16            1",
/* colors */
"` c #000000",
". c #800000",
"# c #008000",
"a c None",
"b c #000080",
"c c #800080",
"d c #008080",
"e c #c0c0c0",
"f c #808080",
"g c #ff0000",
"h c #00ff00",
"i c #ffff00",
"j c #0000ff",
"k c #ff00ff",
"l c #00ffff",
"m c #ffffff",
/* pixels */
"eeeeeeeeeeeeeeee",
"eeeeeeebbbbbbbbb",
"eeeeeeebbbbbbbbb",
"eeeee`e`mmmmmmm`",
"eeee``e`mfffffm`",
"eee`l`e`mmmmmmm`",
"ee`ll```````ffm`",
"e`lllllllll`mmm`",
"`llllllllll`````",
"e`lllllllll`eeee",
"ee`ll```````eeee",
"eee`l`eeeeeeeeee",
"eeee``eeeeeeeeee",
"eeeee`eeeeeeeeee",
"eeeeeeeeeeeeeeee",
"eeeeeeeeeeeeeeee"
};
